<?xml version="1.0" encoding="UTF-8" standalone="no"?>
<!DOCTYPE svg PUBLIC "-//W3C//DTD SVG 1.1//EN" "http://www.w3.org/Graphics/SVG/1.1/DTD/svg11.dtd">
<svg width="100%" height="100%" viewBox="0 0 20 20" version="1.1" xmlns="http://www.w3.org/2000/svg" xmlns:xlink="http://www.w3.org/1999/xlink" xml:space="preserve" xmlns:serif="http://www.serif.com/" style="fill-rule:evenodd;clip-rule:evenodd;stroke-linejoin:round;stroke-miterlimit:2;">
    <g transform="matrix(1,0,0,1,-318,-4)">
        <g id="General_Reset_Normal" transform="matrix(1,0,0,1,270,2.70894e-13)">
            <g id="Transparent-BG" serif:id="Transparent BG" transform="matrix(1,0,0,1,48,4)">
                <rect x="0" y="0" width="20" height="20" style="fill:rgb(58,58,58);fill-opacity:0;"/>
            </g>
            <g transform="matrix(1.16206,0,0,1.16206,-322.678,-3.13342)">
                <path d="M328.45,9.233L324.757,13.454L328.45,17.526L328.45,14.537C328.45,14.537 330.664,14.215 330.681,16.558C330.706,19.966 325.869,20.768 325.869,20.768C330.267,20.742 332.753,19.777 332.753,16.341C332.753,10.812 328.45,12.162 328.45,12.162L328.45,9.233Z" style="fill:rgb(189,189,189);"/>
                <path d="M328.514,8.375L328.575,8.382L328.635,8.393L328.695,8.408L328.753,8.427L328.81,8.451L328.864,8.479L328.917,8.51L328.967,8.545L329.015,8.584L329.06,8.625L329.101,8.67L329.14,8.718L329.175,8.769L329.206,8.821L329.233,8.876L329.257,8.933L329.276,8.991L329.291,9.05L329.302,9.111L329.309,9.172L329.311,9.233L329.311,11.162L329.326,11.161L329.43,11.158L329.536,11.156L329.646,11.158L329.758,11.162L329.874,11.168L329.988,11.178L330.051,11.185L330.111,11.192L330.172,11.2L330.233,11.209L330.295,11.219L330.358,11.23L330.421,11.242L330.484,11.256L330.548,11.27L330.611,11.286L330.676,11.303L330.74,11.321L330.805,11.34L330.87,11.361L330.936,11.383L331.001,11.407L331.067,11.432L331.133,11.458L331.198,11.486L331.264,11.516L331.33,11.547L331.395,11.58L331.461,11.614L331.526,11.65L331.591,11.688L331.656,11.727L331.72,11.769L331.784,11.812L331.848,11.857L331.911,11.903L331.974,11.952L332.036,12.002L332.097,12.054L332.158,12.108L332.217,12.164L332.276,12.222L332.335,12.282L332.392,12.343L332.448,12.407L332.503,12.472L332.558,12.539L332.611,12.608L332.663,12.679L332.714,12.752L332.764,12.826L332.812,12.903L332.86,12.981L332.906,13.061L332.95,13.143L332.994,13.226L333.036,13.312L333.076,13.399L333.116,13.489L333.154,13.58L333.19,13.672L333.225,13.767L333.259,13.864L333.291,13.962L333.322,14.062L333.351,14.164L333.379,14.268L333.405,14.374L333.43,14.482L333.453,14.592L333.475,14.703L333.495,14.817L333.514,14.933L333.531,15.05L333.546,15.17L333.56,15.291L333.573,15.415L333.583,15.541L333.593,15.669L333.6,15.799L333.606,15.931L333.61,16.066L333.613,16.202L333.614,16.341L333.613,16.431L333.612,16.52L333.609,16.609L333.605,16.697L333.601,16.784L333.595,16.87L333.588,16.956L333.58,17.041L333.572,17.126L333.562,17.209L333.551,17.293L333.538,17.375L333.525,17.457L333.511,17.538L333.495,17.618L333.479,17.698L333.461,17.777L333.442,17.856L333.422,17.933L333.401,18.011L333.379,18.087L333.356,18.163L333.331,18.238L333.305,18.312L333.279,18.386L333.251,18.458L333.221,18.53L333.191,18.602L333.159,18.672L333.127,18.742L333.093,18.811L333.058,18.879L333.021,18.947L332.984,19.013L332.946,19.079L332.906,19.144L332.865,19.208L332.823,19.271L332.78,19.333L332.736,19.394L332.691,19.455L332.645,19.514L332.597,19.573L332.549,19.63L332.5,19.687L332.449,19.743L332.398,19.797L332.346,19.851L332.292,19.904L332.238,19.956L332.183,20.006L332.127,20.056L332.07,20.105L332.012,20.153L331.953,20.2L331.894,20.246L331.834,20.291L331.772,20.335L331.711,20.378L331.648,20.42L331.584,20.461L331.52,20.502L331.455,20.541L331.39,20.579L331.323,20.617L331.256,20.654L331.188,20.689L331.12,20.724L331.051,20.758L330.981,20.791L330.911,20.824L330.84,20.855L330.768,20.886L330.696,20.916L330.623,20.945L330.549,20.974L330.475,21.001L330.4,21.028L330.324,21.054L330.248,21.08L330.171,21.104L330.094,21.128L330.016,21.152L329.938,21.174L329.858,21.196L329.779,21.218L329.698,21.238L329.617,21.258L329.536,21.278L329.453,21.296L329.37,21.315L329.285,21.333L329.118,21.366L328.947,21.397L328.774,21.425L328.598,21.452L328.419,21.476L328.238,21.499L328.055,21.519L327.869,21.538L327.681,21.555L327.49,21.57L327.297,21.583L327.101,21.594L326.902,21.604L326.702,21.612L326.498,21.618L326.293,21.623L326.084,21.626L325.877,21.628L325.814,21.627L325.752,21.62L325.691,21.61L325.63,21.595L325.571,21.575L325.513,21.552L325.458,21.524L325.404,21.492L325.353,21.457L325.304,21.417L325.259,21.375L325.216,21.329L325.177,21.28L325.142,21.229L325.111,21.175L325.083,21.119L325.06,21.061L325.041,21.002L325.026,20.941L325.015,20.88L325.01,20.818L325.008,20.755L325.011,20.693L325.019,20.631L325.031,20.57L325.048,20.51L325.069,20.451L325.094,20.394L325.123,20.339L325.156,20.286L325.192,20.236L325.233,20.188L325.276,20.144L325.323,20.102L325.373,20.065L325.425,20.03L325.48,20L325.536,19.974L325.595,19.952L325.654,19.934L325.715,19.921L325.763,19.912L325.817,19.902L325.894,19.886L325.992,19.864L326.11,19.836L326.173,19.82L326.241,19.802L326.314,19.782L326.389,19.761L326.468,19.739L326.551,19.714L326.635,19.688L326.723,19.66L326.813,19.63L326.905,19.598L326.998,19.565L327.094,19.529L327.191,19.492L327.289,19.453L327.388,19.412L327.487,19.369L327.587,19.324L327.687,19.277L327.788,19.228L327.888,19.177L327.987,19.124L328.086,19.07L328.186,19.012L328.232,18.984L328.28,18.954L328.328,18.924L328.376,18.894L328.423,18.863L328.469,18.831L328.515,18.8L328.561,18.767L328.606,18.734L328.651,18.701L328.695,18.667L328.738,18.633L328.781,18.599L328.823,18.564L328.864,18.528L328.905,18.492L328.945,18.456L328.985,18.419L329.023,18.382L329.061,18.345L329.098,18.307L329.135,18.268L329.17,18.23L329.205,18.19L329.239,18.151L329.272,18.111L329.304,18.071L329.335,18.03L329.365,17.989L329.395,17.948L329.423,17.906L329.451,17.863L329.478,17.821L329.503,17.778L329.528,17.734L329.552,17.69L329.575,17.646L329.597,17.601L329.618,17.556L329.638,17.51L329.657,17.463L329.675,17.416L329.693,17.369L329.709,17.321L329.724,17.272L329.738,17.222L329.751,17.172L329.763,17.121L329.774,17.07L329.784,17.017L329.793,16.964L329.8,16.91L329.807,16.855L329.812,16.799L329.816,16.741L329.819,16.683L329.82,16.624L329.821,16.562L329.82,16.523L329.819,16.482L329.817,16.443L329.815,16.405L329.812,16.368L329.809,16.333L329.805,16.298L329.801,16.265L329.796,16.233L329.791,16.202L329.785,16.172L329.78,16.143L329.774,16.115L329.767,16.088L329.761,16.062L329.754,16.037L329.746,16.013L329.739,15.99L329.731,15.968L329.724,15.947L329.716,15.926L329.708,15.907L329.7,15.888L329.691,15.87L329.683,15.852L329.674,15.836L329.666,15.82L329.657,15.804L329.648,15.789L329.639,15.775L329.63,15.762L329.621,15.748L329.612,15.735L329.602,15.723L329.593,15.711L329.584,15.7L329.574,15.688L329.564,15.677L329.555,15.667L329.545,15.657L329.535,15.647L329.527,15.64L329.503,15.618L329.482,15.601L329.459,15.584L329.436,15.568L329.412,15.552L329.388,15.537L329.362,15.523L329.336,15.51L329.311,15.498L329.311,17.526L329.309,17.589L329.302,17.651L329.29,17.713L329.275,17.773L329.254,17.833L329.23,17.89L329.201,17.946L329.169,18L329.132,18.051L329.092,18.099L329.049,18.144L329.002,18.186L328.953,18.225L328.9,18.259L328.846,18.29L328.789,18.317L328.731,18.34L328.671,18.358L328.61,18.372L328.548,18.381L328.485,18.386L328.422,18.386L328.36,18.382L328.298,18.373L328.236,18.36L328.176,18.342L328.118,18.32L328.061,18.293L328.006,18.263L327.953,18.229L327.904,18.191L327.857,18.149L327.813,18.104L324.12,14.032L324.08,13.984L324.043,13.934L324.01,13.88L323.981,13.825L323.956,13.767L323.935,13.708L323.919,13.648L323.907,13.586L323.9,13.524L323.897,13.462L323.899,13.399L323.905,13.337L323.916,13.275L323.931,13.214L323.951,13.155L323.974,13.097L324.002,13.041L324.034,12.987L324.07,12.936L324.11,12.887L327.803,8.666L327.845,8.622L327.89,8.58L327.938,8.542L327.988,8.507L328.041,8.476L328.096,8.449L328.153,8.426L328.211,8.406L328.27,8.392L328.331,8.381L328.392,8.374L328.453,8.372L328.514,8.375ZM324.757,13.454L328.45,17.526L328.45,14.537L328.475,14.534L328.505,14.531L328.545,14.528L328.596,14.525L328.655,14.523L328.722,14.523L328.796,14.524L328.877,14.527L328.92,14.53L328.964,14.534L329.009,14.539L329.056,14.545L329.103,14.551L329.152,14.559L329.201,14.568L329.251,14.578L329.301,14.59L329.352,14.603L329.404,14.617L329.455,14.633L329.507,14.65L329.559,14.669L329.611,14.69L329.663,14.713L329.715,14.737L329.767,14.763L329.818,14.792L329.868,14.822L329.918,14.854L329.968,14.889L330.016,14.926L330.064,14.965L330.111,15.007L330.133,15.029L330.156,15.051L330.178,15.074L330.2,15.098L330.222,15.122L330.244,15.147L330.265,15.173L330.285,15.199L330.305,15.226L330.325,15.254L330.345,15.282L330.364,15.311L330.383,15.341L330.401,15.372L330.418,15.403L330.436,15.435L330.453,15.468L330.469,15.501L330.485,15.536L330.5,15.571L330.515,15.607L330.529,15.644L330.543,15.681L330.556,15.719L330.568,15.758L330.58,15.798L330.592,15.839L330.602,15.881L330.613,15.923L330.622,15.967L330.631,16.011L330.639,16.056L330.647,16.102L330.653,16.149L330.659,16.197L330.665,16.246L330.669,16.295L330.673,16.346L330.676,16.397L330.679,16.45L330.68,16.503L330.681,16.558L330.681,16.637L330.679,16.716L330.675,16.793L330.67,16.87L330.663,16.945L330.654,17.02L330.643,17.094L330.631,17.167L330.618,17.239L330.603,17.31L330.586,17.38L330.568,17.449L330.549,17.517L330.528,17.585L330.505,17.651L330.482,17.717L330.457,17.782L330.43,17.846L330.403,17.909L330.374,17.971L330.344,18.033L330.313,18.093L330.28,18.153L330.246,18.212L330.212,18.27L330.176,18.327L330.139,18.383L330.101,18.439L330.062,18.494L330.022,18.548L329.982,18.601L329.94,18.653L329.897,18.705L329.854,18.756L329.809,18.806L329.764,18.855L329.718,18.903L329.672,18.951L329.624,18.998L329.576,19.044L329.527,19.09L329.478,19.135L329.428,19.179L329.377,19.222L329.326,19.264L329.274,19.306L329.222,19.347L329.17,19.388L329.116,19.427L329.063,19.466L329.009,19.504L328.955,19.542L328.9,19.579L328.845,19.615L328.79,19.651L328.734,19.685L328.679,19.72L328.623,19.753L328.51,19.818L328.397,19.881L328.284,19.941L328.171,19.998L328.058,20.053L327.946,20.106L327.834,20.156L327.723,20.204L327.614,20.25L327.505,20.293L327.398,20.334L327.293,20.373L327.19,20.41L327.089,20.445L326.99,20.478L326.894,20.509L326.801,20.537L326.711,20.564L326.624,20.589L326.541,20.612L326.462,20.634L326.386,20.653L326.315,20.671L326.186,20.702L326.076,20.727L325.988,20.745L325.923,20.758L325.869,20.768L326.073,20.766L326.275,20.763L326.475,20.758L326.671,20.752L326.864,20.744L327.055,20.735L327.243,20.724L327.427,20.711L327.609,20.697L327.788,20.681L327.964,20.664L328.137,20.644L328.308,20.623L328.475,20.6L328.639,20.575L328.8,20.549L328.958,20.52L329.113,20.489L329.19,20.473L329.265,20.457L329.34,20.44L329.415,20.422L329.488,20.404L329.561,20.385L329.632,20.366L329.703,20.346L329.774,20.326L329.843,20.305L329.912,20.284L329.98,20.262L330.047,20.24L330.114,20.217L330.179,20.193L330.244,20.169L330.308,20.144L330.371,20.119L330.434,20.093L330.496,20.067L330.556,20.04L330.617,20.012L330.676,19.984L330.734,19.955L330.792,19.925L330.849,19.895L330.905,19.865L330.96,19.833L331.015,19.802L331.069,19.769L331.121,19.736L331.174,19.702L331.225,19.668L331.275,19.633L331.325,19.597L331.374,19.56L331.422,19.523L331.469,19.486L331.515,19.447L331.561,19.408L331.605,19.368L331.649,19.328L331.692,19.287L331.735,19.245L331.776,19.203L331.817,19.159L331.856,19.115L331.895,19.071L331.933,19.026L331.97,18.98L332.007,18.933L332.042,18.885L332.077,18.837L332.111,18.788L332.144,18.738L332.176,18.688L332.207,18.637L332.238,18.585L332.267,18.532L332.296,18.479L332.324,18.425L332.351,18.37L332.377,18.314L332.402,18.257L332.427,18.2L332.45,18.142L332.473,18.083L332.495,18.023L332.516,17.963L332.536,17.902L332.555,17.84L332.573,17.777L332.591,17.713L332.607,17.648L332.623,17.583L332.638,17.517L332.652,17.45L332.665,17.382L332.677,17.313L332.688,17.244L332.698,17.173L332.708,17.102L332.716,17.03L332.724,16.957L332.731,16.883L332.737,16.808L332.742,16.733L332.746,16.656L332.749,16.579L332.751,16.501L332.753,16.421L332.753,16.341L332.752,16.213L332.75,16.087L332.746,15.964L332.741,15.843L332.734,15.724L332.726,15.608L332.716,15.495L332.705,15.383L332.692,15.274L332.678,15.167L332.663,15.063L332.647,14.961L332.629,14.861L332.61,14.763L332.59,14.668L332.568,14.574L332.545,14.483L332.522,14.394L332.497,14.307L332.471,14.222L332.444,14.139L332.415,14.058L332.386,13.979L332.356,13.903L332.325,13.828L332.293,13.755L332.259,13.684L332.225,13.614L332.191,13.547L332.155,13.481L332.118,13.418L332.081,13.356L332.043,13.296L332.004,13.237L331.964,13.181L331.923,13.126L331.882,13.072L331.841,13.021L331.798,12.971L331.755,12.922L331.711,12.875L331.667,12.83L331.623,12.786L331.577,12.744L331.532,12.703L331.485,12.664L331.439,12.626L331.392,12.589L331.344,12.554L331.296,12.521L331.248,12.488L331.2,12.457L331.151,12.427L331.102,12.399L331.052,12.372L331.003,12.346L330.953,12.321L330.903,12.297L330.853,12.275L330.803,12.253L330.753,12.233L330.702,12.214L330.652,12.196L330.602,12.179L330.551,12.162L330.501,12.147L330.451,12.133L330.4,12.12L330.35,12.108L330.3,12.096L330.25,12.086L330.2,12.076L330.151,12.068L330.102,12.059L330.052,12.052L330.004,12.046L329.955,12.04L329.907,12.035L329.812,12.027L329.718,12.021L329.626,12.018L329.536,12.017L329.448,12.018L329.363,12.021L329.28,12.025L329.2,12.031L329.123,12.038L329.049,12.046L328.978,12.055L328.911,12.064L328.847,12.074L328.788,12.085L328.733,12.095L328.682,12.105L328.635,12.115L328.557,12.134L328.499,12.149L328.463,12.159L328.45,12.162L328.45,9.233L324.757,13.454Z" style="fill:rgb(58,58,58);"/>
            </g>
            <g transform="matrix(1,0,0,1.125,-270,-3.25)">
                <rect x="322" y="10" width="2" height="8" style="fill:rgb(189,189,189);"/>
                <path d="M324.058,9.113L324.116,9.117L324.174,9.125L324.231,9.135L324.287,9.148L324.342,9.165L324.396,9.184L324.449,9.206L324.5,9.23L324.55,9.257L324.597,9.287L324.643,9.319L324.686,9.353L324.727,9.39L324.766,9.429L324.802,9.469L324.835,9.512L324.866,9.556L324.894,9.601L324.918,9.648L324.94,9.696L324.958,9.745L324.973,9.795L324.985,9.846L324.993,9.897L324.998,9.948L325,10L325,18L324.998,18.052L324.993,18.103L324.985,18.154L324.973,18.205L324.958,18.255L324.94,18.304L324.918,18.352L324.894,18.399L324.866,18.444L324.835,18.488L324.802,18.531L324.766,18.571L324.727,18.61L324.686,18.647L324.643,18.681L324.597,18.713L324.55,18.743L324.5,18.77L324.449,18.794L324.396,18.816L324.342,18.835L324.287,18.852L324.231,18.865L324.174,18.875L324.116,18.883L324.058,18.887L324,18.889L322,18.889L321.942,18.887L321.884,18.883L321.826,18.875L321.769,18.865L321.713,18.852L321.658,18.835L321.604,18.816L321.551,18.794L321.5,18.77L321.45,18.743L321.403,18.713L321.357,18.681L321.314,18.647L321.273,18.61L321.234,18.571L321.198,18.531L321.165,18.488L321.134,18.444L321.106,18.399L321.082,18.352L321.06,18.304L321.042,18.255L321.027,18.205L321.015,18.154L321.007,18.103L321.002,18.052L321,18L321,10L321.002,9.948L321.007,9.897L321.015,9.846L321.027,9.795L321.042,9.745L321.06,9.696L321.082,9.648L321.106,9.601L321.134,9.556L321.165,9.512L321.198,9.469L321.234,9.429L321.273,9.39L321.314,9.353L321.357,9.319L321.403,9.287L321.45,9.257L321.5,9.23L321.551,9.206L321.604,9.184L321.658,9.165L321.713,9.148L321.769,9.135L321.826,9.125L321.884,9.117L321.942,9.113L322,9.111L324,9.111L324.058,9.113ZM322,10L322,18L324,18L324,10L322,10Z" style="fill:rgb(58,58,58);"/>
            </g>
        </g>
    </g>
</svg>
