<?xml version="1.0" encoding="UTF-8" standalone="no"?>
<!DOCTYPE svg PUBLIC "-//W3C//DTD SVG 1.1//EN" "http://www.w3.org/Graphics/SVG/1.1/DTD/svg11.dtd">
<svg width="100%" height="100%" viewBox="0 0 19 19" version="1.1" xmlns="http://www.w3.org/2000/svg" xmlns:xlink="http://www.w3.org/1999/xlink" xml:space="preserve" xmlns:serif="http://www.serif.com/" style="fill-rule:evenodd;clip-rule:evenodd;stroke-linejoin:round;stroke-miterlimit:2;">
    <g transform="matrix(1,0,0,1,-29,-4)">
        <g id="Filter_Unlink_Checked" transform="matrix(2.28048,0,0,3.27478,-298.674,-964.872)">
            <g transform="matrix(0.490092,0,0,0.341289,-26.8659,-49.1847)">
                <rect x="348" y="1011" width="17" height="17" style="fill-opacity:0;"/>
            </g>
            <g id="Unlink-Checked" serif:id="Unlink Checked" transform="matrix(1,0,0,1,-14.4706,-35.7275)">
                <g transform="matrix(0.438504,0,0,0.305364,116.937,254.023)">
                    <path d="M99.75,260L102.18,260L103,260.82L103,262L99.75,262C98.467,262 97.875,262.659 97.875,264.041C97.875,265.423 98.467,266 99.75,266L103,266L103,268L99.75,268C97.68,268 96,266.272 96,264.041C96,261.81 97.68,260 99.75,260ZM108.072,265.892L109.444,267.264C108.827,267.729 108.069,268 107.25,268L104,268L104,266L107.25,266C107.565,266 107.839,265.965 108.072,265.892ZM107.25,260C109.32,260 111,261.81 111,264.041C111,264.835 110.787,265.566 110.419,266.177L109.046,264.804C109.099,264.584 109.125,264.33 109.125,264.041C109.125,262.659 108.533,262 107.25,262L106.242,262L104.242,260L107.25,260ZM105.18,263L106,263.82L106,265L101,265L101,263L105.18,263ZM104,262L104,261.82L104.18,262L104,262Z" style="fill-rule:nonzero;"/>
                </g>
                <g transform="matrix(0.395396,0.275344,-0.309639,0.215626,287.94,50.4266)">
                    <rect x="350" y="860" width="14" height="1.77"/>
                </g>
            </g>
            <g id="Link-Icon" serif:id="Link Icon" transform="matrix(0.328878,0,0,0.246792,143.905,296.21)">
                <path d="M4.5,11C4.5,9.29 5.29,8.475 7,8.475L11.333,8.475L11.333,6L7,6C4.24,6 2,8.24 2,11C2,13.76 4.24,15.899 7,15.899L11.333,15.899L11.333,13.424L7,13.424C5.29,13.424 4.5,12.71 4.5,11ZM8.667,12.187L15.333,12.187L15.333,9.712L8.667,9.712L8.667,12.187ZM17,6L12.667,6L12.667,8.475L17,8.475C18.71,8.475 19.5,9.29 19.5,11C19.5,12.71 18.71,13.424 17,13.424L12.667,13.424L12.667,15.899L17,15.899C19.76,15.899 22,13.76 22,11C22,8.24 19.76,6 17,6Z" style="fill:none;fill-rule:nonzero;"/>
            </g>
        </g>
    </g>
</svg>
