<?xml version="1.0" encoding="UTF-8" standalone="no"?>
<!DOCTYPE svg PUBLIC "-//W3C//DTD SVG 1.1//EN" "http://www.w3.org/Graphics/SVG/1.1/DTD/svg11.dtd">
<svg width="100%" height="100%" viewBox="0 0 7 21" version="1.1" xmlns="http://www.w3.org/2000/svg" xmlns:xlink="http://www.w3.org/1999/xlink" xml:space="preserve" xmlns:serif="http://www.serif.com/" style="fill-rule:evenodd;clip-rule:evenodd;stroke-linejoin:round;stroke-miterlimit:1.41421;">
    <g transform="matrix(1,0,0,1,-12,-31)">
        <g id="State_nor_dis_21px">
            <g transform="matrix(1.4,0,0,1,-4.8,26)">
                <path d="M17,7.24C17,6.004 16.283,5 15.4,5L13.6,5C12.717,5 12,6.004 12,7.24L12,23.76C12,24.996 12.717,26 13.6,26L15.4,26C16.283,26 17,24.996 17,23.76L17,7.24Z" style="fill:rgb(161,161,161);"/>
            </g>
            <g transform="matrix(1,0,0,0.428571,1,29.8571)">
                <path d="M17,8.617C17,6.621 16.305,5 15.45,5L13.6,5C12.717,5 12,6.673 12,8.733L12,26L17,26L17,8.617Z" style="fill:rgb(186,186,186);"/>
            </g>
            <g transform="matrix(1,0,0,0.47619,1,38.619)">
                <path d="M17,5L12,5L12,21.8C12,24.118 12.896,26 14,26L15,26C16.104,26 17,24.118 17,21.8L17,5Z" style="fill:rgb(186,186,186);"/>
            </g>
            <g transform="matrix(1,0,0,-1,12,52)">
                <rect x="2" y="11" width="3" height="1" style="fill:rgb(161,161,161);"/>
            </g>
            <g transform="matrix(1,0,0,-1,12,46)">
                <rect x="2" y="11" width="3" height="1" style="fill:rgb(161,161,161);"/>
            </g>
            <g transform="matrix(1,0,0,-1,12,51)">
                <rect x="2" y="4" width="3" height="1" style="fill:rgb(161,161,161);"/>
            </g>
        </g>
    </g>
</svg>
