<?xml version="1.0" encoding="UTF-8" standalone="no"?>
<!DOCTYPE svg PUBLIC "-//W3C//DTD SVG 1.1//EN" "http://www.w3.org/Graphics/SVG/1.1/DTD/svg11.dtd">
<svg width="100%" height="100%" viewBox="0 0 19 19" version="1.1" xmlns="http://www.w3.org/2000/svg" xmlns:xlink="http://www.w3.org/1999/xlink" xml:space="preserve" xmlns:serif="http://www.serif.com/" style="fill-rule:evenodd;clip-rule:evenodd;stroke-linejoin:round;stroke-miterlimit:2;">
    <g transform="matrix(1,0,0,1,-53,-4)">
        <g id="Filter_MuteSolo_CheckedImplicit" transform="matrix(1,0,0,1,28,-1)">
            <g id="Base-Icon" serif:id="Base Icon">
                <g id="Transparent-BG" serif:id="Transparent BG" transform="matrix(0.95,0,0,0.95,25,5)">
                    <rect x="0" y="0" width="20" height="20" style="fill:white;fill-opacity:0;"/>
                </g>
                <g transform="matrix(1.15385,0,0,1.15385,-9.76923,-1.07692)">
                    <path d="M34.846,20L31,20L31,7L44,7L44,11.726L34.846,20Z" style="fill:rgb(58,58,58);"/>
                </g>
                <g transform="matrix(0.240479,0,0,0.243006,-126.596,-41.2547)">
                    <path d="M673.015,252.07L680.291,252.07C680.331,255.42 684.449,256.03 686.818,256.186C690.748,256.231 693.657,255.676 693.849,253.381C693.849,252.534 693.601,251.814 693.104,251.22C692.608,250.626 691.741,250.749 690.504,250.31C689.658,250.017 687.729,249.496 684.718,248.747C680.844,247.787 676.832,246.722 675.27,245.322C673.073,243.353 672.022,240.952 671.974,238.12C671.838,230.099 679.2,227.521 686.329,227.38C690.822,227.38 695.228,228.364 697.499,230.334C699.769,232.303 700.962,236.442 701.076,239.729L693.849,239.729C693.446,236.833 690.898,235.472 686.256,235.61C684.157,235.61 680.796,236.389 680.796,238.293C680.796,240.528 684.376,240.612 687.892,241.442C691.408,242.272 694.008,242.657 695.692,243.544C697.415,244.394 698.834,245.822 699.733,247.412C700.685,248.95 701.076,251.094 701.076,253.356C701.076,255.407 700.589,258.191 699.45,259.981C698.311,261.771 696.616,262.713 694.533,263.584C692.449,264.454 689.853,264.416 686.744,264.416C682.22,264.416 678.745,263.37 676.32,261.279C673.576,259.148 673.015,256.854 673.015,252.07Z" style="fill:rgb(189,189,189);"/>
                    <path d="M686.808,223.268L687.286,223.278L687.763,223.294L688.239,223.317L688.713,223.347L689.186,223.383L689.657,223.426L690.126,223.476L690.593,223.533L691.057,223.597L691.519,223.667L691.977,223.745L692.432,223.83L692.884,223.923L693.333,224.023L693.777,224.131L694.218,224.247L694.655,224.371L695.087,224.504L695.515,224.646L695.939,224.797L696.358,224.958L696.772,225.128L697.182,225.31L697.586,225.503L697.984,225.708L698.377,225.925L698.764,226.157L699.145,226.403L699.519,226.665L699.884,226.943L700.225,227.225L700.42,227.399L700.595,227.562L700.764,227.727L700.945,227.911L701.244,228.238L701.541,228.589L701.821,228.947L702.085,229.312L702.334,229.682L702.568,230.057L702.79,230.437L702.999,230.82L703.196,231.207L703.382,231.597L703.557,231.989L703.722,232.385L703.877,232.782L704.022,233.182L704.159,233.583L704.287,233.985L704.406,234.388L704.516,234.792L704.619,235.197L704.713,235.601L704.8,236.005L704.878,236.409L704.949,236.812L705.012,237.213L705.068,237.614L705.116,238.013L705.156,238.41L705.189,238.805L705.214,239.198L705.23,239.548L705.233,239.794L705.222,240.04L705.196,240.284L705.155,240.527L705.099,240.767L705.03,241.003L704.946,241.235L704.848,241.461L704.736,241.681L704.612,241.894L704.475,242.1L704.326,242.296L704.165,242.484L703.993,242.662L703.81,242.829L703.618,242.985L703.417,243.13L703.207,243.262L702.99,243.382L702.766,243.489L702.536,243.582L702.301,243.662L702.212,243.686L702.268,243.757L702.418,243.955L702.575,244.17L702.846,244.562L703.112,244.977L703.316,245.324L703.424,245.503L703.561,245.746L703.691,245.991L703.814,246.237L703.931,246.485L704.04,246.734L704.144,246.983L704.241,247.234L704.333,247.485L704.419,247.737L704.5,247.989L704.575,248.243L704.646,248.496L704.711,248.75L704.773,249.004L704.833,249.275L704.93,249.768L705.015,250.28L705.085,250.792L705.14,251.304L705.182,251.817L705.211,252.331L705.229,252.843L705.234,253.364L705.227,253.866L705.205,254.385L705.168,254.913L705.116,255.45L705.049,255.994L704.968,256.53L704.918,256.821L704.866,257.099L704.81,257.378L704.749,257.659L704.684,257.94L704.614,258.222L704.539,258.504L704.458,258.787L704.372,259.07L704.281,259.354L704.183,259.637L704.08,259.92L703.969,260.204L703.852,260.487L703.727,260.77L703.594,261.052L703.452,261.334L703.301,261.615L703.14,261.896L702.971,262.17L702.799,262.433L702.623,262.686L702.441,262.933L702.254,263.173L702.062,263.405L701.865,263.632L701.664,263.851L701.458,264.063L701.249,264.268L701.037,264.465L700.822,264.656L700.605,264.84L700.385,265.016L700.164,265.186L699.941,265.35L699.718,265.507L699.494,265.658L699.269,265.803L699.044,265.942L698.804,266.085L698.37,266.329L697.922,266.565L697.475,266.785L697.031,266.992L696.591,267.187L696.136,267.381L695.845,267.498L695.538,267.611L695.232,267.715L694.926,267.81L694.62,267.897L694.316,267.976L694.013,268.048L693.711,268.112L693.41,268.17L693.111,268.222L692.813,268.268L692.517,268.309L692.222,268.346L691.915,268.379L691.346,268.429L690.766,268.467L690.189,268.494L689.614,268.512L689.041,268.523L688.468,268.529L687.894,268.531L686.729,268.531L686.262,268.528L685.783,268.517L685.309,268.499L684.839,268.474L684.374,268.442L683.913,268.402L683.456,268.355L683.003,268.3L682.554,268.237L682.11,268.166L681.67,268.087L681.234,268L680.803,267.905L680.375,267.802L679.953,267.69L679.535,267.569L679.121,267.439L678.712,267.301L678.308,267.153L677.909,266.997L677.515,266.831L677.127,266.655L676.744,266.471L676.367,266.276L675.996,266.073L675.631,265.859L675.272,265.637L674.921,265.404L674.576,265.163L674.239,264.911L673.909,264.651L673.67,264.451L673.411,264.244L673.08,263.964L672.757,263.673L672.443,263.372L672.139,263.059L671.846,262.735L671.565,262.4L671.296,262.053L671.041,261.695L670.8,261.328L670.575,260.951L670.366,260.566L670.173,260.174L669.997,259.776L669.837,259.375L669.692,258.969L669.563,258.561L669.448,258.151L669.347,257.738L669.258,257.325L669.181,256.909L669.114,256.491L669.057,256.072L669.009,255.649L668.969,255.222L668.936,254.791L668.91,254.355L668.889,253.914L668.875,253.465L668.864,253.009L668.859,252.545L668.857,252.086L668.863,251.846L668.883,251.607L668.918,251.37L668.966,251.134L669.028,250.902L669.104,250.674L669.192,250.451L669.294,250.233L669.409,250.022L669.536,249.817L669.674,249.621L669.824,249.432L669.985,249.252L670.156,249.082L670.337,248.923L670.527,248.773L670.725,248.636L670.932,248.509L671.145,248.395L671.364,248.294L671.59,248.205L671.82,248.129L672.054,248.067L672.131,248.051L671.938,247.865L671.678,247.603L671.425,247.335L671.18,247.063L670.943,246.784L670.713,246.5L670.491,246.212L670.277,245.917L670.071,245.618L669.874,245.314L669.686,245.005L669.506,244.692L669.335,244.374L669.173,244.053L669.02,243.727L668.877,243.398L668.743,243.065L668.618,242.73L668.502,242.391L668.395,242.05L668.298,241.707L668.21,241.361L668.131,241.014L668.061,240.665L668.001,240.314L667.948,239.962L667.905,239.609L667.87,239.255L667.844,238.901L667.826,238.545L667.816,238.182L667.815,237.698L667.828,237.212L667.856,236.73L667.898,236.254L667.955,235.783L668.027,235.318L668.113,234.859L668.214,234.406L668.33,233.959L668.46,233.52L668.605,233.088L668.764,232.664L668.937,232.248L669.123,231.841L669.323,231.443L669.535,231.055L669.76,230.676L669.997,230.308L670.245,229.951L670.503,229.604L670.772,229.268L671.05,228.943L671.338,228.629L671.633,228.327L671.937,228.035L672.248,227.755L672.565,227.485L672.889,227.227L673.218,226.979L673.553,226.741L673.893,226.514L674.236,226.297L674.585,226.09L674.937,225.892L675.292,225.703L675.65,225.523L676.012,225.352L676.376,225.19L676.743,225.036L677.112,224.89L677.482,224.751L677.855,224.62L678.23,224.497L678.606,224.38L678.983,224.27L679.362,224.167L679.742,224.07L680.123,223.98L680.504,223.896L680.887,223.818L681.27,223.745L681.653,223.678L682.037,223.617L682.421,223.561L682.805,223.51L683.189,223.464L683.573,223.423L683.956,223.387L684.34,223.356L684.723,223.329L685.105,223.307L685.486,223.289L685.866,223.275L686.291,223.264L686.808,223.268ZM685.995,227.388L685.661,227.4L685.326,227.416L684.992,227.436L684.658,227.459L684.325,227.486L683.992,227.517L683.66,227.553L683.33,227.592L683,227.636L682.672,227.684L682.346,227.736L682.021,227.793L681.699,227.854L681.378,227.919L681.06,227.99L680.744,228.064L680.431,228.144L680.121,228.228L679.814,228.318L679.51,228.412L679.209,228.511L678.912,228.616L678.619,228.725L678.329,228.84L678.044,228.96L677.763,229.085L677.486,229.216L677.214,229.352L676.947,229.494L676.685,229.642L676.428,229.795L676.176,229.954L675.929,230.119L675.689,230.289L675.454,230.466L675.225,230.649L675.003,230.838L674.786,231.033L674.577,231.234L674.374,231.442L674.178,231.656L673.989,231.876L673.808,232.103L673.633,232.337L673.467,232.577L673.308,232.824L673.157,233.078L673.015,233.339L672.88,233.606L672.755,233.881L672.638,234.162L672.529,234.451L672.43,234.747L672.34,235.051L672.259,235.362L672.188,235.68L672.127,236.005L672.076,236.338L672.035,236.679L672.004,237.028L671.983,237.384L671.973,237.748L671.974,238.12L671.981,238.384L671.995,238.646L672.014,238.905L672.039,239.162L672.07,239.416L672.108,239.668L672.151,239.917L672.2,240.163L672.256,240.407L672.317,240.649L672.385,240.888L672.458,241.124L672.538,241.358L672.625,241.589L672.717,241.818L672.816,242.045L672.921,242.269L673.032,242.49L673.15,242.709L673.274,242.925L673.404,243.138L673.541,243.35L673.685,243.558L673.835,243.764L673.991,243.968L674.154,244.169L674.323,244.368L674.499,244.564L674.682,244.757L674.871,244.948L675.067,245.137L675.27,245.322L675.423,245.453L675.591,245.581L675.772,245.707L675.966,245.832L676.172,245.955L676.39,246.076L676.62,246.195L676.861,246.313L677.112,246.429L677.373,246.544L677.644,246.656L677.925,246.768L678.213,246.878L678.51,246.986L678.815,247.094L679.127,247.2L679.446,247.304L679.771,247.407L680.438,247.611L681.125,247.809L681.827,248.004L682.542,248.194L683.264,248.382L683.991,248.566L684.718,248.747L685.796,249.017L686.773,249.266L687.649,249.493L688.423,249.699L689.095,249.884L689.667,250.047L690.136,250.189L690.504,250.31L690.732,250.386L690.951,250.45L691.161,250.506L691.363,250.554L691.74,250.634L692.082,250.707L692.24,250.745L692.39,250.787L692.53,250.834L692.663,250.889L692.725,250.92L692.786,250.953L692.844,250.989L692.901,251.028L692.955,251.071L693.007,251.117L693.057,251.166L693.104,251.22L693.194,251.333L693.279,251.449L693.357,251.568L693.43,251.689L693.497,251.814L693.558,251.942L693.613,252.072L693.663,252.206L693.706,252.342L693.744,252.482L693.776,252.624L693.802,252.77L693.823,252.918L693.837,253.069L693.846,253.224L693.849,253.381L693.838,253.487L693.823,253.591L693.804,253.692L693.782,253.791L693.755,253.887L693.725,253.981L693.691,254.073L693.653,254.162L693.612,254.249L693.567,254.333L693.518,254.416L693.466,254.496L693.41,254.573L693.351,254.649L693.288,254.722L693.222,254.794L693.153,254.863L693.08,254.93L693.004,254.995L692.925,255.057L692.843,255.118L692.757,255.177L692.668,255.234L692.576,255.289L692.482,255.342L692.384,255.393L692.179,255.489L691.963,255.579L691.735,255.661L691.497,255.736L691.248,255.805L690.989,255.867L690.719,255.923L690.44,255.973L690.152,256.017L689.854,256.056L689.548,256.089L689.233,256.117L688.91,256.14L688.579,256.158L688.24,256.172L687.895,256.182L687.542,256.187L687.183,256.188L686.818,256.186L686.354,256.151L686.11,256.128L685.859,256.102L685.602,256.071L685.339,256.035L685.073,255.994L684.804,255.948L684.534,255.896L684.262,255.837L683.992,255.771L683.722,255.698L683.456,255.618L683.192,255.529L682.934,255.432L682.681,255.326L682.435,255.21L682.315,255.149L682.197,255.085L682.082,255.019L681.968,254.95L681.857,254.878L681.749,254.804L681.644,254.726L681.541,254.646L681.442,254.564L681.345,254.478L681.252,254.389L681.163,254.297L681.077,254.203L680.995,254.105L680.916,254.004L680.842,253.899L680.771,253.792L680.705,253.681L680.643,253.566L680.586,253.449L680.533,253.327L680.486,253.203L680.443,253.074L680.405,252.942L680.372,252.806L680.345,252.667L680.323,252.524L680.306,252.377L680.296,252.225L680.291,252.07L673.015,252.07L673.017,252.512L673.022,252.939L673.031,253.352L673.045,253.752L673.063,254.139L673.085,254.514L673.113,254.877L673.146,255.228L673.184,255.568L673.229,255.897L673.28,256.215L673.337,256.524L673.402,256.824L673.473,257.114L673.552,257.396L673.639,257.669L673.733,257.935L673.836,258.194L673.948,258.445L674.068,258.69L674.198,258.929L674.337,259.162L674.487,259.39L674.646,259.614L674.815,259.833L674.996,260.048L675.187,260.259L675.39,260.467L675.604,260.673L675.83,260.877L676.069,261.078L676.32,261.279L676.55,261.472L676.787,261.659L677.029,261.839L677.278,262.014L677.533,262.182L677.795,262.345L678.062,262.501L678.335,262.651L678.615,262.795L678.901,262.933L679.193,263.065L679.491,263.19L679.795,263.31L680.105,263.423L680.422,263.53L680.745,263.632L681.074,263.727L681.409,263.815L681.75,263.898L682.097,263.975L682.45,264.045L682.81,264.11L683.176,264.168L683.548,264.22L683.926,264.266L684.31,264.306L684.7,264.339L685.097,264.367L685.5,264.388L685.908,264.404L686.323,264.413L686.744,264.416L687.886,264.416L688.439,264.414L688.98,264.408L689.509,264.398L690.025,264.382L690.53,264.359L691.023,264.326L691.504,264.284L691.74,264.258L691.972,264.23L692.202,264.198L692.429,264.162L692.653,264.124L692.874,264.081L693.092,264.034L693.307,263.984L693.518,263.929L693.727,263.869L693.933,263.805L694.136,263.736L694.336,263.663L694.533,263.584L694.919,263.419L695.295,263.252L695.662,263.081L696.02,262.905L696.367,262.723L696.704,262.533L696.868,262.435L697.03,262.335L697.189,262.232L697.345,262.127L697.499,262.019L697.65,261.908L697.798,261.795L697.943,261.678L698.085,261.558L698.224,261.434L698.361,261.307L698.494,261.177L698.624,261.042L698.752,260.904L698.876,260.761L698.997,260.614L699.115,260.463L699.23,260.307L699.341,260.146L699.45,259.981L699.555,259.81L699.656,259.634L699.753,259.453L699.847,259.266L699.937,259.075L700.023,258.88L700.106,258.681L700.185,258.479L700.26,258.273L700.332,258.064L700.4,257.853L700.465,257.639L700.526,257.423L700.584,257.205L700.639,256.986L700.69,256.766L700.738,256.545L700.782,256.324L700.824,256.103L700.862,255.882L700.928,255.441L700.982,255.005L701.023,254.576L701.052,254.156L701.07,253.749L701.076,253.356L701.071,252.934L701.057,252.514L701.033,252.099L701,251.689L700.956,251.285L700.902,250.887L700.837,250.496L700.761,250.112L700.719,249.924L700.675,249.738L700.627,249.554L700.576,249.372L700.523,249.193L700.466,249.016L700.407,248.843L700.345,248.671L700.279,248.503L700.211,248.338L700.139,248.175L700.064,248.016L699.986,247.86L699.905,247.707L699.821,247.558L699.733,247.412L699.558,247.116L699.372,246.824L699.174,246.537L699.07,246.396L698.964,246.256L698.856,246.118L698.744,245.981L698.63,245.846L698.513,245.713L698.394,245.582L698.272,245.453L698.148,245.326L698.021,245.2L697.892,245.077L697.76,244.957L697.627,244.838L697.49,244.722L697.352,244.608L697.211,244.497L697.069,244.389L696.924,244.283L696.777,244.18L696.628,244.08L696.476,243.983L696.323,243.889L696.168,243.798L696.012,243.71L695.853,243.625L695.692,243.544L695.532,243.462L695.366,243.383L695.194,243.307L695.018,243.233L694.836,243.161L694.648,243.092L694.455,243.024L694.257,242.958L693.845,242.831L693.411,242.708L692.955,242.589L692.479,242.472L691.98,242.355L691.461,242.238L690.357,241.996L689.167,241.734L688.54,241.593L687.892,241.442L687.562,241.367L687.233,241.295L686.578,241.16L685.932,241.035L685.3,240.914L684.688,240.794L684.392,240.733L684.102,240.67L683.82,240.606L683.546,240.539L683.281,240.468L683.026,240.395L682.781,240.317L682.547,240.234L682.325,240.146L682.114,240.053L681.917,239.953L681.824,239.901L681.734,239.847L681.648,239.791L681.565,239.733L681.486,239.673L681.411,239.611L681.339,239.547L681.272,239.481L681.209,239.413L681.15,239.343L681.095,239.27L681.045,239.194L680.999,239.116L680.957,239.036L680.92,238.953L680.888,238.867L680.86,238.779L680.837,238.688L680.82,238.593L680.807,238.496L680.799,238.396L680.796,238.293L680.799,238.205L680.806,238.118L680.818,238.033L680.835,237.949L680.856,237.867L680.881,237.787L680.911,237.708L680.945,237.631L680.983,237.555L681.025,237.481L681.071,237.409L681.12,237.338L681.174,237.269L681.23,237.201L681.291,237.135L681.354,237.07L681.421,237.007L681.491,236.946L681.64,236.827L681.8,236.714L681.97,236.607L682.15,236.506L682.339,236.411L682.535,236.321L682.739,236.237L682.949,236.159L683.164,236.086L683.383,236.019L683.606,235.957L683.832,235.9L684.059,235.849L684.288,235.802L684.517,235.761L684.746,235.725L684.973,235.694L685.197,235.668L685.419,235.647L685.636,235.631L685.849,235.619L686.056,235.612L686.256,235.61L686.685,235.601L687.102,235.602L687.507,235.611L687.899,235.628L688.279,235.655L688.646,235.691L689.001,235.735L689.344,235.788L689.675,235.85L689.993,235.921L690.299,236L690.592,236.089L690.734,236.136L690.873,236.186L691.009,236.238L691.142,236.293L691.272,236.349L691.398,236.408L691.522,236.469L691.642,236.532L691.759,236.597L691.874,236.665L691.985,236.734L692.093,236.806L692.198,236.881L692.299,236.957L692.398,237.036L692.493,237.117L692.586,237.2L692.675,237.285L692.761,237.373L692.844,237.463L692.924,237.555L693.001,237.649L693.075,237.746L693.145,237.844L693.213,237.945L693.277,238.049L693.338,238.154L693.396,238.262L693.451,238.372L693.503,238.484L693.552,238.598L693.597,238.715L693.64,238.834L693.679,238.955L693.715,239.079L693.748,239.204L693.778,239.332L693.805,239.462L693.828,239.595L693.849,239.729L701.076,239.729L701.062,239.419L701.042,239.104L701.015,238.785L700.982,238.462L700.943,238.137L700.898,237.81L700.846,237.481L700.788,237.151L700.723,236.821L700.653,236.49L700.576,236.16L700.492,235.831L700.403,235.504L700.307,235.179L700.205,234.856L700.096,234.537L699.981,234.222L699.86,233.911L699.732,233.605L699.598,233.305L699.458,233.011L699.312,232.723L699.159,232.443L699,232.17L698.834,231.906L698.662,231.65L698.484,231.404L698.3,231.168L698.109,230.942L697.912,230.728L697.811,230.625L697.709,230.525L697.604,230.428L697.499,230.334L697.28,230.152L697.049,229.976L696.806,229.806L696.551,229.641L696.286,229.483L696.01,229.33L695.724,229.183L695.427,229.041L695.122,228.906L694.807,228.776L694.483,228.652L694.151,228.534L693.811,228.421L693.464,228.314L693.109,228.213L692.747,228.118L692.379,228.029L692.005,227.945L691.624,227.867L691.239,227.795L690.848,227.729L690.453,227.668L690.054,227.613L689.65,227.564L689.244,227.521L688.834,227.484L688.421,227.452L688.006,227.426L687.589,227.406L687.17,227.391L686.75,227.383L686.329,227.38L685.995,227.388Z" style="fill:rgb(58,58,58);"/>
                </g>
                <g transform="matrix(1,0,0,1,-4,1)">
                    <path d="M34,20L31,20L31,7L44,7L44,11L42.871,12.016C42.704,12.005 42.536,12 42.368,12C41.908,12.011 41.444,12.061 41,12.16L41,9L38.378,9L37,12L35.665,9L33,9L33,17L35,17L35,12L37.017,15L39,12L39,13.159C38.376,13.757 37.983,14.623 38.001,15.84C38.003,16.02 38.015,16.195 38.038,16.366L34,20Z" style="fill:rgb(189,189,189);"/>
                </g>
            </g>
            <g id="Star-Small" serif:id="Star Small" transform="matrix(0.628572,0,0,0.628572,-202.045,-24.82)">
                <g transform="matrix(1.02941,0,0,1.02941,-19.3005,-13.2943)">
                    <rect x="382" y="59" width="17" height="17" style="fill:white;fill-opacity:0;"/>
                </g>
                <g transform="matrix(1.59091,0,0,1.59091,-3294.7,-324.832)">
                    <path d="M2315,243L2312.96,239.535L2316,238.132L2316,238L2312.46,237.977L2311.59,235L2311.39,235L2310.6,238.003L2306.69,238.003L2309.41,239.535L2307.7,243.303L2311.49,241.132L2315,243Z" style="fill:rgb(46,46,46);"/>
                    <path d="M2311.65,234.002L2311.7,234.007L2311.76,234.015L2311.82,234.027L2311.88,234.042L2311.93,234.061L2311.99,234.082L2312.04,234.107L2312.09,234.135L2312.14,234.166L2312.19,234.199L2312.23,234.236L2312.28,234.275L2312.32,234.316L2312.36,234.36L2312.39,234.406L2312.43,234.454L2312.45,234.504L2312.48,234.555L2312.51,234.608L2312.53,234.663L2312.55,234.718L2313.21,236.982L2316.01,237L2316.07,237.002L2316.13,237.008L2316.19,237.017L2316.24,237.03L2316.3,237.047L2316.36,237.067L2316.41,237.09L2316.47,237.117L2316.52,237.146L2316.57,237.179L2316.62,237.215L2316.67,237.254L2316.71,237.295L2316.75,237.339L2316.79,237.385L2316.82,237.434L2316.86,237.485L2316.89,237.537L2316.91,237.591L2316.94,237.647L2316.95,237.704L2316.97,237.762L2316.98,237.82L2316.99,237.88L2317,237.94L2317,238L2317,238.132L2317,238.192L2316.99,238.252L2316.98,238.311L2316.97,238.369L2316.95,238.427L2316.94,238.484L2316.91,238.539L2316.89,238.593L2316.86,238.645L2316.83,238.696L2316.79,238.744L2316.75,238.79L2316.71,238.834L2316.67,238.876L2316.62,238.914L2316.58,238.95L2316.53,238.983L2316.47,239.013L2316.42,239.04L2314.39,239.98L2315.86,242.493L2315.89,242.546L2315.92,242.601L2315.94,242.657L2315.96,242.714L2315.97,242.772L2315.99,242.831L2315.99,242.891L2316,242.951L2316,243.011L2316,243.071L2315.99,243.131L2315.98,243.191L2315.97,243.25L2315.95,243.307L2315.93,243.364L2315.91,243.42L2315.88,243.474L2315.85,243.526L2315.82,243.576L2315.78,243.624L2315.74,243.67L2315.7,243.714L2315.66,243.755L2315.61,243.793L2315.56,243.828L2315.51,243.86L2315.46,243.889L2315.4,243.915L2315.35,243.938L2315.29,243.957L2315.23,243.973L2315.17,243.985L2315.11,243.994L2315.05,243.999L2314.99,244L2314.93,243.998L2314.87,243.992L2314.81,243.982L2314.75,243.969L2314.7,243.953L2314.64,243.933L2314.58,243.909L2314.53,243.883L2311.51,242.274L2308.19,244.171L2308.14,244.199L2308.08,244.224L2308.03,244.246L2307.97,244.264L2307.91,244.279L2307.85,244.29L2307.8,244.298L2307.74,244.302L2307.68,244.302L2307.62,244.299L2307.55,244.293L2307.5,244.283L2307.44,244.269L2307.38,244.252L2307.32,244.231L2307.27,244.208L2307.22,244.18L2307.16,244.15L2307.11,244.117L2307.07,244.081L2307.02,244.042L2306.98,244L2306.94,243.956L2306.9,243.909L2306.87,243.86L2306.83,243.81L2306.8,243.757L2306.78,243.703L2306.76,243.647L2306.74,243.591L2306.72,243.533L2306.71,243.474L2306.7,243.415L2306.7,243.355L2306.7,243.295L2306.7,243.235L2306.7,243.175L2306.71,243.116L2306.72,243.058L2306.74,243L2306.76,242.944L2306.78,242.888L2308.12,239.956L2306.2,238.874L2306.15,238.844L2306.1,238.81L2306.05,238.773L2306.01,238.734L2305.97,238.691L2305.93,238.647L2305.89,238.6L2305.86,238.551L2305.83,238.5L2305.8,238.447L2305.77,238.393L2305.75,238.338L2305.73,238.281L2305.72,238.223L2305.71,238.164L2305.7,238.105L2305.69,238.045L2305.69,237.986L2305.7,237.926L2305.7,237.867L2305.71,237.808L2305.73,237.75L2305.74,237.692L2305.76,237.636L2305.79,237.581L2305.81,237.528L2305.84,237.476L2305.88,237.426L2305.91,237.379L2305.95,237.333L2305.99,237.29L2306.04,237.249L2306.08,237.212L2306.13,237.176L2306.18,237.144L2306.23,237.115L2306.29,237.089L2306.34,237.067L2306.4,237.048L2306.46,237.032L2306.51,237.019L2306.57,237.01L2306.63,237.005L2306.69,237.003L2309.83,237.003L2310.43,234.744L2310.44,234.686L2310.46,234.63L2310.49,234.576L2310.51,234.522L2310.55,234.471L2310.58,234.421L2310.61,234.374L2310.65,234.328L2310.69,234.286L2310.74,234.245L2310.78,234.207L2310.83,234.172L2310.88,234.14L2310.93,234.112L2310.99,234.086L2311.04,234.063L2311.1,234.044L2311.16,234.028L2311.22,234.016L2311.28,234.007L2311.33,234.002L2311.39,234L2311.59,234L2311.65,234.002ZM2311.39,235L2310.6,238.003L2306.69,238.003L2309.41,239.535L2307.7,243.303L2311.49,241.132L2315,243L2312.96,239.535L2316,238.132L2316,238L2312.46,237.977L2311.59,235L2311.39,235Z" style="fill:rgb(46,46,46);"/>
                </g>
                <g transform="matrix(1.07692,0,0,1.07692,-41.0964,-15.0269)">
                    <path d="M393.5,58.97L394.943,63.92L400.57,63.92L395.674,66.182L398.681,71.301L393.5,68.352L388.34,71.301L391.326,66.182L386.409,63.92L392.176,63.92L393.5,58.97Z" style="fill:rgb(83,192,231);"/>
                </g>
            </g>
        </g>
    </g>
</svg>
