<?xml version="1.0" encoding="UTF-8" standalone="no"?>
<!DOCTYPE svg PUBLIC "-//W3C//DTD SVG 1.1//EN" "http://www.w3.org/Graphics/SVG/1.1/DTD/svg11.dtd">
<svg width="100%" height="100%" viewBox="0 0 20 20" version="1.1" xmlns="http://www.w3.org/2000/svg" xmlns:xlink="http://www.w3.org/1999/xlink" xml:space="preserve" xmlns:serif="http://www.serif.com/" style="fill-rule:evenodd;clip-rule:evenodd;stroke-linejoin:round;stroke-miterlimit:1.41421;">
    <g transform="matrix(1,0,0,1,-144,-4)">
        <g transform="matrix(0.75,0,0,0.75,-596.75,192.5)">
            <g id="Bypass_Checked_Disabled" transform="matrix(1.33333,0,0,1.33333,858.334,-254)">
                <g opacity="0.3">
                    <g transform="matrix(1.33333,0,0,1.33333,43.6665,-31.3333)">
                        <g id="Object-Icon-Base" serif:id="Object Icon Base">
                            <rect x="40" y="25" width="15" height="15" style="fill:rgb(34,34,34);fill-opacity:0;"/>
                        </g>
                    </g>
                    <g transform="matrix(1,0,0,1,100,5)">
                        <path d="M5.123,9L0,9L0,6L2.805,6C3.355,4.282 5.462,2.61 7.5,2.61C9.536,2.61 11.42,4.078 12.233,6L15,6L15,9L9.951,9C9.951,9 9.775,8.958 9.598,8.846C9.154,9.538 8.381,9.994 7.5,9.994C6.616,9.994 5.84,9.535 5.399,8.841C5.27,8.937 5.145,8.991 5.123,9ZM9,7.5C9,8.328 8.329,9 7.5,9C6.671,9 6,8.328 6,7.5C6,6.672 6.671,6 7.5,6C8.329,6 9,6.672 9,7.5ZM11.449,7C11.2,5.309 9.588,3.847 7.551,3.847C5.513,3.847 3.799,5.311 3.551,7L1,7L1,8L5,8C4.958,7.835 4.927,7.67 4.927,7.5C4.927,7.332 4.958,7.169 4.998,7.008L5,7C5.238,5.588 6.448,5 7.5,5C8.552,5 9.81,5.746 10,7C10.04,7.164 10.073,7.329 10.073,7.5C10.073,7.671 10.04,7.836 10,8L14,8L14,7L11.449,7Z" style="fill:none;"/>
                        <g transform="matrix(0.857143,0,0,0.857143,9,7.5)">
                            <path d="M0,0C0,0.966 -0.783,1.75 -1.75,1.75C-2.717,1.75 -3.5,0.966 -3.5,0C-3.5,-0.966 -2.717,-1.75 -1.75,-1.75C-0.783,-1.75 0,-0.966 0,0"/>
                        </g>
                        <g transform="matrix(1,0,0,1,-60,-5)">
                            <path d="M70,13C70.04,12.836 70.073,12.671 70.073,12.5C70.073,12.329 70.04,12.164 70,12C69.81,10.746 68.552,10 67.5,10C66.448,10 65.238,10.588 65,12L64.998,12.008C64.958,12.169 64.927,12.332 64.927,12.5C64.927,12.671 64.959,12.836 65,13L61,13L61,12L63.551,12C63.799,10.311 65.513,8.847 67.551,8.847C69.589,8.847 71.201,10.311 71.449,12L74,12L74,13L70,13Z"/>
                        </g>
                    </g>
                </g>
            </g>
        </g>
    </g>
</svg>
