<?xml version="1.0" encoding="UTF-8" standalone="no"?>
<!DOCTYPE svg PUBLIC "-//W3C//DTD SVG 1.1//EN" "http://www.w3.org/Graphics/SVG/1.1/DTD/svg11.dtd">
<svg width="100%" height="100%" viewBox="0 0 19 19" version="1.1" xmlns="http://www.w3.org/2000/svg" xmlns:xlink="http://www.w3.org/1999/xlink" xml:space="preserve" xmlns:serif="http://www.serif.com/" style="fill-rule:evenodd;clip-rule:evenodd;stroke-linejoin:round;stroke-miterlimit:2;">
    <g transform="matrix(1,0,0,1,-52,-4)">
        <g id="View3dToolbar_FrameFollowed_Normal" transform="matrix(2.28048,0,0,3.27478,-275.674,-964.872)">
            <g transform="matrix(0.490092,0,0,0.341289,-26.8659,-49.1847)">
                <rect x="348" y="1011" width="17" height="17" style="fill-opacity:0;"/>
            </g>
            <g id="Expand-Icon" serif:id="Expand Icon" transform="matrix(0.438504,0,0,0.305364,-400.497,246.389)">
                <g transform="matrix(0.625,0,0,0.625,1243,164)">
                    <rect x="0" y="0" width="24" height="24" style="fill:none;fill-rule:nonzero;"/>
                </g>
                <g transform="matrix(1,0,0,1,1239,160)">
                    <path d="M6,15L5,15L5,18L8,18L8,17L6,17L6,15ZM5,8L6,8L6,6L8,6L8,5L5,5L5,8ZM17,17L15,17L15,18L18,18L18,15L17,15L17,17ZM15,5L15,6L17,6L17,8L18,8L18,5L15,5Z" style="fill:rgb(189,189,189);fill-rule:nonzero;"/>
                    <path d="M7,16L8,16C8.552,16 9,16.448 9,17L9,18C9,18.552 8.552,19 8,19L5,19C4.448,19 4,18.552 4,18L4,15C4,14.448 4.448,14 5,14L6,14C6.552,14 7,14.448 7,15L7,16ZM16,16L16,15C16,14.448 16.448,14 17,14L18,14C18.552,14 19,14.448 19,15L19,18C19,18.552 18.552,19 18,19L15,19C14.448,19 14,18.552 14,18L14,17C14,16.448 14.448,16 15,16L16,16ZM6,15L5,15L5,18L8,18L8,17L6,17L6,15ZM17,17L15,17L15,18L18,18L18,15L17,15L17,17ZM7,7L7,8C7,8.552 6.552,9 6,9L5,9C4.448,9 4,8.552 4,8L4,5C4,4.448 4.448,4 5,4L8,4C8.552,4 9,4.448 9,5L9,6C9,6.552 8.552,7 8,7L7,7ZM16,7L15,7C14.448,7 14,6.552 14,6L14,5C14,4.448 14.448,4 15,4L18,4C18.552,4 19,4.448 19,5L19,8C19,8.552 18.552,9 18,9L17,9C16.448,9 16,8.552 16,8L16,7ZM5,8L6,8L6,6L8,6L8,5L5,5L5,8ZM15,5L15,6L17,6L17,8L18,8L18,5L15,5Z" style="fill:rgb(58,58,58);"/>
                </g>
                <g transform="matrix(3.4585e-17,-0.555556,0.384615,2.30116e-17,1209,1087.44)">
                    <path d="M1650.5,106.179L1644.68,115.231L1646,119.6L1655,119.6L1656.32,115.231L1650.5,106.179ZM1650.5,110L1655,117L1646,117L1650.5,110Z" style="fill:rgb(58,58,58);"/>
                    <path d="M1650.5,110L1655,117L1646,117L1650.5,110Z" style="fill:rgb(189,189,189);"/>
                </g>
                <g transform="matrix(0.4,0,0,0.375,601.4,129.25)">
                    <path d="M1626.5,107.36C1626.5,105.138 1624.81,103.333 1622.73,103.333C1622.73,103.333 1615.28,103.333 1615.28,103.333C1613.19,103.333 1611.5,105.138 1611.5,107.36C1611.5,107.36 1611.5,112.64 1611.5,112.64C1611.5,114.862 1613.19,116.667 1615.28,116.667C1615.28,116.667 1622.73,116.667 1622.73,116.667C1624.81,116.667 1626.5,114.862 1626.5,112.64L1626.5,107.36ZM1624,107.36C1624,106.609 1623.43,106 1622.73,106L1615.28,106C1614.57,106 1614,106.609 1614,107.36L1614,112.64C1614,113.391 1614.57,114 1615.28,114L1622.73,114C1623.43,114 1624,113.391 1624,112.64L1624,107.36Z" style="fill:rgb(58,58,58);"/>
                    <path d="M1624,107.36C1624,106.609 1623.43,106 1622.73,106L1615.28,106C1614.57,106 1614,106.609 1614,107.36L1614,112.64C1614,113.391 1614.57,114 1615.28,114L1622.73,114C1623.43,114 1624,113.391 1624,112.64L1624,107.36Z" style="fill:rgb(189,189,189);"/>
                </g>
                <g transform="matrix(0.1,0,0,0.125,1085.6,160.75)">
                    <path d="M1634,98L1604,98L1604,122L1634,122L1634,98ZM1624,106L1614,106L1614,114L1624,114L1624,106Z" style="fill:rgb(58,58,58);"/>
                    <rect x="1614" y="106" width="10" height="8" style="fill:rgb(189,189,189);"/>
                </g>
                <g transform="matrix(0.1,0,0,0.125,1087.6,160.75)">
                    <path d="M1634,98L1604,98L1604,122L1634,122L1634,98ZM1624,106L1614,106L1614,114L1624,114L1624,106Z" style="fill:rgb(58,58,58);"/>
                    <rect x="1614" y="106" width="10" height="8" style="fill:rgb(189,189,189);"/>
                </g>
                <g transform="matrix(0.1,0,0,0.125,1089.6,160.75)">
                    <path d="M1634,98L1604,98L1604,122L1634,122L1634,98ZM1624,106L1614,106L1614,114L1624,114L1624,106Z" style="fill:rgb(58,58,58);"/>
                    <rect x="1614" y="106" width="10" height="8" style="fill:rgb(189,189,189);"/>
                </g>
                <g id="ObjectIcons_GameObject_nor">
                </g>
            </g>
        </g>
    </g>
</svg>
