<?xml version="1.0" encoding="UTF-8" standalone="no"?>
<!DOCTYPE svg PUBLIC "-//W3C//DTD SVG 1.1//EN" "http://www.w3.org/Graphics/SVG/1.1/DTD/svg11.dtd">
<svg width="100%" height="100%" viewBox="0 0 20 20" version="1.1" xmlns="http://www.w3.org/2000/svg" xmlns:xlink="http://www.w3.org/1999/xlink" xml:space="preserve" xmlns:serif="http://www.serif.com/" style="fill-rule:evenodd;clip-rule:evenodd;stroke-linejoin:round;stroke-miterlimit:2;">
    <g transform="matrix(1,0,0,1,-318,-4)">
        <g id="General_Reset_Disabled" transform="matrix(1,0,0,1,270,2.70894e-13)">
            <g opacity="0.3">
                <g id="Transparent-BG" serif:id="Transparent BG" transform="matrix(1,0,0,1,48,4)">
                    <rect x="0" y="0" width="20" height="20" style="fill:rgb(205,205,205);fill-opacity:0;"/>
                </g>
                <g transform="matrix(1.16206,0,0,1.16206,-322.678,-3.13342)">
                    <path d="M328.45,9.233L324.757,13.454L328.45,17.526L328.45,14.537C328.45,14.537 330.664,14.215 330.681,16.558C330.706,19.966 325.869,20.768 325.869,20.768C330.267,20.742 333.027,19.047 333.027,16.42C333.027,10.891 328.45,12.162 328.45,12.162L328.45,9.233Z" style="fill:rgb(37,37,37);"/>
                    <path d="M328.514,8.375L328.575,8.382L328.635,8.393L328.695,8.408L328.753,8.427L328.81,8.451L328.864,8.479L328.917,8.51L328.967,8.545L329.015,8.584L329.06,8.625L329.101,8.67L329.14,8.718L329.175,8.769L329.206,8.821L329.233,8.876L329.257,8.933L329.276,8.991L329.291,9.05L329.302,9.111L329.309,9.172L329.311,9.233L329.311,11.18L329.401,11.177L329.509,11.176L329.62,11.176L329.734,11.18L329.851,11.185L329.971,11.194L330.091,11.206L330.155,11.213L330.218,11.221L330.281,11.23L330.345,11.24L330.409,11.251L330.474,11.263L330.539,11.276L330.605,11.29L330.671,11.305L330.737,11.322L330.804,11.339L330.871,11.358L330.938,11.378L331.006,11.4L331.073,11.422L331.141,11.446L331.209,11.472L331.277,11.499L331.345,11.527L331.414,11.557L331.482,11.589L331.55,11.622L331.618,11.657L331.685,11.693L331.753,11.731L331.82,11.771L331.887,11.812L331.954,11.856L332.02,11.901L332.086,11.947L332.151,11.996L332.216,12.047L332.28,12.099L332.343,12.153L332.406,12.209L332.468,12.267L332.529,12.327L332.589,12.389L332.648,12.453L332.707,12.518L332.764,12.586L332.82,12.655L332.875,12.727L332.929,12.8L332.982,12.875L333.033,12.952L333.083,13.031L333.132,13.112L333.18,13.194L333.226,13.279L333.27,13.365L333.314,13.453L333.356,13.543L333.396,13.635L333.435,13.729L333.473,13.825L333.508,13.922L333.543,14.022L333.576,14.123L333.607,14.226L333.637,14.331L333.665,14.438L333.691,14.547L333.716,14.658L333.739,14.77L333.761,14.885L333.781,15.001L333.799,15.12L333.816,15.241L333.831,15.363L333.844,15.488L333.856,15.615L333.865,15.743L333.873,15.874L333.88,16.007L333.884,16.143L333.887,16.28L333.888,16.42L333.887,16.495L333.885,16.57L333.882,16.646L333.878,16.72L333.872,16.795L333.865,16.869L333.857,16.943L333.848,17.017L333.837,17.09L333.825,17.163L333.812,17.236L333.798,17.308L333.782,17.38L333.766,17.452L333.748,17.523L333.728,17.593L333.708,17.664L333.686,17.733L333.663,17.803L333.639,17.872L333.614,17.94L333.587,18.008L333.559,18.075L333.531,18.142L333.501,18.209L333.469,18.274L333.437,18.339L333.404,18.404L333.369,18.468L333.333,18.532L333.297,18.595L333.259,18.657L333.22,18.719L333.18,18.779L333.139,18.84L333.097,18.9L333.054,18.959L333.01,19.017L332.965,19.075L332.919,19.132L332.872,19.189L332.824,19.245L332.775,19.3L332.725,19.354L332.674,19.408L332.622,19.461L332.57,19.514L332.516,19.566L332.462,19.617L332.406,19.668L332.35,19.717L332.293,19.766L332.235,19.815L332.177,19.863L332.117,19.91L332.057,19.956L331.996,20.002L331.934,20.047L331.871,20.092L331.807,20.136L331.743,20.179L331.678,20.221L331.612,20.263L331.545,20.304L331.478,20.345L331.41,20.385L331.341,20.424L331.271,20.462L331.201,20.5L331.13,20.538L331.058,20.574L330.985,20.61L330.912,20.646L330.838,20.68L330.763,20.714L330.688,20.748L330.612,20.781L330.535,20.813L330.457,20.844L330.379,20.875L330.3,20.906L330.221,20.935L330.141,20.964L330.06,20.993L329.978,21.021L329.896,21.048L329.813,21.074L329.73,21.1L329.645,21.126L329.56,21.15L329.475,21.174L329.389,21.198L329.302,21.221L329.214,21.243L329.126,21.264L329.037,21.285L328.948,21.306L328.858,21.326L328.767,21.345L328.676,21.363L328.584,21.381L328.492,21.398L328.398,21.415L328.305,21.431L328.21,21.446L328.115,21.461L328.019,21.475L327.923,21.489L327.826,21.502L327.729,21.514L327.631,21.526L327.531,21.537L327.333,21.557L327.131,21.575L326.928,21.59L326.721,21.603L326.513,21.613L326.302,21.621L326.089,21.626L325.879,21.628L325.816,21.627L325.754,21.621L325.693,21.61L325.632,21.595L325.573,21.576L325.515,21.552L325.459,21.525L325.405,21.493L325.354,21.458L325.305,21.418L325.26,21.376L325.217,21.33L325.178,21.281L325.143,21.23L325.111,21.176L325.084,21.12L325.06,21.062L325.041,21.003L325.026,20.942L325.016,20.881L325.01,20.819L325.008,20.756L325.011,20.694L325.019,20.632L325.031,20.571L325.047,20.511L325.068,20.452L325.093,20.395L325.122,20.339L325.155,20.286L325.192,20.236L325.232,20.188L325.276,20.144L325.323,20.103L325.373,20.065L325.425,20.031L325.479,20L325.536,19.974L325.594,19.952L325.654,19.934L325.715,19.921L325.763,19.912L325.817,19.902L325.894,19.886L325.992,19.864L326.11,19.836L326.173,19.82L326.241,19.802L326.314,19.782L326.389,19.761L326.468,19.739L326.551,19.714L326.635,19.688L326.723,19.66L326.813,19.63L326.905,19.598L326.998,19.565L327.094,19.529L327.191,19.492L327.289,19.453L327.388,19.412L327.487,19.369L327.587,19.324L327.687,19.277L327.788,19.228L327.888,19.177L327.987,19.124L328.086,19.07L328.186,19.012L328.232,18.984L328.28,18.954L328.328,18.924L328.376,18.894L328.423,18.863L328.469,18.831L328.515,18.8L328.561,18.767L328.606,18.734L328.651,18.701L328.695,18.667L328.738,18.633L328.781,18.599L328.823,18.564L328.864,18.528L328.905,18.492L328.945,18.456L328.985,18.419L329.023,18.382L329.061,18.345L329.098,18.307L329.135,18.268L329.17,18.23L329.205,18.19L329.239,18.151L329.272,18.111L329.304,18.071L329.335,18.03L329.365,17.989L329.395,17.948L329.423,17.906L329.451,17.863L329.478,17.821L329.503,17.778L329.528,17.734L329.552,17.69L329.575,17.646L329.597,17.601L329.618,17.556L329.638,17.51L329.657,17.463L329.675,17.416L329.693,17.369L329.709,17.321L329.724,17.272L329.738,17.222L329.751,17.172L329.763,17.121L329.774,17.07L329.784,17.017L329.793,16.964L329.8,16.91L329.807,16.855L329.812,16.799L329.816,16.741L329.819,16.683L329.82,16.624L329.821,16.562L329.82,16.523L329.819,16.482L329.817,16.443L329.815,16.405L329.812,16.368L329.809,16.333L329.805,16.298L329.801,16.265L329.796,16.233L329.791,16.202L329.785,16.172L329.78,16.143L329.774,16.115L329.767,16.088L329.761,16.062L329.754,16.037L329.746,16.013L329.739,15.99L329.731,15.968L329.724,15.947L329.716,15.926L329.708,15.907L329.7,15.888L329.691,15.87L329.683,15.852L329.674,15.836L329.666,15.82L329.657,15.804L329.648,15.789L329.639,15.775L329.63,15.762L329.621,15.748L329.612,15.735L329.602,15.723L329.593,15.711L329.584,15.7L329.574,15.688L329.564,15.677L329.555,15.667L329.545,15.657L329.535,15.647L329.527,15.64L329.503,15.618L329.482,15.601L329.459,15.584L329.436,15.568L329.412,15.552L329.388,15.537L329.362,15.523L329.336,15.51L329.311,15.498L329.311,17.526L329.309,17.589L329.302,17.651L329.29,17.713L329.275,17.773L329.254,17.833L329.23,17.89L329.201,17.946L329.169,18L329.132,18.051L329.092,18.099L329.049,18.144L329.002,18.186L328.953,18.225L328.9,18.259L328.846,18.29L328.789,18.317L328.731,18.34L328.671,18.358L328.61,18.372L328.548,18.381L328.485,18.386L328.422,18.386L328.36,18.382L328.298,18.373L328.236,18.36L328.176,18.342L328.118,18.32L328.061,18.293L328.006,18.263L327.953,18.229L327.904,18.191L327.857,18.149L327.813,18.104L324.12,14.032L324.08,13.984L324.043,13.934L324.01,13.88L323.981,13.825L323.956,13.767L323.935,13.708L323.919,13.648L323.907,13.586L323.9,13.524L323.897,13.462L323.899,13.399L323.905,13.337L323.916,13.275L323.931,13.214L323.951,13.155L323.974,13.097L324.002,13.041L324.034,12.987L324.07,12.936L324.11,12.887L327.803,8.666L327.845,8.622L327.89,8.58L327.938,8.542L327.988,8.507L328.041,8.476L328.096,8.449L328.153,8.426L328.211,8.406L328.27,8.392L328.331,8.381L328.392,8.374L328.453,8.372L328.514,8.375ZM324.757,13.454L328.45,17.526L328.45,14.537L328.475,14.534L328.505,14.531L328.545,14.528L328.596,14.525L328.655,14.523L328.722,14.523L328.796,14.524L328.877,14.527L328.92,14.53L328.964,14.534L329.009,14.539L329.056,14.545L329.103,14.551L329.152,14.559L329.201,14.568L329.251,14.578L329.301,14.59L329.352,14.603L329.404,14.617L329.455,14.633L329.507,14.65L329.559,14.669L329.611,14.69L329.663,14.713L329.715,14.737L329.767,14.763L329.818,14.792L329.868,14.822L329.918,14.854L329.968,14.889L330.016,14.926L330.064,14.965L330.111,15.007L330.133,15.029L330.156,15.051L330.178,15.074L330.2,15.098L330.222,15.122L330.244,15.147L330.265,15.173L330.285,15.199L330.305,15.226L330.325,15.254L330.345,15.282L330.364,15.311L330.383,15.341L330.401,15.372L330.418,15.403L330.436,15.435L330.453,15.468L330.469,15.501L330.485,15.536L330.5,15.571L330.515,15.607L330.529,15.644L330.543,15.681L330.556,15.719L330.568,15.758L330.58,15.798L330.592,15.839L330.602,15.881L330.613,15.923L330.622,15.967L330.631,16.011L330.639,16.056L330.647,16.102L330.653,16.149L330.659,16.197L330.665,16.246L330.669,16.295L330.673,16.346L330.676,16.397L330.679,16.45L330.68,16.503L330.681,16.558L330.681,16.637L330.679,16.716L330.675,16.793L330.67,16.87L330.663,16.945L330.654,17.02L330.643,17.094L330.631,17.167L330.618,17.239L330.603,17.31L330.586,17.38L330.568,17.449L330.549,17.517L330.528,17.585L330.505,17.651L330.482,17.717L330.457,17.782L330.43,17.846L330.403,17.909L330.374,17.971L330.344,18.033L330.313,18.093L330.28,18.153L330.246,18.212L330.212,18.27L330.176,18.327L330.139,18.383L330.101,18.439L330.062,18.494L330.022,18.548L329.982,18.601L329.94,18.653L329.897,18.705L329.854,18.756L329.809,18.806L329.764,18.855L329.718,18.903L329.672,18.951L329.624,18.998L329.576,19.044L329.527,19.09L329.478,19.135L329.428,19.179L329.377,19.222L329.326,19.264L329.274,19.306L329.222,19.347L329.17,19.388L329.116,19.427L329.063,19.466L329.009,19.504L328.955,19.542L328.9,19.579L328.845,19.615L328.79,19.651L328.734,19.685L328.679,19.72L328.623,19.753L328.51,19.818L328.397,19.881L328.284,19.941L328.171,19.998L328.058,20.053L327.946,20.106L327.834,20.156L327.723,20.204L327.614,20.25L327.505,20.293L327.398,20.334L327.293,20.373L327.19,20.41L327.089,20.445L326.99,20.478L326.894,20.509L326.801,20.537L326.711,20.564L326.624,20.589L326.541,20.612L326.462,20.634L326.386,20.653L326.315,20.671L326.186,20.702L326.076,20.727L325.988,20.745L325.923,20.758L325.869,20.768L326.074,20.765L326.276,20.761L326.476,20.753L326.674,20.744L326.869,20.732L327.062,20.717L327.252,20.701L327.439,20.681L327.532,20.671L327.624,20.66L327.715,20.649L327.806,20.636L327.896,20.624L327.986,20.61L328.075,20.597L328.163,20.582L328.25,20.567L328.337,20.552L328.423,20.536L328.508,20.519L328.593,20.502L328.677,20.484L328.76,20.466L328.843,20.447L328.925,20.428L329.006,20.408L329.086,20.387L329.166,20.366L329.245,20.345L329.324,20.323L329.401,20.3L329.478,20.277L329.554,20.254L329.63,20.229L329.704,20.205L329.778,20.18L329.852,20.154L329.924,20.128L329.996,20.101L330.067,20.074L330.137,20.046L330.206,20.018L330.275,19.989L330.343,19.959L330.41,19.93L330.477,19.899L330.542,19.869L330.607,19.837L330.671,19.806L330.734,19.773L330.797,19.74L330.859,19.707L330.919,19.673L330.98,19.639L331.039,19.605L331.097,19.569L331.155,19.534L331.212,19.498L331.268,19.461L331.323,19.424L331.378,19.386L331.432,19.348L331.484,19.31L331.536,19.271L331.587,19.232L331.638,19.192L331.687,19.151L331.736,19.111L331.784,19.07L331.831,19.028L331.877,18.986L331.922,18.943L331.966,18.9L332.01,18.857L332.053,18.813L332.094,18.769L332.135,18.724L332.175,18.679L332.215,18.633L332.253,18.587L332.29,18.541L332.327,18.494L332.362,18.447L332.397,18.399L332.431,18.351L332.464,18.302L332.496,18.253L332.527,18.204L332.557,18.154L332.587,18.104L332.615,18.053L332.643,18.002L332.669,17.951L332.695,17.899L332.72,17.847L332.743,17.794L332.766,17.741L332.788,17.688L332.809,17.634L332.829,17.58L332.848,17.526L332.867,17.471L332.884,17.415L332.9,17.36L332.915,17.304L332.93,17.247L332.943,17.19L332.955,17.133L332.967,17.076L332.977,17.018L332.987,16.96L332.995,16.901L333.003,16.842L333.009,16.783L333.015,16.723L333.019,16.663L333.023,16.603L333.025,16.542L333.027,16.481L333.027,16.42L333.026,16.291L333.024,16.165L333.02,16.042L333.014,15.921L333.007,15.802L332.998,15.686L332.988,15.572L332.976,15.461L332.962,15.351L332.948,15.244L332.932,15.14L332.914,15.037L332.895,14.937L332.875,14.839L332.853,14.743L332.831,14.649L332.806,14.558L332.781,14.468L332.755,14.381L332.727,14.295L332.698,14.212L332.668,14.13L332.637,14.051L332.605,13.974L332.572,13.898L332.537,13.825L332.502,13.753L332.466,13.683L332.429,13.615L332.391,13.549L332.352,13.485L332.312,13.422L332.271,13.361L332.23,13.302L332.188,13.245L332.145,13.189L332.101,13.135L332.057,13.082L332.011,13.032L331.966,12.982L331.919,12.935L331.872,12.889L331.825,12.844L331.777,12.801L331.728,12.759L331.679,12.719L331.629,12.68L331.579,12.643L331.529,12.607L331.478,12.572L331.426,12.539L331.375,12.507L331.323,12.477L331.271,12.447L331.218,12.419L331.166,12.392L331.113,12.366L331.06,12.342L331.006,12.318L330.953,12.296L330.9,12.275L330.846,12.255L330.792,12.236L330.739,12.218L330.685,12.201L330.631,12.185L330.578,12.17L330.524,12.156L330.471,12.142L330.418,12.13L330.365,12.119L330.312,12.108L330.259,12.098L330.207,12.09L330.155,12.081L330.103,12.074L330.051,12.067L330,12.061L329.898,12.052L329.799,12.044L329.701,12.04L329.605,12.037L329.512,12.036L329.421,12.037L329.333,12.04L329.248,12.045L329.165,12.05L329.087,12.057L329.012,12.064L328.94,12.073L328.873,12.082L328.809,12.091L328.751,12.1L328.696,12.109L328.647,12.119L328.563,12.136L328.502,12.149L328.463,12.159L328.45,12.162L328.45,9.233L324.757,13.454Z" style="fill:rgb(205,205,205);"/>
                </g>
                <g transform="matrix(1,0,0,1.125,-270,-3.25)">
                    <rect x="322" y="10" width="2" height="8" style="fill:rgb(37,37,37);"/>
                    <path d="M324.058,9.113L324.116,9.117L324.174,9.125L324.231,9.135L324.287,9.148L324.342,9.165L324.396,9.184L324.449,9.206L324.5,9.23L324.55,9.257L324.597,9.287L324.643,9.319L324.686,9.353L324.727,9.39L324.766,9.429L324.802,9.469L324.835,9.512L324.866,9.556L324.894,9.601L324.918,9.648L324.94,9.696L324.958,9.745L324.973,9.795L324.985,9.846L324.993,9.897L324.998,9.948L325,10L325,18L324.998,18.052L324.993,18.103L324.985,18.154L324.973,18.205L324.958,18.255L324.94,18.304L324.918,18.352L324.894,18.399L324.866,18.444L324.835,18.488L324.802,18.531L324.766,18.571L324.727,18.61L324.686,18.647L324.643,18.681L324.597,18.713L324.55,18.743L324.5,18.77L324.449,18.794L324.396,18.816L324.342,18.835L324.287,18.852L324.231,18.865L324.174,18.875L324.116,18.883L324.058,18.887L324,18.889L322,18.889L321.942,18.887L321.884,18.883L321.826,18.875L321.769,18.865L321.713,18.852L321.658,18.835L321.604,18.816L321.551,18.794L321.5,18.77L321.45,18.743L321.403,18.713L321.357,18.681L321.314,18.647L321.273,18.61L321.234,18.571L321.198,18.531L321.165,18.488L321.134,18.444L321.106,18.399L321.082,18.352L321.06,18.304L321.042,18.255L321.027,18.205L321.015,18.154L321.007,18.103L321.002,18.052L321,18L321,10L321.002,9.948L321.007,9.897L321.015,9.846L321.027,9.795L321.042,9.745L321.06,9.696L321.082,9.648L321.106,9.601L321.134,9.556L321.165,9.512L321.198,9.469L321.234,9.429L321.273,9.39L321.314,9.353L321.357,9.319L321.403,9.287L321.45,9.257L321.5,9.23L321.551,9.206L321.604,9.184L321.658,9.165L321.713,9.148L321.769,9.135L321.826,9.125L321.884,9.117L321.942,9.113L322,9.111L324,9.111L324.058,9.113ZM322,10L322,18L324,18L324,10L322,10Z" style="fill:rgb(205,205,205);"/>
                </g>
            </g>
        </g>
    </g>
</svg>
