<?xml version="1.0" encoding="UTF-8" standalone="no"?>
<!DOCTYPE svg PUBLIC "-//W3C//DTD SVG 1.1//EN" "http://www.w3.org/Graphics/SVG/1.1/DTD/svg11.dtd">
<svg width="100%" height="100%" viewBox="0 0 20 20" version="1.1" xmlns="http://www.w3.org/2000/svg" xmlns:xlink="http://www.w3.org/1999/xlink" xml:space="preserve" xmlns:serif="http://www.serif.com/" style="fill-rule:evenodd;clip-rule:evenodd;stroke-linejoin:round;stroke-miterlimit:2;">
    <g transform="matrix(1,0,0,1,-294,-4)">
        <g id="General_EyeWithDots_Disabled" transform="matrix(1,0,0,1,246,2.70894e-13)">
            <g opacity="0.3">
                <g id="Transparent-BG" serif:id="Transparent BG" transform="matrix(1,0,0,1,48,4)">
                    <rect x="0" y="0" width="20" height="20" style="fill:white;fill-opacity:0;"/>
                </g>
                <g id="Eye" transform="matrix(0.625,0,0,0.625,50,7)">
                    <rect id="Curve" x="0" y="0" width="24" height="24" style="fill:none;"/>
                    <g id="Curve1" serif:id="Curve" transform="matrix(0.945455,0,0,0.96,0.654545,0.48)">
                        <path d="M12,4.5C7,4.5 2.73,7.61 1,12C2.73,16.39 7,19.5 12,19.5C17,19.5 21.27,16.39 23,12C21.27,7.61 17,4.5 12,4.5Z" style="fill:rgb(37,37,37);"/>
                        <path d="M12.267,2.836L12.533,2.844L12.798,2.856L13.062,2.874L13.324,2.897L13.585,2.925L13.845,2.958L14.103,2.996L14.359,3.039L14.614,3.086L14.867,3.138L15.118,3.195L15.368,3.257L15.616,3.323L15.862,3.394L16.106,3.469L16.348,3.548L16.588,3.632L16.825,3.721L17.061,3.813L17.294,3.91L17.525,4.011L17.754,4.117L17.981,4.226L18.205,4.339L18.426,4.457L18.646,4.578L18.862,4.703L19.076,4.832L19.287,4.965L19.496,5.102L19.702,5.242L19.905,5.386L20.105,5.533L20.303,5.684L20.497,5.839L20.689,5.997L20.877,6.158L21.063,6.323L21.245,6.491L21.424,6.663L21.6,6.837L21.773,7.015L21.943,7.196L22.109,7.38L22.272,7.567L22.432,7.757L22.588,7.949L22.74,8.145L22.889,8.344L23.035,8.545L23.176,8.749L23.315,8.956L23.449,9.166L23.58,9.378L23.706,9.593L23.829,9.81L23.948,10.03L24.063,10.252L24.174,10.476L24.282,10.703L24.384,10.932L24.483,11.163L24.572,11.383L24.611,11.491L24.643,11.601L24.667,11.714L24.683,11.828L24.691,11.943L24.691,12.057L24.683,12.172L24.667,12.286L24.643,12.399L24.611,12.509L24.572,12.617L24.483,12.837L24.384,13.068L24.282,13.297L24.174,13.524L24.063,13.748L23.948,13.97L23.829,14.19L23.706,14.407L23.58,14.622L23.449,14.834L23.315,15.044L23.176,15.251L23.035,15.455L22.889,15.656L22.74,15.855L22.588,16.051L22.432,16.243L22.272,16.433L22.109,16.62L21.943,16.804L21.773,16.985L21.6,17.163L21.424,17.337L21.245,17.509L21.063,17.677L20.877,17.842L20.689,18.003L20.497,18.161L20.303,18.316L20.105,18.467L19.905,18.614L19.702,18.758L19.496,18.898L19.287,19.035L19.076,19.168L18.862,19.297L18.646,19.422L18.426,19.543L18.205,19.661L17.981,19.774L17.754,19.883L17.525,19.989L17.294,20.09L17.061,20.187L16.825,20.279L16.588,20.368L16.348,20.452L16.106,20.531L15.862,20.606L15.616,20.677L15.368,20.743L15.118,20.805L14.867,20.862L14.614,20.914L14.359,20.961L14.103,21.004L13.845,21.042L13.585,21.075L13.324,21.103L13.062,21.126L12.798,21.144L12.533,21.156L12.267,21.164L12,21.167L11.733,21.164L11.467,21.156L11.202,21.144L10.938,21.126L10.676,21.103L10.415,21.075L10.155,21.042L9.897,21.004L9.641,20.961L9.386,20.914L9.133,20.862L8.882,20.805L8.632,20.743L8.384,20.677L8.138,20.606L7.894,20.531L7.652,20.452L7.412,20.368L7.175,20.279L6.939,20.187L6.706,20.09L6.475,19.989L6.246,19.883L6.019,19.774L5.795,19.661L5.574,19.543L5.354,19.422L5.138,19.297L4.924,19.168L4.713,19.035L4.504,18.898L4.298,18.758L4.095,18.614L3.895,18.467L3.697,18.316L3.503,18.161L3.311,18.003L3.123,17.842L2.937,17.677L2.755,17.509L2.576,17.338L2.399,17.163L2.227,16.985L2.057,16.804L1.891,16.62L1.728,16.433L1.568,16.243L1.412,16.051L1.26,15.855L1.111,15.656L0.965,15.455L0.824,15.251L0.685,15.044L0.551,14.834L0.42,14.622L0.294,14.407L0.171,14.19L0.052,13.97L-0.063,13.748L-0.174,13.524L-0.282,13.297L-0.384,13.068L-0.483,12.837L-0.572,12.617L-0.611,12.509L-0.643,12.399L-0.667,12.286L-0.683,12.172L-0.691,12.057L-0.691,11.943L-0.683,11.828L-0.667,11.714L-0.643,11.601L-0.611,11.491L-0.572,11.383L-0.483,11.163L-0.384,10.932L-0.282,10.703L-0.174,10.476L-0.063,10.252L0.052,10.03L0.171,9.81L0.294,9.593L0.42,9.378L0.551,9.166L0.685,8.956L0.824,8.749L0.965,8.545L1.111,8.344L1.26,8.145L1.412,7.949L1.568,7.757L1.728,7.567L1.891,7.38L2.057,7.196L2.227,7.015L2.399,6.837L2.576,6.662L2.755,6.491L2.937,6.323L3.123,6.158L3.311,5.997L3.503,5.839L3.697,5.684L3.895,5.533L4.095,5.386L4.298,5.242L4.504,5.102L4.713,4.965L4.924,4.832L5.138,4.703L5.355,4.578L5.574,4.457L5.795,4.339L6.019,4.226L6.246,4.117L6.475,4.011L6.706,3.91L6.939,3.813L7.175,3.721L7.412,3.632L7.652,3.548L7.894,3.469L8.138,3.394L8.384,3.323L8.632,3.257L8.882,3.195L9.133,3.138L9.386,3.086L9.641,3.039L9.897,2.996L10.155,2.958L10.415,2.925L10.676,2.897L10.938,2.874L11.202,2.856L11.467,2.844L11.733,2.836L12,2.833L12.267,2.836ZM11.766,4.502L11.533,4.509L11.302,4.52L11.071,4.536L10.842,4.556L10.614,4.58L10.388,4.609L10.163,4.642L9.939,4.679L9.717,4.721L9.496,4.766L9.276,4.816L9.059,4.87L8.842,4.927L8.628,4.989L8.415,5.055L8.204,5.124L7.995,5.197L7.787,5.274L7.582,5.355L7.378,5.44L7.176,5.528L6.976,5.62L6.778,5.716L6.583,5.815L6.389,5.917L6.198,6.023L6.008,6.133L5.821,6.245L5.636,6.362L5.454,6.481L5.274,6.604L5.096,6.73L4.921,6.859L4.748,6.991L4.578,7.126L4.41,7.265L4.245,7.406L4.082,7.55L3.922,7.698L3.765,7.848L3.611,8.001L3.459,8.157L3.311,8.315L3.165,8.476L3.022,8.64L2.882,8.807L2.745,8.976L2.612,9.148L2.481,9.322L2.353,9.499L2.229,9.678L2.108,9.859L1.99,10.043L1.875,10.229L1.764,10.417L1.656,10.608L1.552,10.801L1.451,10.995L1.354,11.192L1.26,11.391L1.17,11.592L1.083,11.795L1,12L1.083,12.205L1.17,12.408L1.26,12.609L1.354,12.808L1.451,13.005L1.552,13.199L1.656,13.392L1.764,13.583L1.875,13.771L1.99,13.957L2.108,14.141L2.229,14.322L2.353,14.501L2.481,14.678L2.612,14.852L2.745,15.024L2.882,15.193L3.022,15.36L3.165,15.524L3.311,15.685L3.459,15.843L3.611,15.999L3.765,16.152L3.922,16.302L4.082,16.45L4.245,16.594L4.41,16.735L4.578,16.874L4.748,17.009L4.921,17.141L5.096,17.27L5.274,17.396L5.454,17.519L5.636,17.638L5.821,17.755L6.008,17.867L6.198,17.977L6.389,18.083L6.583,18.185L6.778,18.284L6.976,18.38L7.176,18.472L7.378,18.56L7.582,18.645L7.787,18.726L7.995,18.803L8.204,18.876L8.415,18.945L8.628,19.011L8.842,19.073L9.059,19.13L9.276,19.184L9.496,19.234L9.717,19.279L9.939,19.321L10.163,19.358L10.388,19.391L10.614,19.42L10.842,19.444L11.071,19.464L11.302,19.48L11.533,19.491L11.766,19.498L12,19.5L12.234,19.498L12.467,19.491L12.698,19.48L12.929,19.464L13.158,19.444L13.386,19.42L13.612,19.391L13.837,19.358L14.061,19.321L14.283,19.279L14.504,19.234L14.724,19.184L14.941,19.13L15.158,19.073L15.372,19.011L15.585,18.945L15.796,18.876L16.005,18.803L16.213,18.726L16.418,18.645L16.622,18.56L16.824,18.472L17.024,18.38L17.222,18.284L17.417,18.185L17.611,18.083L17.802,17.977L17.992,17.867L18.179,17.755L18.364,17.638L18.546,17.519L18.726,17.396L18.904,17.27L19.079,17.141L19.252,17.009L19.422,16.874L19.59,16.735L19.755,16.594L19.918,16.45L20.078,16.302L20.235,16.152L20.389,15.999L20.541,15.843L20.689,15.685L20.835,15.524L20.978,15.36L21.118,15.193L21.255,15.024L21.388,14.852L21.519,14.678L21.647,14.501L21.771,14.322L21.892,14.141L22.01,13.957L22.125,13.771L22.236,13.583L22.344,13.392L22.448,13.199L22.549,13.005L22.646,12.808L22.74,12.609L22.83,12.408L22.917,12.205L23,12L22.917,11.795L22.83,11.592L22.74,11.391L22.646,11.192L22.549,10.995L22.448,10.801L22.344,10.608L22.236,10.417L22.125,10.229L22.01,10.043L21.892,9.859L21.771,9.678L21.647,9.499L21.519,9.322L21.388,9.148L21.255,8.976L21.118,8.807L20.978,8.64L20.835,8.476L20.689,8.315L20.541,8.157L20.389,8.001L20.235,7.848L20.078,7.698L19.918,7.55L19.755,7.406L19.59,7.265L19.422,7.126L19.252,6.991L19.079,6.859L18.904,6.73L18.726,6.604L18.546,6.481L18.364,6.362L18.179,6.245L17.992,6.133L17.802,6.023L17.611,5.917L17.417,5.815L17.222,5.716L17.024,5.62L16.824,5.528L16.622,5.44L16.418,5.355L16.213,5.274L16.005,5.197L15.796,5.124L15.585,5.055L15.372,4.989L15.158,4.927L14.941,4.87L14.724,4.816L14.504,4.766L14.283,4.721L14.061,4.679L13.837,4.642L13.612,4.609L13.386,4.58L13.158,4.556L12.929,4.536L12.698,4.52L12.467,4.509L12.234,4.502L12,4.5L11.766,4.502Z" style="fill:rgb(205,205,205);"/>
                    </g>
                    <g id="Rectangle" transform="matrix(1.6,0,0,1.6,-2715.2,-217.6)">
                        <rect x="1709" y="150" width="1" height="1" style="fill:rgb(37,37,37);"/>
                    </g>
                    <g id="Rectangle1" serif:id="Rectangle" transform="matrix(1.6,0,0,1.6,-2712,-217.6)">
                        <rect x="1709" y="150" width="1" height="1" style="fill:rgb(37,37,37);"/>
                    </g>
                    <g id="Rectangle2" serif:id="Rectangle" transform="matrix(1.6,0,0,1.6,-2708.8,-217.6)">
                        <rect x="1709" y="150" width="1" height="1" style="fill:rgb(37,37,37);"/>
                    </g>
                    <g id="Ellipse" transform="matrix(3.19288,0,0,3.1855,-548.368,-31.0042)">
                        <circle cx="175.5" cy="13.5" r="1.5" style="fill:rgb(205,205,205);"/>
                    </g>
                    <g id="Ellipse1" serif:id="Ellipse" transform="matrix(1.94588,0,0,1.94588,-329.501,-14.2693)">
                        <circle cx="175.5" cy="13.5" r="1.5" style="fill:rgb(37,37,37);"/>
                    </g>
                </g>
            </g>
        </g>
    </g>
</svg>
