<?xml version="1.0" encoding="UTF-8" standalone="no"?>
<!DOCTYPE svg PUBLIC "-//W3C//DTD SVG 1.1//EN" "http://www.w3.org/Graphics/SVG/1.1/DTD/svg11.dtd">
<svg width="100%" height="100%" viewBox="0 0 17 17" version="1.1" xmlns="http://www.w3.org/2000/svg" xmlns:xlink="http://www.w3.org/1999/xlink" xml:space="preserve" xmlns:serif="http://www.serif.com/" style="fill-rule:evenodd;clip-rule:evenodd;stroke-linejoin:round;stroke-miterlimit:1.41421;">
    <g transform="matrix(1,0,0,1,-54,-15)">
        <g transform="matrix(1.25289,0,0,3.08455,288.463,321.484)">
            <g id="VoiceInspector_WireDot_Selected" transform="matrix(0.798157,0,0,0.324197,-488.044,-313.331)">
                <g transform="matrix(0.944444,0,0,1,326,645)">
                    <rect x="54" y="15" width="18" height="17" style="fill-opacity:0;"/>
                </g>
                <g transform="matrix(1.13333,0,0,1.13333,-273.533,-135.6)">
                    <circle cx="581.5" cy="709.5" r="7.5"/>
                </g>
                <g transform="matrix(0.866667,0,0,0.866667,-118.467,53.6)">
                    <circle cx="581.5" cy="709.5" r="7.5" style="fill:rgb(180,180,180);"/>
                </g>
                <g transform="matrix(1.44444,0,0,2.32603,-757.778,-1102.94)">
                    <path d="M795.308,761.988C795.296,761.736 795.065,761.613 794.615,761.617C794.615,761.617 794.019,761.617 793.923,761.617C791.904,761.6 792.655,759.903 789.451,759.897C789.211,759.896 788.385,759.897 788.385,759.897C787.908,759.9 787.703,760.058 787.692,760.327L787.692,761.071C787.726,761.347 787.942,761.501 788.385,761.501C788.663,761.501 789.276,761.52 789.486,761.553C791.309,761.837 790.523,763.212 793.923,763.221C794.132,763.221 794.727,763.221 794.727,763.221C795.059,763.212 795.249,763.091 795.308,762.866L795.308,761.988Z"/>
                </g>
                <g transform="matrix(1.18182,0,0,1.66096,-549.909,-596.499)">
                    <path d="M795.308,762.266C795.308,762.266 794.558,762.266 794.462,762.266C791.098,762.266 792.56,759.914 788.95,759.858C788.71,759.854 787.692,759.858 787.692,759.858L787.692,760.901C787.692,760.901 788.912,760.897 788.95,760.901C791.95,761.237 790.555,763.29 794.462,763.309C794.671,763.31 795.308,763.309 795.308,763.309L795.308,762.512L795.308,762.266Z" style="fill:white;"/>
                </g>
            </g>
        </g>
    </g>
</svg>
