<?xml version="1.0" encoding="UTF-8" standalone="no"?>
<!DOCTYPE svg PUBLIC "-//W3C//DTD SVG 1.1//EN" "http://www.w3.org/Graphics/SVG/1.1/DTD/svg11.dtd">
<svg width="100%" height="100%" viewBox="0 0 15 15" version="1.1" xmlns="http://www.w3.org/2000/svg" xmlns:xlink="http://www.w3.org/1999/xlink" xml:space="preserve" xmlns:serif="http://www.serif.com/" style="fill-rule:evenodd;clip-rule:evenodd;stroke-linejoin:round;stroke-miterlimit:1.41421;">
    <g transform="matrix(1,0,0,1,-44,-5)">
        <g transform="matrix(1,0,0,1,44,5)">
            <g id="VoiceInspector_Gain">
                <g id="Icons">
                    <g transform="matrix(1,0,0,1,-475,-741)">
                        <g id="Object-Icon-Base" serif:id="Object Icon Base">
                            <path d="M490,743.25C490,742.008 488.992,741 487.75,741L477.25,741C476.008,741 475,742.008 475,743.25L475,753.75C475,754.992 476.008,756 477.25,756L487.75,756C488.992,756 490,754.992 490,753.75L490,743.25Z" style="fill:rgb(75,75,75);"/>
                        </g>
                    </g>
                    <g transform="matrix(1,0,0,1,-1,-1)">
                        <path d="M13.75,14L1.25,14C1.112,14 1,13.888 1,13.75L1,13.25L1.001,13.241L1,13.223C1,12.795 1.348,12.099 1.777,11.67L11.943,1.504C12.114,1.333 12.271,1.231 12.399,1.197C12.564,1.073 12.768,1 12.989,1C13.535,1 13.978,1.443 13.978,1.989L13.978,13.011C13.978,13.052 13.976,13.093 13.97,13.134C13.989,13.168 14,13.208 14,13.25L14,13.75C14,13.887 13.89,13.998 13.75,14ZM13,13L13,2L10,5L10,13L13,13ZM5,13L5,10L2,13L5,13ZM9,13L9,6L6,9L6,13L9,13ZM11.943,3.057L12,3L12,2.997L11.943,3.057Z"/>
                    </g>
                    <g transform="matrix(-1.5,0,0,1.16667,5,5)">
                        <path d="M-2,6L0,6L0,2.571L-2,0L-2,6Z" style="fill:rgb(0,211,255);"/>
                    </g>
                    <g transform="matrix(-1.5,0,0,1.33333,1,8)">
                        <path d="M-2,3L0,3L-2,0.75L-2,3Z" style="fill:rgb(0,211,255);"/>
                    </g>
                    <g transform="matrix(-1.5,0,0,1.22222,9,1)">
                        <path d="M-2,9L0,9L0,2.455L-2,0L-2,9Z" style="fill:rgb(0,211,255);"/>
                    </g>
                    <g transform="matrix(1.14286,0,0,1.14286,-367.857,-6.71428)">
                        <path d="M335,13C334.952,12.345 334.585,12.049 334,12L331,12C329.017,12.025 328.003,12.642 328,14L328,17C328.015,18.303 328.942,19.004 331,19L333,19C334.177,18.968 334.933,18.413 335,17L335,13Z"/>
                    </g>
                    <g transform="matrix(0.70703,0,0,0.70703,-617.452,-180.514)">
                        <path d="M893.106,273.7C893.109,274.614 892.692,275.137 891.692,275.115C891.692,275.115 889.987,275.102 888.863,275.115C887.874,275.126 886.984,274.891 886.706,274.601C886.103,273.971 886.034,273.323 886.034,272.286C886.034,271.908 886.034,270.872 886.034,270.872C885.995,268.502 886.767,268.034 888.863,268.043L893.106,268.043L893.106,269.457L889.542,269.457C888.605,269.486 888.137,269.961 888.128,270.872L888.128,272.286C888.149,273.284 888.645,273.728 889.542,273.7L891.359,273.7C891.563,273.7 891.692,273.405 891.692,273.405L891.692,272.276L890.277,272.286L890.277,270.872L893.106,270.872L893.106,273.7Z" style="fill:rgb(0,211,255);"/>
                    </g>
                </g>
            </g>
        </g>
    </g>
</svg>
