<?xml version="1.0" encoding="UTF-8" standalone="no"?>
<!DOCTYPE svg PUBLIC "-//W3C//DTD SVG 1.1//EN" "http://www.w3.org/Graphics/SVG/1.1/DTD/svg11.dtd">
<svg width="100%" height="100%" viewBox="0 0 20 20" version="1.1" xmlns="http://www.w3.org/2000/svg" xmlns:xlink="http://www.w3.org/1999/xlink" xml:space="preserve" xmlns:serif="http://www.serif.com/" style="fill-rule:evenodd;clip-rule:evenodd;stroke-linejoin:round;stroke-miterlimit:2;">
    <g transform="matrix(1,0,0,1,-392,-4)">
        <g id="General_ActionsWithTriangle_Disabled" transform="matrix(1,0,0,1,344,2.70894e-13)">
            <g opacity="0.3">
                <g id="Transparent-BG" serif:id="Transparent BG" transform="matrix(1,0,0,1,48,4)">
                    <rect x="0" y="0" width="20" height="20" style="fill:white;fill-opacity:0;"/>
                </g>
                <g transform="matrix(1.73001,7.06216e-17,-7.06216e-17,-1.15334,-255.548,43.2201)">
                    <path d="M185,19L186,21L184,21L185,19Z" style="fill:rgb(37,37,37);"/>
                </g>
                <g transform="matrix(0.444444,0,0,1.33333,-615.556,-1232)">
                    <rect x="1511" y="936" width="9" height="3" style="fill:rgb(205,205,205);"/>
                </g>
                <g transform="matrix(0.222222,0,0,0.666667,-278.778,-607)">
                    <rect x="1511" y="936" width="9" height="3" style="fill:rgb(37,37,37);"/>
                </g>
                <g transform="matrix(0.444444,0,0,1.33333,-615.556,-1236)">
                    <rect x="1511" y="936" width="9" height="3" style="fill:rgb(205,205,205);"/>
                </g>
                <g transform="matrix(0.222222,0,0,0.666667,-278.778,-611)">
                    <rect x="1511" y="936" width="9" height="3" style="fill:rgb(37,37,37);"/>
                </g>
                <g transform="matrix(0.444444,0,0,1.33333,-615.556,-1240)">
                    <rect x="1511" y="936" width="9" height="3" style="fill:rgb(205,205,205);"/>
                </g>
                <g transform="matrix(0.222222,0,0,0.666667,-278.778,-615)">
                    <rect x="1511" y="936" width="9" height="3" style="fill:rgb(37,37,37);"/>
                </g>
                <g id="Actions">
                </g>
            </g>
        </g>
    </g>
</svg>
