<?xml version="1.0" encoding="UTF-8" standalone="no"?>
<!DOCTYPE svg PUBLIC "-//W3C//DTD SVG 1.1//EN" "http://www.w3.org/Graphics/SVG/1.1/DTD/svg11.dtd">
<svg width="100%" height="100%" viewBox="0 0 20 20" version="1.1" xmlns="http://www.w3.org/2000/svg" xmlns:xlink="http://www.w3.org/1999/xlink" xml:space="preserve" xmlns:serif="http://www.serif.com/" style="fill-rule:evenodd;clip-rule:evenodd;stroke-linejoin:round;stroke-miterlimit:2;">
    <g transform="matrix(1,0,0,1,-174,-4)">
        <g id="General_Save_Normal" transform="matrix(1,0,0,1,126,2.70894e-13)">
            <g id="Transparent-BG" serif:id="Transparent BG" transform="matrix(1,0,0,1,48,4)">
                <rect x="0" y="0" width="20" height="20" style="fill:rgb(58,58,58);fill-opacity:0;"/>
            </g>
            <g id="Save" transform="matrix(0.666667,0,0,0.666667,50,6)">
                <path d="M16.5,3L5,3C3.89,3 3,3.9 3,5L3,19C3,20.1 3.89,21 5,21L19,21C20.1,21 21,20.1 21,19L21,7.5L16.5,3ZM12,19.5C10.34,19.5 9,18.16 9,16.5C9,14.84 10.34,13.5 12,13.5C13.66,13.5 15,14.84 15,16.5C15,18.16 13.66,19.5 12,19.5ZM16.5,10.5L6,10.5L6,6L16.5,6L16.5,10.5Z" style="fill:rgb(189,189,189);fill-rule:nonzero;"/>
                <path d="M16.598,1.503L16.696,1.513L16.793,1.529L16.888,1.551L16.982,1.58L17.074,1.614L17.163,1.655L17.25,1.701L17.333,1.753L17.413,1.81L17.489,1.872L17.561,1.939L22.061,6.439L22.128,6.511L22.19,6.587L22.247,6.667L22.299,6.75L22.345,6.837L22.386,6.926L22.42,7.018L22.449,7.112L22.471,7.207L22.487,7.304L22.497,7.402L22.5,7.5L22.5,19.009L22.499,19.09L22.496,19.179L22.49,19.268L22.482,19.357L22.472,19.444L22.459,19.532L22.445,19.618L22.428,19.704L22.41,19.79L22.389,19.874L22.366,19.958L22.341,20.041L22.315,20.123L22.286,20.204L22.255,20.284L22.223,20.363L22.189,20.441L22.153,20.518L22.115,20.594L22.075,20.669L22.034,20.743L21.99,20.816L21.946,20.887L21.899,20.957L21.851,21.026L21.802,21.094L21.751,21.16L21.698,21.226L21.644,21.29L21.589,21.352L21.532,21.413L21.473,21.473L21.413,21.532L21.352,21.589L21.29,21.644L21.226,21.698L21.16,21.751L21.094,21.802L21.026,21.851L20.957,21.899L20.887,21.946L20.815,21.991L20.743,22.034L20.669,22.075L20.594,22.115L20.518,22.152L20.441,22.189L20.363,22.223L20.284,22.255L20.204,22.286L20.123,22.315L20.041,22.341L19.958,22.366L19.874,22.389L19.79,22.41L19.704,22.428L19.618,22.445L19.532,22.46L19.444,22.472L19.356,22.482L19.268,22.49L19.179,22.496L19.09,22.499L19.01,22.5L4.991,22.5L4.91,22.499L4.821,22.496L4.732,22.49L4.643,22.482L4.555,22.472L4.467,22.46L4.38,22.445L4.294,22.429L4.209,22.41L4.124,22.389L4.04,22.367L3.957,22.342L3.875,22.315L3.793,22.286L3.713,22.256L3.634,22.223L3.555,22.189L3.478,22.153L3.402,22.115L3.327,22.075L3.253,22.034L3.18,21.99L3.108,21.945L3.038,21.899L2.969,21.851L2.901,21.801L2.834,21.75L2.769,21.697L2.705,21.643L2.642,21.587L2.581,21.53L2.521,21.471L2.463,21.411L2.406,21.35L2.35,21.287L2.296,21.223L2.244,21.158L2.193,21.091L2.144,21.023L2.096,20.954L2.05,20.884L2.005,20.812L1.962,20.739L1.921,20.665L1.882,20.59L1.844,20.514L1.808,20.438L1.774,20.359L1.742,20.28L1.711,20.2L1.683,20.119L1.657,20.037L1.632,19.955L1.61,19.871L1.589,19.787L1.571,19.701L1.554,19.616L1.54,19.53L1.528,19.443L1.518,19.355L1.51,19.267L1.504,19.178L1.501,19.089L1.5,19.009L1.5,4.991L1.501,4.911L1.504,4.822L1.51,4.733L1.518,4.645L1.528,4.557L1.54,4.47L1.554,4.384L1.571,4.299L1.589,4.213L1.61,4.129L1.632,4.045L1.657,3.963L1.683,3.881L1.711,3.8L1.742,3.72L1.774,3.641L1.808,3.562L1.844,3.486L1.882,3.41L1.921,3.335L1.962,3.261L2.005,3.188L2.05,3.116L2.096,3.046L2.144,2.977L2.193,2.909L2.244,2.842L2.296,2.777L2.35,2.713L2.406,2.65L2.463,2.589L2.521,2.529L2.581,2.47L2.642,2.413L2.705,2.357L2.769,2.303L2.834,2.25L2.901,2.199L2.969,2.149L3.038,2.101L3.108,2.054L3.18,2.01L3.253,1.966L3.327,1.925L3.402,1.885L3.478,1.847L3.555,1.811L3.634,1.777L3.713,1.744L3.793,1.714L3.875,1.685L3.957,1.658L4.04,1.633L4.124,1.611L4.209,1.59L4.294,1.571L4.38,1.555L4.467,1.54L4.555,1.528L4.643,1.518L4.732,1.51L4.821,1.504L4.91,1.501L4.99,1.5L16.5,1.5L16.598,1.503ZM5,3L4.948,3.001L4.897,3.003L4.845,3.006L4.795,3.01L4.744,3.016L4.694,3.023L4.645,3.031L4.595,3.041L4.547,3.051L4.498,3.063L4.451,3.076L4.403,3.09L4.356,3.106L4.31,3.122L4.264,3.139L4.219,3.158L4.175,3.177L4.131,3.198L4.087,3.22L4.044,3.242L4.002,3.266L3.961,3.291L3.92,3.316L3.879,3.343L3.84,3.37L3.801,3.399L3.763,3.428L3.726,3.458L3.689,3.489L3.653,3.521L3.618,3.554L3.584,3.587L3.55,3.622L3.518,3.657L3.486,3.693L3.455,3.73L3.425,3.767L3.396,3.805L3.367,3.844L3.34,3.884L3.314,3.924L3.288,3.965L3.264,4.007L3.24,4.049L3.218,4.092L3.196,4.135L3.176,4.179L3.156,4.223L3.138,4.269L3.121,4.314L3.105,4.36L3.089,4.407L3.075,4.454L3.063,4.502L3.051,4.55L3.04,4.598L3.031,4.647L3.023,4.696L3.016,4.746L3.01,4.796L3.006,4.847L3.003,4.897L3.001,4.949L3,5L3,19L3.001,19.051L3.003,19.103L3.006,19.153L3.01,19.204L3.016,19.254L3.023,19.304L3.031,19.353L3.04,19.402L3.051,19.45L3.063,19.498L3.075,19.546L3.089,19.593L3.105,19.64L3.121,19.686L3.138,19.731L3.156,19.777L3.176,19.821L3.196,19.865L3.218,19.908L3.24,19.951L3.264,19.993L3.288,20.035L3.314,20.076L3.34,20.116L3.367,20.156L3.396,20.195L3.425,20.233L3.455,20.27L3.486,20.307L3.518,20.343L3.55,20.378L3.584,20.412L3.618,20.446L3.653,20.479L3.689,20.511L3.726,20.542L3.763,20.572L3.801,20.601L3.84,20.63L3.879,20.657L3.92,20.684L3.961,20.709L4.002,20.734L4.044,20.758L4.087,20.78L4.131,20.802L4.175,20.823L4.219,20.842L4.264,20.861L4.31,20.878L4.356,20.894L4.403,20.91L4.451,20.924L4.498,20.937L4.547,20.949L4.595,20.959L4.645,20.969L4.694,20.977L4.744,20.984L4.795,20.99L4.845,20.994L4.897,20.997L4.948,20.999L5,21L19,21L19.051,20.999L19.103,20.997L19.153,20.994L19.204,20.99L19.254,20.984L19.304,20.977L19.353,20.969L19.402,20.959L19.45,20.949L19.498,20.937L19.546,20.924L19.593,20.91L19.64,20.894L19.686,20.878L19.731,20.861L19.777,20.842L19.821,20.823L19.865,20.802L19.908,20.78L19.951,20.758L19.993,20.734L20.035,20.709L20.076,20.684L20.116,20.657L20.156,20.63L20.195,20.601L20.233,20.572L20.27,20.542L20.307,20.511L20.343,20.479L20.378,20.446L20.413,20.412L20.446,20.378L20.479,20.343L20.511,20.307L20.542,20.27L20.572,20.233L20.601,20.195L20.63,20.156L20.657,20.116L20.684,20.076L20.709,20.035L20.734,19.993L20.758,19.951L20.78,19.908L20.802,19.865L20.823,19.821L20.842,19.777L20.861,19.731L20.878,19.686L20.894,19.64L20.91,19.593L20.924,19.546L20.937,19.498L20.949,19.45L20.959,19.402L20.969,19.353L20.977,19.304L20.984,19.254L20.99,19.204L20.994,19.153L20.997,19.103L20.999,19.051L21,19L21,7.5L16.5,3L5,3ZM12.078,13.501L12.155,13.504L12.231,13.509L12.307,13.515L12.383,13.524L12.458,13.534L12.532,13.547L12.606,13.561L12.678,13.577L12.751,13.594L12.822,13.614L12.893,13.635L12.963,13.657L13.033,13.682L13.101,13.708L13.169,13.735L13.236,13.765L13.302,13.795L13.367,13.828L13.431,13.861L13.495,13.897L13.557,13.934L13.618,13.972L13.679,14.012L13.738,14.053L13.796,14.095L13.853,14.139L13.91,14.184L13.965,14.23L14.018,14.278L14.071,14.327L14.122,14.378L14.173,14.429L14.222,14.482L14.27,14.535L14.316,14.59L14.361,14.647L14.405,14.704L14.447,14.762L14.488,14.821L14.528,14.882L14.566,14.943L14.603,15.005L14.639,15.069L14.672,15.133L14.705,15.198L14.735,15.264L14.765,15.331L14.792,15.399L14.818,15.467L14.843,15.537L14.865,15.607L14.886,15.678L14.906,15.749L14.923,15.822L14.939,15.894L14.953,15.968L14.966,16.042L14.976,16.117L14.985,16.193L14.991,16.269L14.996,16.345L14.999,16.422L15,16.5L14.999,16.578L14.996,16.655L14.991,16.731L14.985,16.807L14.976,16.883L14.966,16.958L14.953,17.032L14.939,17.106L14.923,17.178L14.906,17.251L14.886,17.322L14.865,17.393L14.843,17.463L14.818,17.533L14.792,17.601L14.765,17.669L14.735,17.736L14.705,17.802L14.672,17.867L14.639,17.931L14.603,17.995L14.566,18.057L14.528,18.118L14.488,18.179L14.447,18.238L14.405,18.296L14.361,18.353L14.316,18.41L14.27,18.465L14.222,18.518L14.173,18.571L14.122,18.623L14.071,18.673L14.018,18.722L13.965,18.77L13.91,18.816L13.853,18.861L13.796,18.905L13.738,18.947L13.679,18.988L13.618,19.028L13.557,19.066L13.495,19.103L13.431,19.139L13.367,19.172L13.302,19.205L13.236,19.235L13.169,19.265L13.101,19.292L13.033,19.318L12.963,19.343L12.893,19.365L12.822,19.386L12.751,19.406L12.678,19.423L12.606,19.439L12.532,19.453L12.458,19.466L12.383,19.476L12.307,19.485L12.231,19.491L12.155,19.496L12.078,19.499L12,19.5L11.922,19.499L11.845,19.496L11.769,19.491L11.693,19.485L11.617,19.476L11.542,19.466L11.468,19.453L11.394,19.439L11.322,19.423L11.249,19.406L11.178,19.386L11.107,19.365L11.037,19.343L10.967,19.318L10.899,19.292L10.831,19.265L10.764,19.235L10.698,19.205L10.633,19.172L10.569,19.139L10.505,19.103L10.443,19.066L10.382,19.028L10.321,18.988L10.262,18.947L10.204,18.905L10.147,18.861L10.09,18.816L10.035,18.77L9.982,18.722L9.929,18.673L9.877,18.623L9.827,18.571L9.778,18.518L9.73,18.465L9.684,18.41L9.639,18.353L9.595,18.296L9.553,18.238L9.512,18.179L9.472,18.118L9.434,18.057L9.397,17.995L9.361,17.931L9.328,17.867L9.295,17.802L9.265,17.736L9.235,17.669L9.208,17.601L9.182,17.533L9.157,17.463L9.135,17.393L9.114,17.322L9.094,17.251L9.077,17.178L9.061,17.106L9.047,17.032L9.034,16.958L9.024,16.883L9.015,16.807L9.009,16.731L9.004,16.655L9.001,16.578L9,16.5L9.001,16.422L9.004,16.345L9.009,16.269L9.015,16.193L9.024,16.117L9.034,16.042L9.047,15.968L9.061,15.894L9.077,15.822L9.094,15.749L9.114,15.678L9.135,15.607L9.157,15.537L9.182,15.467L9.208,15.399L9.235,15.331L9.265,15.264L9.295,15.198L9.328,15.133L9.361,15.069L9.397,15.005L9.434,14.943L9.472,14.882L9.512,14.821L9.553,14.762L9.595,14.704L9.639,14.647L9.684,14.59L9.73,14.535L9.778,14.482L9.827,14.429L9.877,14.378L9.929,14.327L9.982,14.278L10.035,14.23L10.09,14.184L10.147,14.139L10.204,14.095L10.262,14.053L10.321,14.012L10.382,13.972L10.443,13.934L10.505,13.897L10.569,13.861L10.633,13.828L10.698,13.795L10.764,13.765L10.831,13.735L10.899,13.708L10.967,13.682L11.037,13.657L11.107,13.635L11.178,13.614L11.249,13.594L11.322,13.577L11.394,13.561L11.468,13.547L11.542,13.534L11.617,13.524L11.693,13.515L11.769,13.509L11.845,13.504L11.922,13.501L12,13.5L12.078,13.501ZM11.96,15.001L11.921,15.002L11.882,15.005L11.844,15.008L11.806,15.012L11.768,15.018L11.731,15.024L11.694,15.031L11.658,15.039L11.622,15.047L11.586,15.057L11.551,15.067L11.516,15.079L11.482,15.091L11.448,15.104L11.414,15.117L11.381,15.132L11.348,15.147L11.316,15.163L11.284,15.18L11.252,15.198L11.221,15.216L11.191,15.235L11.16,15.255L11.131,15.275L11.102,15.297L11.073,15.319L11.045,15.341L11.017,15.365L10.99,15.388L10.964,15.413L10.938,15.438L10.913,15.464L10.889,15.49L10.864,15.517L10.841,15.545L10.819,15.573L10.797,15.602L10.775,15.631L10.755,15.661L10.735,15.691L10.716,15.721L10.698,15.752L10.68,15.784L10.663,15.816L10.647,15.848L10.632,15.881L10.617,15.914L10.604,15.948L10.591,15.982L10.579,16.016L10.567,16.051L10.557,16.086L10.547,16.122L10.539,16.158L10.531,16.194L10.524,16.231L10.518,16.268L10.512,16.306L10.508,16.344L10.505,16.382L10.502,16.421L10.501,16.46L10.5,16.5L10.501,16.54L10.502,16.579L10.505,16.618L10.508,16.656L10.512,16.694L10.518,16.732L10.524,16.769L10.531,16.806L10.539,16.842L10.547,16.878L10.557,16.914L10.567,16.949L10.579,16.984L10.591,17.018L10.604,17.052L10.617,17.086L10.632,17.119L10.647,17.152L10.663,17.184L10.68,17.216L10.698,17.248L10.716,17.279L10.735,17.309L10.755,17.339L10.775,17.369L10.797,17.398L10.819,17.427L10.841,17.455L10.864,17.483L10.888,17.51L10.913,17.536L10.938,17.562L10.964,17.587L10.99,17.612L11.017,17.635L11.045,17.659L11.073,17.681L11.102,17.703L11.131,17.725L11.16,17.745L11.191,17.765L11.221,17.784L11.252,17.802L11.284,17.82L11.316,17.837L11.348,17.853L11.381,17.868L11.414,17.883L11.448,17.896L11.482,17.909L11.516,17.921L11.551,17.933L11.586,17.943L11.622,17.953L11.658,17.961L11.694,17.969L11.731,17.976L11.768,17.982L11.806,17.988L11.844,17.992L11.882,17.995L11.921,17.998L11.96,17.999L12,18L12.04,17.999L12.079,17.998L12.118,17.995L12.156,17.992L12.194,17.988L12.232,17.982L12.269,17.976L12.306,17.969L12.342,17.961L12.378,17.953L12.414,17.943L12.449,17.933L12.484,17.921L12.518,17.909L12.552,17.896L12.586,17.883L12.619,17.868L12.652,17.853L12.684,17.837L12.716,17.82L12.748,17.802L12.779,17.784L12.809,17.765L12.84,17.745L12.869,17.725L12.898,17.703L12.927,17.681L12.955,17.659L12.983,17.635L13.01,17.612L13.036,17.587L13.062,17.562L13.087,17.536L13.112,17.51L13.136,17.483L13.159,17.455L13.181,17.427L13.203,17.398L13.225,17.369L13.245,17.34L13.265,17.309L13.284,17.279L13.302,17.248L13.32,17.216L13.337,17.184L13.353,17.152L13.368,17.119L13.383,17.086L13.396,17.052L13.409,17.018L13.421,16.984L13.433,16.949L13.443,16.914L13.453,16.878L13.461,16.842L13.469,16.805L13.476,16.769L13.482,16.732L13.488,16.694L13.492,16.656L13.495,16.618L13.498,16.579L13.499,16.54L13.5,16.5L13.499,16.46L13.498,16.421L13.495,16.382L13.492,16.344L13.488,16.306L13.482,16.268L13.476,16.231L13.469,16.195L13.461,16.158L13.453,16.122L13.443,16.086L13.433,16.051L13.421,16.016L13.409,15.982L13.396,15.948L13.383,15.914L13.368,15.881L13.353,15.848L13.337,15.816L13.32,15.784L13.302,15.752L13.284,15.721L13.265,15.691L13.245,15.66L13.225,15.631L13.203,15.602L13.181,15.573L13.159,15.545L13.136,15.517L13.112,15.49L13.087,15.464L13.062,15.438L13.036,15.413L13.01,15.388L12.983,15.365L12.955,15.341L12.927,15.319L12.898,15.297L12.869,15.275L12.84,15.255L12.809,15.235L12.779,15.216L12.748,15.198L12.716,15.18L12.684,15.163L12.652,15.147L12.619,15.132L12.586,15.117L12.552,15.104L12.518,15.091L12.484,15.079L12.449,15.067L12.414,15.057L12.378,15.047L12.342,15.039L12.306,15.031L12.269,15.024L12.232,15.018L12.194,15.012L12.156,15.008L12.118,15.005L12.079,15.002L12.04,15.001L12,15L11.96,15.001ZM16.5,6L16.5,10.5L6,10.5L6,6L16.5,6ZM7.5,7.5L7.5,9L15,9L15,7.5L7.5,7.5Z" style="fill:rgb(58,58,58);"/>
            </g>
        </g>
    </g>
</svg>
