<?xml version="1.0" encoding="UTF-8" standalone="no"?>
<!DOCTYPE svg PUBLIC "-//W3C//DTD SVG 1.1//EN" "http://www.w3.org/Graphics/SVG/1.1/DTD/svg11.dtd">
<svg width="100%" height="100%" viewBox="0 0 7 13" version="1.1" xmlns="http://www.w3.org/2000/svg" xmlns:xlink="http://www.w3.org/1999/xlink" xml:space="preserve" xmlns:serif="http://www.serif.com/" style="fill-rule:evenodd;clip-rule:evenodd;stroke-linejoin:round;stroke-miterlimit:1.41421;">
    <g transform="matrix(1,0,0,1,-36,-57)">
        <g id="RTPC_nor_dis_21px">
            <g transform="matrix(1.4,0,0,0.619048,19.2,53.9048)">
                <path d="M17,8.618C17,6.621 16.283,5 15.4,5L13.6,5C12.717,5 12,6.621 12,8.618L12,22.382C12,24.379 12.717,26 13.6,26L15.4,26C16.283,26 17,24.379 17,22.382L17,8.618Z" style="fill:rgb(161,161,161);"/>
            </g>
            <g transform="matrix(1,0,0,0.142857,25,57.2857)">
                <path d="M17,11.51C17,7.917 16.583,5 16.07,5L12.96,5C12.43,5 12,8.011 12,11.72L12,26L17,26L17,11.51Z" style="fill:rgb(186,186,186);"/>
            </g>
            <g transform="matrix(1,0,0,0.142857,25,65.2857)">
                <path d="M17,5L12,5L12,17.6C12,22.236 12.538,26 13.2,26L15.8,26C16.462,26 17,22.236 17,17.6L17,5Z" style="fill:rgb(186,186,186);"/>
            </g>
            <g transform="matrix(0.4,0,0,0.238095,35.2,59.8095)">
                <rect x="12" y="5" width="5" height="21" style="fill:rgb(186,186,186);"/>
            </g>
            <g transform="matrix(0.4,0,0,0.238095,32.2,59.8095)">
                <rect x="12" y="5" width="5" height="21" style="fill:rgb(186,186,186);"/>
            </g>
            <g transform="matrix(1,0,0,1,39,74)">
                <path d="M0,-14L0,-8L-2,-8L-2,-7L1,-7L1,-13L3,-13L3,-14L0,-14Z" style="fill:rgb(161,161,161);fill-rule:nonzero;"/>
            </g>
        </g>
    </g>
</svg>
