<?xml version="1.0" encoding="UTF-8" standalone="no"?><!DOCTYPE svg PUBLIC "-//W3C//DTD SVG 1.1//EN" "http://www.w3.org/Graphics/SVG/1.1/DTD/svg11.dtd"><svg width="100%" height="100%" viewBox="0 0 16 16" version="1.1" xmlns="http://www.w3.org/2000/svg" xmlns:xlink="http://www.w3.org/1999/xlink" xml:space="preserve" xmlns:serif="http://www.serif.com/" style="fill-rule:evenodd;clip-rule:evenodd;stroke-linejoin:round;stroke-miterlimit:2;"><g id="ObjectIcons_AudioObjectTrack_3DView"><clipPath id="_clip1"><rect x="-0" y="-0" width="16" height="16"/></clipPath><g clip-path="url(#_clip1)"><path id="Base-Block" serif:id="Base Block" d="M16,2.24c-0,-1.236 -1.004,-2.24 -2.24,-2.24l-11.52,-0c-1.236,-0 -2.24,1.004 -2.24,2.24l-0,11.52c-0,1.236 1.004,2.24 2.24,2.24l11.52,-0c1.236,-0 2.24,-1.004 2.24,-2.24l-0,-11.52Z" style="fill-opacity:0;"/><circle cx="8" cy="8" r="6.933" style="fill:#fff;"/><path d="M8,0.067c-4.379,-0 -7.933,3.554 -7.933,7.933c-0,4.379 3.554,7.933 7.933,7.933c4.379,0 7.933,-3.554 7.933,-7.933c0,-4.379 -3.554,-7.933 -7.933,-7.933Zm0,1c3.827,-0 6.933,3.106 6.933,6.933c0,3.827 -3.106,6.933 -6.933,6.933c-3.827,0 -6.933,-3.106 -6.933,-6.933c-0,-3.827 3.106,-6.933 6.933,-6.933Z"/><path d="M13,5.655c-0,-0.618 -0.502,-1.12 -1.12,-1.12l-7.76,-0c-0.618,-0 -1.12,0.502 -1.12,1.12l-0,4.76c-0,0.618 0.502,1.12 1.12,1.12l7.76,-0c0.618,-0 1.12,-0.502 1.12,-1.12l-0,-4.76Z"/><path d="M3.204,8.018l-0.005,-0.058l1.053,-0.131l0.555,-0.368l0.526,0.365l0.525,-2.498l0.542,2.133l1.054,-1.048l0.164,1.271l0.901,-0l0.557,-0.609l0.311,0.471l0.23,-0.797l0.321,-0.557l0.359,0.615l0.354,0.633l1.586,0.476l0.548,0.002l0,0.014l0.013,-0l0,0.176l-0.548,0.001l-1.586,0.476l-0.355,0.634l-0.358,0.614l-0.321,-0.557l-0.23,-0.796l-0.311,0.47l-0.558,-0.64l-0.9,0l-0.164,1.303l-1.067,-1.085l-0.529,2.133l-0.538,-2.462l-0.513,0.365l-0.555,-0.462l-1.061,-0.084Z" style="fill:#fff;"/><g id="Speaker"></g></g></g></svg>