<?xml version="1.0" encoding="UTF-8" standalone="no"?><!DOCTYPE svg PUBLIC "-//W3C//DTD SVG 1.1//EN" "http://www.w3.org/Graphics/SVG/1.1/DTD/svg11.dtd"><svg width="100%" height="100%" viewBox="0 0 15 15" version="1.1" xmlns="http://www.w3.org/2000/svg" xmlns:xlink="http://www.w3.org/1999/xlink" xml:space="preserve" xmlns:serif="http://www.serif.com/" style="fill-rule:evenodd;clip-rule:evenodd;stroke-linejoin:round;stroke-miterlimit:2;"><g id="ObjectIcons_AudioObjectTrack_dis" opacity="0.3"><path id="Base-Block" serif:id="Base Block" d="M15,2.1c-0,-1.159 -0.941,-2.1 -2.1,-2.1l-10.8,-0c-1.159,-0 -2.1,0.941 -2.1,2.1l-0,10.8c-0,1.159 0.941,2.1 2.1,2.1l10.8,-0c1.159,-0 2.1,-0.941 2.1,-2.1l-0,-10.8Z" style="fill-opacity:0;"/><g id="Disc"><circle cx="7.5" cy="7.5" r="7.5" style="fill:#222;"/><circle cx="7.5" cy="7.5" r="6.5" style="fill:#c8c8c8;"/></g><path d="M12,5.12c-0,-0.618 -0.502,-1.12 -1.12,-1.12l-6.76,-0c-0.618,-0 -1.12,0.502 -1.12,1.12l-0,4.76c-0,0.618 0.502,1.12 1.12,1.12l6.76,-0c0.618,-0 1.12,-0.502 1.12,-1.12l-0,-4.76Z" style="fill:#222;"/><path d="M3.003,7.522l-0.004,-0.054l0.987,-0.123l0.52,-0.345l0.494,0.342l0.492,-2.342l0.508,2l0.988,-0.983l0.154,1.192l0.844,-0l0.523,-0.571l0.291,0.441l0.216,-0.746l0.301,-0.522l0.336,0.575l0.332,0.595l1.487,0.446l0.514,0.001l0,0.013l0.012,0l0,0.165l-0.514,0.002l-1.487,0.446l-0.332,0.594l-0.336,0.576l-0.301,-0.522l-0.216,-0.747l-0.291,0.441l-0.523,-0.6l-0.844,-0l-0.154,1.221l-1,-1.017l-0.496,2l-0.504,-2.308l-0.482,0.342l-0.52,-0.433l-0.995,-0.079Z" style="fill:#c8c8c8;"/><g id="Speaker"></g></g></svg>