<?xml version="1.0" encoding="UTF-8" standalone="no"?>
<!DOCTYPE svg PUBLIC "-//W3C//DTD SVG 1.1//EN" "http://www.w3.org/Graphics/SVG/1.1/DTD/svg11.dtd">
<svg width="100%" height="100%" viewBox="0 0 21 10" version="1.1" xmlns="http://www.w3.org/2000/svg" xmlns:xlink="http://www.w3.org/1999/xlink" xml:space="preserve" xmlns:serif="http://www.serif.com/" style="fill-rule:evenodd;clip-rule:evenodd;stroke-linejoin:round;stroke-miterlimit:1.41421;">
    <g id="Exterior" transform="matrix(19,0,0,6.36364,-7504,-7407.27)">
        <path d="M396,1165.49C396,1164.67 395.776,1164 395.5,1164C395.224,1164 395,1164.67 395,1165.49L395,1184.51C395,1185.33 395.224,1186 395.5,1186C395.776,1186 396,1185.33 396,1184.51L396,1165.49Z" style="fill:rgb(206,206,206);"/>
        <path d="M395.506,1164L395.519,1164L395.532,1164L395.545,1164.01L395.557,1164.01L395.57,1164.01L395.582,1164.02L395.595,1164.03L395.607,1164.03L395.619,1164.04L395.631,1164.05L395.643,1164.06L395.654,1164.07L395.666,1164.08L395.678,1164.1L395.689,1164.11L395.7,1164.13L395.711,1164.14L395.722,1164.15L395.733,1164.17L395.744,1164.19L395.754,1164.21L395.764,1164.23L395.774,1164.25L395.784,1164.27L395.794,1164.29L395.804,1164.31L395.813,1164.33L395.823,1164.35L395.832,1164.38L395.841,1164.4L395.849,1164.42L395.858,1164.45L395.866,1164.48L395.874,1164.5L395.882,1164.53L395.89,1164.56L395.897,1164.59L395.904,1164.61L395.911,1164.64L395.918,1164.67L395.924,1164.7L395.931,1164.73L395.937,1164.77L395.942,1164.8L395.948,1164.83L395.953,1164.86L395.958,1164.89L395.963,1164.93L395.968,1164.96L395.972,1165L395.976,1165.03L395.979,1165.07L395.983,1165.1L395.986,1165.14L395.989,1165.17L395.991,1165.21L395.993,1165.25L395.995,1165.28L395.997,1165.32L395.998,1165.36L395.999,1165.4L396,1165.43L396,1165.47L396,1165.49L396,1184.51L396,1184.53L396,1184.55L396,1184.57L395.999,1184.58L395.999,1184.6L395.999,1184.62L395.998,1184.64L395.997,1184.66L395.997,1184.68L395.996,1184.7L395.995,1184.72L395.994,1184.73L395.993,1184.75L395.992,1184.77L395.991,1184.79L395.99,1184.81L395.989,1184.83L395.987,1184.84L395.986,1184.86L395.984,1184.88L395.983,1184.9L395.981,1184.92L395.979,1184.93L395.978,1184.95L395.976,1184.97L395.974,1184.99L395.972,1185L395.97,1185.02L395.968,1185.04L395.965,1185.05L395.963,1185.07L395.961,1185.09L395.958,1185.11L395.956,1185.12L395.953,1185.14L395.951,1185.15L395.948,1185.17L395.945,1185.19L395.942,1185.2L395.94,1185.22L395.937,1185.23L395.934,1185.25L395.931,1185.27L395.928,1185.28L395.924,1185.3L395.921,1185.31L395.918,1185.33L395.915,1185.34L395.911,1185.36L395.908,1185.37L395.904,1185.39L395.901,1185.4L395.897,1185.41L395.893,1185.43L395.89,1185.44L395.886,1185.46L395.882,1185.47L395.878,1185.48L395.874,1185.5L395.87,1185.51L395.866,1185.52L395.862,1185.54L395.858,1185.55L395.853,1185.56L395.849,1185.58L395.845,1185.59L395.841,1185.6L395.836,1185.61L395.832,1185.62L395.827,1185.64L395.823,1185.65L395.818,1185.66L395.813,1185.67L395.809,1185.68L395.804,1185.69L395.799,1185.7L395.794,1185.71L395.789,1185.72L395.784,1185.74L395.779,1185.75L395.774,1185.76L395.769,1185.77L395.764,1185.77L395.759,1185.78L395.754,1185.79L395.749,1185.8L395.744,1185.81L395.738,1185.82L395.733,1185.83L395.728,1185.84L395.722,1185.85L395.717,1185.85L395.711,1185.86L395.706,1185.87L395.7,1185.88L395.695,1185.88L395.689,1185.89L395.683,1185.9L395.678,1185.9L395.672,1185.91L395.666,1185.92L395.66,1185.92L395.654,1185.93L395.649,1185.93L395.643,1185.94L395.637,1185.94L395.631,1185.95L395.625,1185.95L395.619,1185.96L395.613,1185.96L395.607,1185.97L395.601,1185.97L395.595,1185.97L395.588,1185.98L395.582,1185.98L395.576,1185.98L395.57,1185.99L395.564,1185.99L395.557,1185.99L395.551,1185.99L395.545,1185.99L395.538,1186L395.532,1186L395.526,1186L395.519,1186L395.513,1186L395.506,1186L395.5,1186L395.494,1186L395.487,1186L395.481,1186L395.474,1186L395.468,1186L395.462,1186L395.455,1185.99L395.449,1185.99L395.443,1185.99L395.436,1185.99L395.43,1185.99L395.424,1185.98L395.418,1185.98L395.412,1185.98L395.405,1185.97L395.399,1185.97L395.393,1185.97L395.387,1185.96L395.381,1185.96L395.375,1185.95L395.369,1185.95L395.363,1185.94L395.357,1185.94L395.351,1185.93L395.346,1185.93L395.34,1185.92L395.334,1185.92L395.328,1185.91L395.322,1185.9L395.317,1185.9L395.311,1185.89L395.305,1185.88L395.3,1185.88L395.294,1185.87L395.289,1185.86L395.283,1185.85L395.278,1185.85L395.272,1185.84L395.267,1185.83L395.262,1185.82L395.256,1185.81L395.251,1185.8L395.246,1185.79L395.241,1185.78L395.236,1185.77L395.231,1185.77L395.226,1185.76L395.221,1185.75L395.216,1185.74L395.211,1185.72L395.206,1185.71L395.201,1185.7L395.196,1185.69L395.191,1185.68L395.187,1185.67L395.182,1185.66L395.177,1185.65L395.173,1185.64L395.168,1185.62L395.164,1185.61L395.159,1185.6L395.155,1185.59L395.151,1185.58L395.147,1185.56L395.142,1185.55L395.138,1185.54L395.134,1185.52L395.13,1185.51L395.126,1185.5L395.122,1185.48L395.118,1185.47L395.114,1185.46L395.11,1185.44L395.107,1185.43L395.103,1185.41L395.099,1185.4L395.096,1185.39L395.092,1185.37L395.089,1185.36L395.085,1185.34L395.082,1185.33L395.079,1185.31L395.076,1185.3L395.072,1185.28L395.069,1185.27L395.066,1185.25L395.063,1185.23L395.06,1185.22L395.058,1185.2L395.055,1185.19L395.052,1185.17L395.049,1185.15L395.047,1185.14L395.044,1185.12L395.042,1185.11L395.039,1185.09L395.037,1185.07L395.035,1185.05L395.032,1185.04L395.03,1185.02L395.028,1185L395.026,1184.99L395.024,1184.97L395.022,1184.95L395.021,1184.93L395.019,1184.92L395.017,1184.9L395.016,1184.88L395.014,1184.86L395.013,1184.84L395.011,1184.83L395.01,1184.81L395.009,1184.79L395.008,1184.77L395.007,1184.75L395.006,1184.73L395.005,1184.72L395.004,1184.7L395.003,1184.68L395.003,1184.66L395.002,1184.64L395.001,1184.62L395.001,1184.6L395.001,1184.58L395,1184.57L395,1184.55L395,1184.53L395,1184.51L395,1165.49L395,1165.47L395,1165.45L395,1165.43L395.001,1165.42L395.001,1165.4L395.001,1165.38L395.002,1165.36L395.003,1165.34L395.003,1165.32L395.004,1165.3L395.005,1165.28L395.006,1165.27L395.007,1165.25L395.008,1165.23L395.009,1165.21L395.01,1165.19L395.011,1165.17L395.013,1165.16L395.014,1165.14L395.016,1165.12L395.017,1165.1L395.019,1165.08L395.021,1165.07L395.022,1165.05L395.024,1165.03L395.026,1165.01L395.028,1165L395.03,1164.98L395.032,1164.96L395.035,1164.95L395.037,1164.93L395.039,1164.91L395.042,1164.89L395.044,1164.88L395.047,1164.86L395.049,1164.85L395.052,1164.83L395.055,1164.81L395.058,1164.8L395.06,1164.78L395.063,1164.77L395.066,1164.75L395.069,1164.73L395.072,1164.72L395.076,1164.7L395.079,1164.69L395.082,1164.67L395.085,1164.66L395.089,1164.64L395.092,1164.63L395.096,1164.61L395.099,1164.6L395.103,1164.59L395.107,1164.57L395.11,1164.56L395.114,1164.54L395.118,1164.53L395.122,1164.52L395.126,1164.5L395.13,1164.49L395.134,1164.48L395.138,1164.46L395.142,1164.45L395.147,1164.44L395.151,1164.42L395.155,1164.41L395.159,1164.4L395.164,1164.39L395.168,1164.38L395.173,1164.36L395.177,1164.35L395.182,1164.34L395.187,1164.33L395.191,1164.32L395.196,1164.31L395.201,1164.3L395.206,1164.29L395.211,1164.28L395.216,1164.27L395.221,1164.26L395.226,1164.25L395.231,1164.24L395.236,1164.23L395.241,1164.22L395.246,1164.21L395.251,1164.2L395.256,1164.19L395.262,1164.18L395.267,1164.17L395.272,1164.16L395.278,1164.15L395.283,1164.15L395.289,1164.14L395.294,1164.13L395.3,1164.13L395.305,1164.12L395.311,1164.11L395.317,1164.1L395.322,1164.1L395.328,1164.09L395.334,1164.08L395.34,1164.08L395.346,1164.07L395.351,1164.07L395.357,1164.06L395.363,1164.06L395.369,1164.05L395.375,1164.05L395.381,1164.04L395.387,1164.04L395.393,1164.03L395.399,1164.03L395.405,1164.03L395.412,1164.02L395.418,1164.02L395.424,1164.02L395.43,1164.01L395.436,1164.01L395.443,1164.01L395.449,1164.01L395.455,1164.01L395.462,1164L395.468,1164L395.474,1164L395.481,1164L395.487,1164L395.494,1164L395.5,1164L395.506,1164ZM395.494,1164.16L395.488,1164.16L395.483,1164.16L395.477,1164.16L395.471,1164.16L395.466,1164.16L395.46,1164.16L395.454,1164.16L395.449,1164.17L395.443,1164.17L395.437,1164.17L395.432,1164.17L395.426,1164.17L395.421,1164.18L395.415,1164.18L395.41,1164.18L395.404,1164.19L395.399,1164.19L395.394,1164.19L395.388,1164.2L395.383,1164.2L395.378,1164.21L395.372,1164.21L395.367,1164.22L395.362,1164.22L395.357,1164.23L395.351,1164.23L395.346,1164.24L395.341,1164.24L395.336,1164.25L395.331,1164.26L395.326,1164.26L395.321,1164.27L395.316,1164.28L395.311,1164.28L395.306,1164.29L395.301,1164.3L395.296,1164.3L395.292,1164.31L395.287,1164.32L395.282,1164.33L395.277,1164.33L395.273,1164.34L395.268,1164.35L395.264,1164.36L395.259,1164.37L395.254,1164.38L395.25,1164.38L395.246,1164.39L395.241,1164.4L395.237,1164.41L395.232,1164.42L395.228,1164.43L395.224,1164.44L395.22,1164.45L395.216,1164.46L395.211,1164.47L395.207,1164.48L395.203,1164.49L395.199,1164.5L395.195,1164.52L395.191,1164.53L395.188,1164.54L395.184,1164.55L395.18,1164.56L395.176,1164.57L395.173,1164.58L395.169,1164.6L395.165,1164.61L395.162,1164.62L395.158,1164.63L395.155,1164.64L395.151,1164.66L395.148,1164.67L395.145,1164.68L395.142,1164.69L395.138,1164.71L395.135,1164.72L395.132,1164.73L395.129,1164.75L395.126,1164.76L395.123,1164.77L395.12,1164.79L395.117,1164.8L395.115,1164.81L395.112,1164.83L395.109,1164.84L395.107,1164.86L395.104,1164.87L395.102,1164.88L395.099,1164.9L395.097,1164.91L395.094,1164.93L395.092,1164.94L395.09,1164.96L395.088,1164.97L395.086,1164.99L395.084,1165L395.082,1165.02L395.08,1165.03L395.078,1165.05L395.076,1165.07L395.074,1165.08L395.073,1165.1L395.071,1165.11L395.07,1165.13L395.068,1165.14L395.067,1165.16L395.065,1165.17L395.064,1165.19L395.063,1165.21L395.062,1165.22L395.061,1165.24L395.06,1165.26L395.059,1165.27L395.058,1165.29L395.057,1165.31L395.056,1165.32L395.056,1165.34L395.055,1165.36L395.054,1165.37L395.054,1165.39L395.054,1165.41L395.053,1165.42L395.053,1165.44L395.053,1165.46L395.053,1165.48L395.053,1165.49L395.053,1184.51L395.053,1184.54L395.053,1184.58L395.054,1184.61L395.055,1184.64L395.056,1184.68L395.058,1184.71L395.06,1184.74L395.062,1184.78L395.064,1184.81L395.067,1184.84L395.07,1184.87L395.073,1184.9L395.076,1184.93L395.08,1184.97L395.084,1185L395.088,1185.03L395.092,1185.06L395.097,1185.09L395.102,1185.12L395.107,1185.14L395.112,1185.17L395.117,1185.2L395.123,1185.23L395.129,1185.25L395.135,1185.28L395.142,1185.31L395.148,1185.33L395.155,1185.36L395.162,1185.38L395.169,1185.4L395.176,1185.43L395.184,1185.45L395.191,1185.47L395.199,1185.5L395.207,1185.52L395.216,1185.54L395.224,1185.56L395.232,1185.58L395.241,1185.6L395.25,1185.62L395.259,1185.63L395.268,1185.65L395.277,1185.67L395.287,1185.68L395.296,1185.7L395.306,1185.71L395.316,1185.73L395.326,1185.74L395.336,1185.75L395.346,1185.76L395.357,1185.77L395.367,1185.78L395.378,1185.79L395.388,1185.8L395.399,1185.81L395.41,1185.82L395.421,1185.82L395.432,1185.83L395.443,1185.83L395.454,1185.84L395.466,1185.84L395.477,1185.84L395.488,1185.84L395.5,1185.84L395.506,1185.84L395.512,1185.84L395.517,1185.84L395.523,1185.84L395.529,1185.84L395.534,1185.84L395.54,1185.84L395.546,1185.84L395.551,1185.83L395.557,1185.83L395.563,1185.83L395.568,1185.83L395.574,1185.83L395.579,1185.82L395.585,1185.82L395.59,1185.82L395.596,1185.81L395.601,1185.81L395.606,1185.81L395.612,1185.8L395.617,1185.8L395.622,1185.79L395.628,1185.79L395.633,1185.78L395.638,1185.78L395.643,1185.77L395.649,1185.77L395.654,1185.76L395.659,1185.76L395.664,1185.75L395.669,1185.74L395.674,1185.74L395.679,1185.73L395.684,1185.73L395.689,1185.72L395.694,1185.71L395.699,1185.7L395.704,1185.7L395.708,1185.69L395.713,1185.68L395.718,1185.67L395.723,1185.67L395.727,1185.66L395.732,1185.65L395.736,1185.64L395.741,1185.63L395.746,1185.62L395.75,1185.62L395.754,1185.61L395.759,1185.6L395.763,1185.59L395.768,1185.58L395.772,1185.57L395.776,1185.56L395.78,1185.55L395.784,1185.54L395.789,1185.53L395.793,1185.52L395.797,1185.51L395.801,1185.5L395.805,1185.49L395.809,1185.47L395.812,1185.46L395.816,1185.45L395.82,1185.44L395.824,1185.43L395.827,1185.42L395.831,1185.4L395.835,1185.39L395.838,1185.38L395.842,1185.37L395.845,1185.36L395.849,1185.34L395.852,1185.33L395.855,1185.32L395.858,1185.31L395.862,1185.29L395.865,1185.28L395.868,1185.27L395.871,1185.25L395.874,1185.24L395.877,1185.23L395.88,1185.21L395.883,1185.2L395.885,1185.19L395.888,1185.17L395.891,1185.16L395.893,1185.14L395.896,1185.13L395.898,1185.12L395.901,1185.1L395.903,1185.09L395.906,1185.07L395.908,1185.06L395.91,1185.04L395.912,1185.03L395.914,1185.01L395.916,1185L395.918,1184.98L395.92,1184.97L395.922,1184.95L395.924,1184.93L395.926,1184.92L395.927,1184.9L395.929,1184.89L395.93,1184.87L395.932,1184.86L395.933,1184.84L395.935,1184.83L395.936,1184.81L395.937,1184.79L395.938,1184.78L395.939,1184.76L395.94,1184.74L395.941,1184.73L395.942,1184.71L395.943,1184.69L395.944,1184.68L395.944,1184.66L395.945,1184.64L395.946,1184.63L395.946,1184.61L395.946,1184.59L395.947,1184.58L395.947,1184.56L395.947,1184.54L395.947,1184.52L395.947,1184.51L395.947,1165.49L395.947,1165.48L395.947,1165.46L395.947,1165.44L395.947,1165.42L395.946,1165.41L395.946,1165.39L395.946,1165.37L395.945,1165.36L395.944,1165.34L395.944,1165.32L395.943,1165.31L395.942,1165.29L395.941,1165.27L395.94,1165.26L395.939,1165.24L395.938,1165.22L395.937,1165.21L395.936,1165.19L395.935,1165.17L395.933,1165.16L395.932,1165.14L395.93,1165.13L395.929,1165.11L395.927,1165.1L395.926,1165.08L395.924,1165.07L395.922,1165.05L395.92,1165.03L395.918,1165.02L395.916,1165L395.914,1164.99L395.912,1164.97L395.91,1164.96L395.908,1164.94L395.906,1164.93L395.903,1164.91L395.901,1164.9L395.898,1164.88L395.896,1164.87L395.893,1164.86L395.891,1164.84L395.888,1164.83L395.885,1164.81L395.883,1164.8L395.88,1164.79L395.877,1164.77L395.874,1164.76L395.871,1164.75L395.868,1164.73L395.865,1164.72L395.862,1164.71L395.858,1164.69L395.855,1164.68L395.852,1164.67L395.849,1164.66L395.845,1164.64L395.842,1164.63L395.838,1164.62L395.835,1164.61L395.831,1164.6L395.827,1164.58L395.824,1164.57L395.82,1164.56L395.816,1164.55L395.812,1164.54L395.809,1164.53L395.805,1164.52L395.801,1164.5L395.797,1164.49L395.793,1164.48L395.789,1164.47L395.784,1164.46L395.78,1164.45L395.776,1164.44L395.772,1164.43L395.768,1164.42L395.763,1164.41L395.759,1164.4L395.754,1164.39L395.75,1164.38L395.746,1164.38L395.741,1164.37L395.736,1164.36L395.732,1164.35L395.727,1164.34L395.723,1164.33L395.718,1164.33L395.713,1164.32L395.708,1164.31L395.704,1164.3L395.699,1164.3L395.694,1164.29L395.689,1164.28L395.684,1164.28L395.679,1164.27L395.674,1164.26L395.669,1164.26L395.664,1164.25L395.659,1164.24L395.654,1164.24L395.649,1164.23L395.643,1164.23L395.638,1164.22L395.633,1164.22L395.628,1164.21L395.622,1164.21L395.617,1164.2L395.612,1164.2L395.606,1164.19L395.601,1164.19L395.596,1164.19L395.59,1164.18L395.585,1164.18L395.579,1164.18L395.574,1164.17L395.568,1164.17L395.563,1164.17L395.557,1164.17L395.551,1164.17L395.546,1164.16L395.54,1164.16L395.534,1164.16L395.529,1164.16L395.523,1164.16L395.517,1164.16L395.512,1164.16L395.506,1164.16L395.5,1164.16L395.494,1164.16Z" style="fill:rgb(151,151,151);"/>
    </g>
</svg>
