<?xml version="1.0" encoding="UTF-8" standalone="no"?>
<!DOCTYPE svg PUBLIC "-//W3C//DTD SVG 1.1//EN" "http://www.w3.org/Graphics/SVG/1.1/DTD/svg11.dtd">
<svg width="100%" height="100%" viewBox="0 0 8 9" version="1.1" xmlns="http://www.w3.org/2000/svg" xmlns:xlink="http://www.w3.org/1999/xlink" xml:space="preserve" xmlns:serif="http://www.serif.com/" style="fill-rule:evenodd;clip-rule:evenodd;stroke-linejoin:round;stroke-miterlimit:1.41421;">
    <g transform="matrix(1,0,0,1,-5,-3)">
        <g transform="matrix(1,0,0,1,5,3)">
            <g id="Randomizer_Mix_dis" transform="matrix(0.888889,0,0,0.888889,-326.222,-200.889)">
                <g opacity="0.3">
                    <g transform="matrix(1.125,0,0,1.26563,367,226)">
                        <g id="Icon-BG" serif:id="Icon BG">
                            <rect id="Icon-BG1" serif:id="Icon BG" x="0" y="0" width="8" height="8" style="fill:rgb(211,211,211);stroke:rgb(211,211,211);stroke-width:0.94px;"/>
                        </g>
                    </g>
                    <g id="Random-Icon" serif:id="Random Icon">
                        <g transform="matrix(1.00148,0,0,0.999691,-156.774,-38.9159)">
                            <path d="M522.998,269.464C523.44,269.205 524.287,268.389 525.207,268.375C527.07,268.348 526.759,269.634 528.716,269.634C529.898,269.634 531.231,269.589 531.966,269.054C531.994,272.766 529.853,273.964 527.5,274C525.078,274.037 522.976,272.526 522.998,269.464Z" style="fill:none;"/>
                        </g>
                        <g transform="matrix(1.00148,0,0,0.999691,-156.774,-38.9159)">
                            <path d="M523.054,270.428C523.063,270.353 523,269.383 522.999,269.309C522.965,266.544 525.468,265.056 527.5,265C529.635,264.941 532.018,266.348 531.984,269.499C531.98,269.854 531.239,270.665 528.615,270.66C526.632,270.657 526.389,269.154 525.199,269.154C524.472,269.154 523.549,270.092 523.054,270.428Z" style="fill:rgb(163,163,163);"/>
                            <path d="M527.701,264.999L527.802,265.001L527.903,265.006L528.004,265.013L528.105,265.022L528.206,265.034L528.307,265.047L528.408,265.063L528.509,265.081L528.609,265.101L528.71,265.123L528.809,265.148L528.909,265.175L529.008,265.204L529.106,265.235L529.204,265.268L529.301,265.304L529.397,265.342L529.493,265.383L529.588,265.425L529.682,265.47L529.774,265.517L529.866,265.567L529.957,265.619L530.046,265.673L530.135,265.729L530.222,265.788L530.307,265.849L530.391,265.912L530.474,265.978L530.555,266.046L530.635,266.116L530.713,266.189L530.789,266.264L530.864,266.341L530.937,266.421L531.008,266.504L531.076,266.588L531.143,266.675L531.208,266.765L531.271,266.857L531.331,266.951L531.389,267.047L531.445,267.147L531.499,267.248L531.55,267.352L531.598,267.458L531.644,267.567L531.666,267.623L531.687,267.679L531.708,267.735L531.728,267.793L531.747,267.85L531.766,267.909L531.784,267.968L531.801,268.028L531.817,268.088L531.833,268.149L531.848,268.21L531.863,268.273L531.876,268.335L531.889,268.399L531.901,268.463L531.912,268.527L531.923,268.593L531.932,268.659L531.941,268.725L531.949,268.792L531.956,268.86L531.963,268.929L531.969,268.998L531.973,269.068L531.977,269.138L531.98,269.209L531.983,269.281L531.984,269.353L531.985,269.426L531.984,269.499L531.984,269.516L531.982,269.534L531.979,269.552L531.975,269.571L531.969,269.59L531.963,269.61L531.955,269.63L531.946,269.651L531.936,269.672L531.924,269.694L531.911,269.716L531.897,269.738L531.881,269.761L531.864,269.784L531.845,269.807L531.825,269.831L531.804,269.855L531.781,269.878L531.756,269.902L531.73,269.927L531.702,269.951L531.672,269.975L531.641,269.999L531.608,270.024L531.574,270.048L531.538,270.072L531.5,270.096L531.46,270.12L531.418,270.144L531.375,270.168L531.329,270.191L531.282,270.214L531.233,270.237L531.182,270.26L531.129,270.282L531.074,270.304L531.017,270.326L530.958,270.347L530.896,270.368L530.833,270.388L530.768,270.408L530.7,270.427L530.63,270.446L530.558,270.464L530.484,270.482L530.408,270.499L530.329,270.515L530.248,270.531L530.164,270.545L530.079,270.559L529.99,270.573L529.9,270.585L529.807,270.597L529.711,270.607L529.613,270.617L529.513,270.626L529.41,270.634L529.304,270.641L529.196,270.647L529.085,270.652L528.971,270.656L528.855,270.658L528.736,270.66L528.615,270.66L528.523,270.659L528.434,270.656L528.347,270.65L528.263,270.643L528.181,270.633L528.101,270.622L528.023,270.609L527.947,270.595L527.874,270.578L527.802,270.56L527.733,270.541L527.665,270.52L527.599,270.498L527.535,270.474L527.473,270.449L527.412,270.424L527.352,270.396L527.295,270.368L527.238,270.339L527.183,270.309L527.13,270.279L527.077,270.247L527.026,270.215L526.976,270.182L526.927,270.149L526.879,270.115L526.786,270.046L526.696,269.976L526.609,269.906L526.525,269.835L526.442,269.766L526.361,269.697L526.28,269.63L526.2,269.565L526.119,269.503L526.079,269.473L526.038,269.444L525.997,269.416L525.956,269.389L525.914,269.363L525.872,269.338L525.829,269.315L525.786,269.293L525.742,269.272L525.698,269.253L525.652,269.235L525.606,269.219L525.559,269.204L525.511,269.191L525.462,269.18L525.412,269.171L525.36,269.164L525.308,269.158L525.254,269.155L525.199,269.154L525.165,269.155L525.13,269.157L525.096,269.16L525.061,269.165L525.025,269.17L524.99,269.177L524.954,269.186L524.918,269.195L524.882,269.205L524.846,269.217L524.81,269.229L524.774,269.243L524.7,269.272L524.627,269.306L524.553,269.342L524.479,269.382L524.405,269.424L524.332,269.468L524.258,269.515L524.185,269.564L524.112,269.614L524.04,269.665L523.968,269.717L523.897,269.77L523.759,269.877L523.625,269.983L523.496,270.087L523.374,270.185L523.259,270.276L523.204,270.319L523.152,270.358L523.102,270.394L523.054,270.428L523.055,270.404L523.054,270.361L523.049,270.232L523.041,270.06L523.03,269.868L523.009,269.504L523.002,269.375L522.999,269.309L522.998,269.244L522.999,269.18L523,269.116L523.003,269.053L523.006,268.99L523.01,268.928L523.015,268.867L523.021,268.805L523.028,268.744L523.036,268.684L523.044,268.624L523.054,268.565L523.064,268.506L523.075,268.448L523.086,268.39L523.099,268.332L523.112,268.275L523.127,268.219L523.142,268.162L523.157,268.107L523.174,268.052L523.191,267.997L523.209,267.943L523.227,267.889L523.267,267.783L523.309,267.679L523.354,267.577L523.402,267.477L523.452,267.379L523.505,267.283L523.561,267.188L523.619,267.096L523.679,267.005L523.741,266.917L523.806,266.83L523.872,266.745L523.941,266.663L524.012,266.582L524.085,266.503L524.159,266.426L524.236,266.352L524.314,266.279L524.394,266.208L524.475,266.139L524.558,266.072L524.642,266.007L524.728,265.944L524.815,265.883L524.903,265.824L524.992,265.767L525.083,265.712L525.174,265.659L525.267,265.608L525.36,265.559L525.454,265.512L525.549,265.467L525.645,265.425L525.741,265.384L525.838,265.345L525.935,265.308L526.033,265.273L526.131,265.241L526.229,265.21L526.327,265.182L526.426,265.155L526.525,265.131L526.623,265.108L526.722,265.088L526.82,265.07L526.919,265.053L527.017,265.039L527.114,265.027L527.212,265.017L527.308,265.009L527.404,265.004L527.5,265L527.6,264.998L527.701,264.999ZM527.526,265.937L527.45,265.94L527.374,265.945L527.297,265.951L527.219,265.959L527.14,265.969L527.061,265.98L526.982,265.993L526.902,266.008L526.821,266.025L526.741,266.043L526.66,266.063L526.579,266.085L526.498,266.108L526.417,266.134L526.337,266.16L526.257,266.189L526.177,266.219L526.097,266.251L526.018,266.284L525.94,266.32L525.862,266.356L525.785,266.395L525.709,266.435L525.634,266.476L525.56,266.519L525.486,266.564L525.414,266.61L525.343,266.657L525.273,266.706L525.204,266.757L525.137,266.809L525.071,266.862L525.007,266.916L524.944,266.972L524.882,267.03L524.822,267.089L524.764,267.149L524.707,267.21L524.653,267.272L524.599,267.336L524.548,267.401L524.499,267.468L524.451,267.536L524.405,267.605L524.361,267.675L524.319,267.746L524.279,267.819L524.241,267.894L524.205,267.969L524.171,268.046L524.139,268.125L524.108,268.208L524.095,268.245L524.082,268.286L524.069,268.327L524.056,268.369L524.044,268.411L524.033,268.453L524.022,268.496L524.012,268.54L524.005,268.573L524.027,268.56L524.125,268.508L524.227,268.458L524.332,268.41L524.435,268.368L524.496,268.346L524.553,268.326L524.611,268.308L524.671,268.29L524.732,268.275L524.794,268.26L524.858,268.248L524.923,268.237L524.99,268.228L525.058,268.221L525.128,268.217L525.199,268.216L525.291,268.218L525.383,268.223L525.473,268.232L525.562,268.245L525.649,268.261L525.734,268.28L525.818,268.303L525.899,268.328L525.978,268.355L526.054,268.385L526.128,268.417L526.199,268.451L526.268,268.486L526.334,268.522L526.397,268.56L526.458,268.598L526.517,268.636L526.574,268.675L526.628,268.713L526.683,268.754L526.779,268.829L526.873,268.904L526.961,268.978L527.125,269.116L527.203,269.181L527.278,269.241L527.351,269.299L527.427,269.354L527.46,269.378L527.496,269.402L527.532,269.426L527.567,269.448L527.603,269.47L527.64,269.49L527.676,269.51L527.713,269.53L527.751,269.548L527.789,269.565L527.828,269.582L527.868,269.598L527.91,269.613L527.952,269.627L527.996,269.641L528.042,269.654L528.089,269.665L528.138,269.676L528.189,269.686L528.243,269.695L528.298,269.703L528.356,269.71L528.417,269.715L528.481,269.719L528.547,269.722L528.62,269.722L528.729,269.722L528.838,269.721L528.945,269.718L529.049,269.715L529.15,269.71L529.248,269.705L529.343,269.699L529.436,269.692L529.526,269.684L529.613,269.675L529.697,269.665L529.778,269.655L529.857,269.644L529.934,269.633L530.007,269.621L530.078,269.608L530.147,269.595L530.212,269.582L530.276,269.568L530.337,269.553L530.395,269.539L530.451,269.524L530.504,269.508L530.555,269.493L530.603,269.477L530.65,269.462L530.693,269.446L530.735,269.43L530.774,269.415L530.811,269.399L530.845,269.384L530.878,269.368L530.908,269.354L530.936,269.339L530.962,269.325L530.986,269.311L531.008,269.298L531.028,269.286L531.045,269.274L531.046,269.273L531.045,269.244L531.042,269.185L531.039,269.126L531.035,269.068L531.03,269.011L531.025,268.955L531.019,268.899L531.012,268.844L531.005,268.789L530.997,268.735L530.989,268.682L530.98,268.63L530.97,268.578L530.96,268.527L530.949,268.477L530.937,268.427L530.925,268.378L530.913,268.329L530.9,268.281L530.886,268.234L530.872,268.187L530.857,268.141L530.842,268.096L530.827,268.051L530.81,268.007L530.794,267.963L530.778,267.923L530.741,267.836L530.704,267.754L530.664,267.674L530.623,267.596L530.581,267.52L530.536,267.446L530.49,267.375L530.442,267.305L530.393,267.237L530.342,267.171L530.29,267.106L530.236,267.044L530.181,266.983L530.124,266.924L530.066,266.867L530.007,266.811L529.946,266.757L529.883,266.705L529.82,266.655L529.755,266.606L529.689,266.559L529.621,266.513L529.553,266.47L529.483,266.428L529.413,266.387L529.341,266.349L529.268,266.312L529.194,266.276L529.12,266.243L529.044,266.211L528.968,266.181L528.891,266.152L528.813,266.126L528.735,266.101L528.656,266.077L528.576,266.056L528.496,266.036L528.416,266.018L528.335,266.002L528.254,265.988L528.173,265.975L528.092,265.964L528.011,265.955L527.93,265.948L527.848,265.942L527.767,265.939L527.687,265.937L527.606,265.936L527.526,265.937Z" style="fill:rgb(89,89,89);"/>
                        </g>
                    </g>
                </g>
            </g>
        </g>
    </g>
</svg>
