<?xml version="1.0" encoding="UTF-8" standalone="no"?>
<!DOCTYPE svg PUBLIC "-//W3C//DTD SVG 1.1//EN" "http://www.w3.org/Graphics/SVG/1.1/DTD/svg11.dtd">
<svg width="100%" height="100%" viewBox="0 0 27 15" version="1.1" xmlns="http://www.w3.org/2000/svg" xmlns:xlink="http://www.w3.org/1999/xlink" xml:space="preserve" xmlns:serif="http://www.serif.com/" style="fill-rule:evenodd;clip-rule:evenodd;stroke-linejoin:round;stroke-miterlimit:2;">
    <g transform="matrix(1,0,0,1,-21,-30)">
        <g transform="matrix(0.75,0,0,0.75,-596.75,192.5)">
            <g id="Live_Disabled" transform="matrix(1.33333,0,0,1.33333,-2020.33,-1855.33)">
                <g opacity="0.3">
                    <g transform="matrix(1.6875,0,0,0.9375,999,595.25)">
                        <path d="M688,677.067C688,676.478 687.734,676 687.407,676L672.593,676C672.266,676 672,676.478 672,677.067L672,690.933C672,691.522 672.266,692 672.593,692L687.407,692C687.734,692 688,691.522 688,690.933L688,677.067Z" style="fill:white;fill-opacity:0;"/>
                    </g>
                    <g id="Icon" transform="matrix(1.57576,0,0,1.2,2093.3,1190.8)">
                        <path d="M37.25,37.231L37.25,35.167C37.25,34.706 37.534,34.333 37.885,34.333L40.423,34.333C40.774,34.333 41.058,34.706 41.058,35.167L41.058,36.833C41.058,36.985 41.027,37.128 40.973,37.25C41.027,37.372 41.058,37.515 41.058,37.667L41.058,39.333C41.058,39.485 41.027,39.628 40.973,39.75C41.027,39.872 41.058,40.015 41.058,40.167L41.058,41.833C41.058,42.294 40.774,42.667 40.423,42.667L37.885,42.667C37.534,42.667 37.25,42.294 37.25,41.833L37.25,37.667C37.25,37.742 37.242,37.817 37.227,37.889L36.347,42.056C36.271,42.417 36.021,42.667 35.736,42.667L34.286,42.667C33.998,42.667 33.747,42.413 33.673,42.047L32.829,37.881C32.815,37.811 32.808,37.739 32.808,37.667L32.808,35.167C32.808,34.706 33.092,34.333 33.442,34.333L34.688,34.333C34.808,34.333 34.921,34.377 35.017,34.454C35.113,34.378 35.226,34.333 35.346,34.333L36.615,34.333C36.966,34.333 37.25,34.706 37.25,35.167L37.25,37.231ZM29,39.333L29.635,39.333C29.985,39.333 30.269,39.706 30.269,40.167L30.269,41.833C30.269,42.294 29.985,42.667 29.635,42.667L27.096,42.667C26.746,42.667 26.462,42.294 26.462,41.833L26.462,35.167C26.462,34.706 26.746,34.333 27.096,34.333L28.365,34.333C28.716,34.333 29,34.706 29,35.167L29,39.333ZM32.173,42.667C32.524,42.667 32.808,42.294 32.808,41.833L32.808,35.167C32.808,34.706 32.524,34.333 32.173,34.333L30.904,34.333C30.553,34.333 30.269,34.706 30.269,35.167L30.269,41.833C30.269,42.294 30.553,42.667 30.904,42.667L32.173,42.667ZM35.736,41.833L36.615,37.667L36.615,35.167L35.346,35.167L35.346,37.667L35,39.836L34.712,37.667L34.688,35.167L33.442,35.167L33.442,37.667L34.286,41.833L35.736,41.833ZM32.173,41.833L32.173,35.167L30.904,35.167L30.904,41.833L32.173,41.833ZM29.635,41.833L27.096,41.833L27.096,35.167L28.365,35.167L28.365,40.167L29.635,40.167L29.635,41.833ZM39.154,37.667L39.154,36.833L40.423,36.833L40.423,35.167L37.885,35.167L37.885,41.833L40.423,41.833L40.423,40.167L39.154,40.167L39.154,39.333L40.423,39.333L40.423,37.667L39.154,37.667Z" style="fill:rgb(58,58,58);"/>
                        <path d="M35.736,41.833L36.615,37.667L36.615,35.167L35.346,35.167L35.346,37.667L35,39.836L34.712,37.667L34.688,35.167L33.442,35.167L33.442,37.667L34.286,41.833L35.736,41.833ZM32.173,41.833L32.173,35.167L30.904,35.167L30.904,41.833L32.173,41.833ZM29.635,41.833L27.096,41.833L27.096,35.167L28.365,35.167L28.365,40.167L29.635,40.167L29.635,41.833ZM39.154,37.667L39.154,36.833L40.423,36.833L40.423,35.167L37.885,35.167L37.885,41.833L40.423,41.833L40.423,40.167L39.154,40.167L39.154,39.333L40.423,39.333L40.423,37.667L39.154,37.667Z" style="fill:rgb(189,189,189);"/>
                    </g>
                </g>
            </g>
        </g>
    </g>
</svg>
