<?xml version="1.0" encoding="UTF-8" standalone="no"?><!DOCTYPE svg PUBLIC "-//W3C//DTD SVG 1.1//EN" "http://www.w3.org/Graphics/SVG/1.1/DTD/svg11.dtd"><svg width="100%" height="100%" viewBox="0 0 15 15" version="1.1" xmlns="http://www.w3.org/2000/svg" xmlns:xlink="http://www.w3.org/1999/xlink" xml:space="preserve" xmlns:serif="http://www.serif.com/" style="fill-rule:evenodd;clip-rule:evenodd;stroke-miterlimit:1;"><g id="ObjectIcons_RayDiffraction_nor"><g id="Icons"><g id="Base-Block" serif:id="Base Block"><path d="M15,2.1c0,-1.159 -0.941,-2.1 -2.1,-2.1l-10.8,0c-1.159,0 -2.1,0.941 -2.1,2.1l0,10.8c0,1.159 0.941,2.1 2.1,2.1l10.8,0c1.159,0 2.1,-0.941 2.1,-2.1l0,-10.8Z" style="fill-opacity:0;"/></g><path d="M8,5c-0,-0.552 -0.448,-1 -1,-1l-1,0c-0.552,0 -1,0.448 -1,1l-0,9c-0,0.552 0.448,1 1,1l1,0c0.552,0 1,-0.448 1,-1l-0,-9Zm-1,0l-1,0l-0,9l1,0l-0,-9Z" style="fill:#c4c4c4;"/><rect x="6" y="5" width="1" height="9" style="fill:#393939;"/><path d="M12,5c-3.235,-5.764 -8.396,-5.203 -12,1c0.02,1.8 0.954,2.528 2.489,1.644c2.875,-4.186 4.351,-5.408 7.422,-0.711l2.089,-1.933Z" style="fill:#c4c4c4;"/><path d="M1,7c1.399,-2.272 3.204,-4.614 5.5,-4.581c2.124,0.03 3.089,1.681 4.5,3.567" style="fill:none;stroke:#000;stroke-width:1px;"/><circle cx="12.5" cy="7.5" r="2.5" style="fill:#c4c4c4;"/><circle cx="12.5" cy="7.5" r="1.5"/></g></g></svg>