<?xml version="1.0" encoding="UTF-8" standalone="no"?>
<!DOCTYPE svg PUBLIC "-//W3C//DTD SVG 1.1//EN" "http://www.w3.org/Graphics/SVG/1.1/DTD/svg11.dtd">
<svg width="100%" height="100%" viewBox="0 0 8 9" version="1.1" xmlns="http://www.w3.org/2000/svg" xmlns:xlink="http://www.w3.org/1999/xlink" xml:space="preserve" xmlns:serif="http://www.serif.com/" style="fill-rule:evenodd;clip-rule:evenodd;stroke-linejoin:round;stroke-miterlimit:1.41421;">
    <g transform="matrix(1,0,0,1,-5,-3)">
        <g transform="matrix(1,0,0,1,5,3)">
            <g id="Randomizer_Off_dis" transform="matrix(0.888889,0,0,0.888889,-326.222,-200.889)">
                <g opacity="0.3">
                    <g transform="matrix(1.125,0,0,1.26563,367,226)">
                        <g id="Icon-BG" serif:id="Icon BG">
                            <rect id="Icon-BG1" serif:id="Icon BG" x="0" y="0" width="8" height="8" style="fill:rgb(211,211,211);"/>
                        </g>
                    </g>
                    <g id="Random-Icon" serif:id="Random Icon" transform="matrix(1.25,0,0,1.25,-92.875,-57.625)">
                        <g transform="matrix(1.00148,0,0,0.999691,-156.774,-38.9159)">
                            <path d="M522.998,269.464C523.44,269.205 524.287,268.389 525.207,268.375C527.07,268.348 526.759,269.634 528.716,269.634C529.898,269.634 531.231,269.589 531.966,269.054C531.994,272.766 529.853,273.964 527.5,274C525.078,274.037 522.976,272.526 522.998,269.464Z" style="fill:rgb(153,153,153);"/>
                            <path d="M525.375,268.376L525.455,268.38L525.532,268.385L525.606,268.391L525.677,268.4L525.746,268.41L525.812,268.421L525.876,268.434L525.938,268.448L525.997,268.464L526.055,268.481L526.11,268.499L526.164,268.518L526.216,268.539L526.266,268.56L526.314,268.583L526.362,268.606L526.407,268.63L526.452,268.655L526.495,268.68L526.538,268.707L526.579,268.734L526.62,268.761L526.66,268.789L526.699,268.818L526.776,268.876L526.851,268.935L526.926,268.994L527.001,269.054L527.078,269.113L527.156,269.171L527.196,269.2L527.237,269.228L527.278,269.256L527.321,269.284L527.365,269.31L527.41,269.336L527.456,269.362L527.504,269.387L527.553,269.41L527.604,269.433L527.656,269.455L527.711,269.476L527.767,269.496L527.825,269.515L527.885,269.533L527.948,269.55L528.012,269.565L528.08,269.579L528.149,269.591L528.221,269.602L528.297,269.612L528.374,269.619L528.455,269.626L528.539,269.63L528.626,269.633L528.716,269.634L528.939,269.633L529.165,269.631L529.278,269.629L529.392,269.626L529.505,269.623L529.619,269.619L529.732,269.613L529.845,269.607L529.958,269.6L530.07,269.591L530.181,269.582L530.291,269.571L530.4,269.558L530.508,269.545L530.615,269.529L530.72,269.512L530.824,269.493L530.926,269.473L531.026,269.45L531.124,269.426L531.22,269.399L531.268,269.385L531.314,269.37L531.36,269.355L531.405,269.34L531.45,269.323L531.494,269.306L531.538,269.289L531.58,269.271L531.622,269.252L531.664,269.233L531.704,269.213L531.744,269.192L531.783,269.171L531.821,269.149L531.858,269.126L531.895,269.103L531.931,269.079L531.966,269.054L531.966,269.141L531.965,269.226L531.964,269.311L531.962,269.395L531.959,269.478L531.955,269.56L531.951,269.641L531.946,269.721L531.94,269.8L531.933,269.879L531.926,269.956L531.918,270.033L531.909,270.109L531.9,270.184L531.889,270.258L531.878,270.331L531.867,270.403L531.854,270.475L531.841,270.545L531.827,270.615L531.813,270.684L531.798,270.752L531.782,270.819L531.766,270.886L531.749,270.951L531.731,271.016L531.712,271.08L531.693,271.143L531.674,271.206L531.653,271.267L531.632,271.328L531.611,271.388L531.589,271.447L531.566,271.505L531.542,271.563L531.518,271.619L531.494,271.675L531.468,271.731L531.443,271.785L531.416,271.839L531.389,271.892L531.362,271.944L531.334,271.995L531.305,272.046L531.276,272.096L531.247,272.145L531.216,272.193L531.186,272.241L531.154,272.288L531.122,272.334L531.09,272.379L531.057,272.424L531.024,272.468L530.99,272.511L530.956,272.554L530.921,272.596L530.886,272.637L530.85,272.677L530.814,272.717L530.777,272.756L530.74,272.794L530.702,272.832L530.664,272.869L530.626,272.906L530.587,272.941L530.548,272.976L530.508,273.011L530.468,273.044L530.427,273.077L530.386,273.11L530.344,273.141L530.303,273.172L530.26,273.203L530.218,273.233L530.175,273.262L530.132,273.29L530.088,273.318L530.044,273.345L529.999,273.372L529.954,273.398L529.909,273.424L529.864,273.448L529.818,273.473L529.772,273.496L529.679,273.542L529.584,273.585L529.488,273.625L529.391,273.664L529.293,273.7L529.194,273.734L529.094,273.766L528.993,273.796L528.891,273.823L528.788,273.848L528.685,273.872L528.58,273.893L528.475,273.912L528.369,273.93L528.262,273.945L528.155,273.958L528.047,273.97L527.938,273.979L527.829,273.987L527.72,273.993L527.61,273.997L527.5,274L527.387,274.001L527.274,273.999L527.162,273.995L527.05,273.989L526.939,273.98L526.829,273.969L526.719,273.956L526.61,273.941L526.502,273.924L526.395,273.904L526.289,273.882L526.183,273.857L526.079,273.831L525.975,273.802L525.873,273.771L525.772,273.737L525.671,273.702L525.572,273.664L525.475,273.623L525.378,273.581L525.283,273.536L525.189,273.489L525.096,273.44L525.005,273.388L524.96,273.362L524.916,273.334L524.871,273.307L524.827,273.278L524.784,273.249L524.741,273.22L524.698,273.19L524.656,273.159L524.614,273.128L524.572,273.096L524.531,273.064L524.491,273.031L524.451,272.998L524.411,272.964L524.371,272.929L524.332,272.894L524.294,272.858L524.256,272.822L524.218,272.785L524.181,272.748L524.145,272.71L524.109,272.671L524.073,272.632L524.038,272.592L524.003,272.552L523.969,272.511L523.935,272.47L523.902,272.428L523.869,272.385L523.837,272.342L523.805,272.298L523.774,272.254L523.744,272.209L523.713,272.164L523.684,272.118L523.655,272.072L523.626,272.025L523.599,271.977L523.571,271.929L523.545,271.88L523.518,271.831L523.493,271.781L523.468,271.73L523.443,271.679L523.419,271.628L523.396,271.575L523.374,271.523L523.352,271.469L523.33,271.416L523.309,271.361L523.289,271.306L523.27,271.25L523.251,271.194L523.232,271.138L523.215,271.08L523.198,271.022L523.181,270.964L523.166,270.905L523.151,270.845L523.136,270.785L523.123,270.725L523.11,270.663L523.097,270.602L523.086,270.539L523.075,270.476L523.065,270.413L523.055,270.349L523.046,270.284L523.038,270.219L523.031,270.153L523.024,270.086L523.018,270.02L523.013,269.952L523.009,269.884L523.005,269.815L523.002,269.746L523,269.676L522.998,269.606L522.998,269.535L522.998,269.464L523.04,269.438L523.085,269.409L523.133,269.377L523.182,269.343L523.287,269.268L523.4,269.186L523.521,269.099L523.648,269.009L523.715,268.963L523.783,268.918L523.852,268.872L523.923,268.827L523.995,268.783L524.069,268.74L524.144,268.698L524.22,268.657L524.297,268.618L524.376,268.581L524.455,268.547L524.495,268.53L524.536,268.514L524.576,268.499L524.617,268.485L524.658,268.471L524.699,268.458L524.74,268.446L524.782,268.435L524.824,268.425L524.866,268.415L524.908,268.406L524.95,268.399L524.992,268.392L525.035,268.387L525.078,268.382L525.121,268.379L525.163,268.376L525.207,268.375L525.292,268.375L525.375,268.376ZM525.219,269.125L525.195,269.126L525.171,269.127L525.148,269.129L525.124,269.132L525.099,269.135L525.074,269.139L525.049,269.143L525.023,269.149L524.997,269.155L524.97,269.161L524.943,269.168L524.916,269.176L524.888,269.185L524.86,269.195L524.831,269.205L524.803,269.215L524.774,269.227L524.747,269.238L524.685,269.265L524.625,269.293L524.564,269.324L524.503,269.356L524.442,269.391L524.38,269.427L524.319,269.464L524.257,269.503L524.196,269.543L524.135,269.584L524.076,269.625L523.955,269.71L523.838,269.794L523.757,269.853L523.76,269.899L523.765,269.958L523.77,270.016L523.775,270.074L523.782,270.131L523.789,270.187L523.796,270.243L523.805,270.298L523.813,270.352L523.823,270.406L523.833,270.459L523.843,270.512L523.854,270.564L523.866,270.616L523.878,270.666L523.891,270.717L523.904,270.766L523.917,270.815L523.932,270.864L523.946,270.912L523.962,270.959L523.977,271.006L523.994,271.052L524.01,271.097L524.028,271.143L524.045,271.187L524.064,271.231L524.082,271.274L524.101,271.317L524.121,271.359L524.141,271.401L524.161,271.442L524.182,271.483L524.203,271.523L524.225,271.563L524.247,271.602L524.27,271.641L524.293,271.679L524.316,271.716L524.34,271.753L524.364,271.79L524.389,271.826L524.414,271.862L524.44,271.897L524.466,271.932L524.492,271.966L524.519,272L524.546,272.033L524.573,272.066L524.601,272.098L524.629,272.13L524.658,272.161L524.687,272.192L524.716,272.223L524.746,272.253L524.776,272.282L524.807,272.311L524.838,272.34L524.869,272.368L524.901,272.396L524.933,272.424L524.965,272.45L524.998,272.477L525.031,272.503L525.065,272.529L525.098,272.554L525.133,272.579L525.167,272.603L525.202,272.627L525.237,272.65L525.273,272.673L525.309,272.696L525.345,272.718L525.38,272.739L525.457,272.782L525.532,272.822L525.609,272.861L525.688,272.898L525.768,272.933L525.849,272.966L525.931,272.998L526.014,273.027L526.099,273.055L526.185,273.081L526.272,273.106L526.36,273.128L526.449,273.149L526.539,273.168L526.63,273.184L526.722,273.199L526.815,273.212L526.909,273.224L527.004,273.233L527.099,273.24L527.196,273.245L527.293,273.249L527.39,273.25L527.49,273.25L527.587,273.248L527.685,273.244L527.782,273.238L527.878,273.232L527.974,273.223L528.069,273.213L528.162,273.201L528.255,273.188L528.347,273.173L528.438,273.156L528.528,273.138L528.617,273.118L528.704,273.096L528.791,273.073L528.876,273.048L528.96,273.022L529.043,272.993L529.124,272.963L529.204,272.931L529.282,272.898L529.36,272.863L529.438,272.825L529.473,272.807L529.51,272.787L529.547,272.767L529.583,272.747L529.619,272.726L529.655,272.704L529.69,272.683L529.725,272.66L529.759,272.637L529.794,272.614L529.827,272.591L529.861,272.566L529.894,272.542L529.927,272.517L529.959,272.491L529.991,272.465L530.023,272.439L530.055,272.411L530.086,272.384L530.116,272.356L530.147,272.327L530.177,272.298L530.206,272.268L530.236,272.238L530.264,272.207L530.293,272.176L530.321,272.144L530.349,272.111L530.377,272.078L530.404,272.044L530.431,272.01L530.457,271.975L530.483,271.939L530.509,271.903L530.535,271.866L530.56,271.829L530.584,271.79L530.609,271.751L530.633,271.712L530.656,271.671L530.68,271.63L530.702,271.589L530.725,271.546L530.747,271.503L530.768,271.459L530.79,271.414L530.81,271.368L530.831,271.322L530.851,271.275L530.87,271.227L530.889,271.178L530.908,271.128L530.926,271.078L530.944,271.027L530.961,270.974L530.978,270.921L530.994,270.868L531.01,270.813L531.025,270.757L531.04,270.701L531.054,270.643L531.068,270.585L531.081,270.525L531.094,270.465L531.106,270.404L531.117,270.342L531.128,270.279L531.138,270.215L531.142,270.193L531.082,270.206L530.965,270.23L530.847,270.252L530.729,270.271L530.61,270.288L530.49,270.303L530.37,270.317L530.25,270.329L530.13,270.339L530.01,270.348L529.89,270.356L529.77,270.363L529.65,270.368L529.531,270.373L529.412,270.376L529.293,270.379L529.175,270.381L528.944,270.384L528.713,270.384L528.61,270.383L528.507,270.38L528.406,270.374L528.308,270.367L528.212,270.357L528.119,270.345L528.027,270.331L527.938,270.316L527.851,270.298L527.767,270.278L527.684,270.256L527.604,270.232L527.526,270.207L527.45,270.18L527.376,270.151L527.305,270.121L527.236,270.09L527.169,270.057L527.104,270.024L527.042,269.99L526.982,269.955L526.925,269.92L526.869,269.885L526.816,269.849L526.765,269.814L526.714,269.777L526.625,269.71L526.54,269.645L526.461,269.582L526.388,269.524L526.32,269.471L526.254,269.421L526.225,269.4L526.195,269.379L526.165,269.359L526.136,269.34L526.108,269.322L526.079,269.306L526.051,269.29L526.022,269.274L525.993,269.26L525.963,269.246L525.932,269.233L525.901,269.221L525.868,269.209L525.833,269.198L525.797,269.187L525.758,269.177L525.717,269.167L525.674,269.159L525.628,269.151L525.58,269.144L525.528,269.138L525.473,269.133L525.414,269.129L525.352,269.126L525.287,269.125L525.219,269.125Z" style="fill:rgb(211,211,211);"/>
                        </g>
                        <g transform="matrix(1.00148,0,0,0.999691,-156.774,-38.9159)">
                            <path d="M523.054,270.428C523.063,270.353 523,269.383 522.999,269.309C522.965,266.544 525.468,265.056 527.5,265C529.635,264.941 532.018,266.348 531.984,269.499C531.98,269.854 531.239,270.665 528.615,270.66C526.632,270.657 526.389,269.154 525.199,269.154C524.472,269.154 523.549,270.092 523.054,270.428Z" style="fill:rgb(153,153,153);"/>
                            <path d="M527.701,264.999L527.802,265.001L527.903,265.006L528.004,265.013L528.105,265.022L528.206,265.034L528.307,265.047L528.408,265.063L528.509,265.081L528.609,265.101L528.71,265.123L528.809,265.148L528.909,265.175L529.008,265.204L529.106,265.235L529.204,265.268L529.301,265.304L529.397,265.342L529.493,265.383L529.588,265.425L529.682,265.47L529.774,265.517L529.866,265.567L529.957,265.619L530.046,265.673L530.135,265.729L530.222,265.788L530.265,265.818L530.307,265.849L530.349,265.88L530.391,265.912L530.433,265.945L530.474,265.978L530.515,266.011L530.555,266.046L530.596,266.081L530.635,266.116L530.674,266.152L530.713,266.189L530.752,266.226L530.789,266.264L530.827,266.302L530.864,266.341L530.901,266.381L530.937,266.421L530.972,266.462L531.008,266.504L531.042,266.546L531.076,266.588L531.11,266.631L531.143,266.675L531.176,266.72L531.208,266.765L531.24,266.81L531.271,266.857L531.301,266.903L531.331,266.951L531.36,266.999L531.389,267.047L531.417,267.097L531.445,267.147L531.472,267.197L531.499,267.248L531.524,267.3L531.55,267.352L531.574,267.405L531.598,267.458L531.621,267.513L531.644,267.567L531.666,267.623L531.687,267.679L531.708,267.735L531.728,267.793L531.747,267.85L531.766,267.909L531.784,267.968L531.801,268.028L531.817,268.088L531.833,268.149L531.848,268.21L531.863,268.273L531.876,268.335L531.889,268.399L531.901,268.463L531.912,268.527L531.923,268.593L531.932,268.659L531.941,268.725L531.949,268.792L531.956,268.86L531.963,268.929L531.969,268.998L531.973,269.068L531.977,269.138L531.98,269.209L531.983,269.281L531.984,269.353L531.985,269.426L531.984,269.499L531.984,269.516L531.982,269.534L531.979,269.552L531.975,269.571L531.969,269.59L531.963,269.61L531.955,269.63L531.946,269.651L531.936,269.672L531.924,269.694L531.911,269.716L531.897,269.738L531.881,269.761L531.864,269.784L531.845,269.807L531.825,269.831L531.804,269.855L531.781,269.878L531.756,269.902L531.73,269.927L531.702,269.951L531.672,269.975L531.641,269.999L531.608,270.024L531.574,270.048L531.538,270.072L531.5,270.096L531.46,270.12L531.418,270.144L531.375,270.168L531.329,270.191L531.282,270.214L531.233,270.237L531.182,270.26L531.129,270.282L531.074,270.304L531.017,270.326L530.958,270.347L530.896,270.368L530.833,270.388L530.768,270.408L530.7,270.427L530.63,270.446L530.558,270.464L530.484,270.482L530.408,270.499L530.329,270.515L530.248,270.531L530.164,270.545L530.079,270.559L529.99,270.573L529.9,270.585L529.807,270.597L529.711,270.607L529.613,270.617L529.513,270.626L529.41,270.634L529.304,270.641L529.196,270.647L529.085,270.652L528.971,270.656L528.855,270.658L528.736,270.66L528.615,270.66L528.523,270.659L528.434,270.656L528.347,270.65L528.263,270.643L528.181,270.633L528.101,270.622L528.023,270.609L527.947,270.595L527.874,270.578L527.802,270.56L527.733,270.541L527.665,270.52L527.599,270.498L527.535,270.474L527.473,270.449L527.412,270.424L527.352,270.396L527.295,270.368L527.238,270.339L527.183,270.309L527.13,270.279L527.077,270.247L527.026,270.215L526.976,270.182L526.927,270.149L526.879,270.115L526.832,270.081L526.786,270.046L526.696,269.976L526.609,269.906L526.525,269.835L526.442,269.766L526.361,269.697L526.28,269.63L526.2,269.565L526.159,269.533L526.119,269.503L526.079,269.473L526.038,269.444L525.997,269.416L525.956,269.389L525.914,269.363L525.872,269.338L525.829,269.315L525.786,269.293L525.742,269.272L525.698,269.253L525.652,269.235L525.606,269.219L525.559,269.204L525.511,269.191L525.462,269.18L525.412,269.171L525.36,269.164L525.308,269.158L525.254,269.155L525.199,269.154L525.165,269.155L525.13,269.157L525.096,269.16L525.061,269.165L525.025,269.17L524.99,269.177L524.954,269.186L524.918,269.195L524.882,269.205L524.846,269.217L524.81,269.229L524.774,269.243L524.737,269.257L524.7,269.272L524.664,269.289L524.627,269.306L524.59,269.324L524.553,269.342L524.479,269.382L524.405,269.424L524.332,269.468L524.258,269.515L524.185,269.564L524.112,269.614L524.04,269.665L523.968,269.717L523.897,269.77L523.828,269.824L523.759,269.877L523.625,269.983L523.496,270.087L523.374,270.185L523.259,270.276L523.204,270.319L523.152,270.358L523.102,270.394L523.054,270.428L523.054,270.427L523.055,270.404L523.054,270.361L523.049,270.232L523.041,270.06L523.03,269.868L523.009,269.504L523.002,269.375L522.999,269.309L522.998,269.244L522.999,269.18L523,269.116L523.003,269.053L523.006,268.99L523.01,268.928L523.015,268.867L523.021,268.805L523.028,268.744L523.036,268.684L523.044,268.624L523.054,268.565L523.064,268.506L523.075,268.448L523.086,268.39L523.099,268.332L523.112,268.275L523.127,268.219L523.142,268.162L523.157,268.107L523.174,268.052L523.191,267.997L523.209,267.943L523.227,267.889L523.247,267.836L523.267,267.783L523.288,267.731L523.309,267.679L523.331,267.628L523.354,267.577L523.378,267.527L523.402,267.477L523.427,267.428L523.452,267.379L523.479,267.33L523.505,267.283L523.533,267.235L523.561,267.188L523.589,267.142L523.619,267.096L523.648,267.05L523.679,267.005L523.71,266.961L523.741,266.917L523.773,266.873L523.806,266.83L523.839,266.788L523.872,266.745L523.907,266.704L523.941,266.663L523.976,266.622L524.012,266.582L524.048,266.542L524.085,266.503L524.159,266.426L524.236,266.352L524.314,266.279L524.394,266.208L524.475,266.139L524.558,266.072L524.642,266.007L524.728,265.944L524.815,265.883L524.903,265.824L524.992,265.767L525.083,265.712L525.174,265.659L525.267,265.608L525.36,265.559L525.454,265.512L525.549,265.467L525.645,265.425L525.741,265.384L525.838,265.345L525.935,265.308L526.033,265.273L526.131,265.241L526.229,265.21L526.327,265.182L526.426,265.155L526.525,265.131L526.623,265.108L526.722,265.088L526.82,265.07L526.919,265.053L527.017,265.039L527.114,265.027L527.212,265.017L527.308,265.009L527.404,265.004L527.5,265L527.6,264.998L527.701,264.999ZM527.521,265.75L527.441,265.753L527.361,265.758L527.28,265.764L527.198,265.773L527.116,265.783L527.033,265.795L526.949,265.809L526.866,265.824L526.782,265.842L526.697,265.861L526.613,265.882L526.529,265.904L526.444,265.929L526.36,265.955L526.276,265.983L526.192,266.013L526.109,266.044L526.026,266.078L525.944,266.112L525.862,266.149L525.781,266.188L525.7,266.228L525.621,266.269L525.542,266.313L525.464,266.358L525.387,266.404L525.312,266.453L525.237,266.502L525.164,266.554L525.092,266.607L525.021,266.661L524.952,266.717L524.884,266.775L524.818,266.834L524.753,266.894L524.69,266.956L524.627,267.021L524.598,267.052L524.568,267.084L524.539,267.117L524.51,267.151L524.482,267.184L524.454,267.218L524.427,267.252L524.4,267.287L524.373,267.322L524.347,267.358L524.321,267.393L524.296,267.43L524.272,267.466L524.248,267.503L524.224,267.54L524.201,267.578L524.178,267.615L524.156,267.654L524.135,267.692L524.114,267.731L524.093,267.771L524.073,267.81L524.054,267.85L524.035,267.891L524.016,267.932L523.999,267.973L523.981,268.014L523.965,268.056L523.948,268.099L523.933,268.141L523.918,268.185L523.903,268.228L523.89,268.272L523.876,268.316L523.864,268.361L523.852,268.406L523.84,268.452L523.829,268.498L523.819,268.545L523.81,268.592L523.801,268.639L523.793,268.687L523.785,268.735L523.778,268.784L523.772,268.833L523.766,268.883L523.761,268.934L523.76,268.945L523.766,268.941L523.851,268.885L523.938,268.83L524.027,268.776L524.118,268.725L524.208,268.676L524.258,268.651L524.307,268.628L524.355,268.605L524.405,268.583L524.455,268.562L524.507,268.542L524.559,268.522L524.612,268.504L524.666,268.487L524.721,268.471L524.776,268.457L524.834,268.444L524.892,268.432L524.951,268.422L525.011,268.414L525.073,268.409L525.135,268.405L525.199,268.404L525.284,268.405L525.368,268.41L525.45,268.419L525.532,268.43L525.612,268.445L525.69,268.462L525.766,268.483L525.841,268.506L525.913,268.531L525.983,268.559L526.051,268.588L526.117,268.619L526.18,268.652L526.241,268.686L526.301,268.72L526.358,268.756L526.413,268.792L526.466,268.828L526.518,268.865L526.568,268.902L526.617,268.939L526.665,268.977L526.754,269.049L526.841,269.121L527.005,269.26L527.084,269.326L527.162,269.388L527.24,269.45L527.277,269.477L527.315,269.505L527.353,269.532L527.392,269.558L527.431,269.583L527.469,269.608L527.509,269.632L527.548,269.654L527.589,269.676L527.63,269.697L527.671,269.718L527.714,269.737L527.757,269.755L527.802,269.773L527.848,269.79L527.895,269.806L527.943,269.821L527.994,269.835L528.046,269.848L528.1,269.86L528.156,269.871L528.214,269.881L528.275,269.889L528.338,269.896L528.403,269.902L528.471,269.906L528.542,269.909L528.619,269.91L528.73,269.91L528.842,269.908L528.95,269.906L529.056,269.902L529.159,269.898L529.259,269.892L529.357,269.886L529.451,269.878L529.543,269.87L529.632,269.861L529.719,269.852L529.803,269.841L529.884,269.83L529.963,269.818L530.039,269.806L530.112,269.793L530.183,269.779L530.251,269.765L530.317,269.75L530.381,269.735L530.442,269.72L530.501,269.704L530.557,269.688L530.611,269.672L530.662,269.655L530.711,269.639L530.758,269.622L530.803,269.605L530.845,269.588L530.885,269.571L530.923,269.554L530.959,269.538L530.992,269.521L531.024,269.505L531.053,269.489L531.081,269.473L531.106,269.458L531.13,269.443L531.151,269.428L531.171,269.415L531.189,269.402L531.204,269.389L531.219,269.378L531.231,269.367L531.235,269.363L531.234,269.3L531.232,269.237L531.229,269.176L531.226,269.115L531.222,269.054L531.217,268.995L531.211,268.936L531.205,268.877L531.198,268.82L531.191,268.763L531.182,268.707L531.173,268.651L531.164,268.596L531.154,268.542L531.143,268.489L531.132,268.436L531.12,268.384L531.107,268.332L531.094,268.281L531.08,268.231L531.066,268.181L531.051,268.132L531.035,268.083L531.019,268.035L531.003,267.988L530.986,267.941L530.968,267.895L530.95,267.85L530.932,267.805L530.912,267.76L530.893,267.717L530.873,267.673L530.852,267.631L530.831,267.589L530.81,267.547L530.788,267.506L530.765,267.466L530.742,267.426L530.719,267.386L530.695,267.347L530.671,267.309L530.646,267.271L530.621,267.234L530.596,267.197L530.57,267.16L530.543,267.124L530.516,267.089L530.489,267.054L530.462,267.02L530.434,266.986L530.405,266.952L530.376,266.919L530.347,266.887L530.318,266.855L530.288,266.823L530.257,266.792L530.227,266.761L530.196,266.731L530.164,266.701L530.132,266.672L530.1,266.643L530.068,266.615L530.035,266.587L530.002,266.56L529.968,266.533L529.934,266.506L529.9,266.48L529.865,266.454L529.831,266.429L529.797,266.406L529.724,266.356L529.652,266.31L529.578,266.266L529.503,266.223L529.427,266.182L529.351,266.143L529.273,266.106L529.194,266.071L529.115,266.037L529.034,266.005L528.953,265.976L528.872,265.947L528.789,265.921L528.706,265.897L528.623,265.874L528.539,265.854L528.455,265.835L528.37,265.818L528.285,265.803L528.2,265.79L528.115,265.778L528.03,265.769L527.944,265.761L527.859,265.755L527.774,265.751L527.689,265.749L527.605,265.749L527.521,265.75Z" style="fill:rgb(211,211,211);"/>
                        </g>
                    </g>
                    <g id="Random-Icon1" serif:id="Random Icon" transform="matrix(1.35629,0,0,1.36728,-132.278,-84.6913)">
                        <g transform="matrix(1.00148,0,0,0.999691,-156.774,-38.9159)">
                            <path d="M525.375,268.376L525.455,268.38L525.532,268.385L525.606,268.391L525.677,268.4L525.746,268.41L525.812,268.421L525.876,268.434L525.938,268.448L525.997,268.464L526.055,268.481L526.11,268.499L526.164,268.518L526.216,268.539L526.266,268.56L526.314,268.583L526.362,268.606L526.407,268.63L526.452,268.655L526.495,268.68L526.538,268.707L526.579,268.734L526.62,268.761L526.66,268.789L526.699,268.818L526.776,268.876L526.851,268.935L526.926,268.994L527.001,269.054L527.078,269.113L527.156,269.171L527.196,269.2L527.237,269.228L527.278,269.256L527.321,269.284L527.365,269.31L527.41,269.336L527.456,269.362L527.504,269.387L527.553,269.41L527.604,269.433L527.656,269.455L527.711,269.476L527.767,269.496L527.825,269.515L527.885,269.533L527.948,269.55L528.012,269.565L528.08,269.579L528.149,269.591L528.221,269.602L528.297,269.612L528.374,269.619L528.455,269.626L528.539,269.63L528.626,269.633L528.716,269.634L528.939,269.633L529.165,269.631L529.278,269.629L529.392,269.626L529.505,269.623L529.619,269.619L529.732,269.613L529.845,269.607L529.958,269.6L530.07,269.591L530.181,269.582L530.291,269.571L530.4,269.558L530.508,269.545L530.615,269.529L530.72,269.512L530.824,269.493L530.926,269.473L531.026,269.45L531.076,269.438L531.124,269.426L531.173,269.413L531.22,269.399L531.268,269.385L531.314,269.37L531.36,269.355L531.405,269.34L531.45,269.323L531.494,269.306L531.538,269.289L531.58,269.271L531.622,269.252L531.664,269.233L531.704,269.213L531.744,269.192L531.783,269.171L531.821,269.149L531.858,269.126L531.895,269.103L531.931,269.079L531.966,269.054L531.966,269.141L531.965,269.226L531.964,269.311L531.962,269.395L531.959,269.478L531.955,269.56L531.951,269.641L531.946,269.721L531.94,269.8L531.933,269.879L531.926,269.956L531.918,270.033L531.909,270.109L531.9,270.184L531.889,270.258L531.878,270.331L531.867,270.403L531.854,270.475L531.841,270.545L531.827,270.615L531.813,270.684L531.798,270.752L531.782,270.819L531.766,270.886L531.749,270.951L531.731,271.016L531.712,271.08L531.693,271.143L531.674,271.206L531.653,271.267L531.632,271.328L531.611,271.388L531.589,271.447L531.566,271.505L531.542,271.563L531.518,271.619L531.494,271.675L531.468,271.731L531.443,271.785L531.416,271.839L531.389,271.892L531.362,271.944L531.334,271.995L531.305,272.046L531.276,272.096L531.247,272.145L531.216,272.193L531.186,272.241L531.154,272.288L531.122,272.334L531.09,272.379L531.057,272.424L531.024,272.468L530.99,272.511L530.956,272.554L530.921,272.596L530.886,272.637L530.85,272.677L530.814,272.717L530.777,272.756L530.74,272.794L530.702,272.832L530.664,272.869L530.626,272.906L530.587,272.941L530.548,272.976L530.508,273.011L530.468,273.044L530.427,273.077L530.386,273.11L530.344,273.141L530.303,273.172L530.26,273.203L530.218,273.233L530.175,273.262L530.132,273.29L530.088,273.318L530.044,273.345L529.999,273.372L529.954,273.398L529.909,273.424L529.864,273.448L529.818,273.473L529.772,273.496L529.725,273.519L529.679,273.542L529.632,273.563L529.584,273.585L529.536,273.605L529.488,273.625L529.44,273.645L529.391,273.664L529.343,273.682L529.293,273.7L529.194,273.734L529.094,273.766L528.993,273.796L528.891,273.823L528.788,273.848L528.685,273.872L528.58,273.893L528.475,273.912L528.369,273.93L528.262,273.945L528.155,273.958L528.047,273.97L527.938,273.979L527.829,273.987L527.72,273.993L527.61,273.997L527.5,274L527.387,274.001L527.274,273.999L527.162,273.995L527.05,273.989L526.939,273.98L526.829,273.969L526.719,273.956L526.61,273.941L526.502,273.924L526.395,273.904L526.289,273.882L526.183,273.857L526.079,273.831L525.975,273.802L525.924,273.787L525.873,273.771L525.822,273.754L525.772,273.737L525.721,273.72L525.671,273.702L525.622,273.683L525.572,273.664L525.523,273.644L525.475,273.623L525.426,273.602L525.378,273.581L525.33,273.559L525.283,273.536L525.236,273.513L525.189,273.489L525.142,273.465L525.096,273.44L525.051,273.414L525.005,273.388L524.96,273.362L524.916,273.334L524.871,273.307L524.827,273.278L524.784,273.249L524.741,273.22L524.698,273.19L524.656,273.159L524.614,273.128L524.572,273.096L524.531,273.064L524.491,273.031L524.451,272.998L524.411,272.964L524.371,272.929L524.332,272.894L524.294,272.858L524.256,272.822L524.218,272.785L524.181,272.748L524.145,272.71L524.109,272.671L524.073,272.632L524.038,272.592L524.003,272.552L523.969,272.511L523.935,272.47L523.902,272.428L523.869,272.385L523.837,272.342L523.805,272.298L523.774,272.254L523.744,272.209L523.713,272.164L523.684,272.118L523.655,272.072L523.626,272.025L523.599,271.977L523.571,271.929L523.545,271.88L523.518,271.831L523.493,271.781L523.468,271.73L523.443,271.679L523.419,271.628L523.396,271.575L523.374,271.523L523.352,271.469L523.33,271.416L523.309,271.361L523.289,271.306L523.27,271.25L523.251,271.194L523.232,271.138L523.215,271.08L523.198,271.022L523.181,270.964L523.166,270.905L523.151,270.845L523.136,270.785L523.123,270.725L523.11,270.663L523.097,270.602L523.086,270.539L523.075,270.476L523.065,270.413L523.055,270.349L523.046,270.284L523.038,270.219L523.031,270.153L523.024,270.086L523.018,270.02L523.013,269.952L523.009,269.884L523.005,269.815L523.002,269.746L523,269.676L522.998,269.606L522.998,269.535L522.998,269.464L523.04,269.438L523.085,269.409L523.133,269.377L523.182,269.343L523.287,269.268L523.4,269.186L523.521,269.099L523.648,269.009L523.715,268.963L523.783,268.918L523.852,268.872L523.923,268.827L523.995,268.783L524.069,268.74L524.144,268.698L524.22,268.657L524.297,268.618L524.376,268.581L524.415,268.564L524.455,268.547L524.495,268.53L524.536,268.514L524.576,268.499L524.617,268.485L524.658,268.471L524.699,268.458L524.74,268.446L524.782,268.435L524.824,268.425L524.866,268.415L524.908,268.406L524.95,268.399L524.992,268.392L525.035,268.387L525.078,268.382L525.121,268.379L525.163,268.376L525.207,268.375L525.292,268.375L525.375,268.376ZM525.218,269.061L525.192,269.062L525.168,269.063L525.143,269.065L525.117,269.068L525.091,269.071L525.065,269.075L525.039,269.08L525.012,269.085L524.984,269.092L524.957,269.099L524.929,269.106L524.9,269.114L524.871,269.123L524.842,269.133L524.813,269.144L524.783,269.155L524.753,269.166L524.723,269.179L524.693,269.192L524.665,269.204L524.601,269.234L524.539,269.265L524.477,269.299L524.414,269.334L524.352,269.37L524.29,269.408L524.228,269.448L524.166,269.488L524.105,269.529L524.045,269.57L523.923,269.656L523.806,269.741L523.696,269.82L523.698,269.843L523.701,269.904L523.706,269.963L523.711,270.022L523.717,270.081L523.724,270.139L523.731,270.196L523.738,270.252L523.747,270.308L523.756,270.364L523.765,270.418L523.775,270.473L523.786,270.526L523.797,270.579L523.809,270.631L523.821,270.683L523.834,270.734L523.848,270.785L523.861,270.834L523.876,270.884L523.891,270.933L523.907,270.981L523.923,271.028L523.939,271.075L523.956,271.122L523.974,271.168L523.992,271.213L524.01,271.258L524.029,271.302L524.049,271.346L524.069,271.389L524.089,271.431L524.11,271.473L524.131,271.515L524.153,271.556L524.175,271.596L524.198,271.636L524.221,271.676L524.244,271.715L524.268,271.753L524.292,271.791L524.317,271.828L524.342,271.865L524.368,271.901L524.394,271.937L524.42,271.973L524.447,272.008L524.475,272.042L524.502,272.076L524.53,272.109L524.559,272.142L524.588,272.175L524.617,272.207L524.646,272.238L524.676,272.27L524.707,272.3L524.737,272.33L524.769,272.36L524.8,272.389L524.832,272.418L524.864,272.447L524.897,272.475L524.93,272.502L524.963,272.529L524.997,272.556L525.031,272.582L525.066,272.607L525.101,272.633L525.136,272.657L525.171,272.682L525.207,272.706L525.244,272.729L525.28,272.752L525.317,272.775L525.355,272.797L525.392,272.818L525.43,272.839L525.469,272.86L525.507,272.881L525.546,272.9L525.586,272.92L525.625,272.939L525.665,272.957L525.706,272.975L525.746,272.993L525.787,273.01L525.829,273.027L525.87,273.043L525.912,273.059L525.954,273.074L525.997,273.089L526.04,273.103L526.083,273.117L526.126,273.131L526.168,273.143L526.258,273.168L526.347,273.191L526.437,273.212L526.529,273.231L526.621,273.248L526.714,273.263L526.808,273.276L526.903,273.288L526.999,273.297L527.096,273.304L527.193,273.31L527.291,273.313L527.39,273.315L527.49,273.314L527.589,273.312L527.687,273.308L527.785,273.303L527.883,273.296L527.979,273.287L528.075,273.277L528.17,273.265L528.263,273.252L528.356,273.236L528.448,273.22L528.539,273.201L528.629,273.181L528.718,273.159L528.805,273.136L528.892,273.11L528.977,273.083L529.062,273.054L529.102,273.039L529.143,273.024L529.184,273.008L529.224,272.992L529.264,272.975L529.304,272.958L529.344,272.94L529.383,272.922L529.422,272.903L529.46,272.884L529.498,272.865L529.536,272.845L529.573,272.825L529.61,272.804L529.647,272.782L529.683,272.761L529.719,272.738L529.755,272.716L529.79,272.692L529.825,272.669L529.859,272.645L529.893,272.62L529.927,272.595L529.961,272.569L529.994,272.543L530.027,272.517L530.059,272.489L530.091,272.462L530.123,272.433L530.154,272.405L530.185,272.375L530.216,272.346L530.246,272.315L530.276,272.284L530.306,272.253L530.335,272.221L530.364,272.188L530.392,272.155L530.42,272.121L530.448,272.086L530.476,272.051L530.503,272.016L530.529,271.979L530.556,271.942L530.582,271.904L530.607,271.866L530.633,271.827L530.657,271.787L530.682,271.747L530.706,271.706L530.73,271.664L530.753,271.621L530.776,271.578L530.798,271.534L530.82,271.489L530.842,271.443L530.863,271.397L530.884,271.349L530.904,271.301L530.924,271.252L530.943,271.203L530.962,271.152L530.981,271.101L530.999,271.049L531.016,270.996L531.033,270.942L531.05,270.887L531.066,270.832L531.081,270.775L531.096,270.718L531.111,270.659L531.125,270.6L531.138,270.54L531.151,270.479L531.163,270.417L531.175,270.354L531.186,270.291L531.196,270.226L531.206,270.16L531.213,270.111L531.185,270.118L531.071,270.143L530.955,270.167L530.838,270.188L530.72,270.207L530.602,270.224L530.484,270.239L530.365,270.253L530.245,270.265L530.126,270.275L530.006,270.284L529.887,270.292L529.767,270.298L529.648,270.304L529.529,270.308L529.41,270.312L529.292,270.315L529.174,270.317L528.944,270.319L528.713,270.32L528.611,270.319L528.509,270.316L528.41,270.31L528.313,270.303L528.218,270.293L528.126,270.281L528.036,270.268L527.948,270.252L527.863,270.234L527.779,270.215L527.698,270.194L527.62,270.17L527.543,270.145L527.468,270.119L527.396,270.091L527.326,270.061L527.258,270.031L527.193,269.999L527.13,269.966L527.069,269.933L527.01,269.899L526.954,269.864L526.899,269.829L526.847,269.794L526.797,269.76L526.747,269.724L526.658,269.658L526.574,269.592L526.495,269.53L526.422,269.472L526.354,269.418L526.287,269.368L526.257,269.346L526.226,269.325L526.196,269.304L526.166,269.285L526.136,269.266L526.106,269.249L526.076,269.232L526.046,269.216L526.016,269.201L525.985,269.187L525.953,269.173L525.919,269.16L525.885,269.148L525.849,269.136L525.811,269.125L525.771,269.114L525.729,269.104L525.684,269.095L525.637,269.087L525.587,269.08L525.533,269.074L525.477,269.068L525.417,269.064L525.354,269.062L525.287,269.061L525.218,269.061Z" style="fill:rgb(211,211,211);"/>
                        </g>
                        <g transform="matrix(1.00148,0,0,0.999691,-156.774,-38.9159)">
                            <path d="M527.701,264.999L527.802,265.001L527.903,265.006L528.004,265.013L528.105,265.022L528.206,265.034L528.307,265.047L528.408,265.063L528.509,265.081L528.609,265.101L528.71,265.123L528.809,265.148L528.909,265.175L529.008,265.204L529.106,265.235L529.204,265.268L529.301,265.304L529.397,265.342L529.493,265.383L529.588,265.425L529.635,265.447L529.682,265.47L529.728,265.493L529.774,265.517L529.82,265.542L529.866,265.567L529.912,265.592L529.957,265.619L530.002,265.645L530.046,265.673L530.091,265.7L530.135,265.729L530.178,265.758L530.222,265.788L530.265,265.818L530.307,265.849L530.349,265.88L530.391,265.912L530.433,265.945L530.474,265.978L530.515,266.011L530.555,266.046L530.596,266.081L530.635,266.116L530.674,266.152L530.713,266.189L530.752,266.226L530.789,266.264L530.827,266.302L530.864,266.341L530.901,266.381L530.937,266.421L530.972,266.462L531.008,266.504L531.042,266.546L531.076,266.588L531.11,266.631L531.143,266.675L531.176,266.72L531.208,266.765L531.24,266.81L531.271,266.857L531.301,266.903L531.331,266.951L531.36,266.999L531.389,267.047L531.417,267.097L531.445,267.147L531.472,267.197L531.499,267.248L531.524,267.3L531.55,267.352L531.574,267.405L531.598,267.458L531.621,267.513L531.644,267.567L531.666,267.623L531.687,267.679L531.708,267.735L531.728,267.793L531.747,267.85L531.766,267.909L531.784,267.968L531.801,268.028L531.817,268.088L531.833,268.149L531.848,268.21L531.863,268.273L531.876,268.335L531.889,268.399L531.901,268.463L531.912,268.527L531.923,268.593L531.932,268.659L531.941,268.725L531.949,268.792L531.956,268.86L531.963,268.929L531.969,268.998L531.973,269.068L531.977,269.138L531.98,269.209L531.983,269.281L531.984,269.353L531.985,269.426L531.984,269.499L531.984,269.516L531.982,269.534L531.979,269.552L531.975,269.571L531.969,269.59L531.963,269.61L531.955,269.63L531.946,269.651L531.936,269.672L531.924,269.694L531.911,269.716L531.897,269.738L531.881,269.761L531.864,269.784L531.845,269.807L531.825,269.831L531.804,269.855L531.781,269.878L531.756,269.902L531.73,269.927L531.702,269.951L531.672,269.975L531.641,269.999L531.608,270.024L531.574,270.048L531.538,270.072L531.5,270.096L531.46,270.12L531.418,270.144L531.375,270.168L531.329,270.191L531.282,270.214L531.233,270.237L531.182,270.26L531.129,270.282L531.074,270.304L531.017,270.326L530.958,270.347L530.896,270.368L530.833,270.388L530.768,270.408L530.7,270.427L530.63,270.446L530.558,270.464L530.484,270.482L530.408,270.499L530.329,270.515L530.248,270.531L530.164,270.545L530.079,270.559L529.99,270.573L529.9,270.585L529.807,270.597L529.711,270.607L529.613,270.617L529.513,270.626L529.41,270.634L529.304,270.641L529.196,270.647L529.085,270.652L528.971,270.656L528.855,270.658L528.736,270.66L528.615,270.66L528.523,270.659L528.434,270.656L528.347,270.65L528.263,270.643L528.181,270.633L528.101,270.622L528.023,270.609L527.947,270.595L527.874,270.578L527.802,270.56L527.733,270.541L527.665,270.52L527.599,270.498L527.535,270.474L527.473,270.449L527.412,270.424L527.352,270.396L527.295,270.368L527.238,270.339L527.183,270.309L527.13,270.279L527.077,270.247L527.026,270.215L526.976,270.182L526.927,270.149L526.879,270.115L526.832,270.081L526.786,270.046L526.741,270.011L526.696,269.976L526.609,269.906L526.525,269.835L526.442,269.766L526.361,269.697L526.28,269.63L526.2,269.565L526.159,269.533L526.119,269.503L526.079,269.473L526.038,269.444L525.997,269.416L525.956,269.389L525.914,269.363L525.872,269.338L525.829,269.315L525.786,269.293L525.742,269.272L525.698,269.253L525.652,269.235L525.606,269.219L525.559,269.204L525.511,269.191L525.462,269.18L525.412,269.171L525.36,269.164L525.308,269.158L525.254,269.155L525.199,269.154L525.165,269.155L525.13,269.157L525.096,269.16L525.061,269.165L525.025,269.17L524.99,269.177L524.954,269.186L524.918,269.195L524.882,269.205L524.846,269.217L524.81,269.229L524.774,269.243L524.737,269.257L524.7,269.272L524.664,269.289L524.627,269.306L524.59,269.324L524.553,269.342L524.516,269.362L524.479,269.382L524.405,269.424L524.332,269.468L524.258,269.515L524.185,269.564L524.112,269.614L524.04,269.665L523.968,269.717L523.897,269.77L523.828,269.824L523.759,269.877L523.625,269.983L523.496,270.087L523.374,270.185L523.259,270.276L523.204,270.319L523.152,270.358L523.102,270.394L523.054,270.428L523.054,270.427L523.055,270.404L523.054,270.361L523.049,270.232L523.041,270.06L523.03,269.868L523.009,269.504L523.002,269.375L522.999,269.309L522.998,269.244L522.999,269.18L523,269.116L523.003,269.053L523.006,268.99L523.01,268.928L523.015,268.867L523.021,268.805L523.028,268.744L523.036,268.684L523.044,268.624L523.054,268.565L523.064,268.506L523.075,268.448L523.086,268.39L523.099,268.332L523.112,268.275L523.127,268.219L523.142,268.162L523.157,268.107L523.174,268.052L523.191,267.997L523.209,267.943L523.227,267.889L523.247,267.836L523.267,267.783L523.288,267.731L523.309,267.679L523.331,267.628L523.354,267.577L523.378,267.527L523.402,267.477L523.427,267.428L523.452,267.379L523.479,267.33L523.505,267.283L523.533,267.235L523.561,267.188L523.589,267.142L523.619,267.096L523.648,267.05L523.679,267.005L523.71,266.961L523.741,266.917L523.773,266.873L523.806,266.83L523.839,266.788L523.872,266.745L523.907,266.704L523.941,266.663L523.976,266.622L524.012,266.582L524.048,266.542L524.085,266.503L524.122,266.465L524.159,266.426L524.197,266.389L524.236,266.352L524.275,266.315L524.314,266.279L524.353,266.243L524.394,266.208L524.434,266.173L524.475,266.139L524.516,266.105L524.558,266.072L524.642,266.007L524.728,265.944L524.815,265.883L524.903,265.824L524.992,265.767L525.083,265.712L525.174,265.659L525.267,265.608L525.36,265.559L525.454,265.512L525.549,265.467L525.645,265.425L525.741,265.384L525.838,265.345L525.935,265.308L526.033,265.273L526.131,265.241L526.229,265.21L526.327,265.182L526.426,265.155L526.525,265.131L526.623,265.108L526.722,265.088L526.82,265.07L526.919,265.053L527.017,265.039L527.114,265.027L527.212,265.017L527.308,265.009L527.404,265.004L527.5,265L527.6,264.998L527.701,264.999ZM527.519,265.686L527.439,265.689L527.357,265.694L527.275,265.7L527.192,265.709L527.109,265.719L527.025,265.731L526.94,265.745L526.855,265.761L526.77,265.778L526.685,265.798L526.6,265.819L526.514,265.842L526.429,265.867L526.344,265.893L526.259,265.922L526.174,265.952L526.089,265.984L526.005,266.017L525.922,266.053L525.839,266.09L525.757,266.129L525.676,266.169L525.595,266.211L525.515,266.255L525.436,266.301L525.359,266.348L525.282,266.397L525.206,266.448L525.132,266.5L525.059,266.554L524.985,266.61L524.952,266.637L524.917,266.666L524.882,266.695L524.848,266.724L524.814,266.754L524.78,266.784L524.747,266.815L524.714,266.846L524.682,266.877L524.65,266.909L524.619,266.941L524.587,266.973L524.557,267.006L524.527,267.039L524.497,267.073L524.467,267.107L524.439,267.141L524.41,267.175L524.382,267.21L524.355,267.246L524.328,267.282L524.301,267.318L524.275,267.354L524.249,267.391L524.224,267.428L524.2,267.466L524.176,267.504L524.152,267.542L524.129,267.581L524.106,267.62L524.084,267.659L524.063,267.699L524.042,267.739L524.022,267.78L524.002,267.821L523.982,267.862L523.964,267.904L523.945,267.946L523.928,267.988L523.911,268.031L523.894,268.074L523.878,268.118L523.863,268.162L523.848,268.207L523.834,268.252L523.82,268.297L523.807,268.343L523.795,268.389L523.783,268.436L523.772,268.483L523.762,268.53L523.752,268.578L523.743,268.627L523.735,268.676L523.727,268.725L523.72,268.775L523.714,268.825L523.708,268.876L523.703,268.927L523.699,268.979L523.695,269.031L523.693,269.068L523.715,269.052L523.797,268.996L523.881,268.94L523.967,268.886L524.054,268.833L524.142,268.783L524.189,268.757L524.236,268.733L524.282,268.71L524.33,268.687L524.378,268.664L524.426,268.643L524.476,268.622L524.526,268.603L524.577,268.584L524.629,268.566L524.681,268.549L524.735,268.534L524.789,268.52L524.845,268.507L524.901,268.496L524.959,268.486L525.017,268.478L525.077,268.473L525.137,268.469L525.199,268.468L525.282,268.47L525.363,268.474L525.444,268.483L525.523,268.494L525.601,268.508L525.677,268.525L525.751,268.545L525.824,268.568L525.894,268.592L525.962,268.619L526.029,268.648L526.093,268.678L526.155,268.71L526.215,268.743L526.272,268.777L526.328,268.811L526.383,268.847L526.435,268.883L526.486,268.919L526.535,268.955L526.583,268.992L526.631,269.029L526.719,269.101L526.805,269.172L526.97,269.311L527.049,269.377L527.129,269.442L527.167,269.471L527.205,269.501L527.244,269.53L527.283,269.559L527.322,269.586L527.361,269.613L527.401,269.639L527.441,269.664L527.481,269.688L527.522,269.712L527.563,269.734L527.605,269.756L527.648,269.777L527.692,269.797L527.737,269.816L527.783,269.834L527.83,269.851L527.878,269.868L527.928,269.883L527.98,269.898L528.034,269.911L528.089,269.923L528.146,269.934L528.206,269.944L528.268,269.953L528.332,269.96L528.399,269.966L528.469,269.971L528.541,269.973L528.618,269.974L528.731,269.974L528.843,269.973L528.952,269.97L529.058,269.966L529.162,269.962L529.262,269.956L529.36,269.95L529.456,269.943L529.548,269.934L529.638,269.925L529.725,269.916L529.81,269.905L529.892,269.894L529.971,269.882L530.048,269.869L530.122,269.856L530.193,269.842L530.263,269.828L530.329,269.813L530.394,269.798L530.455,269.783L530.515,269.767L530.572,269.75L530.626,269.734L530.679,269.717L530.729,269.7L530.777,269.683L530.822,269.666L530.865,269.648L530.906,269.631L530.945,269.614L530.982,269.597L531.017,269.58L531.049,269.563L531.08,269.546L531.108,269.53L531.135,269.514L531.16,269.498L531.182,269.483L531.203,269.468L531.222,269.454L531.239,269.441L531.254,269.428L531.268,269.417L531.28,269.406L531.29,269.396L531.294,269.392L531.294,269.362L531.293,269.298L531.291,269.235L531.288,269.172L531.284,269.11L531.28,269.049L531.275,268.988L531.27,268.929L531.263,268.87L531.256,268.811L531.249,268.753L531.24,268.696L531.231,268.64L531.221,268.584L531.211,268.529L531.2,268.474L531.189,268.421L531.176,268.367L531.164,268.315L531.15,268.263L531.136,268.212L531.122,268.161L531.106,268.111L531.091,268.062L531.074,268.013L531.058,267.965L531.04,267.917L531.022,267.87L531.004,267.824L530.985,267.778L530.965,267.733L530.945,267.688L530.925,267.644L530.904,267.6L530.882,267.557L530.861,267.515L530.838,267.473L530.815,267.432L530.792,267.391L530.768,267.351L530.744,267.311L530.719,267.272L530.694,267.233L530.668,267.195L530.642,267.157L530.616,267.12L530.589,267.084L530.561,267.048L530.534,267.012L530.505,266.977L530.477,266.942L530.448,266.908L530.419,266.874L530.389,266.841L530.359,266.809L530.328,266.776L530.297,266.745L530.266,266.713L530.234,266.683L530.202,266.652L530.17,266.623L530.137,266.593L530.104,266.564L530.07,266.536L530.036,266.508L530.002,266.481L529.968,266.454L529.933,266.427L529.898,266.401L529.862,266.375L529.827,266.35L529.79,266.325L529.754,266.301L529.717,266.277L529.68,266.254L529.643,266.231L529.606,266.209L529.568,266.187L529.53,266.166L529.491,266.145L529.453,266.124L529.414,266.104L529.375,266.085L529.335,266.065L529.298,266.048L529.216,266.011L529.135,265.977L529.054,265.945L528.971,265.914L528.888,265.886L528.805,265.859L528.721,265.835L528.636,265.812L528.551,265.791L528.466,265.772L528.38,265.755L528.294,265.739L528.208,265.726L528.121,265.714L528.035,265.705L527.949,265.697L527.862,265.691L527.776,265.687L527.69,265.685L527.605,265.684L527.519,265.686Z" style="fill:rgb(211,211,211);"/>
                        </g>
                    </g>
                </g>
            </g>
        </g>
    </g>
</svg>
