<?xml version="1.0" encoding="UTF-8" standalone="no"?><!DOCTYPE svg PUBLIC "-//W3C//DTD SVG 1.1//EN" "http://www.w3.org/Graphics/SVG/1.1/DTD/svg11.dtd"><svg width="100%" height="100%" viewBox="0 0 15 15" version="1.1" xmlns="http://www.w3.org/2000/svg" xmlns:xlink="http://www.w3.org/1999/xlink" xml:space="preserve" xmlns:serif="http://www.serif.com/" style="fill-rule:evenodd;clip-rule:evenodd;stroke-linejoin:round;stroke-miterlimit:2;"><g id="SchematicView_OverrideConversion_off"><g id="Icons"><g id="Base-Block" serif:id="Base Block"><path d="M15,2.1c0,-1.159 -0.941,-2.1 -2.1,-2.1l-10.8,0c-1.159,0 -2.1,0.941 -2.1,2.1l0,10.8c0,1.159 0.941,2.1 2.1,2.1l10.8,0c1.159,0 2.1,-0.941 2.1,-2.1l0,-10.8Z" style="fill-opacity:0;"/></g><g><path d="M5.166,2.001l2.027,-2.001l0.729,0l1.949,2.001l2.719,0c0.778,0 1.41,0.632 1.41,1.41l-0,0.18c-0,0.778 -0.632,1.41 -1.41,1.41l-5.177,0c0.259,0.195 0.472,0.394 0.629,0.574l0.6,0.662c0.49,0.563 1.355,1.235 1.858,1.235c0.503,-0 1.583,-1.109 2.336,-1.935c0.055,-0.06 0.109,-0.115 0.164,-0.174c0.624,-0.567 0.966,-0.379 1,0.638l-0,3l-0.869,1.108c0.51,0.212 0.869,0.716 0.869,1.302l-0,0.18c-0,0.778 -0.632,1.41 -1.41,1.41l-2.72,0l-2.025,1.999l-0.733,0l-1.947,-1.999l-2.755,0c-0.778,0 -1.41,-0.632 -1.41,-1.41l-0,-0.18c-0,-0.778 0.632,-1.41 1.41,-1.41l4.884,0c-0.071,-0.066 -0.142,-0.137 -0.213,-0.212c-0.106,-0.112 -0.19,-0.217 -0.265,-0.293c-0.095,-0.095 -0.207,-0.223 -0.335,-0.369c-0.49,-0.562 -1.462,-1.573 -1.981,-1.573c-0.519,0 -1.626,1.148 -2.353,1.947c-0.049,0.055 -0.098,0.103 -0.147,0.157c-0.682,0.464 -0.987,0.189 -1,-0.657l-0,-3l0.965,-1.072c-0.56,-0.186 -0.965,-0.715 -0.965,-1.338l-0,-0.18c-0,-0.778 0.632,-1.41 1.41,-1.41l2.756,0Zm7.834,10l-3.501,0l-1.999,2l-1.999,-2l-3.501,0l-0,-1l11,0l-0,1Zm-0,-5.171c-0.055,0.059 -0.109,0.114 -0.164,0.174c-0.753,0.826 -1.464,1.606 -2.336,1.606c-0.903,0 -1.645,-0.708 -2.135,-1.271l-0.6,-0.662c-0.587,-0.673 -1.681,-1.715 -3.265,-1.715c-1.014,-0 -1.82,0.512 -2.5,1.129l-0,2.152c0.049,-0.054 0.098,-0.102 0.147,-0.157c0.727,-0.799 1.478,-1.624 2.353,-1.624c0.903,-0 1.645,0.639 2.135,1.201l0.6,0.662c0.587,0.673 1.681,1.785 3.265,1.785c1.027,0 1.818,-0.501 2.5,-1.126l-0,-2.154Zm-3.5,-3.829l3.5,0l-0,1l-11,0l-0,-1l3.5,0l2,-2l2,2Z" style="fill-opacity:0;"/><path d="M13,12.001l-3.501,0l-1.999,2l-1.999,-2l-3.501,0l-0,-1l11,0l-0,1Zm-3.5,-9l3.5,0l-0,1l-11,0l-0,-1l3.5,0l2,-2l2,2Z" style="fill:#646464;"/><path d="M13,6.83c-0.055,0.059 -0.109,0.114 -0.164,0.174c-0.753,0.826 -1.464,1.606 -2.336,1.606c-0.903,0 -1.645,-0.708 -2.135,-1.271c-0.128,-0.145 -0.24,-0.273 -0.335,-0.368c-0.075,-0.076 -0.163,-0.178 -0.265,-0.294c-0.587,-0.673 -1.681,-1.715 -3.265,-1.715c-1.014,-0 -1.82,0.512 -2.5,1.129l-0,2.152c0.049,-0.054 0.098,-0.102 0.147,-0.157c0.727,-0.799 1.478,-1.624 2.353,-1.624c0.903,-0 1.645,0.639 2.135,1.201c0.128,0.146 0.24,0.274 0.335,0.369c0.075,0.076 0.163,0.177 0.265,0.293c0.587,0.673 1.681,1.785 3.265,1.785c1.027,0 1.818,-0.501 2.5,-1.126l-0,-2.154Z" style="fill:#646464;"/></g></g></g></svg>