<?xml version="1.0" encoding="UTF-8" standalone="no"?>
<!DOCTYPE svg PUBLIC "-//W3C//DTD SVG 1.1//EN" "http://www.w3.org/Graphics/SVG/1.1/DTD/svg11.dtd">
<svg width="100%" height="100%" viewBox="0 0 12 13" version="1.1" xmlns="http://www.w3.org/2000/svg" xmlns:xlink="http://www.w3.org/1999/xlink" xml:space="preserve" xmlns:serif="http://www.serif.com/" style="fill-rule:evenodd;clip-rule:evenodd;stroke-linejoin:round;stroke-miterlimit:1.41421;">
    <g transform="matrix(1,0,0,1,-11,-156)">
        <g transform="matrix(0.176471,0,0,2.06767,1.58824,14.4737)">
            <g transform="matrix(3.46983e-16,-0.483636,5.66667,2.96142e-17,-6922.33,890.629)">
                <g id="QueryEditor_Expand_pre">
                    <g id="Arrow-Closed" serif:id="Arrow Closed">
                        <g>
                            <g transform="matrix(1,-1.13778e-32,-5.37726e-32,1.09091,-1,-111.909)">
                                <rect x="1688" y="1231" width="13" height="11" style="fill:none;"/>
                            </g>
                            <g transform="matrix(1.25975,9.08832e-32,1.38207e-32,1.61411,-440.059,-761.041)">
                                <path d="M1698,1236L1689,1236L1693.44,1240.11L1698,1236Z" style="fill:rgb(181,181,181);"/>
                                <path d="M1693.44,1240.11L1689,1236L1698,1236L1693.44,1240.11ZM1690.71,1236.62L1693.45,1239.16L1696.26,1236.62L1690.71,1236.62Z" style="fill:rgb(100,100,100);"/>
                            </g>
                        </g>
                    </g>
                </g>
            </g>
        </g>
    </g>
</svg>
