<?xml version="1.0" encoding="UTF-8" standalone="no"?>
<!DOCTYPE svg PUBLIC "-//W3C//DTD SVG 1.1//EN" "http://www.w3.org/Graphics/SVG/1.1/DTD/svg11.dtd">
<svg width="100%" height="100%" viewBox="0 0 19 19" version="1.1" xmlns="http://www.w3.org/2000/svg" xmlns:xlink="http://www.w3.org/1999/xlink" xml:space="preserve" xmlns:serif="http://www.serif.com/" style="fill-rule:evenodd;clip-rule:evenodd;stroke-linejoin:round;stroke-miterlimit:2;">
    <g transform="matrix(1,0,0,1,-76,-4)">
        <g id="View3dToolbar_FrameAll_Normal" transform="matrix(1,0,0,1,51,-1)">
            <g id="Base-Icon" serif:id="Base Icon">
                <g id="Transparent-BG" serif:id="Transparent BG" transform="matrix(0.95,0,0,0.95,25,5)">
                    <rect x="0" y="0" width="20" height="20" style="fill:white;fill-opacity:0;"/>
                </g>
                <g id="Expand-Icon" serif:id="Expand Icon" transform="matrix(1,0,0,1,-1216,-157)">
                    <g transform="matrix(0.625,0,0,0.625,1243,164)">
                        <rect x="0" y="0" width="24" height="24" style="fill:none;fill-rule:nonzero;"/>
                    </g>
                    <g transform="matrix(1,0,0,1,1239,160)">
                        <path d="M6,15L5,15L5,18L8,18L8,17L6,17L6,15ZM5,8L6,8L6,6L8,6L8,5L5,5L5,8ZM17,17L15,17L15,18L18,18L18,15L17,15L17,17ZM15,5L15,6L17,6L17,8L18,8L18,5L15,5Z" style="fill:rgb(37,37,37);fill-rule:nonzero;"/>
                        <path d="M7,16L8,16C8.552,16 9,16.448 9,17L9,18C9,18.552 8.552,19 8,19L5,19C4.448,19 4,18.552 4,18L4,15C4,14.448 4.448,14 5,14L6,14C6.552,14 7,14.448 7,15L7,16ZM16,16L16,15C16,14.448 16.448,14 17,14L18,14C18.552,14 19,14.448 19,15L19,18C19,18.552 18.552,19 18,19L15,19C14.448,19 14,18.552 14,18L14,17C14,16.448 14.448,16 15,16L16,16ZM6,15L5,15L5,18L8,18L8,17L6,17L6,15ZM17,17L15,17L15,18L18,18L18,15L17,15L17,17ZM7,7L7,8C7,8.552 6.552,9 6,9L5,9C4.448,9 4,8.552 4,8L4,5C4,4.448 4.448,4 5,4L8,4C8.552,4 9,4.448 9,5L9,6C9,6.552 8.552,7 8,7L7,7ZM16,7L15,7C14.448,7 14,6.552 14,6L14,5C14,4.448 14.448,4 15,4L18,4C18.552,4 19,4.448 19,5L19,8C19,8.552 18.552,9 18,9L17,9C16.448,9 16,8.552 16,8L16,7ZM5,8L6,8L6,6L8,6L8,5L5,5L5,8ZM15,5L15,6L17,6L17,8L18,8L18,5L15,5Z" style="fill:rgb(205,205,205);"/>
                    </g>
                    <g transform="matrix(0.319236,0,0,0.335387,1246.29,166.878)">
                        <path d="M4.753,16.849C5.605,17.362 6.664,17.454 7.6,17.096L15.34,14.13C16.525,13.675 17.302,12.58 17.302,11.364L17.302,5.385C17.302,4.506 16.895,3.673 16.19,3.106L11.473,-0.681C10.596,-1.386 9.383,-1.577 8.314,-1.18L0.5,1.725C-0.699,2.171 -1.49,3.27 -1.493,4.496L-1.51,11.425C-1.512,12.449 -0.962,13.403 -0.053,13.951L4.753,16.849ZM6.43,14.33L14.17,11.364L14.17,5.385L9.453,1.598L1.64,4.503L1.623,11.432L6.43,14.33Z" style="fill:rgb(205,205,205);"/>
                        <path d="M6.43,14.33L14.17,11.364L14.17,5.385L9.453,1.598L1.64,4.503L1.623,11.432L6.43,14.33Z" style="fill:rgb(37,37,37);"/>
                    </g>
                    <g transform="matrix(0.40064,0,0,0.437257,1249.38,170.067)">
                        <path d="M5.809,16.316C6.492,16.578 7.267,16.548 7.924,16.235L15.187,12.775C16.014,12.381 16.532,11.599 16.532,10.746L16.532,5.142C16.532,4.317 16.047,3.556 15.264,3.151L10.248,0.554C9.666,0.253 8.976,0.178 8.334,0.347L0.869,2.304C-0.204,2.585 -0.943,3.486 -0.94,4.509L-0.918,12.221C-0.916,13.14 -0.312,13.969 0.614,14.324L5.809,16.316ZM6.773,14.206L14.036,10.746L14.036,5.142L9.02,2.545L1.556,4.503L1.578,12.215L6.773,14.206Z" style="fill:rgb(205,205,205);"/>
                        <path d="M6.773,14.206L14.036,10.746L14.036,5.142L9.02,2.545L1.556,4.503L1.578,12.215L6.773,14.206Z" style="fill:rgb(37,37,37);"/>
                    </g>
                </g>
            </g>
        </g>
    </g>
</svg>
