<?xml version="1.0" encoding="UTF-8" standalone="no"?>
<!DOCTYPE svg PUBLIC "-//W3C//DTD SVG 1.1//EN" "http://www.w3.org/Graphics/SVG/1.1/DTD/svg11.dtd">
<svg width="100%" height="100%" viewBox="0 0 14 14" version="1.1" xmlns="http://www.w3.org/2000/svg" xmlns:xlink="http://www.w3.org/1999/xlink" xml:space="preserve" xmlns:serif="http://www.serif.com/" style="fill-rule:evenodd;clip-rule:evenodd;stroke-linejoin:round;stroke-miterlimit:2;">
    <g transform="matrix(1,0,0,1,-150,-4)">
        <g transform="matrix(0.625,0,0,0.625,148.749,3)">
            <g id="Filter_Magnifier_Normal">
                <g>
                    <g transform="matrix(0.933333,0,0,0.933333,2.00115,1.6)">
                        <path d="M0,0L24,0L24,24L0,24L0,0ZM0,0L24,0L24,24L0,24L0,0Z" style="fill:none;"/>
                    </g>
                    <path d="M15.949,13.909L14.937,13.909L14.152,13.124L13.365,13.871L14.149,14.656L14.149,15.656L20.34,21.823L22.115,20.089L15.949,13.909Z" style="fill:rgb(93,93,93);fill-rule:nonzero;"/>
                    <g transform="matrix(0.984615,0,0,0.984615,0.131362,0.245169)">
                        <path d="M10.024,3.402C13.39,3.402 16.123,6.134 16.123,9.501C16.123,12.867 13.39,15.6 10.024,15.6C6.657,15.6 3.925,12.867 3.925,9.501C3.925,6.134 6.657,3.402 10.024,3.402ZM10.012,5.783C12.054,5.783 13.711,7.445 13.711,9.491C13.711,11.537 12.054,13.198 10.012,13.198C7.971,13.198 6.312,11.537 6.312,9.491C6.312,7.445 7.971,5.783 10.012,5.783Z" style="fill:rgb(93,93,93);"/>
                    </g>
                </g>
            </g>
        </g>
    </g>
</svg>
