<?xml version="1.0" encoding="UTF-8" standalone="no"?>
<!DOCTYPE svg PUBLIC "-//W3C//DTD SVG 1.1//EN" "http://www.w3.org/Graphics/SVG/1.1/DTD/svg11.dtd">
<svg width="100%" height="100%" viewBox="0 0 13 13" version="1.1" xmlns="http://www.w3.org/2000/svg" xmlns:xlink="http://www.w3.org/1999/xlink" xml:space="preserve" xmlns:serif="http://www.serif.com/" style="fill-rule:evenodd;clip-rule:evenodd;stroke-linejoin:round;stroke-miterlimit:1.41421;">
    <g transform="matrix(1,0,0,1,-4,-23)">
        <g transform="matrix(1,0,0,1,1,2)">
            <g id="Radio_nor_hot" transform="matrix(1,0,0,1,-468,348)">
                <rect id="Checkbox" x="471" y="-327" width="13" height="13" style="fill:none;"/>
                <g id="Checkbox1" serif:id="Checkbox">
                    <g id="Checkbox2" serif:id="Checkbox" transform="matrix(0.1625,0,0,0.764706,393.975,-522)">
                        <path d="M554,263.5C554,258.809 536.077,255 514,255C491.923,255 474,258.809 474,263.5C474,268.191 491.923,272 514,272C536.077,272 554,268.191 554,263.5Z" style="fill:rgb(191,191,191);"/>
                    </g>
                    <g id="Checkbox3" serif:id="Checkbox" transform="matrix(0.1375,0,0,0.647059,406.825,-491)">
                        <path d="M554,263.5C554,258.809 536.077,255 514,255C491.923,255 474,258.809 474,263.5C474,268.191 491.923,272 514,272C536.077,272 554,268.191 554,263.5Z" style="fill:rgb(218,218,218);"/>
                        <path d="M514.517,255.001L515.032,255.003L515.545,255.006L516.057,255.011L516.567,255.017L517.076,255.025L517.582,255.034L518.087,255.044L518.59,255.055L519.092,255.068L519.591,255.083L520.088,255.098L520.584,255.115L521.077,255.133L521.568,255.152L522.057,255.173L522.544,255.195L523.029,255.218L523.511,255.242L523.992,255.268L524.47,255.295L524.945,255.323L525.418,255.352L525.889,255.382L526.358,255.414L526.823,255.447L527.287,255.481L527.747,255.516L528.205,255.552L528.661,255.59L529.114,255.629L529.564,255.668L530.011,255.709L530.455,255.751L530.897,255.794L531.335,255.839L531.771,255.884L532.204,255.93L532.633,255.978L533.06,256.027L533.483,256.076L533.904,256.127L534.321,256.179L534.735,256.231L535.146,256.285L535.553,256.34L535.957,256.396L536.358,256.452L536.755,256.51L537.149,256.569L537.539,256.629L537.926,256.69L538.31,256.751L538.689,256.814L539.065,256.877L539.438,256.942L539.806,257.007L540.171,257.074L540.532,257.141L540.889,257.209L541.243,257.278L541.592,257.348L541.937,257.419L542.279,257.491L542.616,257.563L542.949,257.637L543.279,257.711L543.604,257.786L543.924,257.862L544.241,257.939L544.553,258.016L544.861,258.095L545.165,258.174L545.464,258.254L545.759,258.334L546.049,258.416L546.335,258.498L546.616,258.581L546.893,258.665L547.165,258.749L547.432,258.834L547.695,258.92L547.953,259.007L548.206,259.094L548.454,259.182L548.697,259.27L548.936,259.36L549.169,259.45L549.398,259.54L549.621,259.632L549.84,259.724L550.053,259.816L550.261,259.909L550.464,260.003L550.662,260.098L550.855,260.193L551.042,260.288L551.224,260.385L551.4,260.481L551.571,260.579L551.737,260.677L551.897,260.775L552.051,260.874L552.2,260.974L552.344,261.074L552.481,261.174L552.614,261.275L552.74,261.377L552.86,261.479L552.975,261.581L553.084,261.684L553.187,261.788L553.284,261.892L553.375,261.996L553.46,262.101L553.539,262.206L553.612,262.312L553.678,262.418L553.739,262.525L553.793,262.631L553.841,262.739L553.883,262.846L553.919,262.954L553.948,263.063L553.971,263.172L553.987,263.281L553.997,263.39L554,263.5L553.997,263.61L553.987,263.719L553.971,263.828L553.948,263.937L553.919,264.046L553.883,264.154L553.841,264.261L553.793,264.369L553.739,264.475L553.678,264.582L553.612,264.688L553.539,264.794L553.46,264.899L553.375,265.004L553.284,265.108L553.187,265.212L553.084,265.316L552.975,265.419L552.86,265.521L552.74,265.623L552.614,265.725L552.481,265.826L552.344,265.926L552.2,266.026L552.051,266.126L551.897,266.225L551.737,266.323L551.571,266.421L551.4,266.519L551.224,266.615L551.042,266.712L550.855,266.807L550.662,266.902L550.464,266.997L550.261,267.091L550.053,267.184L549.84,267.276L549.621,267.368L549.398,267.46L549.169,267.55L548.936,267.64L548.697,267.73L548.454,267.818L548.206,267.906L547.953,267.993L547.695,268.08L547.432,268.166L547.165,268.251L546.893,268.335L546.616,268.419L546.335,268.502L546.049,268.584L545.759,268.666L545.464,268.746L545.165,268.826L544.861,268.905L544.553,268.984L544.241,269.061L543.924,269.138L543.604,269.214L543.279,269.289L542.949,269.363L542.616,269.437L542.279,269.509L541.937,269.581L541.592,269.652L541.243,269.722L540.889,269.791L540.532,269.859L540.171,269.926L539.806,269.993L539.438,270.058L539.065,270.123L538.689,270.186L538.31,270.249L537.926,270.31L537.539,270.371L537.149,270.431L536.755,270.49L536.358,270.548L535.957,270.604L535.553,270.66L535.146,270.715L534.735,270.769L534.321,270.821L533.904,270.873L533.483,270.924L533.06,270.973L532.633,271.022L532.204,271.07L531.771,271.116L531.335,271.161L530.897,271.206L530.455,271.249L530.011,271.291L529.564,271.332L529.114,271.371L528.661,271.41L528.205,271.448L527.747,271.484L527.287,271.519L526.823,271.553L526.358,271.586L525.889,271.618L525.418,271.648L524.945,271.677L524.47,271.705L523.992,271.732L523.511,271.758L523.029,271.782L522.544,271.805L522.057,271.827L521.568,271.848L521.077,271.867L520.584,271.885L520.088,271.902L519.591,271.917L519.092,271.932L518.59,271.945L518.087,271.956L517.582,271.966L517.076,271.975L516.567,271.983L516.057,271.989L515.545,271.994L515.032,271.997L514.517,271.999L514,272L513.483,271.999L512.968,271.997L512.455,271.994L511.943,271.989L511.433,271.983L510.924,271.975L510.418,271.966L509.913,271.956L509.41,271.945L508.908,271.932L508.409,271.917L507.912,271.902L507.416,271.885L506.923,271.867L506.432,271.848L505.943,271.827L505.456,271.805L504.971,271.782L504.489,271.758L504.008,271.732L503.53,271.705L503.055,271.677L502.582,271.648L502.111,271.618L501.642,271.586L501.177,271.553L500.713,271.519L500.253,271.484L499.795,271.448L499.339,271.41L498.886,271.371L498.436,271.332L497.989,271.291L497.545,271.249L497.103,271.206L496.665,271.161L496.229,271.116L495.796,271.07L495.367,271.022L494.94,270.973L494.517,270.924L494.096,270.873L493.679,270.821L493.265,270.769L492.854,270.715L492.447,270.66L492.043,270.604L491.642,270.548L491.245,270.49L490.851,270.431L490.461,270.371L490.074,270.31L489.69,270.249L489.311,270.186L488.935,270.123L488.562,270.058L488.194,269.993L487.829,269.926L487.468,269.859L487.111,269.791L486.757,269.722L486.408,269.652L486.063,269.581L485.721,269.509L485.384,269.437L485.051,269.363L484.721,269.289L484.396,269.214L484.076,269.138L483.759,269.061L483.447,268.984L483.139,268.905L482.835,268.826L482.536,268.746L482.241,268.666L481.951,268.584L481.665,268.502L481.384,268.419L481.107,268.335L480.835,268.251L480.568,268.166L480.305,268.08L480.047,267.993L479.794,267.906L479.546,267.818L479.303,267.73L479.064,267.64L478.831,267.55L478.602,267.46L478.379,267.368L478.16,267.276L477.947,267.184L477.739,267.091L477.536,266.997L477.338,266.902L477.145,266.807L476.958,266.712L476.776,266.615L476.6,266.519L476.429,266.421L476.263,266.323L476.103,266.225L475.949,266.126L475.8,266.026L475.656,265.926L475.519,265.826L475.386,265.725L475.26,265.623L475.14,265.521L475.025,265.419L474.916,265.316L474.813,265.212L474.716,265.108L474.625,265.004L474.54,264.899L474.461,264.794L474.388,264.688L474.322,264.582L474.261,264.475L474.207,264.369L474.159,264.261L474.117,264.154L474.081,264.046L474.052,263.937L474.029,263.828L474.013,263.719L474.003,263.61L474,263.5L474.003,263.39L474.013,263.281L474.029,263.172L474.052,263.063L474.081,262.954L474.117,262.846L474.159,262.739L474.207,262.631L474.261,262.525L474.322,262.418L474.388,262.312L474.461,262.206L474.54,262.101L474.625,261.996L474.716,261.892L474.813,261.788L474.916,261.684L475.025,261.581L475.14,261.479L475.26,261.377L475.386,261.275L475.519,261.174L475.656,261.074L475.8,260.974L475.949,260.874L476.103,260.775L476.263,260.677L476.429,260.579L476.6,260.481L476.776,260.385L476.958,260.288L477.145,260.193L477.338,260.098L477.536,260.003L477.739,259.909L477.947,259.816L478.16,259.724L478.379,259.632L478.602,259.54L478.831,259.45L479.064,259.36L479.303,259.27L479.546,259.182L479.794,259.094L480.047,259.007L480.305,258.92L480.568,258.834L480.835,258.749L481.107,258.665L481.384,258.581L481.665,258.498L481.951,258.416L482.241,258.334L482.536,258.254L482.835,258.174L483.139,258.095L483.447,258.016L483.759,257.939L484.076,257.862L484.396,257.786L484.721,257.711L485.051,257.637L485.384,257.563L485.721,257.491L486.063,257.419L486.408,257.348L486.757,257.278L487.111,257.209L487.468,257.141L487.829,257.074L488.194,257.007L488.562,256.942L488.935,256.877L489.311,256.814L489.69,256.751L490.074,256.69L490.461,256.629L490.851,256.569L491.245,256.51L491.642,256.452L492.043,256.396L492.447,256.34L492.854,256.285L493.265,256.231L493.679,256.179L494.096,256.127L494.517,256.076L494.94,256.027L495.367,255.978L495.796,255.93L496.229,255.884L496.665,255.839L497.103,255.794L497.545,255.751L497.989,255.709L498.436,255.668L498.886,255.629L499.339,255.59L499.795,255.552L500.253,255.516L500.713,255.481L501.177,255.447L501.642,255.414L502.111,255.382L502.582,255.352L503.055,255.323L503.53,255.295L504.008,255.268L504.489,255.242L504.971,255.218L505.456,255.195L505.943,255.173L506.432,255.152L506.923,255.133L507.416,255.115L507.912,255.098L508.409,255.083L508.908,255.068L509.41,255.055L509.913,255.044L510.418,255.034L510.924,255.025L511.433,255.017L511.943,255.011L512.455,255.006L512.968,255.003L513.483,255.001L514,255L514.517,255.001ZM513.576,256.546L513.153,256.548L512.731,256.551L512.312,256.555L511.893,256.56L511.477,256.566L511.062,256.573L510.648,256.581L510.237,256.591L509.827,256.601L509.418,256.613L509.012,256.626L508.607,256.639L508.203,256.654L507.802,256.67L507.402,256.687L507.005,256.705L506.609,256.724L506.214,256.744L505.822,256.764L505.432,256.786L505.043,256.809L504.657,256.833L504.273,256.858L503.89,256.884L503.51,256.911L503.131,256.939L502.755,256.967L502.381,256.997L502.009,257.028L501.639,257.059L501.271,257.092L500.906,257.125L500.543,257.159L500.182,257.195L499.823,257.231L499.467,257.268L499.113,257.306L498.762,257.345L498.413,257.384L498.067,257.425L497.723,257.466L497.382,257.509L497.043,257.552L496.707,257.596L496.373,257.641L496.042,257.686L495.715,257.733L495.389,257.78L495.067,257.828L494.747,257.877L494.43,257.927L494.116,257.978L493.805,258.029L493.497,258.081L493.192,258.134L492.89,258.188L492.591,258.242L492.295,258.297L492.003,258.353L491.713,258.409L491.427,258.467L491.144,258.525L490.864,258.584L490.587,258.643L490.314,258.703L490.045,258.764L489.778,258.826L489.515,258.888L489.256,258.951L489,259.014L488.748,259.078L488.499,259.143L488.254,259.209L488.012,259.275L487.775,259.341L487.541,259.409L487.31,259.477L487.084,259.545L486.861,259.614L486.642,259.684L486.427,259.754L486.216,259.825L486.009,259.897L485.806,259.969L485.607,260.041L485.412,260.114L485.221,260.188L485.034,260.262L484.851,260.337L484.673,260.412L484.498,260.487L484.328,260.564L484.162,260.64L484,260.717L483.843,260.795L483.69,260.873L483.542,260.952L483.397,261.031L483.258,261.11L483.122,261.19L482.992,261.271L482.865,261.352L482.744,261.433L482.627,261.515L482.514,261.597L482.406,261.679L482.303,261.762L482.205,261.846L482.111,261.929L482.022,262.013L481.938,262.098L481.859,262.183L481.785,262.268L481.715,262.354L481.65,262.44L481.591,262.526L481.536,262.613L481.487,262.7L481.442,262.788L481.403,262.876L481.369,262.964L481.339,263.052L481.316,263.141L481.297,263.23L481.284,263.32L481.276,263.41L481.273,263.5L481.276,263.59L481.284,263.68L481.297,263.77L481.316,263.859L481.339,263.948L481.369,264.036L481.403,264.124L481.442,264.212L481.487,264.3L481.536,264.387L481.591,264.474L481.65,264.56L481.715,264.646L481.785,264.732L481.859,264.817L481.938,264.902L482.022,264.987L482.111,265.071L482.205,265.154L482.303,265.238L482.406,265.321L482.514,265.403L482.627,265.485L482.744,265.567L482.865,265.648L482.992,265.729L483.122,265.81L483.258,265.89L483.397,265.969L483.542,266.048L483.69,266.127L483.843,266.205L484,266.282L484.162,266.36L484.328,266.436L484.498,266.513L484.673,266.588L484.851,266.663L485.034,266.738L485.221,266.812L485.412,266.886L485.607,266.959L485.806,267.031L486.009,267.103L486.216,267.175L486.427,267.246L486.642,267.316L486.861,267.386L487.084,267.455L487.31,267.523L487.541,267.591L487.775,267.659L488.012,267.725L488.254,267.791L488.499,267.857L488.748,267.922L489,267.986L489.256,268.049L489.515,268.112L489.778,268.174L490.045,268.236L490.314,268.297L490.588,268.357L490.864,268.416L491.144,268.475L491.427,268.533L491.713,268.591L492.003,268.647L492.295,268.703L492.591,268.758L492.89,268.812L493.192,268.866L493.497,268.919L493.805,268.971L494.116,269.022L494.43,269.073L494.747,269.123L495.067,269.172L495.389,269.22L495.715,269.267L496.043,269.314L496.373,269.359L496.707,269.404L497.043,269.448L497.382,269.491L497.723,269.534L498.067,269.575L498.413,269.616L498.762,269.655L499.114,269.694L499.467,269.732L499.823,269.769L500.182,269.805L500.543,269.841L500.906,269.875L501.271,269.908L501.639,269.941L502.009,269.972L502.381,270.003L502.755,270.033L503.131,270.061L503.51,270.089L503.89,270.116L504.273,270.142L504.657,270.167L505.043,270.191L505.432,270.214L505.822,270.236L506.214,270.256L506.609,270.276L507.005,270.295L507.402,270.313L507.802,270.33L508.204,270.346L508.607,270.361L509.012,270.374L509.418,270.387L509.827,270.399L510.237,270.409L510.648,270.419L511.062,270.427L511.477,270.434L511.893,270.44L512.312,270.445L512.731,270.449L513.153,270.452L513.576,270.454L514,270.455L514.424,270.454L514.847,270.452L515.269,270.449L515.688,270.445L516.107,270.44L516.523,270.434L516.938,270.427L517.352,270.419L517.763,270.409L518.173,270.399L518.582,270.387L518.988,270.374L519.393,270.361L519.796,270.346L520.198,270.33L520.598,270.313L520.995,270.295L521.391,270.276L521.786,270.256L522.178,270.236L522.568,270.214L522.957,270.191L523.343,270.167L523.727,270.142L524.11,270.116L524.491,270.089L524.869,270.061L525.245,270.033L525.619,270.003L525.991,269.972L526.361,269.941L526.729,269.908L527.094,269.875L527.457,269.841L527.818,269.805L528.177,269.769L528.533,269.732L528.886,269.694L529.238,269.655L529.587,269.616L529.933,269.575L530.277,269.534L530.618,269.491L530.957,269.448L531.293,269.404L531.627,269.359L531.957,269.314L532.285,269.267L532.611,269.22L532.933,269.172L533.253,269.123L533.57,269.073L533.884,269.022L534.195,268.971L534.503,268.919L534.808,268.866L535.11,268.812L535.409,268.758L535.705,268.703L535.997,268.647L536.287,268.591L536.573,268.533L536.856,268.475L537.136,268.416L537.413,268.357L537.686,268.297L537.955,268.236L538.222,268.174L538.485,268.112L538.744,268.049L539,267.986L539.252,267.922L539.501,267.857L539.746,267.791L539.988,267.725L540.225,267.659L540.459,267.591L540.69,267.523L540.916,267.455L541.139,267.386L541.358,267.316L541.573,267.246L541.784,267.175L541.991,267.103L542.194,267.031L542.393,266.959L542.588,266.886L542.779,266.812L542.966,266.738L543.149,266.663L543.327,266.588L543.502,266.513L543.672,266.436L543.838,266.36L544,266.283L544.157,266.205L544.31,266.127L544.458,266.048L544.603,265.969L544.742,265.89L544.878,265.81L545.008,265.729L545.135,265.648L545.256,265.567L545.373,265.485L545.486,265.403L545.594,265.321L545.697,265.238L545.795,265.154L545.889,265.071L545.978,264.987L546.062,264.902L546.141,264.817L546.215,264.732L546.285,264.646L546.35,264.56L546.409,264.474L546.464,264.387L546.513,264.3L546.558,264.212L546.597,264.124L546.631,264.036L546.661,263.948L546.684,263.859L546.703,263.77L546.716,263.68L546.724,263.59L546.727,263.5L546.724,263.41L546.716,263.32L546.703,263.23L546.684,263.141L546.661,263.052L546.631,262.964L546.597,262.876L546.558,262.788L546.513,262.7L546.464,262.613L546.409,262.526L546.35,262.44L546.285,262.354L546.215,262.268L546.141,262.183L546.062,262.098L545.978,262.013L545.889,261.929L545.795,261.846L545.697,261.762L545.594,261.679L545.486,261.597L545.373,261.515L545.256,261.433L545.135,261.352L545.008,261.271L544.878,261.19L544.742,261.11L544.603,261.031L544.458,260.952L544.31,260.873L544.157,260.795L544,260.717L543.838,260.64L543.672,260.564L543.502,260.487L543.327,260.412L543.149,260.337L542.966,260.262L542.779,260.188L542.588,260.114L542.393,260.041L542.194,259.969L541.991,259.897L541.784,259.825L541.573,259.754L541.358,259.684L541.139,259.614L540.916,259.545L540.69,259.477L540.459,259.409L540.225,259.341L539.988,259.275L539.746,259.209L539.501,259.143L539.252,259.078L539,259.014L538.744,258.951L538.485,258.888L538.222,258.826L537.955,258.764L537.686,258.703L537.413,258.643L537.136,258.584L536.856,258.525L536.573,258.467L536.287,258.409L535.997,258.353L535.705,258.297L535.409,258.242L535.11,258.188L534.808,258.134L534.503,258.081L534.195,258.029L533.884,257.978L533.57,257.927L533.253,257.877L532.933,257.828L532.611,257.78L532.285,257.733L531.958,257.686L531.627,257.641L531.293,257.596L530.957,257.552L530.618,257.509L530.277,257.466L529.933,257.425L529.587,257.384L529.238,257.345L528.887,257.306L528.533,257.268L528.177,257.231L527.818,257.195L527.457,257.159L527.094,257.125L526.729,257.092L526.361,257.059L525.991,257.028L525.619,256.997L525.245,256.967L524.869,256.939L524.49,256.911L524.11,256.884L523.727,256.858L523.343,256.833L522.957,256.809L522.568,256.786L522.178,256.764L521.786,256.744L521.391,256.724L520.995,256.705L520.598,256.687L520.198,256.67L519.797,256.654L519.393,256.639L518.988,256.626L518.582,256.613L518.173,256.601L517.763,256.591L517.352,256.581L516.938,256.573L516.523,256.566L516.107,256.56L515.688,256.555L515.269,256.551L514.847,256.548L514.424,256.546L514,256.545L513.576,256.546Z" style="fill:rgb(79,79,79);"/>
                    </g>
                </g>
            </g>
        </g>
    </g>
</svg>
