<?xml version="1.0" encoding="UTF-8" standalone="no"?>
<!DOCTYPE svg PUBLIC "-//W3C//DTD SVG 1.1//EN" "http://www.w3.org/Graphics/SVG/1.1/DTD/svg11.dtd">
<svg width="100%" height="100%" viewBox="0 0 21 15" version="1.1" xmlns="http://www.w3.org/2000/svg" xmlns:xlink="http://www.w3.org/1999/xlink" xml:space="preserve" xmlns:serif="http://www.serif.com/" style="fill-rule:evenodd;clip-rule:evenodd;stroke-linejoin:round;stroke-miterlimit:1.41421;">
    <g transform="matrix(1,0,0,1,-9,-62)">
        <g transform="matrix(0.233266,0,0,0.796992,2.09939,5.57895)">
            <g id="MixingDesk_Activity_on_virtual" transform="matrix(4.28696,0,0,1.25472,29.5826,48.2075)">
                <g id="Trransparent-BG" serif:id="Trransparent BG" transform="matrix(1.90909,0,0,1.36364,0,18)">
                    <rect x="0" y="0" width="11" height="11" style="fill:rgb(70,70,70);fill-opacity:0;"/>
                </g>
                <g transform="matrix(1.79982,0,0,1.60835,-112.084,-83.2082)">
                    <path d="M71.147,71.631C70.992,71.604 70.851,71.53 70.745,71.322L69.365,68.122C69.253,67.786 69.393,67.352 69.866,67.279L70.746,67.279C70.939,67.316 71.089,67.426 71.181,67.592L71.451,68.309L71.718,67.586C71.804,67.409 72.017,67.28 72.203,67.279L73.006,67.279C73.331,67.278 73.58,67.695 73.51,68.039L72.164,71.362C72.088,71.483 71.907,71.608 71.755,71.631L71.147,71.631Z" style="fill:rgb(69,69,69);fill-rule:nonzero;"/>
                </g>
                <g transform="matrix(1.07583,0,0,0.986683,-60.3472,-40.0412)">
                    <path d="M71.052,72L68.823,66.933L70.188,66.933C70.188,66.933 71.327,69.968 71.467,69.973C71.585,69.978 72.691,66.933 72.691,66.933L73.973,66.933L71.853,72L71.052,72Z" style="fill:rgb(230,157,56);fill-rule:nonzero;"/>
                </g>
                <g transform="matrix(1,0,0,1,-9,-29)">
                    <path d="M16.5,48C13.463,48 10,50.404 10,54.5C10,57.187 11.891,60.362 14.856,60.998C15.442,61.124 16.004,60.516 16,60.132L16,52.947C15.988,52.26 15.265,51.687 14.501,52.116L13.522,52.973C13.524,52.669 15.118,51.01 16.5,51C17.882,51.006 19.436,52.53 19.424,52.901L18.529,52.113C17.882,51.734 17,52.213 17,52.932L17,60.017C17.026,60.694 17.623,61.127 18.205,60.989C21.273,60.265 23,56.999 23,54.5C23,50.494 19.537,48 16.5,48ZM16.5,49C13.463,49 11,51.462 11,54.5C11,57.017 12.692,59.346 15,60L15,53L12,55.571L12,54C12.005,53.012 13.953,50.019 16.5,50C18.926,50.01 21.035,52.966 21,54L21,55.571L18,53L18,60C20.308,59.346 22,57.017 22,54.5C22,51.462 19.537,49 16.5,49Z" style="fill:rgb(69,69,69);"/>
                </g>
                <g transform="matrix(1,0,0,1,7.5,30.788)">
                    <path d="M0,-10.788C-3.037,-10.788 -5.5,-8.326 -5.5,-5.288C-5.5,-2.771 -3.808,-0.442 -1.5,0.212L-1.5,-6.788L-4.5,-4.217L-4.5,-5.788C-4.495,-6.776 -2.547,-9.769 0,-9.788C2.426,-9.778 4.535,-6.822 4.5,-5.788L4.5,-4.217L1.5,-6.788L1.5,0.212C3.808,-0.442 5.5,-2.771 5.5,-5.288C5.5,-8.326 3.037,-10.788 0,-10.788Z" style="fill:rgb(230,157,56);"/>
                </g>
                <g transform="matrix(0.233266,0,0,0.796992,-55.076,-63.4211)">
                    <g transform="matrix(8.57391,-8.16123e-18,-4.64323e-15,1.24516,-235.457,27.5559)">
                        <rect x="59" y="71" width="2" height="1" style="fill:rgb(69,69,69);"/>
                    </g>
                    <g transform="matrix(10.7174,-2.24434e-17,-2.11056e-15,1.24516,-361.922,25.0465)">
                        <rect x="59" y="71" width="2" height="1" style="fill:rgb(69,69,69);"/>
                    </g>
                    <g transform="matrix(10.7174,-2.24434e-17,-2.11056e-15,1.24516,-361.922,22.5371)">
                        <rect x="59" y="71" width="2" height="1" style="fill:rgb(69,69,69);"/>
                    </g>
                    <g transform="matrix(4.28696,-4.08062e-18,-4.64323e-15,1.24516,30.3343,20.0276)">
                        <rect x="59" y="71" width="2" height="1" style="fill:rgb(69,69,69);"/>
                    </g>
                    <g transform="matrix(19.2913,-1.83628e-17,-4.64323e-15,1.24516,-889.97,17.5182)">
                        <rect x="59" y="71" width="2" height="1" style="fill:rgb(69,69,69);"/>
                    </g>
                    <g transform="matrix(-8.57391,-8.16123e-18,4.64323e-15,1.24516,771.978,27.5559)">
                        <rect x="59" y="71" width="2" height="1" style="fill:rgb(69,69,69);"/>
                    </g>
                    <g transform="matrix(-10.7174,-2.24434e-17,2.11056e-15,1.24516,898.443,25.0465)">
                        <rect x="59" y="71" width="2" height="1" style="fill:rgb(69,69,69);"/>
                    </g>
                    <g transform="matrix(-11.0932,-2.32305e-17,2.11056e-15,1.24516,920.619,22.5371)">
                        <rect x="59" y="71" width="2" height="1" style="fill:rgb(69,69,69);"/>
                    </g>
                    <g transform="matrix(-4.28696,-4.08062e-18,4.64323e-15,1.24516,506.186,20.0276)">
                        <rect x="59" y="71" width="2" height="1" style="fill:rgb(69,69,69);"/>
                    </g>
                </g>
            </g>
        </g>
    </g>
</svg>
