<?xml version="1.0" encoding="UTF-8" standalone="no"?><!DOCTYPE svg PUBLIC "-//W3C//DTD SVG 1.1//EN" "http://www.w3.org/Graphics/SVG/1.1/DTD/svg11.dtd"><svg width="100%" height="100%" viewBox="0 0 16 16" version="1.1" xmlns="http://www.w3.org/2000/svg" xmlns:xlink="http://www.w3.org/1999/xlink" xml:space="preserve" xmlns:serif="http://www.serif.com/" style="fill-rule:evenodd;clip-rule:evenodd;stroke-miterlimit:1;"><g id="ObjectIcons_AudioObjectSound_3DView"><clipPath id="_clip1"><rect x="-0" y="-0" width="16" height="16"/></clipPath><g clip-path="url(#_clip1)"><path id="Base-Block" serif:id="Base Block" d="M16,2.24c-0,-1.236 -1.004,-2.24 -2.24,-2.24l-11.52,-0c-1.236,-0 -2.24,1.004 -2.24,2.24l-0,11.52c-0,1.236 1.004,2.24 2.24,2.24l11.52,-0c1.236,-0 2.24,-1.004 2.24,-2.24l-0,-11.52Z" style="fill-opacity:0;"/><circle cx="8" cy="8" r="7" style="fill:#fff;"/><path d="M8,0c-4.415,0 -8,3.585 -8,8c0,4.415 3.585,8 8,8c4.415,0 8,-3.585 8,-8c0,-4.415 -3.585,-8 -8,-8Zm0,1c3.863,0 7,3.137 7,7c0,3.863 -3.137,7 -7,7c-3.863,0 -7,-3.137 -7,-7c0,-3.863 3.137,-7 7,-7Z"/><g id="Speaker"><path d="M5.069,6.402l2.931,-2.692l-0,8.7l-2.931,-2.808l-2.069,0l-0,-3.2l2.069,0Z"/><path d="M10,3.786c3.254,2.691 3.504,5.516 -0,8.51" style="fill:none;stroke:#000;stroke-width:1px;"/><path d="M9.234,6c1.456,1.172 1.569,2.651 0,4" style="fill:none;stroke:#000;stroke-width:1px;"/></g></g></g></svg>