<?xml version="1.0" encoding="UTF-8" standalone="no"?><!DOCTYPE svg PUBLIC "-//W3C//DTD SVG 1.1//EN" "http://www.w3.org/Graphics/SVG/1.1/DTD/svg11.dtd"><svg width="100%" height="100%" viewBox="0 0 16 16" version="1.1" xmlns="http://www.w3.org/2000/svg" xmlns:xlink="http://www.w3.org/1999/xlink" xml:space="preserve" xmlns:serif="http://www.serif.com/" style="fill-rule:evenodd;clip-rule:evenodd;stroke-linejoin:round;stroke-miterlimit:2;"><g id="ObjectIcons_AudioObjectFX_3DView"><clipPath id="_clip1"><rect x="-0" y="-0" width="16" height="16"/></clipPath><g clip-path="url(#_clip1)"><path id="Base-Block" serif:id="Base Block" d="M16,2.24c-0,-1.236 -1.004,-2.24 -2.24,-2.24l-11.52,-0c-1.236,-0 -2.24,1.004 -2.24,2.24l-0,11.52c-0,1.236 1.004,2.24 2.24,2.24l11.52,0c1.236,0 2.24,-1.004 2.24,-2.24l-0,-11.52Z" style="fill-opacity:0;"/><circle cx="8" cy="8" r="7" style="fill:#fff;"/><path d="M8,-0c-4.415,-0 -8,3.585 -8,8c-0,4.415 3.585,8 8,8c4.415,0 8,-3.585 8,-8c-0,-4.415 -3.585,-8 -8,-8Zm-0,1c3.863,-0 7,3.137 7,7c-0,3.863 -3.137,7 -7,7c-3.863,0 -7,-3.137 -7,-7c-0,-3.863 3.137,-7 7,-7Z"/><g id="FX"><path d="M4,4l5,0l0,2l-3,0l0,1l1,0l0,1.507l-1,0l0,2.493l-2,0l0,-7Z" style="fill-rule:nonzero;"/><path d="M8.319,6.401l-0.918,0.918l4.285,4.285l0.918,-0.918l-4.285,-4.285Z"/><path d="M11.855,6.296l0.883,0.883l-4.487,4.487l-0.883,-0.883l4.487,-4.487Z"/></g></g></g></svg>