<?xml version="1.0" encoding="UTF-8" standalone="no"?><!DOCTYPE svg PUBLIC "-//W3C//DTD SVG 1.1//EN" "http://www.w3.org/Graphics/SVG/1.1/DTD/svg11.dtd"><svg width="100%" height="100%" viewBox="0 0 5 16" version="1.1" xmlns="http://www.w3.org/2000/svg" xmlns:xlink="http://www.w3.org/1999/xlink" xml:space="preserve" xmlns:serif="http://www.serif.com/" style="fill-rule:evenodd;clip-rule:evenodd;stroke-linejoin:round;stroke-miterlimit:1.41421;"><g id="Unlink_nor_16px"><path d="M5,1.8c0,-0.993 -0.807,-1.8 -1.8,-1.8l-1.4,0c-0.993,0 -1.8,0.807 -1.8,1.8l0,12.4c0,0.993 0.807,1.8 1.8,1.8l1.4,0c0.993,0 1.8,-0.807 1.8,-1.8l0,-12.4Z" style="fill:#818181;"/><path d="M4,2.2c0,-0.662 -0.538,-1.2 -1.2,-1.2l-0.6,0c-0.662,0 -1.2,0.538 -1.2,1.2l0,4.8l3,0l0,-4.8Z" style="fill:#a0a0a0;"/><path d="M4,8l-3,0l0,5.8c0,0.662 0.538,1.2 1.2,1.2l0.6,0c0.662,0 1.2,-0.538 1.2,-1.2l0,-5.8Z" style="fill:#a0a0a0;"/></g></svg>