<?xml version="1.0" encoding="UTF-8" standalone="no"?>
<!DOCTYPE svg PUBLIC "-//W3C//DTD SVG 1.1//EN" "http://www.w3.org/Graphics/SVG/1.1/DTD/svg11.dtd">
<svg width="100%" height="100%" viewBox="0 0 5 21" version="1.1" xmlns="http://www.w3.org/2000/svg" xmlns:xlink="http://www.w3.org/1999/xlink" xml:space="preserve" xmlns:serif="http://www.serif.com/" style="fill-rule:evenodd;clip-rule:evenodd;stroke-linejoin:round;stroke-miterlimit:1.41421;">
    <g transform="matrix(1,0,0,1,-12,-5)">
        <g id="Unlink_nor_dis_21px">
            <path d="M17,6.8C17,5.807 16.193,5 15.2,5L13.8,5C12.807,5 12,5.807 12,6.8L12,24.2C12,25.193 12.807,26 13.8,26L15.2,26C16.193,26 17,25.193 17,24.2L17,6.8Z" style="fill:rgb(161,161,161);"/>
            <g transform="matrix(0.6,0,0,0.428571,5.8,3.85714)">
                <path d="M17,7.8C17,6.255 16.104,5 15,5L14,5C12.896,5 12,6.255 12,7.8L12,26L17,26L17,7.8Z" style="fill:rgb(186,186,186);"/>
            </g>
            <g transform="matrix(0.6,0,0,0.428571,5.8,13.8571)">
                <path d="M17,5L12,5L12,23.2C12,24.745 12.896,26 14,26L15,26C16.104,26 17,24.745 17,23.2L17,5Z" style="fill:rgb(186,186,186);"/>
            </g>
        </g>
    </g>
</svg>
