<?xml version="1.0" encoding="UTF-8" standalone="no"?>
<!DOCTYPE svg PUBLIC "-//W3C//DTD SVG 1.1//EN" "http://www.w3.org/Graphics/SVG/1.1/DTD/svg11.dtd">
<svg width="100%" height="100%" viewBox="0 0 20 20" version="1.1" xmlns="http://www.w3.org/2000/svg" xmlns:xlink="http://www.w3.org/1999/xlink" xml:space="preserve" xmlns:serif="http://www.serif.com/" style="fill-rule:evenodd;clip-rule:evenodd;stroke-linejoin:round;stroke-miterlimit:2;">
    <g transform="matrix(1,0,0,1,-30,-79)">
        <g id="General_EyeWithDots_Normal" transform="matrix(1,0,0,1,-18,75)">
            <g id="Transparent-BG" serif:id="Transparent BG" transform="matrix(1,0,0,1,48,4)">
                <rect x="0" y="0" width="20" height="20" style="fill:white;fill-opacity:0;"/>
            </g>
            <g id="Eye" transform="matrix(0.625,0,0,0.625,50,7)">
                <rect x="0" y="0" width="24" height="24" style="fill:none;fill-rule:nonzero;"/>
                <g id="dot" transform="matrix(1.6,0,0,1.6,-2716.8,-217.6)">
                    <path d="M1710.02,149L1710.04,149.001L1710.06,149.002L1710.08,149.003L1710.1,149.005L1710.12,149.007L1710.14,149.01L1710.16,149.013L1710.18,149.016L1710.2,149.02L1710.22,149.024L1710.24,149.028L1710.26,149.033L1710.28,149.038L1710.29,149.044L1710.31,149.05L1710.33,149.057L1710.35,149.063L1710.37,149.071L1710.39,149.078L1710.41,149.086L1710.42,149.094L1710.44,149.103L1710.46,149.112L1710.48,149.121L1710.49,149.131L1710.51,149.141L1710.53,149.151L1710.55,149.162L1710.56,149.173L1710.58,149.184L1710.59,149.196L1710.61,149.208L1710.63,149.22L1710.64,149.233L1710.66,149.245L1710.67,149.259L1710.69,149.272L1710.7,149.286L1710.71,149.3L1710.73,149.314L1710.74,149.329L1710.76,149.344L1710.77,149.359L1710.78,149.374L1710.79,149.39L1710.8,149.406L1710.82,149.422L1710.83,149.438L1710.84,149.455L1710.85,149.472L1710.86,149.489L1710.87,149.506L1710.88,149.523L1710.89,149.541L1710.9,149.558L1710.91,149.576L1710.91,149.594L1710.92,149.613L1710.93,149.631L1710.94,149.65L1710.94,149.668L1710.95,149.687L1710.96,149.706L1710.96,149.725L1710.97,149.744L1710.97,149.764L1710.98,149.783L1710.98,149.802L1710.98,149.822L1710.99,149.842L1710.99,149.861L1710.99,149.881L1711,149.901L1711,149.921L1711,149.94L1711,149.96L1711,149.98L1711,150L1711,151L1711,151.02L1711,151.04L1711,151.06L1711,151.079L1711,151.099L1710.99,151.119L1710.99,151.139L1710.99,151.158L1710.98,151.178L1710.98,151.198L1710.98,151.217L1710.97,151.236L1710.97,151.256L1710.96,151.275L1710.96,151.294L1710.95,151.313L1710.94,151.332L1710.94,151.35L1710.93,151.369L1710.92,151.387L1710.91,151.406L1710.91,151.424L1710.9,151.442L1710.89,151.459L1710.88,151.477L1710.87,151.494L1710.86,151.511L1710.85,151.528L1710.84,151.545L1710.83,151.562L1710.82,151.578L1710.8,151.594L1710.79,151.61L1710.78,151.626L1710.77,151.641L1710.76,151.656L1710.74,151.671L1710.73,151.686L1710.71,151.7L1710.7,151.714L1710.69,151.728L1710.67,151.741L1710.66,151.755L1710.64,151.767L1710.63,151.78L1710.61,151.792L1710.59,151.804L1710.58,151.816L1710.56,151.827L1710.55,151.838L1710.53,151.849L1710.51,151.859L1710.49,151.869L1710.48,151.879L1710.46,151.888L1710.44,151.897L1710.42,151.906L1710.41,151.914L1710.39,151.922L1710.37,151.929L1710.35,151.937L1710.33,151.943L1710.31,151.95L1710.29,151.956L1710.28,151.962L1710.26,151.967L1710.24,151.972L1710.22,151.976L1710.2,151.98L1710.18,151.984L1710.16,151.987L1710.14,151.99L1710.12,151.993L1710.1,151.995L1710.08,151.997L1710.06,151.998L1710.04,151.999L1710.02,152L1710,152L1709,152L1708.98,152L1708.96,151.999L1708.94,151.998L1708.92,151.997L1708.9,151.995L1708.88,151.993L1708.86,151.99L1708.84,151.987L1708.82,151.984L1708.8,151.98L1708.78,151.976L1708.76,151.972L1708.74,151.967L1708.73,151.962L1708.71,151.956L1708.69,151.95L1708.67,151.943L1708.65,151.937L1708.63,151.929L1708.61,151.922L1708.59,151.914L1708.58,151.906L1708.56,151.897L1708.54,151.888L1708.52,151.879L1708.51,151.869L1708.49,151.859L1708.47,151.849L1708.45,151.838L1708.44,151.827L1708.42,151.816L1708.41,151.804L1708.39,151.792L1708.37,151.78L1708.36,151.767L1708.34,151.755L1708.33,151.741L1708.31,151.728L1708.3,151.714L1708.29,151.7L1708.27,151.686L1708.26,151.671L1708.25,151.656L1708.23,151.641L1708.22,151.626L1708.21,151.61L1708.2,151.594L1708.18,151.578L1708.17,151.562L1708.16,151.545L1708.15,151.528L1708.14,151.511L1708.13,151.494L1708.12,151.477L1708.11,151.459L1708.1,151.442L1708.09,151.424L1708.09,151.406L1708.08,151.387L1708.07,151.369L1708.06,151.35L1708.06,151.332L1708.05,151.313L1708.04,151.294L1708.04,151.275L1708.03,151.256L1708.03,151.236L1708.02,151.217L1708.02,151.198L1708.02,151.178L1708.01,151.158L1708.01,151.139L1708.01,151.119L1708.01,151.099L1708,151.079L1708,151.06L1708,151.04L1708,151.02L1708,151L1708,150L1708,149.98L1708,149.96L1708,149.94L1708,149.921L1708.01,149.901L1708.01,149.881L1708.01,149.861L1708.01,149.842L1708.02,149.822L1708.02,149.802L1708.02,149.783L1708.03,149.764L1708.03,149.744L1708.04,149.725L1708.04,149.706L1708.05,149.687L1708.06,149.668L1708.06,149.65L1708.07,149.631L1708.08,149.613L1708.09,149.594L1708.09,149.576L1708.1,149.558L1708.11,149.541L1708.12,149.523L1708.13,149.506L1708.14,149.489L1708.15,149.472L1708.16,149.455L1708.17,149.438L1708.18,149.422L1708.2,149.406L1708.21,149.39L1708.22,149.374L1708.23,149.359L1708.25,149.344L1708.26,149.329L1708.27,149.314L1708.29,149.3L1708.3,149.286L1708.31,149.272L1708.33,149.259L1708.34,149.245L1708.36,149.233L1708.37,149.22L1708.39,149.208L1708.41,149.196L1708.42,149.184L1708.44,149.173L1708.45,149.162L1708.47,149.151L1708.49,149.141L1708.51,149.131L1708.52,149.121L1708.54,149.112L1708.56,149.103L1708.58,149.094L1708.59,149.086L1708.61,149.078L1708.63,149.071L1708.65,149.063L1708.67,149.057L1708.69,149.05L1708.71,149.044L1708.73,149.038L1708.74,149.033L1708.76,149.028L1708.78,149.024L1708.8,149.02L1708.82,149.016L1708.84,149.013L1708.86,149.01L1708.88,149.007L1708.9,149.005L1708.92,149.003L1708.94,149.002L1708.96,149.001L1708.98,149L1709,149L1710,149L1710.02,149ZM1709,150L1709,151L1710,151L1710,150L1709,150Z" style="fill:rgb(58,58,58);"/>
                    <rect x="1709" y="150" width="1" height="1" style="fill:rgb(241,241,241);"/>
                </g>
                <g id="dot1" serif:id="dot" transform="matrix(1.6,0,0,1.6,-2713.6,-217.6)">
                    <path d="M1710.02,149L1710.04,149.001L1710.06,149.002L1710.08,149.003L1710.1,149.005L1710.12,149.007L1710.14,149.01L1710.16,149.013L1710.18,149.016L1710.2,149.02L1710.22,149.024L1710.24,149.028L1710.26,149.033L1710.28,149.038L1710.29,149.044L1710.31,149.05L1710.33,149.057L1710.35,149.063L1710.37,149.071L1710.39,149.078L1710.41,149.086L1710.42,149.094L1710.44,149.103L1710.46,149.112L1710.48,149.121L1710.49,149.131L1710.51,149.141L1710.53,149.151L1710.55,149.162L1710.56,149.173L1710.58,149.184L1710.59,149.196L1710.61,149.208L1710.63,149.22L1710.64,149.233L1710.66,149.245L1710.67,149.259L1710.69,149.272L1710.7,149.286L1710.71,149.3L1710.73,149.314L1710.74,149.329L1710.76,149.344L1710.77,149.359L1710.78,149.374L1710.79,149.39L1710.8,149.406L1710.82,149.422L1710.83,149.438L1710.84,149.455L1710.85,149.472L1710.86,149.489L1710.87,149.506L1710.88,149.523L1710.89,149.541L1710.9,149.558L1710.91,149.576L1710.91,149.594L1710.92,149.613L1710.93,149.631L1710.94,149.65L1710.94,149.668L1710.95,149.687L1710.96,149.706L1710.96,149.725L1710.97,149.744L1710.97,149.764L1710.98,149.783L1710.98,149.802L1710.98,149.822L1710.99,149.842L1710.99,149.861L1710.99,149.881L1711,149.901L1711,149.921L1711,149.94L1711,149.96L1711,149.98L1711,150L1711,151L1711,151.02L1711,151.04L1711,151.06L1711,151.079L1711,151.099L1710.99,151.119L1710.99,151.139L1710.99,151.158L1710.98,151.178L1710.98,151.198L1710.98,151.217L1710.97,151.236L1710.97,151.256L1710.96,151.275L1710.96,151.294L1710.95,151.313L1710.94,151.332L1710.94,151.35L1710.93,151.369L1710.92,151.387L1710.91,151.406L1710.91,151.424L1710.9,151.442L1710.89,151.459L1710.88,151.477L1710.87,151.494L1710.86,151.511L1710.85,151.528L1710.84,151.545L1710.83,151.562L1710.82,151.578L1710.8,151.594L1710.79,151.61L1710.78,151.626L1710.77,151.641L1710.76,151.656L1710.74,151.671L1710.73,151.686L1710.71,151.7L1710.7,151.714L1710.69,151.728L1710.67,151.741L1710.66,151.755L1710.64,151.767L1710.63,151.78L1710.61,151.792L1710.59,151.804L1710.58,151.816L1710.56,151.827L1710.55,151.838L1710.53,151.849L1710.51,151.859L1710.49,151.869L1710.48,151.879L1710.46,151.888L1710.44,151.897L1710.42,151.906L1710.41,151.914L1710.39,151.922L1710.37,151.929L1710.35,151.937L1710.33,151.943L1710.31,151.95L1710.29,151.956L1710.28,151.962L1710.26,151.967L1710.24,151.972L1710.22,151.976L1710.2,151.98L1710.18,151.984L1710.16,151.987L1710.14,151.99L1710.12,151.993L1710.1,151.995L1710.08,151.997L1710.06,151.998L1710.04,151.999L1710.02,152L1710,152L1709,152L1708.98,152L1708.96,151.999L1708.94,151.998L1708.92,151.997L1708.9,151.995L1708.88,151.993L1708.86,151.99L1708.84,151.987L1708.82,151.984L1708.8,151.98L1708.78,151.976L1708.76,151.972L1708.74,151.967L1708.73,151.962L1708.71,151.956L1708.69,151.95L1708.67,151.943L1708.65,151.937L1708.63,151.929L1708.61,151.922L1708.59,151.914L1708.58,151.906L1708.56,151.897L1708.54,151.888L1708.52,151.879L1708.51,151.869L1708.49,151.859L1708.47,151.849L1708.45,151.838L1708.44,151.827L1708.42,151.816L1708.41,151.804L1708.39,151.792L1708.37,151.78L1708.36,151.767L1708.34,151.755L1708.33,151.741L1708.31,151.728L1708.3,151.714L1708.29,151.7L1708.27,151.686L1708.26,151.671L1708.25,151.656L1708.23,151.641L1708.22,151.626L1708.21,151.61L1708.2,151.594L1708.18,151.578L1708.17,151.562L1708.16,151.545L1708.15,151.528L1708.14,151.511L1708.13,151.494L1708.12,151.477L1708.11,151.459L1708.1,151.442L1708.09,151.424L1708.09,151.406L1708.08,151.387L1708.07,151.369L1708.06,151.35L1708.06,151.332L1708.05,151.313L1708.04,151.294L1708.04,151.275L1708.03,151.256L1708.03,151.236L1708.02,151.217L1708.02,151.198L1708.02,151.178L1708.01,151.158L1708.01,151.139L1708.01,151.119L1708.01,151.099L1708,151.079L1708,151.06L1708,151.04L1708,151.02L1708,151L1708,150L1708,149.98L1708,149.96L1708,149.94L1708,149.921L1708.01,149.901L1708.01,149.881L1708.01,149.861L1708.01,149.842L1708.02,149.822L1708.02,149.802L1708.02,149.783L1708.03,149.764L1708.03,149.744L1708.04,149.725L1708.04,149.706L1708.05,149.687L1708.06,149.668L1708.06,149.65L1708.07,149.631L1708.08,149.613L1708.09,149.594L1708.09,149.576L1708.1,149.558L1708.11,149.541L1708.12,149.523L1708.13,149.506L1708.14,149.489L1708.15,149.472L1708.16,149.455L1708.17,149.438L1708.18,149.422L1708.2,149.406L1708.21,149.39L1708.22,149.374L1708.23,149.359L1708.25,149.344L1708.26,149.329L1708.27,149.314L1708.29,149.3L1708.3,149.286L1708.31,149.272L1708.33,149.259L1708.34,149.245L1708.36,149.233L1708.37,149.22L1708.39,149.208L1708.41,149.196L1708.42,149.184L1708.44,149.173L1708.45,149.162L1708.47,149.151L1708.49,149.141L1708.51,149.131L1708.52,149.121L1708.54,149.112L1708.56,149.103L1708.58,149.094L1708.59,149.086L1708.61,149.078L1708.63,149.071L1708.65,149.063L1708.67,149.057L1708.69,149.05L1708.71,149.044L1708.73,149.038L1708.74,149.033L1708.76,149.028L1708.78,149.024L1708.8,149.02L1708.82,149.016L1708.84,149.013L1708.86,149.01L1708.88,149.007L1708.9,149.005L1708.92,149.003L1708.94,149.002L1708.96,149.001L1708.98,149L1709,149L1710,149L1710.02,149ZM1709,150L1709,151L1710,151L1710,150L1709,150Z" style="fill:rgb(58,58,58);"/>
                    <rect x="1709" y="150" width="1" height="1" style="fill:rgb(241,241,241);"/>
                </g>
                <g id="dot2" serif:id="dot" transform="matrix(1.6,0,0,1.6,-2710.4,-217.6)">
                    <path d="M1710.02,149L1710.04,149.001L1710.06,149.002L1710.08,149.003L1710.1,149.005L1710.12,149.007L1710.14,149.01L1710.16,149.013L1710.18,149.016L1710.2,149.02L1710.22,149.024L1710.24,149.028L1710.26,149.033L1710.28,149.038L1710.29,149.044L1710.31,149.05L1710.33,149.057L1710.35,149.063L1710.37,149.071L1710.39,149.078L1710.41,149.086L1710.42,149.094L1710.44,149.103L1710.46,149.112L1710.48,149.121L1710.49,149.131L1710.51,149.141L1710.53,149.151L1710.55,149.162L1710.56,149.173L1710.58,149.184L1710.59,149.196L1710.61,149.208L1710.63,149.22L1710.64,149.233L1710.66,149.245L1710.67,149.259L1710.69,149.272L1710.7,149.286L1710.71,149.3L1710.73,149.314L1710.74,149.329L1710.76,149.344L1710.77,149.359L1710.78,149.374L1710.79,149.39L1710.8,149.406L1710.82,149.422L1710.83,149.438L1710.84,149.455L1710.85,149.472L1710.86,149.489L1710.87,149.506L1710.88,149.523L1710.89,149.541L1710.9,149.558L1710.91,149.576L1710.91,149.594L1710.92,149.613L1710.93,149.631L1710.94,149.65L1710.94,149.668L1710.95,149.687L1710.96,149.706L1710.96,149.725L1710.97,149.744L1710.97,149.764L1710.98,149.783L1710.98,149.802L1710.98,149.822L1710.99,149.842L1710.99,149.861L1710.99,149.881L1711,149.901L1711,149.921L1711,149.94L1711,149.96L1711,149.98L1711,150L1711,151L1711,151.02L1711,151.04L1711,151.06L1711,151.079L1711,151.099L1710.99,151.119L1710.99,151.139L1710.99,151.158L1710.98,151.178L1710.98,151.198L1710.98,151.217L1710.97,151.236L1710.97,151.256L1710.96,151.275L1710.96,151.294L1710.95,151.313L1710.94,151.332L1710.94,151.35L1710.93,151.369L1710.92,151.387L1710.91,151.406L1710.91,151.424L1710.9,151.442L1710.89,151.459L1710.88,151.477L1710.87,151.494L1710.86,151.511L1710.85,151.528L1710.84,151.545L1710.83,151.562L1710.82,151.578L1710.8,151.594L1710.79,151.61L1710.78,151.626L1710.77,151.641L1710.76,151.656L1710.74,151.671L1710.73,151.686L1710.71,151.7L1710.7,151.714L1710.69,151.728L1710.67,151.741L1710.66,151.755L1710.64,151.767L1710.63,151.78L1710.61,151.792L1710.59,151.804L1710.58,151.816L1710.56,151.827L1710.55,151.838L1710.53,151.849L1710.51,151.859L1710.49,151.869L1710.48,151.879L1710.46,151.888L1710.44,151.897L1710.42,151.906L1710.41,151.914L1710.39,151.922L1710.37,151.929L1710.35,151.937L1710.33,151.943L1710.31,151.95L1710.29,151.956L1710.28,151.962L1710.26,151.967L1710.24,151.972L1710.22,151.976L1710.2,151.98L1710.18,151.984L1710.16,151.987L1710.14,151.99L1710.12,151.993L1710.1,151.995L1710.08,151.997L1710.06,151.998L1710.04,151.999L1710.02,152L1710,152L1709,152L1708.98,152L1708.96,151.999L1708.94,151.998L1708.92,151.997L1708.9,151.995L1708.88,151.993L1708.86,151.99L1708.84,151.987L1708.82,151.984L1708.8,151.98L1708.78,151.976L1708.76,151.972L1708.74,151.967L1708.73,151.962L1708.71,151.956L1708.69,151.95L1708.67,151.943L1708.65,151.937L1708.63,151.929L1708.61,151.922L1708.59,151.914L1708.58,151.906L1708.56,151.897L1708.54,151.888L1708.52,151.879L1708.51,151.869L1708.49,151.859L1708.47,151.849L1708.45,151.838L1708.44,151.827L1708.42,151.816L1708.41,151.804L1708.39,151.792L1708.37,151.78L1708.36,151.767L1708.34,151.755L1708.33,151.741L1708.31,151.728L1708.3,151.714L1708.29,151.7L1708.27,151.686L1708.26,151.671L1708.25,151.656L1708.23,151.641L1708.22,151.626L1708.21,151.61L1708.2,151.594L1708.18,151.578L1708.17,151.562L1708.16,151.545L1708.15,151.528L1708.14,151.511L1708.13,151.494L1708.12,151.477L1708.11,151.459L1708.1,151.442L1708.09,151.424L1708.09,151.406L1708.08,151.387L1708.07,151.369L1708.06,151.35L1708.06,151.332L1708.05,151.313L1708.04,151.294L1708.04,151.275L1708.03,151.256L1708.03,151.236L1708.02,151.217L1708.02,151.198L1708.02,151.178L1708.01,151.158L1708.01,151.139L1708.01,151.119L1708.01,151.099L1708,151.079L1708,151.06L1708,151.04L1708,151.02L1708,151L1708,150L1708,149.98L1708,149.96L1708,149.94L1708,149.921L1708.01,149.901L1708.01,149.881L1708.01,149.861L1708.01,149.842L1708.02,149.822L1708.02,149.802L1708.02,149.783L1708.03,149.764L1708.03,149.744L1708.04,149.725L1708.04,149.706L1708.05,149.687L1708.06,149.668L1708.06,149.65L1708.07,149.631L1708.08,149.613L1708.09,149.594L1708.09,149.576L1708.1,149.558L1708.11,149.541L1708.12,149.523L1708.13,149.506L1708.14,149.489L1708.15,149.472L1708.16,149.455L1708.17,149.438L1708.18,149.422L1708.2,149.406L1708.21,149.39L1708.22,149.374L1708.23,149.359L1708.25,149.344L1708.26,149.329L1708.27,149.314L1708.29,149.3L1708.3,149.286L1708.31,149.272L1708.33,149.259L1708.34,149.245L1708.36,149.233L1708.37,149.22L1708.39,149.208L1708.41,149.196L1708.42,149.184L1708.44,149.173L1708.45,149.162L1708.47,149.151L1708.49,149.141L1708.51,149.131L1708.52,149.121L1708.54,149.112L1708.56,149.103L1708.58,149.094L1708.59,149.086L1708.61,149.078L1708.63,149.071L1708.65,149.063L1708.67,149.057L1708.69,149.05L1708.71,149.044L1708.73,149.038L1708.74,149.033L1708.76,149.028L1708.78,149.024L1708.8,149.02L1708.82,149.016L1708.84,149.013L1708.86,149.01L1708.88,149.007L1708.9,149.005L1708.92,149.003L1708.94,149.002L1708.96,149.001L1708.98,149L1709,149L1710,149L1710.02,149ZM1709,150L1709,151L1710,151L1710,150L1709,150Z" style="fill:rgb(58,58,58);"/>
                    <rect x="1709" y="150" width="1" height="1" style="fill:rgb(241,241,241);"/>
                </g>
                <g transform="matrix(1.6,0,0,1.6,-473.6,-11.2)">
                    <path d="M303.5,10C300.545,10 298.022,11.866 297,14.5C298.022,17.134 300.545,19 303.5,19C306.455,19 308.978,17.134 310,14.5C308.978,11.866 306.455,10 303.5,10ZM303.488,11.514C305.141,11.514 306.482,12.852 306.482,14.5C306.482,16.148 305.141,17.486 303.488,17.486C301.836,17.486 300.495,16.148 300.495,14.5C300.495,12.852 301.836,11.514 303.488,11.514Z" style="fill:rgb(189,189,189);"/>
                    <path d="M303.658,9.002L303.815,9.006L303.972,9.014L304.127,9.025L304.282,9.038L304.437,9.055L304.59,9.075L304.742,9.098L304.894,9.123L305.045,9.152L305.194,9.183L305.343,9.217L305.49,9.254L305.637,9.294L305.782,9.336L305.926,9.381L306.069,9.429L306.211,9.479L306.351,9.532L306.491,9.588L306.628,9.646L306.765,9.707L306.9,9.77L307.034,9.836L307.167,9.904L307.297,9.974L307.427,10.047L307.555,10.122L307.681,10.199L307.806,10.279L307.929,10.361L308.051,10.445L308.171,10.531L308.289,10.62L308.406,10.711L308.521,10.803L308.634,10.898L308.746,10.995L308.855,11.094L308.963,11.195L309.069,11.298L309.173,11.402L309.275,11.509L309.375,11.617L309.474,11.728L309.57,11.84L309.664,11.954L309.756,12.07L309.846,12.187L309.935,12.306L310.02,12.427L310.104,12.55L310.186,12.674L310.265,12.799L310.342,12.927L310.417,13.056L310.49,13.186L310.56,13.318L310.628,13.451L310.694,13.586L310.757,13.722L310.818,13.859L310.876,13.998L310.929,14.13L310.952,14.194L310.971,14.261L310.985,14.328L310.995,14.397L310.999,14.466L310.999,14.534L310.995,14.603L310.985,14.672L310.971,14.739L310.952,14.806L310.929,14.87L310.876,15.002L310.818,15.141L310.757,15.278L310.694,15.414L310.628,15.549L310.56,15.682L310.49,15.814L310.417,15.944L310.342,16.073L310.265,16.201L310.186,16.326L310.104,16.45L310.02,16.573L309.935,16.694L309.846,16.813L309.756,16.93L309.664,17.046L309.57,17.16L309.474,17.272L309.375,17.383L309.275,17.491L309.173,17.598L309.069,17.703L308.963,17.805L308.855,17.906L308.746,18.005L308.634,18.102L308.521,18.197L308.406,18.289L308.289,18.38L308.171,18.469L308.051,18.555L307.929,18.639L307.806,18.721L307.681,18.801L307.555,18.878L307.427,18.953L307.297,19.026L307.166,19.096L307.034,19.164L306.9,19.23L306.765,19.293L306.628,19.354L306.491,19.412L306.351,19.468L306.211,19.521L306.069,19.571L305.926,19.619L305.782,19.664L305.637,19.706L305.49,19.746L305.343,19.783L305.194,19.817L305.045,19.848L304.894,19.877L304.742,19.902L304.59,19.925L304.437,19.945L304.282,19.962L304.127,19.975L303.972,19.986L303.815,19.994L303.658,19.998L303.5,20L303.342,19.998L303.185,19.994L303.028,19.986L302.873,19.975L302.718,19.962L302.563,19.945L302.41,19.925L302.258,19.902L302.106,19.877L301.955,19.848L301.806,19.817L301.657,19.783L301.51,19.746L301.363,19.706L301.218,19.664L301.074,19.619L300.931,19.571L300.789,19.521L300.649,19.468L300.509,19.412L300.372,19.354L300.235,19.293L300.1,19.23L299.966,19.164L299.834,19.096L299.703,19.026L299.573,18.953L299.445,18.878L299.319,18.801L299.194,18.721L299.071,18.639L298.949,18.555L298.829,18.469L298.711,18.38L298.594,18.289L298.479,18.197L298.366,18.102L298.254,18.005L298.145,17.906L298.037,17.805L297.931,17.703L297.827,17.598L297.725,17.491L297.625,17.383L297.526,17.272L297.43,17.16L297.336,17.046L297.244,16.93L297.154,16.813L297.065,16.694L296.98,16.573L296.896,16.45L296.814,16.326L296.735,16.201L296.658,16.073L296.583,15.944L296.51,15.814L296.44,15.682L296.372,15.549L296.306,15.414L296.243,15.278L296.182,15.141L296.124,15.002L296.071,14.87L296.048,14.806L296.029,14.739L296.015,14.672L296.005,14.603L296.001,14.534L296.001,14.466L296.005,14.397L296.015,14.328L296.029,14.261L296.048,14.194L296.071,14.13L296.124,13.998L296.182,13.859L296.243,13.722L296.306,13.586L296.372,13.451L296.44,13.318L296.51,13.186L296.583,13.056L296.658,12.927L296.735,12.799L296.814,12.674L296.896,12.55L296.98,12.427L297.065,12.306L297.154,12.187L297.244,12.07L297.336,11.954L297.43,11.84L297.526,11.728L297.625,11.617L297.725,11.509L297.827,11.402L297.931,11.298L298.037,11.195L298.145,11.094L298.254,10.995L298.366,10.898L298.479,10.803L298.594,10.711L298.711,10.62L298.829,10.531L298.949,10.445L299.071,10.361L299.194,10.279L299.319,10.199L299.445,10.122L299.573,10.047L299.703,9.974L299.833,9.904L299.966,9.836L300.1,9.77L300.235,9.707L300.372,9.646L300.509,9.588L300.649,9.532L300.789,9.479L300.931,9.429L301.074,9.381L301.218,9.336L301.363,9.294L301.51,9.254L301.657,9.217L301.806,9.183L301.955,9.152L302.106,9.123L302.258,9.098L302.41,9.075L302.563,9.055L302.718,9.038L302.873,9.025L303.028,9.014L303.185,9.006L303.342,9.002L303.5,9L303.658,9.002ZM303.362,10.001L303.224,10.005L303.087,10.012L302.951,10.022L302.816,10.034L302.681,10.048L302.547,10.066L302.414,10.085L302.282,10.108L302.151,10.132L302.02,10.16L301.891,10.19L301.762,10.222L301.634,10.256L301.507,10.293L301.382,10.333L301.257,10.374L301.133,10.418L301.011,10.465L300.889,10.513L300.769,10.564L300.649,10.617L300.531,10.672L300.415,10.729L300.299,10.789L300.184,10.85L300.071,10.914L299.959,10.98L299.849,11.047L299.74,11.117L299.632,11.189L299.525,11.262L299.42,11.338L299.317,11.415L299.215,11.495L299.114,11.576L299.015,11.659L298.917,11.744L298.821,11.83L298.727,11.919L298.634,12.009L298.543,12.101L298.453,12.194L298.365,12.289L298.279,12.386L298.195,12.484L298.112,12.584L298.031,12.686L297.952,12.789L297.875,12.893L297.8,12.999L297.726,13.107L297.655,13.215L297.585,13.326L297.517,13.437L297.452,13.55L297.388,13.665L297.326,13.78L297.267,13.897L297.209,14.015L297.154,14.135L297.1,14.255L297.049,14.377L297,14.5L297.049,14.623L297.1,14.745L297.154,14.865L297.209,14.985L297.267,15.103L297.326,15.22L297.388,15.335L297.452,15.45L297.517,15.563L297.585,15.674L297.655,15.785L297.726,15.893L297.8,16.001L297.875,16.107L297.952,16.211L298.031,16.314L298.112,16.416L298.195,16.516L298.279,16.614L298.365,16.711L298.453,16.806L298.543,16.899L298.634,16.991L298.727,17.081L298.821,17.17L298.917,17.256L299.015,17.341L299.114,17.424L299.215,17.505L299.317,17.585L299.42,17.662L299.525,17.738L299.632,17.811L299.74,17.883L299.849,17.953L299.959,18.02L300.071,18.086L300.184,18.15L300.299,18.211L300.415,18.271L300.531,18.328L300.649,18.383L300.769,18.436L300.889,18.487L301.011,18.535L301.133,18.582L301.257,18.626L301.382,18.667L301.507,18.707L301.634,18.744L301.762,18.778L301.891,18.81L302.02,18.84L302.151,18.868L302.282,18.892L302.414,18.915L302.547,18.934L302.681,18.952L302.816,18.966L302.951,18.978L303.087,18.988L303.224,18.995L303.362,18.999L303.5,19L303.638,18.999L303.776,18.995L303.913,18.988L304.049,18.978L304.184,18.966L304.319,18.952L304.453,18.934L304.586,18.915L304.718,18.892L304.849,18.868L304.98,18.84L305.109,18.81L305.238,18.778L305.366,18.744L305.493,18.707L305.618,18.667L305.743,18.626L305.867,18.582L305.989,18.535L306.111,18.487L306.231,18.436L306.351,18.383L306.469,18.328L306.585,18.271L306.701,18.211L306.816,18.15L306.929,18.086L307.041,18.02L307.151,17.953L307.26,17.883L307.368,17.811L307.475,17.738L307.58,17.662L307.683,17.585L307.785,17.505L307.886,17.424L307.985,17.341L308.083,17.256L308.179,17.17L308.273,17.081L308.366,16.991L308.457,16.899L308.547,16.806L308.635,16.711L308.721,16.614L308.805,16.516L308.888,16.416L308.969,16.314L309.048,16.211L309.125,16.107L309.2,16.001L309.274,15.893L309.345,15.785L309.415,15.674L309.483,15.563L309.548,15.45L309.612,15.335L309.674,15.22L309.733,15.103L309.791,14.985L309.846,14.865L309.9,14.745L309.951,14.623L310,14.5L309.951,14.377L309.9,14.255L309.846,14.135L309.791,14.015L309.733,13.897L309.674,13.78L309.612,13.665L309.548,13.55L309.483,13.437L309.415,13.326L309.345,13.215L309.274,13.107L309.2,12.999L309.125,12.893L309.048,12.789L308.969,12.686L308.888,12.584L308.805,12.484L308.721,12.386L308.635,12.289L308.547,12.194L308.457,12.101L308.366,12.009L308.273,11.919L308.179,11.83L308.083,11.744L307.985,11.659L307.886,11.576L307.785,11.495L307.683,11.415L307.58,11.338L307.475,11.262L307.368,11.189L307.26,11.117L307.151,11.047L307.041,10.98L306.929,10.914L306.816,10.85L306.701,10.789L306.585,10.729L306.469,10.672L306.351,10.617L306.231,10.564L306.111,10.513L305.989,10.465L305.867,10.418L305.743,10.374L305.618,10.333L305.493,10.293L305.366,10.256L305.238,10.222L305.109,10.19L304.98,10.16L304.849,10.132L304.718,10.108L304.586,10.085L304.453,10.066L304.319,10.048L304.184,10.034L304.049,10.022L303.913,10.012L303.776,10.005L303.638,10.001L303.5,10L303.362,10.001ZM303.566,11.515L303.642,11.517L303.719,11.522L303.794,11.529L303.869,11.538L303.944,11.548L304.018,11.56L304.091,11.574L304.164,11.59L304.236,11.608L304.308,11.627L304.378,11.648L304.448,11.671L304.517,11.695L304.586,11.721L304.653,11.748L304.72,11.778L304.786,11.808L304.851,11.841L304.915,11.874L304.978,11.909L305.04,11.946L305.101,11.984L305.162,12.024L305.221,12.065L305.279,12.107L305.336,12.151L305.392,12.196L305.447,12.242L305.501,12.29L305.553,12.339L305.605,12.389L305.655,12.44L305.704,12.492L305.751,12.546L305.798,12.601L305.843,12.657L305.887,12.714L305.929,12.772L305.97,12.831L306.01,12.891L306.048,12.952L306.085,13.014L306.12,13.077L306.154,13.141L306.186,13.206L306.217,13.271L306.246,13.338L306.274,13.405L306.3,13.474L306.324,13.543L306.347,13.612L306.368,13.683L306.387,13.754L306.405,13.826L306.421,13.898L306.435,13.972L306.447,14.045L306.458,14.12L306.466,14.195L306.473,14.27L306.478,14.346L306.481,14.423L306.482,14.5L306.481,14.577L306.478,14.654L306.473,14.73L306.466,14.805L306.458,14.88L306.447,14.955L306.435,15.028L306.421,15.102L306.405,15.174L306.387,15.246L306.368,15.317L306.347,15.388L306.324,15.457L306.3,15.526L306.274,15.595L306.246,15.662L306.217,15.729L306.186,15.794L306.154,15.859L306.12,15.923L306.085,15.986L306.048,16.048L306.01,16.109L305.97,16.169L305.929,16.228L305.887,16.286L305.843,16.343L305.798,16.399L305.751,16.454L305.704,16.508L305.655,16.56L305.605,16.611L305.553,16.661L305.501,16.71L305.447,16.758L305.392,16.804L305.336,16.849L305.279,16.893L305.221,16.935L305.162,16.976L305.101,17.016L305.04,17.054L304.978,17.091L304.915,17.126L304.851,17.159L304.786,17.192L304.72,17.222L304.653,17.252L304.586,17.279L304.517,17.305L304.448,17.329L304.378,17.352L304.308,17.373L304.236,17.392L304.164,17.41L304.091,17.426L304.018,17.44L303.944,17.452L303.869,17.462L303.794,17.471L303.719,17.478L303.642,17.483L303.566,17.485L303.488,17.486L303.411,17.485L303.335,17.483L303.258,17.478L303.183,17.471L303.107,17.462L303.033,17.452L302.959,17.44L302.886,17.426L302.813,17.41L302.741,17.392L302.669,17.373L302.599,17.352L302.529,17.329L302.46,17.305L302.391,17.279L302.324,17.252L302.257,17.222L302.191,17.192L302.126,17.159L302.062,17.126L301.999,17.091L301.937,17.054L301.876,17.016L301.815,16.976L301.756,16.935L301.698,16.893L301.641,16.849L301.585,16.804L301.53,16.758L301.476,16.71L301.424,16.661L301.372,16.611L301.322,16.56L301.273,16.508L301.225,16.454L301.179,16.399L301.134,16.343L301.09,16.286L301.048,16.228L301.007,16.169L300.967,16.109L300.929,16.048L300.892,15.986L300.857,15.923L300.823,15.859L300.791,15.794L300.76,15.729L300.731,15.662L300.703,15.595L300.677,15.526L300.653,15.457L300.63,15.388L300.609,15.317L300.589,15.246L300.572,15.174L300.556,15.102L300.542,15.028L300.53,14.955L300.519,14.88L300.511,14.805L300.504,14.73L300.499,14.654L300.496,14.577L300.495,14.5L300.496,14.423L300.499,14.346L300.504,14.27L300.511,14.195L300.519,14.12L300.53,14.045L300.542,13.972L300.556,13.898L300.572,13.826L300.589,13.754L300.609,13.683L300.63,13.612L300.653,13.543L300.677,13.474L300.703,13.405L300.731,13.338L300.76,13.271L300.791,13.206L300.823,13.141L300.857,13.077L300.892,13.014L300.929,12.952L300.967,12.891L301.007,12.831L301.048,12.772L301.09,12.714L301.134,12.657L301.179,12.601L301.225,12.546L301.273,12.492L301.322,12.44L301.372,12.389L301.424,12.339L301.476,12.29L301.53,12.242L301.585,12.196L301.641,12.151L301.698,12.107L301.756,12.065L301.815,12.024L301.876,11.984L301.937,11.946L301.999,11.909L302.062,11.874L302.126,11.841L302.191,11.808L302.257,11.778L302.324,11.748L302.391,11.721L302.46,11.695L302.529,11.671L302.599,11.648L302.669,11.627L302.741,11.608L302.813,11.59L302.886,11.574L302.959,11.56L303.033,11.548L303.107,11.538L303.183,11.529L303.258,11.522L303.335,11.517L303.411,11.515L303.488,11.514L303.566,11.515ZM303.437,12.514L303.385,12.516L303.334,12.52L303.284,12.524L303.233,12.53L303.184,12.537L303.135,12.545L303.086,12.554L303.037,12.565L302.99,12.576L302.942,12.589L302.895,12.603L302.849,12.618L302.803,12.634L302.758,12.651L302.713,12.67L302.668,12.689L302.625,12.71L302.582,12.731L302.539,12.753L302.497,12.777L302.455,12.801L302.415,12.827L302.374,12.853L302.335,12.88L302.296,12.909L302.258,12.938L302.221,12.968L302.184,12.999L302.148,13.031L302.113,13.063L302.079,13.097L302.045,13.131L302.012,13.166L301.981,13.202L301.95,13.238L301.919,13.276L301.89,13.314L301.862,13.352L301.835,13.392L301.808,13.432L301.783,13.472L301.758,13.514L301.735,13.555L301.712,13.598L301.691,13.641L301.671,13.684L301.651,13.729L301.633,13.773L301.616,13.818L301.6,13.864L301.585,13.91L301.571,13.957L301.558,14.004L301.546,14.052L301.536,14.1L301.526,14.148L301.518,14.197L301.511,14.246L301.506,14.296L301.501,14.347L301.498,14.397L301.496,14.448L301.495,14.5L301.496,14.552L301.498,14.603L301.501,14.653L301.506,14.704L301.511,14.754L301.518,14.803L301.526,14.852L301.536,14.9L301.546,14.948L301.558,14.996L301.571,15.043L301.585,15.09L301.6,15.136L301.616,15.182L301.633,15.227L301.651,15.271L301.671,15.316L301.691,15.359L301.712,15.402L301.735,15.445L301.758,15.486L301.783,15.528L301.808,15.568L301.835,15.608L301.862,15.648L301.89,15.686L301.919,15.724L301.95,15.762L301.981,15.798L302.012,15.834L302.045,15.869L302.079,15.903L302.113,15.937L302.148,15.969L302.184,16.001L302.221,16.032L302.258,16.062L302.296,16.091L302.335,16.12L302.374,16.147L302.415,16.173L302.455,16.199L302.497,16.223L302.539,16.247L302.582,16.269L302.625,16.29L302.669,16.311L302.713,16.33L302.758,16.349L302.803,16.366L302.849,16.382L302.895,16.397L302.942,16.411L302.99,16.424L303.037,16.435L303.086,16.446L303.135,16.455L303.184,16.463L303.233,16.47L303.284,16.476L303.334,16.48L303.385,16.484L303.437,16.486L303.488,16.486L303.54,16.486L303.592,16.484L303.643,16.48L303.693,16.476L303.744,16.47L303.793,16.463L303.842,16.455L303.891,16.446L303.94,16.435L303.987,16.424L304.035,16.411L304.082,16.397L304.128,16.382L304.174,16.366L304.219,16.349L304.264,16.33L304.308,16.311L304.352,16.291L304.395,16.269L304.438,16.247L304.48,16.223L304.522,16.199L304.562,16.173L304.602,16.147L304.642,16.12L304.681,16.091L304.719,16.062L304.756,16.032L304.793,16.001L304.829,15.969L304.864,15.937L304.898,15.903L304.932,15.869L304.965,15.834L304.996,15.798L305.027,15.762L305.057,15.724L305.087,15.686L305.115,15.648L305.142,15.608L305.169,15.568L305.194,15.528L305.219,15.486L305.242,15.445L305.265,15.402L305.286,15.359L305.306,15.316L305.326,15.271L305.344,15.227L305.361,15.182L305.377,15.136L305.392,15.09L305.406,15.043L305.419,14.996L305.431,14.948L305.441,14.9L305.451,14.852L305.459,14.803L305.466,14.754L305.471,14.704L305.476,14.653L305.479,14.603L305.481,14.552L305.482,14.5L305.481,14.448L305.479,14.397L305.476,14.347L305.471,14.296L305.466,14.246L305.459,14.197L305.451,14.148L305.441,14.1L305.431,14.052L305.419,14.004L305.406,13.957L305.392,13.91L305.377,13.864L305.361,13.818L305.344,13.773L305.326,13.729L305.306,13.684L305.286,13.641L305.265,13.598L305.242,13.555L305.219,13.514L305.194,13.472L305.169,13.432L305.142,13.392L305.115,13.352L305.087,13.314L305.057,13.276L305.027,13.238L304.996,13.202L304.965,13.166L304.932,13.131L304.898,13.097L304.864,13.063L304.829,13.031L304.793,12.999L304.756,12.968L304.719,12.938L304.681,12.909L304.642,12.88L304.602,12.853L304.562,12.827L304.522,12.801L304.48,12.777L304.438,12.753L304.395,12.731L304.352,12.71L304.308,12.689L304.264,12.67L304.219,12.651L304.174,12.634L304.128,12.618L304.082,12.603L304.035,12.589L303.987,12.576L303.939,12.565L303.891,12.554L303.842,12.545L303.793,12.537L303.744,12.53L303.693,12.524L303.643,12.52L303.592,12.516L303.54,12.514L303.488,12.514L303.437,12.514Z" style="fill:rgb(34,34,34);"/>
                </g>
                <g transform="matrix(1.94588,0,0,1.94588,-329.501,-14.2693)">
                    <path d="M175.56,11.178L175.619,11.181L175.678,11.184L175.736,11.19L175.795,11.196L175.853,11.204L175.91,11.214L175.967,11.225L176.024,11.237L176.08,11.251L176.135,11.266L176.19,11.282L176.245,11.3L176.298,11.319L176.352,11.339L176.404,11.361L176.456,11.383L176.507,11.407L176.558,11.432L176.607,11.459L176.656,11.486L176.705,11.515L176.752,11.544L176.799,11.575L176.845,11.607L176.89,11.64L176.934,11.674L176.977,11.709L177.02,11.744L177.061,11.781L177.102,11.819L177.142,11.858L177.181,11.898L177.219,11.939L177.256,11.98L177.291,12.023L177.326,12.066L177.36,12.11L177.393,12.155L177.425,12.201L177.456,12.248L177.485,12.295L177.514,12.344L177.541,12.393L177.568,12.442L177.593,12.493L177.617,12.544L177.639,12.596L177.661,12.648L177.681,12.702L177.7,12.755L177.718,12.81L177.734,12.865L177.749,12.92L177.763,12.976L177.775,13.033L177.786,13.09L177.796,13.147L177.804,13.205L177.81,13.264L177.816,13.322L177.819,13.381L177.822,13.44L177.822,13.5L177.822,13.56L177.819,13.619L177.816,13.678L177.81,13.736L177.804,13.795L177.796,13.853L177.786,13.91L177.775,13.967L177.763,14.024L177.749,14.08L177.734,14.135L177.718,14.19L177.7,14.245L177.681,14.298L177.661,14.352L177.639,14.404L177.617,14.456L177.593,14.507L177.568,14.558L177.541,14.607L177.514,14.656L177.485,14.705L177.456,14.752L177.425,14.799L177.393,14.845L177.36,14.89L177.326,14.934L177.291,14.977L177.256,15.02L177.219,15.061L177.181,15.102L177.142,15.142L177.102,15.181L177.061,15.219L177.02,15.256L176.977,15.291L176.934,15.326L176.89,15.36L176.845,15.393L176.799,15.425L176.752,15.456L176.705,15.485L176.656,15.514L176.607,15.541L176.558,15.568L176.507,15.593L176.456,15.617L176.404,15.639L176.352,15.661L176.298,15.681L176.245,15.7L176.19,15.718L176.135,15.734L176.08,15.749L176.024,15.763L175.967,15.775L175.91,15.786L175.853,15.796L175.795,15.804L175.736,15.81L175.678,15.816L175.619,15.819L175.56,15.822L175.5,15.822L175.441,15.822L175.381,15.819L175.322,15.816L175.264,15.81L175.205,15.804L175.147,15.796L175.09,15.786L175.033,15.775L174.976,15.763L174.92,15.749L174.865,15.734L174.81,15.718L174.755,15.7L174.702,15.681L174.648,15.661L174.596,15.639L174.544,15.617L174.493,15.593L174.442,15.568L174.393,15.541L174.344,15.514L174.295,15.485L174.248,15.456L174.201,15.425L174.155,15.393L174.11,15.36L174.066,15.326L174.023,15.291L173.98,15.256L173.939,15.219L173.898,15.181L173.858,15.142L173.819,15.102L173.781,15.061L173.744,15.02L173.709,14.977L173.674,14.934L173.64,14.89L173.607,14.845L173.575,14.799L173.544,14.752L173.515,14.705L173.486,14.656L173.459,14.607L173.432,14.558L173.407,14.507L173.383,14.456L173.361,14.404L173.339,14.352L173.319,14.298L173.3,14.245L173.282,14.19L173.266,14.135L173.251,14.08L173.237,14.024L173.225,13.967L173.214,13.91L173.204,13.853L173.196,13.795L173.19,13.736L173.184,13.678L173.181,13.619L173.178,13.56L173.178,13.5L173.178,13.44L173.181,13.381L173.184,13.322L173.19,13.264L173.196,13.205L173.204,13.147L173.214,13.09L173.225,13.033L173.237,12.976L173.251,12.92L173.266,12.865L173.282,12.81L173.3,12.755L173.319,12.702L173.339,12.648L173.361,12.596L173.383,12.544L173.407,12.493L173.432,12.442L173.459,12.393L173.486,12.344L173.515,12.295L173.544,12.248L173.575,12.201L173.607,12.155L173.64,12.11L173.674,12.066L173.709,12.023L173.744,11.98L173.781,11.939L173.819,11.898L173.858,11.858L173.898,11.819L173.939,11.781L173.98,11.744L174.023,11.709L174.066,11.674L174.11,11.64L174.155,11.607L174.201,11.575L174.248,11.544L174.295,11.515L174.344,11.486L174.393,11.459L174.442,11.432L174.493,11.407L174.544,11.383L174.596,11.361L174.648,11.339L174.702,11.319L174.755,11.3L174.81,11.282L174.865,11.266L174.92,11.251L174.976,11.237L175.033,11.225L175.09,11.214L175.147,11.204L175.205,11.196L175.264,11.19L175.322,11.184L175.381,11.181L175.44,11.178L175.5,11.178L175.56,11.178ZM175.461,12L175.423,12.002L175.385,12.004L175.347,12.008L175.309,12.012L175.272,12.017L175.235,12.023L175.198,12.03L175.161,12.038L175.125,12.047L175.09,12.057L175.054,12.067L175.019,12.079L174.984,12.091L174.95,12.104L174.916,12.118L174.883,12.133L174.85,12.148L174.817,12.164L174.785,12.181L174.754,12.199L174.722,12.217L174.692,12.236L174.662,12.256L174.632,12.277L174.603,12.298L174.574,12.32L174.546,12.343L174.519,12.366L174.492,12.39L174.465,12.414L174.44,12.44L174.414,12.465L174.39,12.492L174.366,12.519L174.343,12.546L174.32,12.574L174.298,12.603L174.277,12.632L174.256,12.662L174.236,12.692L174.217,12.722L174.199,12.754L174.181,12.785L174.164,12.817L174.148,12.85L174.133,12.883L174.118,12.916L174.104,12.95L174.091,12.984L174.079,13.019L174.067,13.054L174.057,13.09L174.047,13.125L174.038,13.161L174.03,13.198L174.023,13.235L174.017,13.272L174.012,13.309L174.008,13.347L174.004,13.385L174.002,13.423L174,13.461L174,13.5L174,13.539L174.002,13.577L174.004,13.615L174.008,13.653L174.012,13.691L174.017,13.728L174.023,13.765L174.03,13.802L174.038,13.839L174.047,13.875L174.057,13.91L174.067,13.946L174.079,13.981L174.091,14.016L174.104,14.05L174.118,14.084L174.133,14.117L174.148,14.15L174.164,14.183L174.181,14.215L174.199,14.246L174.217,14.278L174.236,14.308L174.256,14.338L174.277,14.368L174.298,14.397L174.32,14.426L174.343,14.454L174.366,14.481L174.39,14.508L174.414,14.535L174.44,14.56L174.465,14.586L174.492,14.61L174.519,14.634L174.546,14.657L174.574,14.68L174.603,14.702L174.632,14.723L174.662,14.744L174.692,14.764L174.722,14.783L174.754,14.801L174.785,14.819L174.817,14.836L174.85,14.852L174.883,14.867L174.916,14.882L174.95,14.896L174.984,14.909L175.019,14.921L175.054,14.933L175.09,14.943L175.125,14.953L175.161,14.962L175.198,14.97L175.235,14.977L175.272,14.983L175.309,14.988L175.347,14.992L175.385,14.996L175.423,14.998L175.461,15L175.5,15L175.539,15L175.577,14.998L175.615,14.996L175.653,14.992L175.691,14.988L175.728,14.983L175.765,14.977L175.802,14.97L175.839,14.962L175.875,14.953L175.91,14.943L175.946,14.933L175.981,14.921L176.016,14.909L176.05,14.896L176.084,14.882L176.117,14.867L176.15,14.852L176.183,14.836L176.215,14.819L176.246,14.801L176.278,14.783L176.308,14.764L176.338,14.744L176.368,14.723L176.397,14.702L176.426,14.68L176.454,14.657L176.481,14.634L176.508,14.61L176.535,14.586L176.56,14.56L176.586,14.535L176.61,14.508L176.634,14.481L176.657,14.454L176.68,14.426L176.702,14.397L176.723,14.368L176.744,14.338L176.764,14.308L176.783,14.278L176.801,14.246L176.819,14.215L176.836,14.183L176.852,14.15L176.867,14.117L176.882,14.084L176.896,14.05L176.909,14.016L176.921,13.981L176.933,13.946L176.943,13.91L176.953,13.875L176.962,13.839L176.97,13.802L176.977,13.765L176.983,13.728L176.988,13.691L176.992,13.653L176.996,13.615L176.998,13.577L177,13.539L177,13.5L177,13.461L176.998,13.423L176.996,13.385L176.992,13.347L176.988,13.309L176.983,13.272L176.977,13.235L176.97,13.198L176.962,13.161L176.953,13.125L176.943,13.09L176.933,13.054L176.921,13.019L176.909,12.984L176.896,12.95L176.882,12.916L176.867,12.883L176.852,12.85L176.836,12.817L176.819,12.785L176.801,12.754L176.783,12.722L176.764,12.692L176.744,12.662L176.723,12.632L176.702,12.603L176.68,12.574L176.657,12.546L176.634,12.519L176.61,12.492L176.586,12.465L176.56,12.44L176.535,12.414L176.508,12.39L176.481,12.366L176.454,12.343L176.426,12.32L176.397,12.298L176.368,12.277L176.338,12.256L176.308,12.236L176.278,12.217L176.246,12.199L176.215,12.181L176.183,12.164L176.15,12.148L176.117,12.133L176.084,12.118L176.05,12.104L176.016,12.091L175.981,12.079L175.946,12.067L175.91,12.057L175.875,12.047L175.839,12.038L175.802,12.03L175.765,12.023L175.728,12.017L175.691,12.012L175.653,12.008L175.615,12.004L175.577,12.002L175.539,12L175.5,12L175.461,12Z" style="fill:rgb(58,58,58);"/>
                    <circle cx="175.5" cy="13.5" r="1.5" style="fill:rgb(189,189,189);"/>
                </g>
            </g>
        </g>
    </g>
</svg>
