<?xml version="1.0" encoding="UTF-8" standalone="no"?>
<!DOCTYPE svg PUBLIC "-//W3C//DTD SVG 1.1//EN" "http://www.w3.org/Graphics/SVG/1.1/DTD/svg11.dtd">
<svg width="100%" height="100%" viewBox="0 0 20 20" version="1.1" xmlns="http://www.w3.org/2000/svg" xmlns:xlink="http://www.w3.org/1999/xlink" xml:space="preserve" xmlns:serif="http://www.serif.com/" style="fill-rule:evenodd;clip-rule:evenodd;stroke-linejoin:round;stroke-miterlimit:2;">
    <g transform="matrix(1,0,0,1,-54,-29)">
        <g id="General_ActionsWithTriangle_Disabled" transform="matrix(1,0,0,1,6,25)">
            <g opacity="0.3">
                <g id="Transparent-BG" serif:id="Transparent BG" transform="matrix(1,0,0,1,48,4)">
                    <rect x="0" y="0" width="20" height="20" style="fill:white;fill-opacity:0;"/>
                </g>
                <g transform="matrix(1.73001,7.06216e-17,-7.06216e-17,-1.15334,-255.548,43.2201)">
                    <path d="M186.021,21.866L186.043,21.865L186.064,21.862L186.085,21.858L186.106,21.852L186.127,21.846L186.148,21.838L186.168,21.83L186.188,21.82L186.209,21.809L186.228,21.797L186.248,21.783L186.267,21.769L186.286,21.754L186.304,21.738L186.322,21.72L186.339,21.702L186.356,21.683L186.373,21.662L186.389,21.641L186.404,21.619L186.419,21.597L186.434,21.573L186.448,21.549L186.461,21.523L186.473,21.498L186.485,21.471L186.497,21.444L186.507,21.416L186.517,21.388L186.526,21.359L186.535,21.33L186.542,21.3L186.549,21.269L186.556,21.239L186.561,21.208L186.566,21.177L186.57,21.145L186.573,21.114L186.575,21.082L186.577,21.05L186.578,21.018L186.578,20.986L186.577,20.954L186.576,20.922L186.573,20.89L186.57,20.859L186.566,20.827L186.562,20.796L186.556,20.765L186.55,20.734L186.543,20.704L186.536,20.674L186.527,20.645L186.518,20.616L186.508,20.587L186.498,20.56L186.487,20.532L186.475,20.506L186.462,20.48L185.462,18.48L185.449,18.454L185.435,18.43L185.421,18.406L185.406,18.383L185.391,18.361L185.374,18.34L185.358,18.319L185.341,18.3L185.323,18.281L185.305,18.264L185.287,18.247L185.268,18.232L185.249,18.217L185.229,18.204L185.21,18.192L185.189,18.181L185.169,18.171L185.148,18.162L185.128,18.154L185.107,18.148L185.085,18.142L185.064,18.138L185.043,18.135L185.021,18.134L185,18.133L184.979,18.134L184.957,18.135L184.936,18.138L184.915,18.142L184.893,18.148L184.872,18.154L184.852,18.162L184.831,18.171L184.811,18.181L184.79,18.192L184.771,18.204L184.751,18.217L184.732,18.232L184.713,18.247L184.695,18.264L184.677,18.281L184.659,18.3L184.642,18.319L184.626,18.34L184.609,18.361L184.594,18.383L184.579,18.406L184.565,18.43L184.551,18.454L184.538,18.48L183.538,20.48L183.525,20.506L183.513,20.532L183.502,20.56L183.492,20.587L183.482,20.616L183.473,20.645L183.464,20.674L183.457,20.704L183.45,20.734L183.444,20.765L183.438,20.796L183.434,20.827L183.43,20.859L183.427,20.89L183.424,20.922L183.423,20.954L183.422,20.986L183.422,21.018L183.423,21.05L183.425,21.082L183.427,21.114L183.43,21.145L183.434,21.177L183.439,21.208L183.444,21.239L183.451,21.269L183.458,21.3L183.465,21.33L183.474,21.359L183.483,21.388L183.493,21.416L183.503,21.444L183.515,21.471L183.527,21.498L183.539,21.523L183.552,21.549L183.566,21.573L183.581,21.597L183.596,21.619L183.611,21.641L183.627,21.662L183.644,21.683L183.661,21.702L183.678,21.72L183.696,21.738L183.714,21.754L183.733,21.769L183.752,21.783L183.772,21.797L183.791,21.809L183.812,21.82L183.832,21.83L183.852,21.838L183.873,21.846L183.894,21.852L183.915,21.858L183.936,21.862L183.957,21.865L183.979,21.866L184,21.867L186,21.867L186.021,21.866ZM184,21L185,19L186,21L184,21Z" style="fill:rgb(58,58,58);"/>
                    <path d="M185,19L186,21L184,21L185,19Z" style="fill:rgb(241,241,241);"/>
                </g>
                <g transform="matrix(0.444444,0,0,1.33333,-615.556,-1232)">
                    <rect x="1511" y="936" width="9" height="3" style="fill:rgb(58,58,58);"/>
                </g>
                <g transform="matrix(0.222222,0,0,0.666667,-278.778,-607)">
                    <rect x="1511" y="936" width="9" height="3" style="fill:rgb(189,189,189);"/>
                </g>
                <g transform="matrix(0.444444,0,0,1.33333,-615.556,-1236)">
                    <rect x="1511" y="936" width="9" height="3" style="fill:rgb(58,58,58);"/>
                </g>
                <g transform="matrix(0.222222,0,0,0.666667,-278.778,-611)">
                    <rect x="1511" y="936" width="9" height="3" style="fill:rgb(189,189,189);"/>
                </g>
                <g transform="matrix(0.444444,0,0,1.33333,-615.556,-1240)">
                    <rect x="1511" y="936" width="9" height="3" style="fill:rgb(58,58,58);"/>
                </g>
                <g transform="matrix(0.222222,0,0,0.666667,-278.778,-615)">
                    <rect x="1511" y="936" width="9" height="3" style="fill:rgb(189,189,189);"/>
                </g>
                <g id="Actions">
                </g>
            </g>
        </g>
    </g>
</svg>
