<?xml version="1.0" encoding="UTF-8" standalone="no"?>
<!DOCTYPE svg PUBLIC "-//W3C//DTD SVG 1.1//EN" "http://www.w3.org/Graphics/SVG/1.1/DTD/svg11.dtd">
<svg width="100%" height="100%" viewBox="0 0 19 19" version="1.1" xmlns="http://www.w3.org/2000/svg" xmlns:xlink="http://www.w3.org/1999/xlink" xml:space="preserve" xmlns:serif="http://www.serif.com/" style="fill-rule:evenodd;clip-rule:evenodd;stroke-linejoin:round;stroke-miterlimit:2;">
    <g transform="matrix(1,0,0,1,-5,-4)">
        <g id="Visibility_ShowGameObjects_Disabled" transform="matrix(1,0,0,1,5,4)">
            <g opacity="0.3">
                <g id="Close-Icon" serif:id="Close Icon" transform="matrix(0.75,0,0,0.75,-620.75,188.5)">
                    <g id="Transparent-BG" serif:id="Transparent BG" transform="matrix(1.26667,0,0,1.26667,827.667,-251.333)">
                        <rect x="0" y="0" width="20" height="20" style="fill:white;fill-opacity:0;"/>
                    </g>
                    <g id="Hide-Pins" serif:id="Hide Pins" transform="matrix(9.33366,0,0,1.30671,648.864,-251.504)">
                        <g id="Transparent-BG1" serif:id="Transparent BG" transform="matrix(0.13571,0,0,0.969354,19.1568,0.130669)">
                            <path d="M20,1.8C20,0.807 19.193,0 18.2,0L1.8,0C0.807,0 0,0.807 0,1.8L0,18.2C0,19.193 0.807,20 1.8,20L18.2,20C19.193,20 20,19.193 20,18.2L20,1.8Z" style="fill:rgb(216,140,59);fill-opacity:0;"/>
                        </g>
                        <g transform="matrix(0.177,0,0,1.88246,-365.833,-142.122)">
                            <g id="Transparent-BG2" serif:id="Transparent BG" transform="matrix(0.766721,0,0,0.514939,2175.08,75.5674)">
                                <path d="M20,1.8C20,0.807 19.193,0 18.2,0L1.8,0C0.807,0 0,0.807 0,1.8L0,18.2C0,19.193 0.807,20 1.8,20L18.2,20C19.193,20 20,19.193 20,18.2L20,1.8Z" style="fill:rgb(216,140,59);fill-opacity:0;"/>
                            </g>
                            <g transform="matrix(0.590013,0,0,0.396293,2061.56,73.89)">
                                <path d="M197.454,15.811L195.873,14.207C195.341,13.524 195.336,12.804 195.752,12.053C196.643,11.104 198.071,10.248 199.727,10.864L201.834,9.147C201.436,7.954 201.853,6.65 202.702,5.968C203.26,5.483 204.022,5.492 204.516,5.915L209.931,11.381C210.274,11.972 210.338,12.563 209.902,13.155C209.295,13.766 208.144,14.373 206.747,14.136L205.018,16.446C205.56,18.061 204.734,19.201 203.761,20.168C203.096,20.635 202.425,20.604 201.749,20.16L200.165,18.553L197.197,21.355C196.512,21.811 195.824,21.983 195.137,22.003C194.277,22.056 193.752,21.687 193.769,20.636C193.812,19.847 194.016,19.149 194.479,18.599L197.454,15.811Z" style="fill:none;"/>
                            </g>
                        </g>
                    </g>
                    <g>
                        <clipPath id="_clip1">
                            <path d="M847.667,-250L829,-250L829,-231.333L836.512,-231.333C835.91,-231.92 835.388,-232.787 835.003,-234.133C836.329,-238.133 839.086,-240.463 843.667,-240.667C846.077,-240.565 846.899,-240.041 847.667,-239.501L847.667,-250Z"/>
                        </clipPath>
                        <g clip-path="url(#_clip1)">
                            <g transform="matrix(1.04762,0,0,1.08172,830.333,-250.082)">
                                <path d="M6.158,15.838C6.716,16.169 7.275,16.193 7.836,15.873L14.799,12.781C15.133,12.57 15.267,12.272 15.273,11.918L15.273,3.171C15.239,2.623 14.953,2.302 14.467,2.162L7.541,0.183C7.108,0.032 6.709,0.05 6.332,0.182L-0.308,2.109C-0.916,2.33 -1.257,2.689 -1.273,3.215L-1.273,11.699C-1.264,12.317 -1.046,12.67 -0.652,12.8L6.158,15.838Z" style="fill:rgb(58,58,58);"/>
                            </g>
                            <g transform="matrix(1.02282,0,0,0.994121,830.507,-248.763)">
                                <path d="M7.033,15L14.17,11.542L14.169,2.436L6.929,0.112L-0.17,2.436L-0.17,11.542L7.033,15ZM6.363,6.682L1.133,4.085L1.134,10.087L6.348,12.673L6.363,6.682ZM11.917,3.446L6.941,1.74L3.108,3.107L7.341,5.131L11.917,3.446Z" style="fill:rgb(189,189,189);"/>
                            </g>
                        </g>
                    </g>
                    <g transform="matrix(1.33333,0,0,1.33333,-2792.33,-498)">
                        <path d="M2726.96,193.988C2724.47,193.988 2722.35,195.648 2721.49,197.991C2722.35,200.334 2724.47,201.995 2726.96,201.995C2729.45,201.995 2731.57,200.334 2732.43,197.991C2731.57,195.648 2729.45,193.988 2726.96,193.988ZM2727.01,195.33C2728.48,195.33 2729.68,196.534 2729.68,198.017C2729.68,199.501 2728.48,200.705 2727.01,200.705C2725.53,200.705 2724.34,199.501 2724.34,198.017C2724.34,196.534 2725.53,195.33 2727.01,195.33Z" style="fill:rgb(189,189,189);"/>
                        <path d="M2727.1,192.989L2727.23,192.993L2727.37,193L2727.5,193.01L2727.64,193.023L2727.77,193.038L2727.91,193.056L2728.04,193.077L2728.17,193.101L2728.3,193.127L2728.43,193.155L2728.56,193.187L2728.69,193.221L2728.82,193.257L2728.94,193.296L2729.07,193.337L2729.19,193.381L2729.31,193.427L2729.43,193.476L2729.55,193.527L2729.68,193.58L2729.79,193.635L2729.91,193.693L2730.03,193.753L2730.14,193.815L2730.25,193.879L2730.37,193.946L2730.48,194.014L2730.59,194.085L2730.69,194.157L2730.8,194.232L2730.9,194.309L2731.01,194.387L2731.11,194.468L2731.21,194.55L2731.31,194.634L2731.41,194.721L2731.5,194.809L2731.6,194.898L2731.69,194.99L2731.78,195.083L2731.87,195.178L2731.96,195.275L2732.04,195.373L2732.13,195.473L2732.21,195.574L2732.29,195.677L2732.37,195.782L2732.45,195.888L2732.52,195.996L2732.59,196.105L2732.66,196.215L2732.74,196.327L2732.8,196.441L2732.87,196.556L2732.93,196.672L2732.99,196.789L2733.05,196.908L2733.11,197.028L2733.17,197.149L2733.22,197.272L2733.27,197.395L2733.32,197.52L2733.37,197.638L2733.39,197.7L2733.41,197.763L2733.42,197.828L2733.43,197.893L2733.43,197.958L2733.43,198.024L2733.43,198.089L2733.42,198.154L2733.41,198.219L2733.39,198.282L2733.37,198.344L2733.32,198.462L2733.27,198.587L2733.22,198.71L2733.17,198.833L2733.11,198.954L2733.05,199.074L2732.99,199.193L2732.93,199.31L2732.87,199.426L2732.8,199.541L2732.74,199.655L2732.66,199.767L2732.59,199.877L2732.52,199.986L2732.45,200.094L2732.37,200.2L2732.29,200.305L2732.21,200.408L2732.13,200.509L2732.04,200.609L2731.96,200.708L2731.87,200.804L2731.78,200.899L2731.69,200.992L2731.6,201.084L2731.5,201.174L2731.41,201.262L2731.31,201.348L2731.21,201.432L2731.11,201.514L2731.01,201.595L2730.9,201.673L2730.8,201.75L2730.69,201.825L2730.59,201.897L2730.48,201.968L2730.37,202.036L2730.25,202.103L2730.14,202.167L2730.03,202.229L2729.91,202.289L2729.79,202.347L2729.68,202.402L2729.55,202.456L2729.43,202.506L2729.31,202.555L2729.19,202.601L2729.07,202.645L2728.94,202.686L2728.82,202.725L2728.69,202.761L2728.56,202.795L2728.43,202.827L2728.3,202.855L2728.17,202.881L2728.04,202.905L2727.91,202.926L2727.77,202.944L2727.64,202.959L2727.5,202.972L2727.37,202.982L2727.23,202.989L2727.1,202.993L2726.96,202.995L2726.82,202.993L2726.68,202.989L2726.55,202.982L2726.41,202.972L2726.28,202.959L2726.14,202.944L2726.01,202.926L2725.88,202.905L2725.75,202.881L2725.62,202.855L2725.49,202.827L2725.36,202.795L2725.23,202.761L2725.1,202.725L2724.98,202.686L2724.85,202.645L2724.73,202.601L2724.61,202.555L2724.48,202.506L2724.36,202.456L2724.24,202.402L2724.13,202.347L2724.01,202.289L2723.89,202.229L2723.78,202.167L2723.66,202.103L2723.55,202.036L2723.44,201.968L2723.33,201.897L2723.22,201.825L2723.12,201.75L2723.01,201.673L2722.91,201.595L2722.81,201.514L2722.71,201.432L2722.61,201.348L2722.51,201.262L2722.42,201.174L2722.32,201.084L2722.23,200.992L2722.14,200.899L2722.05,200.804L2721.96,200.708L2721.88,200.609L2721.79,200.509L2721.71,200.408L2721.63,200.305L2721.55,200.2L2721.47,200.094L2721.4,199.986L2721.32,199.877L2721.25,199.767L2721.18,199.655L2721.12,199.541L2721.05,199.426L2720.99,199.31L2720.92,199.193L2720.86,199.074L2720.8,198.954L2720.75,198.833L2720.7,198.71L2720.64,198.587L2720.59,198.462L2720.55,198.344L2720.53,198.282L2720.51,198.219L2720.5,198.154L2720.49,198.089L2720.49,198.024L2720.49,197.958L2720.49,197.893L2720.5,197.828L2720.51,197.763L2720.53,197.7L2720.55,197.638L2720.59,197.52L2720.64,197.395L2720.7,197.272L2720.75,197.149L2720.8,197.028L2720.86,196.908L2720.92,196.789L2720.99,196.672L2721.05,196.556L2721.12,196.441L2721.18,196.327L2721.25,196.215L2721.32,196.105L2721.4,195.996L2721.47,195.888L2721.55,195.782L2721.63,195.677L2721.71,195.574L2721.79,195.473L2721.88,195.373L2721.96,195.275L2722.05,195.178L2722.14,195.083L2722.23,194.99L2722.32,194.898L2722.42,194.809L2722.51,194.721L2722.61,194.634L2722.71,194.55L2722.81,194.468L2722.91,194.387L2723.01,194.309L2723.12,194.232L2723.22,194.157L2723.33,194.085L2723.44,194.014L2723.55,193.946L2723.66,193.879L2723.78,193.815L2723.89,193.753L2724.01,193.693L2724.13,193.635L2724.24,193.58L2724.36,193.527L2724.48,193.476L2724.61,193.427L2724.73,193.381L2724.85,193.337L2724.98,193.296L2725.1,193.257L2725.23,193.221L2725.36,193.187L2725.49,193.155L2725.62,193.127L2725.75,193.101L2725.88,193.077L2726.01,193.056L2726.14,193.038L2726.28,193.023L2726.41,193.01L2726.55,193L2726.68,192.993L2726.82,192.989L2726.96,192.987L2727.1,192.989ZM2726.84,193.989L2726.73,193.992L2726.61,193.998L2726.5,194.007L2726.38,194.017L2726.27,194.03L2726.16,194.046L2726.05,194.063L2725.93,194.083L2725.82,194.105L2725.71,194.13L2725.6,194.156L2725.49,194.185L2725.39,194.216L2725.28,194.249L2725.18,194.284L2725.07,194.321L2724.97,194.36L2724.86,194.401L2724.76,194.444L2724.66,194.489L2724.56,194.536L2724.46,194.585L2724.36,194.636L2724.26,194.689L2724.17,194.744L2724.07,194.801L2723.98,194.859L2723.88,194.919L2723.79,194.981L2723.7,195.045L2723.61,195.111L2723.52,195.178L2723.44,195.247L2723.35,195.317L2723.26,195.389L2723.18,195.463L2723.1,195.539L2723.02,195.616L2722.94,195.694L2722.86,195.775L2722.78,195.856L2722.71,195.939L2722.64,196.024L2722.56,196.11L2722.49,196.198L2722.42,196.287L2722.35,196.377L2722.29,196.469L2722.22,196.562L2722.16,196.656L2722.1,196.751L2722.04,196.848L2721.98,196.946L2721.92,197.046L2721.87,197.146L2721.81,197.248L2721.76,197.351L2721.71,197.455L2721.66,197.56L2721.61,197.666L2721.57,197.773L2721.53,197.882L2721.49,197.991L2721.53,198.1L2721.57,198.209L2721.61,198.316L2721.66,198.422L2721.71,198.527L2721.76,198.631L2721.81,198.734L2721.87,198.836L2721.92,198.936L2721.98,199.036L2722.04,199.134L2722.1,199.231L2722.16,199.326L2722.22,199.421L2722.29,199.514L2722.35,199.605L2722.42,199.696L2722.49,199.784L2722.56,199.872L2722.64,199.958L2722.71,200.043L2722.78,200.126L2722.86,200.207L2722.94,200.288L2723.02,200.366L2723.1,200.443L2723.18,200.519L2723.26,200.593L2723.35,200.665L2723.44,200.735L2723.52,200.804L2723.61,200.872L2723.7,200.937L2723.79,201.001L2723.88,201.063L2723.98,201.123L2724.07,201.182L2724.17,201.238L2724.26,201.293L2724.36,201.346L2724.46,201.397L2724.56,201.446L2724.66,201.493L2724.76,201.538L2724.86,201.581L2724.97,201.622L2725.07,201.661L2725.18,201.699L2725.28,201.734L2725.39,201.766L2725.49,201.797L2725.6,201.826L2725.71,201.852L2725.82,201.877L2725.93,201.899L2726.05,201.919L2726.16,201.936L2726.27,201.952L2726.38,201.965L2726.5,201.975L2726.61,201.984L2726.73,201.99L2726.84,201.993L2726.96,201.995L2727.08,201.993L2727.19,201.99L2727.31,201.984L2727.42,201.975L2727.53,201.965L2727.65,201.952L2727.76,201.936L2727.87,201.919L2727.98,201.899L2728.1,201.877L2728.2,201.852L2728.31,201.826L2728.42,201.797L2728.53,201.766L2728.64,201.734L2728.74,201.699L2728.85,201.661L2728.95,201.622L2729.05,201.581L2729.16,201.538L2729.26,201.493L2729.36,201.446L2729.46,201.397L2729.56,201.346L2729.66,201.293L2729.75,201.238L2729.85,201.182L2729.94,201.123L2730.03,201.063L2730.13,201.001L2730.22,200.937L2730.31,200.872L2730.39,200.804L2730.48,200.735L2730.57,200.665L2730.65,200.593L2730.74,200.519L2730.82,200.443L2730.9,200.366L2730.98,200.288L2731.06,200.207L2731.13,200.126L2731.21,200.043L2731.28,199.958L2731.36,199.872L2731.43,199.784L2731.5,199.696L2731.56,199.605L2731.63,199.514L2731.7,199.421L2731.76,199.326L2731.82,199.231L2731.88,199.134L2731.94,199.036L2732,198.936L2732.05,198.836L2732.11,198.734L2732.16,198.631L2732.21,198.527L2732.26,198.422L2732.3,198.316L2732.35,198.209L2732.39,198.1L2732.43,197.991L2732.39,197.882L2732.35,197.773L2732.3,197.666L2732.26,197.56L2732.21,197.455L2732.16,197.351L2732.11,197.248L2732.05,197.146L2732,197.046L2731.94,196.946L2731.88,196.848L2731.82,196.751L2731.76,196.656L2731.7,196.562L2731.63,196.469L2731.56,196.377L2731.5,196.287L2731.43,196.198L2731.36,196.11L2731.28,196.024L2731.21,195.939L2731.13,195.856L2731.06,195.775L2730.98,195.694L2730.9,195.616L2730.82,195.539L2730.74,195.463L2730.65,195.389L2730.57,195.317L2730.48,195.247L2730.39,195.178L2730.31,195.111L2730.22,195.045L2730.13,194.981L2730.03,194.919L2729.94,194.859L2729.85,194.801L2729.75,194.744L2729.66,194.689L2729.56,194.636L2729.46,194.585L2729.36,194.536L2729.26,194.489L2729.16,194.444L2729.05,194.401L2728.95,194.36L2728.85,194.321L2728.74,194.284L2728.64,194.249L2728.53,194.216L2728.42,194.185L2728.31,194.156L2728.2,194.13L2728.1,194.105L2727.98,194.083L2727.87,194.063L2727.76,194.046L2727.65,194.03L2727.53,194.017L2727.42,194.007L2727.31,193.998L2727.19,193.992L2727.08,193.989L2726.96,193.988L2726.84,193.989ZM2727.08,195.331L2727.14,195.334L2727.21,195.338L2727.28,195.344L2727.35,195.352L2727.41,195.361L2727.48,195.372L2727.55,195.385L2727.61,195.399L2727.67,195.415L2727.74,195.432L2727.8,195.451L2727.86,195.472L2727.93,195.493L2727.99,195.517L2728.05,195.542L2728.11,195.568L2728.16,195.595L2728.22,195.624L2728.28,195.655L2728.34,195.687L2728.39,195.72L2728.45,195.754L2728.5,195.789L2728.55,195.826L2728.6,195.864L2728.65,195.904L2728.7,195.944L2728.75,195.986L2728.8,196.029L2728.85,196.073L2728.89,196.118L2728.94,196.164L2728.98,196.211L2729.03,196.259L2729.07,196.309L2729.11,196.359L2729.14,196.41L2729.18,196.462L2729.22,196.515L2729.26,196.57L2729.29,196.625L2729.32,196.68L2729.35,196.737L2729.38,196.795L2729.41,196.853L2729.44,196.912L2729.47,196.972L2729.49,197.033L2729.51,197.094L2729.53,197.156L2729.56,197.219L2729.57,197.282L2729.59,197.346L2729.61,197.411L2729.62,197.476L2729.63,197.542L2729.64,197.608L2729.65,197.675L2729.66,197.743L2729.67,197.811L2729.67,197.879L2729.68,197.948L2729.68,198.017L2729.68,198.087L2729.67,198.156L2729.67,198.224L2729.66,198.292L2729.65,198.36L2729.64,198.426L2729.63,198.493L2729.62,198.559L2729.61,198.624L2729.59,198.689L2729.57,198.753L2729.56,198.816L2729.53,198.879L2729.51,198.941L2729.49,199.002L2729.47,199.063L2729.44,199.123L2729.41,199.182L2729.38,199.24L2729.35,199.298L2729.32,199.355L2729.29,199.41L2729.26,199.465L2729.22,199.519L2729.18,199.573L2729.14,199.625L2729.11,199.676L2729.07,199.726L2729.03,199.776L2728.98,199.824L2728.94,199.871L2728.89,199.917L2728.85,199.962L2728.8,200.006L2728.75,200.049L2728.7,200.091L2728.65,200.131L2728.6,200.17L2728.55,200.209L2728.5,200.245L2728.45,200.281L2728.39,200.315L2728.34,200.348L2728.28,200.38L2728.22,200.41L2728.16,200.439L2728.11,200.467L2728.05,200.493L2727.99,200.518L2727.93,200.541L2727.86,200.563L2727.8,200.584L2727.74,200.603L2727.67,200.62L2727.61,200.636L2727.55,200.65L2727.48,200.663L2727.41,200.674L2727.35,200.683L2727.28,200.691L2727.21,200.697L2727.14,200.701L2727.08,200.704L2727.01,200.705L2726.94,200.704L2726.87,200.701L2726.8,200.697L2726.74,200.691L2726.67,200.683L2726.6,200.674L2726.54,200.663L2726.47,200.65L2726.41,200.636L2726.34,200.62L2726.28,200.603L2726.22,200.584L2726.15,200.563L2726.09,200.541L2726.03,200.518L2725.97,200.493L2725.91,200.467L2725.85,200.439L2725.79,200.41L2725.74,200.38L2725.68,200.348L2725.63,200.315L2725.57,200.281L2725.52,200.245L2725.46,200.209L2725.41,200.17L2725.36,200.131L2725.31,200.091L2725.26,200.049L2725.21,200.006L2725.17,199.962L2725.12,199.917L2725.08,199.871L2725.03,199.824L2724.99,199.776L2724.95,199.726L2724.91,199.676L2724.87,199.625L2724.83,199.573L2724.8,199.519L2724.76,199.465L2724.73,199.41L2724.69,199.355L2724.66,199.298L2724.63,199.24L2724.6,199.182L2724.58,199.123L2724.55,199.063L2724.53,199.002L2724.5,198.941L2724.48,198.879L2724.46,198.816L2724.44,198.753L2724.42,198.689L2724.41,198.624L2724.39,198.559L2724.38,198.493L2724.37,198.426L2724.36,198.36L2724.35,198.292L2724.35,198.224L2724.34,198.156L2724.34,198.087L2724.34,198.017L2724.34,197.948L2724.34,197.879L2724.35,197.811L2724.35,197.743L2724.36,197.675L2724.37,197.608L2724.38,197.542L2724.39,197.476L2724.41,197.411L2724.42,197.346L2724.44,197.282L2724.46,197.219L2724.48,197.156L2724.5,197.094L2724.53,197.033L2724.55,196.972L2724.58,196.912L2724.6,196.853L2724.63,196.795L2724.66,196.737L2724.69,196.68L2724.73,196.625L2724.76,196.57L2724.8,196.515L2724.83,196.462L2724.87,196.41L2724.91,196.359L2724.95,196.309L2724.99,196.259L2725.03,196.211L2725.08,196.164L2725.12,196.118L2725.17,196.073L2725.21,196.029L2725.26,195.986L2725.31,195.944L2725.36,195.904L2725.41,195.864L2725.46,195.826L2725.52,195.789L2725.57,195.754L2725.63,195.72L2725.68,195.687L2725.74,195.655L2725.79,195.624L2725.85,195.595L2725.91,195.568L2725.97,195.542L2726.03,195.517L2726.09,195.493L2726.15,195.472L2726.22,195.451L2726.28,195.432L2726.34,195.415L2726.41,195.399L2726.47,195.385L2726.54,195.372L2726.6,195.361L2726.67,195.352L2726.74,195.344L2726.8,195.338L2726.87,195.334L2726.94,195.331L2727.01,195.33L2727.08,195.331ZM2726.96,196.331L2726.92,196.333L2726.88,196.335L2726.84,196.339L2726.8,196.344L2726.75,196.35L2726.71,196.357L2726.67,196.364L2726.63,196.373L2726.59,196.383L2726.55,196.394L2726.51,196.405L2726.47,196.418L2726.44,196.432L2726.4,196.446L2726.36,196.462L2726.33,196.478L2726.29,196.495L2726.25,196.513L2726.22,196.532L2726.18,196.552L2726.15,196.572L2726.11,196.594L2726.08,196.616L2726.05,196.639L2726.01,196.663L2725.98,196.688L2725.95,196.713L2725.92,196.739L2725.89,196.766L2725.86,196.794L2725.83,196.822L2725.8,196.851L2725.78,196.881L2725.75,196.911L2725.72,196.943L2725.7,196.974L2725.67,197.006L2725.65,197.039L2725.63,197.073L2725.6,197.107L2725.58,197.141L2725.56,197.176L2725.54,197.212L2725.52,197.248L2725.51,197.285L2725.49,197.322L2725.47,197.359L2725.46,197.397L2725.44,197.436L2725.43,197.475L2725.41,197.514L2725.4,197.554L2725.39,197.594L2725.38,197.635L2725.37,197.676L2725.37,197.717L2725.36,197.759L2725.35,197.801L2725.35,197.843L2725.35,197.886L2725.34,197.93L2725.34,197.973L2725.34,198.017L2725.34,198.062L2725.34,198.105L2725.35,198.149L2725.35,198.192L2725.35,198.234L2725.36,198.276L2725.37,198.318L2725.37,198.359L2725.38,198.4L2725.39,198.441L2725.4,198.481L2725.41,198.521L2725.43,198.56L2725.44,198.599L2725.46,198.638L2725.47,198.676L2725.49,198.713L2725.51,198.75L2725.52,198.787L2725.54,198.823L2725.56,198.859L2725.58,198.894L2725.6,198.928L2725.63,198.962L2725.65,198.996L2725.67,199.029L2725.7,199.061L2725.72,199.092L2725.75,199.123L2725.78,199.154L2725.8,199.184L2725.83,199.213L2725.86,199.241L2725.89,199.269L2725.92,199.295L2725.95,199.322L2725.98,199.347L2726.01,199.372L2726.05,199.396L2726.08,199.419L2726.11,199.441L2726.15,199.462L2726.18,199.483L2726.22,199.503L2726.25,199.522L2726.29,199.54L2726.33,199.557L2726.36,199.573L2726.4,199.589L2726.44,199.603L2726.47,199.617L2726.51,199.629L2726.55,199.641L2726.59,199.652L2726.63,199.662L2726.67,199.671L2726.71,199.678L2726.75,199.685L2726.8,199.691L2726.84,199.696L2726.88,199.7L2726.92,199.702L2726.96,199.704L2727.01,199.705L2727.05,199.704L2727.09,199.702L2727.14,199.7L2727.18,199.696L2727.22,199.691L2727.26,199.685L2727.3,199.678L2727.34,199.671L2727.38,199.662L2727.42,199.652L2727.46,199.641L2727.5,199.629L2727.54,199.617L2727.58,199.603L2727.62,199.589L2727.65,199.573L2727.69,199.557L2727.73,199.54L2727.76,199.522L2727.8,199.503L2727.83,199.483L2727.87,199.462L2727.9,199.441L2727.94,199.419L2727.97,199.396L2728,199.372L2728.03,199.347L2728.07,199.322L2728.1,199.295L2728.13,199.269L2728.16,199.241L2728.18,199.213L2728.21,199.184L2728.24,199.154L2728.27,199.123L2728.29,199.092L2728.32,199.061L2728.34,199.029L2728.37,198.996L2728.39,198.962L2728.41,198.928L2728.43,198.894L2728.45,198.859L2728.47,198.823L2728.49,198.787L2728.51,198.75L2728.53,198.713L2728.54,198.676L2728.56,198.638L2728.57,198.599L2728.59,198.56L2728.6,198.521L2728.61,198.481L2728.62,198.441L2728.63,198.4L2728.64,198.359L2728.65,198.318L2728.66,198.276L2728.66,198.234L2728.67,198.192L2728.67,198.149L2728.67,198.105L2728.68,198.062L2728.68,198.017L2728.68,197.973L2728.67,197.93L2728.67,197.886L2728.67,197.843L2728.66,197.801L2728.66,197.759L2728.65,197.717L2728.64,197.676L2728.63,197.635L2728.62,197.594L2728.61,197.554L2728.6,197.514L2728.59,197.475L2728.57,197.436L2728.56,197.397L2728.54,197.359L2728.53,197.322L2728.51,197.285L2728.49,197.248L2728.47,197.212L2728.45,197.176L2728.43,197.141L2728.41,197.107L2728.39,197.073L2728.37,197.039L2728.34,197.006L2728.32,196.974L2728.29,196.943L2728.27,196.911L2728.24,196.881L2728.21,196.851L2728.18,196.822L2728.16,196.794L2728.13,196.766L2728.1,196.739L2728.07,196.713L2728.03,196.688L2728,196.663L2727.97,196.639L2727.94,196.616L2727.9,196.594L2727.87,196.572L2727.83,196.552L2727.8,196.532L2727.76,196.513L2727.73,196.495L2727.69,196.478L2727.65,196.462L2727.62,196.446L2727.58,196.432L2727.54,196.418L2727.5,196.405L2727.46,196.394L2727.42,196.383L2727.38,196.373L2727.34,196.364L2727.3,196.357L2727.26,196.35L2727.22,196.344L2727.18,196.339L2727.14,196.335L2727.09,196.333L2727.05,196.331L2727.01,196.33L2726.96,196.331Z" style="fill:rgb(58,58,58);"/>
                    </g>
                    <g transform="matrix(1.0328,1.99234e-18,1.93295e-18,1.03561,662.42,-247.957)">
                        <path d="M175.571,10.713L175.643,10.716L175.714,10.721L175.792,10.728L175.924,10.744L176.062,10.769L176.197,10.8L176.331,10.838L176.461,10.882L176.588,10.932L176.712,10.989L176.833,11.05L176.95,11.118L177.063,11.19L177.172,11.268L177.277,11.351L177.378,11.438L177.475,11.53L177.567,11.627L177.654,11.728L177.737,11.833L177.815,11.942L177.887,12.055L177.954,12.172L178.016,12.292L178.072,12.416L178.122,12.542L178.166,12.672L178.204,12.805L178.235,12.94L178.259,13.078L178.276,13.209L178.283,13.287L178.287,13.358L178.29,13.429L178.291,13.5L178.29,13.571L178.287,13.642L178.283,13.713L178.276,13.791L178.259,13.922L178.235,14.06L178.204,14.195L178.166,14.328L178.122,14.458L178.072,14.584L178.016,14.708L177.954,14.828L177.887,14.945L177.815,15.058L177.737,15.167L177.654,15.272L177.567,15.373L177.475,15.47L177.378,15.562L177.277,15.649L177.172,15.732L177.063,15.81L176.95,15.882L176.833,15.95L176.712,16.011L176.588,16.068L176.461,16.118L176.331,16.162L176.197,16.2L176.062,16.231L175.924,16.256L175.792,16.272L175.714,16.279L175.643,16.284L175.572,16.287L175.5,16.288L175.428,16.287L175.357,16.284L175.286,16.279L175.208,16.272L175.076,16.256L174.938,16.231L174.803,16.2L174.669,16.162L174.539,16.118L174.412,16.068L174.288,16.011L174.167,15.95L174.05,15.882L173.937,15.81L173.828,15.732L173.723,15.649L173.622,15.562L173.525,15.47L173.433,15.373L173.346,15.272L173.263,15.167L173.185,15.058L173.113,14.945L173.046,14.828L172.984,14.708L172.928,14.584L172.878,14.458L172.834,14.328L172.796,14.195L172.765,14.06L172.741,13.922L172.724,13.791L172.717,13.713L172.713,13.642L172.71,13.571L172.709,13.5L172.71,13.429L172.713,13.358L172.717,13.287L172.724,13.209L172.741,13.078L172.765,12.94L172.796,12.805L172.834,12.672L172.878,12.542L172.928,12.416L172.984,12.292L173.046,12.172L173.113,12.055L173.185,11.942L173.263,11.833L173.346,11.728L173.433,11.627L173.525,11.53L173.622,11.438L173.723,11.351L173.828,11.268L173.937,11.19L174.05,11.118L174.167,11.05L174.288,10.989L174.412,10.932L174.539,10.882L174.669,10.838L174.803,10.8L174.938,10.769L175.076,10.744L175.208,10.728L175.286,10.721L175.357,10.716L175.429,10.713L175.5,10.712L175.571,10.713ZM175.461,12L175.423,12.002L175.385,12.004L175.347,12.008L175.272,12.017L175.198,12.03L175.125,12.047L175.054,12.067L174.984,12.091L174.916,12.118L174.85,12.148L174.785,12.181L174.722,12.217L174.662,12.256L174.603,12.298L174.546,12.343L174.492,12.39L174.44,12.44L174.39,12.492L174.343,12.546L174.298,12.603L174.256,12.662L174.217,12.722L174.181,12.785L174.148,12.85L174.118,12.916L174.091,12.984L174.067,13.054L174.047,13.125L174.03,13.198L174.017,13.272L174.008,13.347L174.004,13.385L174.002,13.423L174,13.461L174,13.5L174,13.539L174.002,13.577L174.004,13.615L174.008,13.653L174.017,13.728L174.03,13.802L174.047,13.875L174.067,13.946L174.091,14.016L174.118,14.084L174.148,14.15L174.181,14.215L174.217,14.278L174.256,14.338L174.298,14.397L174.343,14.454L174.39,14.508L174.44,14.56L174.492,14.61L174.546,14.657L174.603,14.702L174.662,14.744L174.722,14.783L174.785,14.819L174.85,14.852L174.916,14.882L174.984,14.909L175.054,14.933L175.125,14.953L175.198,14.97L175.272,14.983L175.347,14.992L175.385,14.996L175.423,14.998L175.461,15L175.5,15L175.539,15L175.577,14.998L175.615,14.996L175.653,14.992L175.728,14.983L175.802,14.97L175.875,14.953L175.946,14.933L176.016,14.909L176.084,14.882L176.15,14.852L176.215,14.819L176.278,14.783L176.338,14.744L176.397,14.702L176.454,14.657L176.508,14.61L176.56,14.56L176.61,14.508L176.657,14.454L176.702,14.397L176.744,14.338L176.783,14.278L176.819,14.215L176.852,14.15L176.882,14.084L176.909,14.016L176.933,13.946L176.953,13.875L176.97,13.802L176.983,13.728L176.992,13.653L176.996,13.615L176.998,13.577L177,13.539L177,13.5L177,13.461L176.998,13.423L176.996,13.385L176.992,13.347L176.983,13.272L176.97,13.198L176.953,13.125L176.933,13.054L176.909,12.984L176.882,12.916L176.852,12.85L176.819,12.785L176.783,12.722L176.744,12.662L176.702,12.603L176.657,12.546L176.61,12.492L176.56,12.44L176.508,12.39L176.454,12.343L176.397,12.298L176.338,12.256L176.278,12.217L176.215,12.181L176.15,12.148L176.084,12.118L176.016,12.091L175.946,12.067L175.875,12.047L175.802,12.03L175.728,12.017L175.653,12.008L175.615,12.004L175.577,12.002L175.539,12L175.5,12L175.461,12Z" style="fill:rgb(58,58,58);"/>
                        <circle cx="175.5" cy="13.5" r="1.5" style="fill:rgb(189,189,189);"/>
                    </g>
                </g>
                <g id="Star-Small" serif:id="Star Small" transform="matrix(0.628572,0,0,0.628572,-227.045,-29.82)">
                    <g opacity="0">
                        <g transform="matrix(1.02941,0,0,1.02941,-19.3005,-13.2943)">
                            <rect x="382" y="59" width="17" height="17" style="fill:white;fill-opacity:0;"/>
                        </g>
                        <g transform="matrix(1.59091,0,0,1.59091,-3294.7,-324.832)">
                            <path d="M2315,243L2312.96,239.535L2316,238.132L2316,238L2312.46,237.977L2311.59,235L2311.39,235L2310.6,238.003L2306.69,238.003L2309.41,239.535L2307.7,243.303L2311.49,241.132L2315,243Z" style="fill:rgb(58,58,58);"/>
                            <path d="M2311.65,234.002L2311.7,234.007L2311.76,234.015L2311.82,234.027L2311.88,234.042L2311.93,234.061L2311.99,234.082L2312.04,234.107L2312.09,234.135L2312.14,234.166L2312.19,234.199L2312.23,234.236L2312.28,234.275L2312.32,234.316L2312.36,234.36L2312.39,234.406L2312.43,234.454L2312.45,234.504L2312.48,234.555L2312.51,234.608L2312.53,234.663L2312.55,234.718L2313.21,236.982L2316.01,237L2316.07,237.002L2316.13,237.008L2316.19,237.017L2316.24,237.03L2316.3,237.047L2316.36,237.067L2316.41,237.09L2316.47,237.117L2316.52,237.146L2316.57,237.179L2316.62,237.215L2316.67,237.254L2316.71,237.295L2316.75,237.339L2316.79,237.385L2316.82,237.434L2316.86,237.485L2316.89,237.537L2316.91,237.591L2316.94,237.647L2316.95,237.704L2316.97,237.762L2316.98,237.82L2316.99,237.88L2317,237.94L2317,238L2317,238.132L2317,238.192L2316.99,238.252L2316.98,238.311L2316.97,238.369L2316.95,238.427L2316.94,238.484L2316.91,238.539L2316.89,238.593L2316.86,238.645L2316.83,238.696L2316.79,238.744L2316.75,238.79L2316.71,238.834L2316.67,238.876L2316.62,238.914L2316.58,238.95L2316.53,238.983L2316.47,239.013L2316.42,239.04L2314.39,239.98L2315.86,242.493L2315.89,242.546L2315.92,242.601L2315.94,242.657L2315.96,242.714L2315.97,242.772L2315.99,242.831L2315.99,242.891L2316,242.951L2316,243.011L2316,243.071L2315.99,243.131L2315.98,243.191L2315.97,243.25L2315.95,243.307L2315.93,243.364L2315.91,243.42L2315.88,243.474L2315.85,243.526L2315.82,243.576L2315.78,243.624L2315.74,243.67L2315.7,243.714L2315.66,243.755L2315.61,243.793L2315.56,243.828L2315.51,243.86L2315.46,243.889L2315.4,243.915L2315.35,243.938L2315.29,243.957L2315.23,243.973L2315.17,243.985L2315.11,243.994L2315.05,243.999L2314.99,244L2314.93,243.998L2314.87,243.992L2314.81,243.982L2314.75,243.969L2314.7,243.953L2314.64,243.933L2314.58,243.909L2314.53,243.883L2311.51,242.274L2308.19,244.171L2308.14,244.199L2308.08,244.224L2308.03,244.246L2307.97,244.264L2307.91,244.279L2307.85,244.29L2307.8,244.298L2307.74,244.302L2307.68,244.302L2307.62,244.299L2307.55,244.293L2307.5,244.283L2307.44,244.269L2307.38,244.252L2307.32,244.231L2307.27,244.208L2307.22,244.18L2307.16,244.15L2307.11,244.117L2307.07,244.081L2307.02,244.042L2306.98,244L2306.94,243.956L2306.9,243.909L2306.87,243.86L2306.83,243.81L2306.8,243.757L2306.78,243.703L2306.76,243.647L2306.74,243.591L2306.72,243.533L2306.71,243.474L2306.7,243.415L2306.7,243.355L2306.7,243.295L2306.7,243.235L2306.7,243.175L2306.71,243.116L2306.72,243.058L2306.74,243L2306.76,242.944L2306.78,242.888L2308.12,239.956L2306.2,238.874L2306.15,238.844L2306.1,238.81L2306.05,238.773L2306.01,238.734L2305.97,238.691L2305.93,238.647L2305.89,238.6L2305.86,238.551L2305.83,238.5L2305.8,238.447L2305.77,238.393L2305.75,238.338L2305.73,238.281L2305.72,238.223L2305.71,238.164L2305.7,238.105L2305.69,238.045L2305.69,237.986L2305.7,237.926L2305.7,237.867L2305.71,237.808L2305.73,237.75L2305.74,237.692L2305.76,237.636L2305.79,237.581L2305.81,237.528L2305.84,237.476L2305.88,237.426L2305.91,237.379L2305.95,237.333L2305.99,237.29L2306.04,237.249L2306.08,237.212L2306.13,237.176L2306.18,237.144L2306.23,237.115L2306.29,237.089L2306.34,237.067L2306.4,237.048L2306.46,237.032L2306.51,237.019L2306.57,237.01L2306.63,237.005L2306.69,237.003L2309.83,237.003L2310.43,234.744L2310.44,234.686L2310.46,234.63L2310.49,234.576L2310.51,234.522L2310.55,234.471L2310.58,234.421L2310.61,234.374L2310.65,234.328L2310.69,234.286L2310.74,234.245L2310.78,234.207L2310.83,234.172L2310.88,234.14L2310.93,234.112L2310.99,234.086L2311.04,234.063L2311.1,234.044L2311.16,234.028L2311.22,234.016L2311.28,234.007L2311.33,234.002L2311.39,234L2311.59,234L2311.65,234.002ZM2311.39,235L2310.6,238.003L2306.69,238.003L2309.41,239.535L2307.7,243.303L2311.49,241.132L2315,243L2312.96,239.535L2316,238.132L2316,238L2312.46,237.977L2311.59,235L2311.39,235Z" style="fill:rgb(58,58,58);"/>
                        </g>
                        <g transform="matrix(1.07692,0,0,1.07692,-41.0964,-15.0269)">
                            <path d="M393.5,58.97L394.943,63.92L400.57,63.92L395.674,66.182L398.681,71.301L393.5,68.352L388.34,71.301L391.326,66.182L386.409,63.92L392.176,63.92L393.5,58.97Z" style="fill:rgb(255,159,57);"/>
                        </g>
                    </g>
                </g>
            </g>
        </g>
    </g>
</svg>
