<?xml version="1.0" encoding="UTF-8" standalone="no"?>
<!DOCTYPE svg PUBLIC "-//W3C//DTD SVG 1.1//EN" "http://www.w3.org/Graphics/SVG/1.1/DTD/svg11.dtd">
<svg width="100%" height="100%" viewBox="0 0 20 20" version="1.1" xmlns="http://www.w3.org/2000/svg" xmlns:xlink="http://www.w3.org/1999/xlink" xml:space="preserve" xmlns:serif="http://www.serif.com/" style="fill-rule:evenodd;clip-rule:evenodd;stroke-linejoin:round;stroke-miterlimit:2;">
    <g transform="matrix(1,0,0,1,-275,-24)">
        <g id="General_SmallAddWithTriangle_Disabled" transform="matrix(3.58891,0,0,2.39241,-3077.99,-2498.46)">
            <g opacity="0.3">
                <g transform="matrix(0.278636,0,0,0.417989,920.887,1052.69)">
                    <g id="Plus">
                        <g id="General_AddWithTriangle_Normal">
                            <g id="Transparent-BG" serif:id="Transparent BG" transform="matrix(1,0,0,1,48,4)">
                                <rect x="0" y="0" width="20" height="20" style="fill:white;fill-opacity:0;"/>
                            </g>
                            <g transform="matrix(1,0,0,1,-72,-234)">
                                <path d="M124,247L128,247L128,243L130,243L130,247L134,247L134,249L130,249L130,253L128,253L128,249L124,249L124,247Z" style="fill:rgb(189,189,189);"/>
                                <path d="M127,246L127,243C127,242.448 127.448,242 128,242L130,242C130.552,242 131,242.448 131,243L131,246L134,246C134.552,246 135,246.448 135,247L135,249C135,249.552 134.552,250 134,250L131,250L131,253C131,253.552 130.552,254 130,254L128,254C127.448,254 127,253.552 127,253L127,250L124,250C123.448,250 123,249.552 123,249L123,247C123,246.448 123.448,246 124,246L127,246ZM124,247L128,247L128,243L130,243L130,247L134,247L134,249L130,249L130,253L128,253L128,249L124,249L124,247Z" style="fill:rgb(58,58,58);"/>
                            </g>
                            <g transform="matrix(1.73001,7.06216e-17,-7.06216e-17,-1.15334,-256.548,43.2201)">
                                <path d="M184.538,18.48C184.647,18.261 184.818,18.133 185,18.133C185.182,18.133 185.353,18.261 185.462,18.48L186.462,20.48C186.594,20.743 186.615,21.094 186.517,21.388C186.419,21.681 186.219,21.867 186,21.867L184,21.867C183.781,21.867 183.581,21.681 183.483,21.388C183.385,21.094 183.406,20.743 183.538,20.48L184.538,18.48ZM185,19L186,21L184,21L185,19Z" style="fill:rgb(58,58,58);"/>
                                <path d="M185,19L186,21L184,21L185,19Z" style="fill:rgb(189,189,189);"/>
                            </g>
                        </g>
                    </g>
                </g>
            </g>
        </g>
    </g>
</svg>
