<?xml version="1.0" encoding="UTF-8" standalone="no"?>
<!DOCTYPE svg PUBLIC "-//W3C//DTD SVG 1.1//EN" "http://www.w3.org/Graphics/SVG/1.1/DTD/svg11.dtd">
<svg width="100%" height="100%" viewBox="0 0 20 20" version="1.1" xmlns="http://www.w3.org/2000/svg" xmlns:xlink="http://www.w3.org/1999/xlink" xml:space="preserve" xmlns:serif="http://www.serif.com/" style="fill-rule:evenodd;clip-rule:evenodd;stroke-linejoin:round;stroke-miterlimit:2;">
    <g transform="matrix(1,0,0,1,-30,-29)">
        <g id="General_Eye_Normal" transform="matrix(1,0,0,1,-18,25)">
            <g id="Transparent-BG" serif:id="Transparent BG" transform="matrix(1,0,0,1,48,4)">
                <rect x="0" y="0" width="20" height="20" style="fill:white;fill-opacity:0;"/>
            </g>
            <g id="Eye" transform="matrix(0.625,0,0,0.625,50,7)">
                <rect x="0" y="0" width="24" height="24" style="fill:none;"/>
                <g transform="matrix(1.6,0,0,1.6,-396.8,-11.2)">
                    <path d="M255.5,10C252.545,10 250.022,11.866 249,14.5C250.022,17.134 252.545,19 255.5,19C258.455,19 260.978,17.134 262,14.5C260.978,11.866 258.455,10 255.5,10ZM255.488,11.514C257.141,11.514 258.482,12.852 258.482,14.5C258.482,16.148 257.141,17.486 255.488,17.486C253.836,17.486 252.495,16.148 252.495,14.5C252.495,12.852 253.836,11.514 255.488,11.514Z" style="fill:rgb(37,37,37);fill-rule:nonzero;"/>
                    <path d="M255.658,9.002L255.815,9.006L255.972,9.014L256.127,9.025L256.282,9.038L256.437,9.055L256.59,9.075L256.742,9.098L256.894,9.123L257.045,9.152L257.194,9.183L257.343,9.217L257.49,9.254L257.637,9.294L257.782,9.336L257.926,9.381L258.069,9.429L258.211,9.479L258.351,9.532L258.491,9.588L258.628,9.646L258.765,9.707L258.9,9.77L259.034,9.836L259.166,9.904L259.297,9.974L259.427,10.047L259.555,10.122L259.681,10.199L259.806,10.279L259.929,10.361L260.051,10.445L260.171,10.531L260.289,10.62L260.406,10.711L260.521,10.803L260.634,10.898L260.746,10.995L260.855,11.094L260.963,11.195L261.069,11.298L261.173,11.402L261.275,11.509L261.375,11.617L261.474,11.728L261.57,11.84L261.664,11.954L261.756,12.07L261.846,12.187L261.935,12.306L262.02,12.427L262.104,12.55L262.186,12.674L262.265,12.799L262.342,12.927L262.417,13.056L262.49,13.186L262.56,13.318L262.628,13.451L262.694,13.586L262.757,13.722L262.818,13.859L262.876,13.998L262.929,14.13L262.952,14.194L262.971,14.261L262.985,14.328L262.995,14.397L262.999,14.466L262.999,14.534L262.995,14.603L262.985,14.672L262.971,14.739L262.952,14.806L262.929,14.87L262.876,15.002L262.818,15.141L262.757,15.278L262.694,15.414L262.628,15.549L262.56,15.682L262.49,15.814L262.417,15.944L262.342,16.073L262.265,16.201L262.186,16.326L262.104,16.45L262.02,16.573L261.935,16.694L261.846,16.813L261.756,16.93L261.664,17.046L261.57,17.16L261.474,17.272L261.375,17.383L261.275,17.491L261.173,17.598L261.069,17.702L260.963,17.805L260.855,17.906L260.746,18.005L260.634,18.102L260.521,18.197L260.406,18.289L260.289,18.38L260.171,18.469L260.051,18.555L259.929,18.639L259.806,18.721L259.681,18.801L259.555,18.878L259.427,18.953L259.297,19.026L259.166,19.096L259.034,19.164L258.9,19.23L258.765,19.293L258.628,19.354L258.491,19.412L258.351,19.468L258.211,19.521L258.069,19.571L257.926,19.619L257.782,19.664L257.637,19.706L257.49,19.746L257.343,19.783L257.194,19.817L257.045,19.848L256.894,19.877L256.742,19.902L256.59,19.925L256.437,19.945L256.282,19.962L256.127,19.975L255.972,19.986L255.815,19.994L255.658,19.998L255.5,20L255.342,19.998L255.185,19.994L255.028,19.986L254.873,19.975L254.718,19.962L254.563,19.945L254.41,19.925L254.258,19.902L254.106,19.877L253.955,19.848L253.806,19.817L253.657,19.783L253.51,19.746L253.363,19.706L253.218,19.664L253.074,19.619L252.931,19.571L252.789,19.521L252.649,19.468L252.509,19.412L252.372,19.354L252.235,19.293L252.1,19.23L251.966,19.164L251.834,19.096L251.703,19.026L251.573,18.953L251.445,18.878L251.319,18.801L251.194,18.721L251.071,18.639L250.949,18.555L250.829,18.469L250.711,18.38L250.594,18.289L250.479,18.197L250.366,18.102L250.254,18.005L250.145,17.906L250.037,17.805L249.931,17.702L249.827,17.598L249.725,17.491L249.625,17.383L249.526,17.272L249.43,17.16L249.336,17.046L249.244,16.93L249.154,16.813L249.065,16.694L248.98,16.573L248.896,16.45L248.814,16.326L248.735,16.201L248.658,16.073L248.583,15.944L248.51,15.814L248.44,15.682L248.372,15.549L248.306,15.414L248.243,15.278L248.182,15.141L248.124,15.002L248.071,14.87L248.048,14.806L248.029,14.739L248.015,14.672L248.005,14.603L248.001,14.534L248.001,14.466L248.005,14.397L248.015,14.328L248.029,14.261L248.048,14.194L248.071,14.13L248.124,13.998L248.182,13.859L248.243,13.722L248.306,13.586L248.372,13.451L248.44,13.318L248.51,13.186L248.583,13.056L248.658,12.927L248.735,12.799L248.814,12.674L248.896,12.55L248.98,12.427L249.065,12.306L249.154,12.187L249.244,12.07L249.336,11.954L249.43,11.84L249.526,11.728L249.625,11.617L249.725,11.509L249.827,11.402L249.931,11.298L250.037,11.195L250.145,11.094L250.254,10.995L250.366,10.898L250.479,10.803L250.594,10.711L250.711,10.62L250.829,10.531L250.949,10.445L251.071,10.361L251.194,10.279L251.319,10.199L251.445,10.122L251.573,10.047L251.703,9.974L251.834,9.904L251.966,9.836L252.1,9.77L252.235,9.707L252.372,9.646L252.509,9.588L252.649,9.532L252.789,9.479L252.931,9.429L253.074,9.381L253.218,9.336L253.363,9.294L253.51,9.254L253.657,9.217L253.806,9.183L253.955,9.152L254.106,9.123L254.258,9.098L254.41,9.075L254.563,9.055L254.718,9.038L254.873,9.025L255.028,9.014L255.185,9.006L255.342,9.002L255.5,9L255.658,9.002ZM255.362,10.001L255.224,10.005L255.087,10.012L254.951,10.022L254.816,10.034L254.681,10.048L254.547,10.066L254.414,10.085L254.282,10.108L254.151,10.132L254.02,10.16L253.891,10.19L253.762,10.222L253.634,10.256L253.507,10.293L253.382,10.333L253.257,10.374L253.133,10.418L253.011,10.465L252.889,10.513L252.769,10.564L252.649,10.617L252.531,10.672L252.415,10.729L252.299,10.789L252.184,10.85L252.071,10.914L251.959,10.98L251.849,11.047L251.74,11.117L251.632,11.189L251.525,11.262L251.42,11.338L251.317,11.415L251.215,11.495L251.114,11.576L251.015,11.659L250.917,11.744L250.821,11.83L250.727,11.919L250.634,12.009L250.543,12.101L250.453,12.194L250.365,12.289L250.279,12.386L250.195,12.484L250.112,12.584L250.031,12.686L249.952,12.789L249.875,12.893L249.8,12.999L249.726,13.107L249.655,13.215L249.585,13.326L249.517,13.437L249.452,13.55L249.388,13.665L249.326,13.78L249.267,13.897L249.209,14.015L249.154,14.135L249.1,14.255L249.049,14.377L249,14.5L249.049,14.623L249.1,14.745L249.154,14.865L249.209,14.985L249.267,15.103L249.326,15.22L249.388,15.335L249.452,15.45L249.517,15.563L249.585,15.674L249.655,15.785L249.726,15.893L249.8,16.001L249.875,16.107L249.952,16.211L250.031,16.314L250.112,16.416L250.195,16.516L250.279,16.614L250.365,16.711L250.453,16.806L250.543,16.899L250.634,16.991L250.727,17.081L250.821,17.17L250.917,17.256L251.015,17.341L251.114,17.424L251.215,17.505L251.317,17.585L251.42,17.662L251.525,17.738L251.632,17.811L251.74,17.883L251.849,17.953L251.959,18.02L252.071,18.086L252.184,18.15L252.299,18.211L252.415,18.271L252.531,18.328L252.649,18.383L252.769,18.436L252.889,18.487L253.011,18.535L253.133,18.582L253.257,18.626L253.382,18.667L253.507,18.707L253.634,18.744L253.762,18.778L253.891,18.81L254.02,18.84L254.151,18.868L254.282,18.892L254.414,18.915L254.547,18.934L254.681,18.952L254.816,18.966L254.951,18.978L255.087,18.988L255.224,18.995L255.362,18.999L255.5,19L255.638,18.999L255.776,18.995L255.913,18.988L256.049,18.978L256.184,18.966L256.319,18.952L256.453,18.934L256.586,18.915L256.718,18.892L256.849,18.868L256.98,18.84L257.109,18.81L257.238,18.778L257.366,18.744L257.493,18.707L257.618,18.667L257.743,18.626L257.867,18.582L257.989,18.535L258.111,18.487L258.231,18.436L258.351,18.383L258.469,18.328L258.585,18.271L258.701,18.211L258.816,18.15L258.929,18.086L259.041,18.02L259.151,17.953L259.26,17.883L259.368,17.811L259.475,17.738L259.58,17.662L259.683,17.585L259.785,17.505L259.886,17.424L259.985,17.341L260.083,17.256L260.179,17.17L260.273,17.081L260.366,16.991L260.457,16.899L260.547,16.806L260.635,16.711L260.721,16.614L260.805,16.516L260.888,16.416L260.969,16.314L261.048,16.211L261.125,16.107L261.2,16.001L261.274,15.893L261.345,15.785L261.415,15.674L261.483,15.563L261.548,15.45L261.612,15.335L261.674,15.22L261.733,15.103L261.791,14.985L261.846,14.865L261.9,14.745L261.951,14.623L262,14.5L261.951,14.377L261.9,14.255L261.846,14.135L261.791,14.015L261.733,13.897L261.674,13.78L261.612,13.665L261.548,13.55L261.483,13.437L261.415,13.326L261.345,13.215L261.274,13.107L261.2,12.999L261.125,12.893L261.048,12.789L260.969,12.686L260.888,12.584L260.805,12.484L260.721,12.386L260.635,12.289L260.547,12.194L260.457,12.101L260.366,12.009L260.273,11.919L260.179,11.83L260.083,11.744L259.985,11.659L259.886,11.576L259.785,11.495L259.683,11.415L259.58,11.338L259.475,11.262L259.368,11.189L259.26,11.117L259.151,11.047L259.041,10.98L258.929,10.914L258.816,10.85L258.701,10.789L258.585,10.729L258.469,10.672L258.351,10.617L258.231,10.564L258.111,10.513L257.989,10.465L257.867,10.418L257.743,10.374L257.618,10.333L257.493,10.293L257.366,10.256L257.238,10.222L257.109,10.19L256.98,10.16L256.849,10.132L256.718,10.108L256.586,10.085L256.453,10.066L256.319,10.048L256.184,10.034L256.049,10.022L255.913,10.012L255.776,10.005L255.638,10.001L255.5,10L255.362,10.001ZM255.566,11.515L255.642,11.517L255.719,11.522L255.794,11.529L255.869,11.538L255.944,11.548L256.018,11.56L256.091,11.574L256.164,11.59L256.236,11.608L256.308,11.627L256.378,11.648L256.448,11.671L256.517,11.695L256.586,11.721L256.653,11.748L256.72,11.778L256.786,11.808L256.851,11.841L256.915,11.874L256.978,11.909L257.04,11.946L257.101,11.984L257.162,12.024L257.221,12.065L257.279,12.107L257.336,12.151L257.392,12.196L257.447,12.242L257.501,12.29L257.553,12.339L257.605,12.389L257.655,12.44L257.704,12.492L257.751,12.546L257.798,12.601L257.843,12.657L257.887,12.714L257.929,12.772L257.97,12.831L258.01,12.891L258.048,12.952L258.085,13.014L258.12,13.077L258.154,13.141L258.186,13.206L258.217,13.271L258.246,13.338L258.274,13.405L258.3,13.474L258.324,13.543L258.347,13.612L258.368,13.683L258.387,13.754L258.405,13.826L258.421,13.898L258.435,13.972L258.447,14.045L258.458,14.12L258.466,14.195L258.473,14.27L258.478,14.346L258.481,14.423L258.482,14.5L258.481,14.577L258.478,14.654L258.473,14.73L258.466,14.805L258.458,14.88L258.447,14.955L258.435,15.028L258.421,15.102L258.405,15.174L258.387,15.246L258.368,15.317L258.347,15.388L258.324,15.457L258.3,15.526L258.274,15.595L258.246,15.662L258.217,15.729L258.186,15.794L258.154,15.859L258.12,15.923L258.085,15.986L258.048,16.048L258.01,16.109L257.97,16.169L257.929,16.228L257.887,16.286L257.843,16.343L257.798,16.399L257.751,16.454L257.704,16.508L257.655,16.56L257.605,16.611L257.553,16.661L257.501,16.71L257.447,16.758L257.392,16.804L257.336,16.849L257.279,16.893L257.221,16.935L257.162,16.976L257.101,17.016L257.04,17.054L256.978,17.091L256.915,17.126L256.851,17.159L256.786,17.192L256.72,17.222L256.653,17.252L256.586,17.279L256.517,17.305L256.448,17.329L256.378,17.352L256.308,17.373L256.236,17.392L256.164,17.41L256.091,17.426L256.018,17.44L255.944,17.452L255.869,17.462L255.794,17.471L255.719,17.478L255.642,17.483L255.566,17.485L255.488,17.486L255.411,17.485L255.335,17.483L255.258,17.478L255.183,17.471L255.107,17.462L255.033,17.452L254.959,17.44L254.886,17.426L254.813,17.41L254.741,17.392L254.669,17.373L254.599,17.352L254.529,17.329L254.46,17.305L254.391,17.279L254.324,17.252L254.257,17.222L254.191,17.192L254.126,17.159L254.062,17.126L253.999,17.091L253.937,17.054L253.876,17.016L253.815,16.976L253.756,16.935L253.698,16.893L253.641,16.849L253.585,16.804L253.53,16.758L253.476,16.71L253.424,16.661L253.372,16.611L253.322,16.56L253.273,16.508L253.225,16.454L253.179,16.399L253.134,16.343L253.09,16.286L253.048,16.228L253.007,16.169L252.967,16.109L252.929,16.048L252.892,15.986L252.857,15.923L252.823,15.859L252.791,15.794L252.76,15.729L252.731,15.662L252.703,15.595L252.677,15.526L252.653,15.457L252.63,15.388L252.609,15.317L252.589,15.246L252.572,15.174L252.556,15.102L252.542,15.028L252.53,14.955L252.519,14.88L252.511,14.805L252.504,14.73L252.499,14.654L252.496,14.577L252.495,14.5L252.496,14.423L252.499,14.346L252.504,14.27L252.511,14.195L252.519,14.12L252.53,14.045L252.542,13.972L252.556,13.898L252.572,13.826L252.589,13.754L252.609,13.683L252.63,13.612L252.653,13.543L252.677,13.474L252.703,13.405L252.731,13.338L252.76,13.271L252.791,13.206L252.823,13.141L252.857,13.077L252.892,13.014L252.929,12.952L252.967,12.891L253.007,12.831L253.048,12.772L253.09,12.714L253.134,12.657L253.179,12.601L253.225,12.546L253.273,12.492L253.322,12.44L253.372,12.389L253.424,12.339L253.476,12.29L253.53,12.242L253.585,12.196L253.641,12.151L253.698,12.107L253.756,12.065L253.815,12.024L253.876,11.984L253.937,11.946L253.999,11.909L254.062,11.874L254.126,11.841L254.191,11.808L254.257,11.778L254.324,11.748L254.391,11.721L254.46,11.695L254.529,11.671L254.599,11.648L254.669,11.627L254.741,11.608L254.813,11.59L254.886,11.574L254.959,11.56L255.033,11.548L255.107,11.538L255.183,11.529L255.258,11.522L255.335,11.517L255.411,11.515L255.488,11.514L255.566,11.515ZM255.437,12.514L255.385,12.516L255.334,12.52L255.284,12.524L255.233,12.53L255.184,12.537L255.135,12.545L255.086,12.554L255.037,12.565L254.99,12.576L254.942,12.589L254.895,12.603L254.849,12.618L254.803,12.634L254.758,12.651L254.713,12.67L254.669,12.689L254.625,12.71L254.582,12.731L254.539,12.753L254.497,12.777L254.455,12.801L254.415,12.827L254.374,12.853L254.335,12.88L254.296,12.909L254.258,12.938L254.221,12.968L254.184,12.999L254.148,13.031L254.113,13.063L254.079,13.097L254.045,13.131L254.012,13.166L253.981,13.202L253.95,13.238L253.919,13.276L253.89,13.314L253.862,13.352L253.835,13.392L253.808,13.432L253.783,13.472L253.758,13.514L253.735,13.555L253.712,13.598L253.691,13.641L253.671,13.684L253.651,13.729L253.633,13.773L253.616,13.818L253.6,13.864L253.585,13.91L253.571,13.957L253.558,14.004L253.546,14.052L253.536,14.1L253.526,14.148L253.518,14.197L253.511,14.246L253.506,14.296L253.501,14.347L253.498,14.397L253.496,14.448L253.495,14.5L253.496,14.552L253.498,14.603L253.501,14.654L253.506,14.704L253.511,14.754L253.518,14.803L253.526,14.852L253.536,14.9L253.546,14.948L253.558,14.996L253.571,15.043L253.585,15.09L253.6,15.136L253.616,15.182L253.633,15.227L253.651,15.271L253.671,15.316L253.691,15.359L253.712,15.402L253.735,15.445L253.758,15.486L253.783,15.528L253.808,15.568L253.835,15.608L253.862,15.648L253.89,15.686L253.919,15.724L253.95,15.762L253.981,15.798L254.012,15.834L254.045,15.869L254.079,15.903L254.113,15.937L254.148,15.969L254.184,16.001L254.221,16.032L254.258,16.062L254.296,16.091L254.335,16.12L254.374,16.147L254.415,16.173L254.455,16.199L254.497,16.223L254.539,16.247L254.582,16.269L254.625,16.29L254.669,16.311L254.713,16.33L254.758,16.349L254.803,16.366L254.849,16.382L254.895,16.397L254.942,16.411L254.99,16.424L255.037,16.435L255.086,16.446L255.135,16.455L255.184,16.463L255.233,16.47L255.284,16.476L255.334,16.48L255.385,16.484L255.437,16.486L255.488,16.486L255.54,16.486L255.592,16.484L255.643,16.48L255.693,16.476L255.744,16.47L255.793,16.463L255.842,16.455L255.891,16.446L255.939,16.435L255.987,16.424L256.035,16.411L256.082,16.397L256.128,16.382L256.174,16.366L256.219,16.349L256.264,16.33L256.308,16.311L256.352,16.29L256.395,16.269L256.438,16.247L256.48,16.223L256.522,16.199L256.562,16.173L256.603,16.147L256.642,16.12L256.681,16.091L256.719,16.062L256.756,16.032L256.793,16.001L256.829,15.969L256.864,15.937L256.898,15.903L256.932,15.869L256.965,15.834L256.996,15.798L257.027,15.762L257.057,15.724L257.087,15.686L257.115,15.648L257.142,15.608L257.169,15.568L257.194,15.528L257.219,15.486L257.242,15.445L257.265,15.402L257.286,15.359L257.306,15.316L257.326,15.271L257.344,15.227L257.361,15.182L257.377,15.136L257.392,15.09L257.406,15.043L257.419,14.996L257.431,14.948L257.441,14.9L257.451,14.852L257.459,14.803L257.466,14.754L257.471,14.704L257.476,14.654L257.479,14.603L257.481,14.552L257.482,14.5L257.481,14.448L257.479,14.397L257.476,14.347L257.471,14.296L257.466,14.246L257.459,14.197L257.451,14.148L257.441,14.1L257.431,14.052L257.419,14.004L257.406,13.957L257.392,13.91L257.377,13.864L257.361,13.818L257.344,13.773L257.326,13.729L257.306,13.684L257.286,13.641L257.265,13.598L257.242,13.555L257.219,13.514L257.194,13.472L257.169,13.432L257.142,13.392L257.115,13.352L257.087,13.314L257.057,13.276L257.027,13.238L256.996,13.202L256.965,13.166L256.932,13.131L256.898,13.097L256.864,13.063L256.829,13.031L256.793,12.999L256.756,12.968L256.719,12.938L256.681,12.909L256.642,12.88L256.603,12.853L256.562,12.827L256.522,12.801L256.48,12.777L256.438,12.753L256.395,12.731L256.352,12.71L256.308,12.689L256.264,12.67L256.219,12.651L256.174,12.634L256.128,12.618L256.082,12.603L256.035,12.589L255.987,12.576L255.939,12.565L255.891,12.554L255.842,12.545L255.793,12.537L255.744,12.53L255.693,12.524L255.643,12.52L255.592,12.516L255.54,12.514L255.488,12.514L255.437,12.514Z" style="fill:rgb(205,205,205);"/>
                </g>
                <g transform="matrix(1.94588,0,0,1.94588,-329.501,-14.2693)">
                    <path d="M175.56,11.178L175.619,11.181L175.678,11.184L175.736,11.19L175.795,11.196L175.853,11.204L175.91,11.214L175.967,11.225L176.024,11.237L176.08,11.251L176.135,11.266L176.19,11.282L176.245,11.3L176.298,11.319L176.352,11.339L176.404,11.361L176.456,11.383L176.507,11.407L176.558,11.432L176.607,11.459L176.656,11.486L176.705,11.515L176.752,11.544L176.799,11.575L176.845,11.607L176.89,11.64L176.934,11.674L176.977,11.709L177.02,11.744L177.061,11.781L177.102,11.819L177.142,11.858L177.181,11.898L177.219,11.939L177.256,11.98L177.291,12.023L177.326,12.066L177.36,12.11L177.393,12.155L177.425,12.201L177.456,12.248L177.485,12.295L177.514,12.344L177.541,12.393L177.568,12.442L177.593,12.493L177.617,12.544L177.639,12.596L177.661,12.648L177.681,12.702L177.7,12.755L177.718,12.81L177.734,12.865L177.749,12.92L177.763,12.976L177.775,13.033L177.786,13.09L177.796,13.147L177.804,13.205L177.81,13.264L177.816,13.322L177.819,13.381L177.822,13.44L177.822,13.5L177.822,13.56L177.819,13.619L177.816,13.678L177.81,13.736L177.804,13.795L177.796,13.853L177.786,13.91L177.775,13.967L177.763,14.024L177.749,14.08L177.734,14.135L177.718,14.19L177.7,14.245L177.681,14.298L177.661,14.352L177.639,14.404L177.617,14.456L177.593,14.507L177.568,14.558L177.541,14.607L177.514,14.656L177.485,14.705L177.456,14.752L177.425,14.799L177.393,14.845L177.36,14.89L177.326,14.934L177.291,14.977L177.256,15.02L177.219,15.061L177.181,15.102L177.142,15.142L177.102,15.181L177.061,15.219L177.02,15.256L176.977,15.291L176.934,15.326L176.89,15.36L176.845,15.393L176.799,15.425L176.752,15.456L176.705,15.485L176.656,15.514L176.607,15.541L176.558,15.568L176.507,15.593L176.456,15.617L176.404,15.639L176.352,15.661L176.298,15.681L176.245,15.7L176.19,15.718L176.135,15.734L176.08,15.749L176.024,15.763L175.967,15.775L175.91,15.786L175.853,15.796L175.795,15.804L175.736,15.81L175.678,15.816L175.619,15.819L175.56,15.822L175.5,15.822L175.44,15.822L175.381,15.819L175.322,15.816L175.264,15.81L175.205,15.804L175.147,15.796L175.09,15.786L175.033,15.775L174.976,15.763L174.92,15.749L174.865,15.734L174.81,15.718L174.755,15.7L174.702,15.681L174.648,15.661L174.596,15.639L174.544,15.617L174.493,15.593L174.442,15.568L174.393,15.541L174.344,15.514L174.295,15.485L174.248,15.456L174.201,15.425L174.155,15.393L174.11,15.36L174.066,15.326L174.023,15.291L173.98,15.256L173.939,15.219L173.898,15.181L173.858,15.142L173.819,15.102L173.781,15.061L173.744,15.02L173.709,14.977L173.674,14.934L173.64,14.89L173.607,14.845L173.575,14.799L173.544,14.752L173.515,14.705L173.486,14.656L173.459,14.607L173.432,14.558L173.407,14.507L173.383,14.456L173.361,14.404L173.339,14.352L173.319,14.298L173.3,14.245L173.282,14.19L173.266,14.135L173.251,14.08L173.237,14.024L173.225,13.967L173.214,13.91L173.204,13.853L173.196,13.795L173.19,13.736L173.184,13.678L173.181,13.619L173.178,13.56L173.178,13.5L173.178,13.44L173.181,13.381L173.184,13.322L173.19,13.264L173.196,13.205L173.204,13.147L173.214,13.09L173.225,13.033L173.237,12.976L173.251,12.92L173.266,12.865L173.282,12.81L173.3,12.755L173.319,12.702L173.339,12.648L173.361,12.596L173.383,12.544L173.407,12.493L173.432,12.442L173.459,12.393L173.486,12.344L173.515,12.295L173.544,12.248L173.575,12.201L173.607,12.155L173.64,12.11L173.674,12.066L173.709,12.023L173.744,11.98L173.781,11.939L173.819,11.898L173.858,11.858L173.898,11.819L173.939,11.781L173.98,11.744L174.023,11.709L174.066,11.674L174.11,11.64L174.155,11.607L174.201,11.575L174.248,11.544L174.295,11.515L174.344,11.486L174.393,11.459L174.442,11.432L174.493,11.407L174.544,11.383L174.596,11.361L174.648,11.339L174.702,11.319L174.755,11.3L174.81,11.282L174.865,11.266L174.92,11.251L174.976,11.237L175.033,11.225L175.09,11.214L175.147,11.204L175.205,11.196L175.264,11.19L175.322,11.184L175.381,11.181L175.44,11.178L175.5,11.178L175.56,11.178ZM175.461,12L175.423,12.002L175.385,12.004L175.347,12.008L175.309,12.012L175.272,12.017L175.235,12.023L175.198,12.03L175.161,12.038L175.125,12.047L175.09,12.057L175.054,12.067L175.019,12.079L174.984,12.091L174.95,12.104L174.916,12.118L174.883,12.133L174.85,12.148L174.817,12.164L174.785,12.181L174.754,12.199L174.722,12.217L174.692,12.236L174.662,12.256L174.632,12.277L174.603,12.298L174.574,12.32L174.546,12.343L174.519,12.366L174.492,12.39L174.465,12.414L174.44,12.44L174.414,12.465L174.39,12.492L174.366,12.519L174.343,12.546L174.32,12.574L174.298,12.603L174.277,12.632L174.256,12.662L174.236,12.692L174.217,12.722L174.199,12.754L174.181,12.785L174.164,12.817L174.148,12.85L174.133,12.883L174.118,12.916L174.104,12.95L174.091,12.984L174.079,13.019L174.067,13.054L174.057,13.09L174.047,13.125L174.038,13.161L174.03,13.198L174.023,13.235L174.017,13.272L174.012,13.309L174.008,13.347L174.004,13.385L174.002,13.423L174,13.461L174,13.5L174,13.539L174.002,13.577L174.004,13.615L174.008,13.653L174.012,13.691L174.017,13.728L174.023,13.765L174.03,13.802L174.038,13.839L174.047,13.875L174.057,13.91L174.067,13.946L174.079,13.981L174.091,14.016L174.104,14.05L174.118,14.084L174.133,14.117L174.148,14.15L174.164,14.183L174.181,14.215L174.199,14.246L174.217,14.278L174.236,14.308L174.256,14.338L174.277,14.368L174.298,14.397L174.32,14.426L174.343,14.454L174.366,14.481L174.39,14.508L174.414,14.535L174.44,14.56L174.465,14.586L174.492,14.61L174.519,14.634L174.546,14.657L174.574,14.68L174.603,14.702L174.632,14.723L174.662,14.744L174.692,14.764L174.722,14.783L174.754,14.801L174.785,14.819L174.817,14.836L174.85,14.852L174.883,14.867L174.916,14.882L174.95,14.896L174.984,14.909L175.019,14.921L175.054,14.933L175.09,14.943L175.125,14.953L175.161,14.962L175.198,14.97L175.235,14.977L175.272,14.983L175.309,14.988L175.347,14.992L175.385,14.996L175.423,14.998L175.461,15L175.5,15L175.539,15L175.577,14.998L175.615,14.996L175.653,14.992L175.691,14.988L175.728,14.983L175.765,14.977L175.802,14.97L175.839,14.962L175.875,14.953L175.91,14.943L175.946,14.933L175.981,14.921L176.016,14.909L176.05,14.896L176.084,14.882L176.117,14.867L176.15,14.852L176.183,14.836L176.215,14.819L176.246,14.801L176.278,14.783L176.308,14.764L176.338,14.744L176.368,14.723L176.397,14.702L176.426,14.68L176.454,14.657L176.481,14.634L176.508,14.61L176.535,14.586L176.56,14.56L176.586,14.535L176.61,14.508L176.634,14.481L176.657,14.454L176.68,14.426L176.702,14.397L176.723,14.368L176.744,14.338L176.764,14.308L176.783,14.278L176.801,14.246L176.819,14.215L176.836,14.183L176.852,14.15L176.867,14.117L176.882,14.084L176.896,14.05L176.909,14.016L176.921,13.981L176.933,13.946L176.943,13.91L176.953,13.875L176.962,13.839L176.97,13.802L176.977,13.765L176.983,13.728L176.988,13.691L176.992,13.653L176.996,13.615L176.998,13.577L177,13.539L177,13.5L177,13.461L176.998,13.423L176.996,13.385L176.992,13.347L176.988,13.309L176.983,13.272L176.977,13.235L176.97,13.198L176.962,13.161L176.953,13.125L176.943,13.09L176.933,13.054L176.921,13.019L176.909,12.984L176.896,12.95L176.882,12.916L176.867,12.883L176.852,12.85L176.836,12.817L176.819,12.785L176.801,12.754L176.783,12.722L176.764,12.692L176.744,12.662L176.723,12.632L176.702,12.603L176.68,12.574L176.657,12.546L176.634,12.519L176.61,12.492L176.586,12.465L176.56,12.44L176.535,12.414L176.508,12.39L176.481,12.366L176.454,12.343L176.426,12.32L176.397,12.298L176.368,12.277L176.338,12.256L176.308,12.236L176.278,12.217L176.246,12.199L176.215,12.181L176.183,12.164L176.15,12.148L176.117,12.133L176.084,12.118L176.05,12.104L176.016,12.091L175.981,12.079L175.946,12.067L175.91,12.057L175.875,12.047L175.839,12.038L175.802,12.03L175.765,12.023L175.728,12.017L175.691,12.012L175.653,12.008L175.615,12.004L175.577,12.002L175.539,12L175.5,12L175.461,12Z" style="fill:rgb(205,205,205);"/>
                    <circle cx="175.5" cy="13.5" r="1.5" style="fill:rgb(37,37,37);"/>
                </g>
            </g>
        </g>
    </g>
</svg>
