<?xml version="1.0" encoding="UTF-8" standalone="no"?>
<!DOCTYPE svg PUBLIC "-//W3C//DTD SVG 1.1//EN" "http://www.w3.org/Graphics/SVG/1.1/DTD/svg11.dtd">
<svg width="100%" height="100%" viewBox="0 0 20 20" version="1.1" xmlns="http://www.w3.org/2000/svg" xmlns:xlink="http://www.w3.org/1999/xlink" xml:space="preserve" xmlns:serif="http://www.serif.com/" style="fill-rule:evenodd;clip-rule:evenodd;stroke-linejoin:round;stroke-miterlimit:2;">
    <g transform="matrix(1,0,0,1,-315,-4)">
        <g id="General_SmallSelectAll_Pressed" transform="matrix(3.58891,0,0,2.39241,-2901.99,-2499.46)">
            <g id="Transparent-BG" serif:id="Transparent BG" transform="matrix(0.278636,0,0,0.417989,896.367,1046.42)">
                <rect x="0" y="0" width="20" height="20" style="fill:white;fill-opacity:0;"/>
            </g>
            <g transform="matrix(0.232196,0,0,0.348325,873.008,1028.1)">
                <path d="M115,61L109,61L109,67L115,67L115,61ZM114,62L110,62L110,66L114,66L114,62Z" style="fill:white;"/>
                <path d="M116.2,61C116.2,60.337 115.663,59.8 115,59.8L109,59.8C108.337,59.8 107.8,60.337 107.8,61L107.8,67C107.8,67.663 108.337,68.2 109,68.2L115,68.2C115.663,68.2 116.2,67.663 116.2,67L116.2,61ZM115,61L109,61L109,67L115,67L115,61ZM114,62L110,62L110,66L114,66L114,62ZM111.2,63.2L111.2,64.8L112.8,64.8L112.8,63.2L111.2,63.2Z" style="fill:rgb(34,34,34);"/>
            </g>
            <g transform="matrix(0.612999,0,0,0.208995,620.407,689.873)">
                <path d="M452.455,1736L452,1736L452,1732L452.455,1732L452.455,1736ZM452.909,1736L452.455,1736L452.455,1734L452.909,1734L452.909,1736ZM454.273,1736L453.364,1736L453.364,1734L454.273,1734L454.273,1736ZM455.636,1736L454.727,1736L454.727,1734L455.636,1734L455.636,1736ZM457,1736L456.091,1736L456.091,1734L456.545,1734L456.545,1732L457,1732L457,1736ZM457,1726L457,1730L456.545,1730L456.545,1726L457,1726ZM452,1726L452.455,1726L452.455,1730L452,1730L452,1726ZM457,1720L457,1724L456.545,1724L456.545,1720L457,1720ZM452,1720L452.455,1720L452.455,1724L452,1724L452,1720ZM457,1714L457,1718L456.545,1718L456.545,1716L456.091,1716L456.091,1714L457,1714ZM452.909,1714L452.909,1716L452.455,1716L452.455,1718L452,1718L452,1714L452.909,1714ZM455.636,1714L455.636,1716L454.727,1716L454.727,1714L455.636,1714ZM454.273,1714L454.273,1716L453.364,1716L453.364,1714L454.273,1714Z" style="fill:white;"/>
                <path d="M451.606,1719C451.568,1718.71 451.545,1718.36 451.545,1718L451.545,1714C451.545,1712.89 451.749,1712 452,1712L452.909,1712C452.992,1712 453.07,1712.1 453.136,1712.27C453.203,1712.1 453.281,1712 453.364,1712L454.273,1712C454.356,1712 454.433,1712.1 454.5,1712.27C454.567,1712.1 454.644,1712 454.727,1712L455.636,1712C455.719,1712 455.797,1712.1 455.864,1712.27C455.93,1712.1 456.008,1712 456.091,1712L457,1712C457.251,1712 457.455,1712.89 457.455,1714L457.455,1718C457.455,1718.36 457.432,1718.71 457.394,1719C457.432,1719.29 457.455,1719.64 457.455,1720L457.455,1724C457.455,1724.36 457.432,1724.71 457.394,1725C457.432,1725.29 457.455,1725.64 457.455,1726L457.455,1730C457.455,1730.36 457.432,1730.71 457.394,1731C457.432,1731.29 457.455,1731.64 457.455,1732L457.455,1736C457.455,1737.11 457.251,1738 457,1738L456.091,1738C456.008,1738 455.93,1737.9 455.864,1737.73C455.797,1737.9 455.719,1738 455.636,1738L454.727,1738C454.644,1738 454.567,1737.9 454.5,1737.73C454.433,1737.9 454.356,1738 454.273,1738L453.364,1738C453.281,1738 453.203,1737.9 453.136,1737.73C453.07,1737.9 452.992,1738 452.909,1738L452,1738C451.749,1738 451.545,1737.11 451.545,1736L451.545,1732C451.545,1731.64 451.568,1731.29 451.606,1731C451.568,1730.71 451.545,1730.36 451.545,1730L451.545,1726C451.545,1725.64 451.568,1725.29 451.606,1725C451.568,1724.71 451.545,1724.36 451.545,1724L451.545,1720C451.545,1719.64 451.568,1719.29 451.606,1719ZM457,1736L456.091,1736L456.091,1734L456.545,1734L456.545,1732L457,1732L457,1736ZM452.455,1736L452,1736L452,1732L452.455,1732L452.455,1736ZM452.909,1736L452.455,1736L452.455,1734L452.909,1734L452.909,1736ZM454.273,1736L453.364,1736L453.364,1734L454.273,1734L454.273,1736ZM455.636,1736L454.727,1736L454.727,1734L455.636,1734L455.636,1736ZM454.5,1717.73C454.433,1717.9 454.356,1718 454.273,1718L453.364,1718C453.281,1718 453.203,1717.9 453.136,1717.73C453.07,1717.9 452.992,1718 452.909,1718L452.909,1718C452.909,1718.36 452.887,1718.71 452.848,1719C452.887,1719.29 452.909,1719.64 452.909,1720L452.909,1724C452.909,1724.36 452.887,1724.71 452.848,1725C452.887,1725.29 452.909,1725.64 452.909,1726L452.909,1730C452.909,1730.36 452.887,1730.71 452.848,1731C452.887,1731.29 452.909,1731.64 452.909,1732L452.909,1732C452.992,1732 453.07,1732.1 453.136,1732.27C453.203,1732.1 453.281,1732 453.364,1732L454.273,1732C454.356,1732 454.433,1732.1 454.5,1732.27C454.567,1732.1 454.644,1732 454.727,1732L455.636,1732C455.719,1732 455.797,1732.1 455.864,1732.27C455.93,1732.1 456.008,1732 456.091,1732L456.091,1732C456.091,1731.64 456.113,1731.29 456.152,1731C456.113,1730.71 456.091,1730.36 456.091,1730L456.091,1726C456.091,1725.64 456.113,1725.29 456.152,1725C456.113,1724.71 456.091,1724.36 456.091,1724L456.091,1720C456.091,1719.64 456.113,1719.29 456.152,1719C456.113,1718.71 456.091,1718.36 456.091,1718L456.091,1718C456.008,1718 455.93,1717.9 455.864,1717.73C455.797,1717.9 455.719,1718 455.636,1718L454.727,1718C454.644,1718 454.567,1717.9 454.5,1717.73ZM457,1726L457,1730L456.545,1730L456.545,1726L457,1726ZM452,1726L452.455,1726L452.455,1730L452,1730L452,1726ZM452,1720L452.455,1720L452.455,1724L452,1724L452,1720ZM457,1720L457,1724L456.545,1724L456.545,1720L457,1720ZM457,1714L457,1718L456.545,1718L456.545,1716L456.091,1716L456.091,1714L457,1714ZM452.909,1714L452.909,1716L452.455,1716L452.455,1718L452,1718L452,1714L452.909,1714ZM455.636,1714L455.636,1716L454.727,1716L454.727,1714L455.636,1714ZM454.273,1714L454.273,1716L453.364,1716L453.364,1714L454.273,1714Z" style="fill:rgb(34,34,34);"/>
            </g>
        </g>
    </g>
</svg>
