<?xml version="1.0" encoding="UTF-8" standalone="no"?>
<!DOCTYPE svg PUBLIC "-//W3C//DTD SVG 1.1//EN" "http://www.w3.org/Graphics/SVG/1.1/DTD/svg11.dtd">
<svg width="100%" height="100%" viewBox="0 0 20 20" version="1.1" xmlns="http://www.w3.org/2000/svg" xmlns:xlink="http://www.w3.org/1999/xlink" xml:space="preserve" xmlns:serif="http://www.serif.com/" style="fill-rule:evenodd;clip-rule:evenodd;stroke-linejoin:round;stroke-miterlimit:2;">
    <g transform="matrix(1,0,0,1,-275,-64)">
        <g id="General_SmallAddTransition_Pressed" transform="matrix(1,0,0,1,0,-1)">
            <g id="Base-Block" serif:id="Base Block" transform="matrix(1,0,0,1,278,68)">
                <g transform="matrix(1,0,0,1,-40,-25)">
                    <path d="M55,27.1C55,25.941 54.059,25 52.9,25L42.1,25C40.941,25 40,25.941 40,27.1L40,37.9C40,39.059 40.941,40 42.1,40L52.9,40C54.059,40 55,39.059 55,37.9L55,27.1Z" style="fill-opacity:0;"/>
                </g>
                <g id="Transparent-BG" serif:id="Transparent BG" transform="matrix(1,0,0,1,-3,-3)">
                    <rect x="0" y="0" width="20" height="20" style="fill:white;fill-opacity:0;"/>
                </g>
            </g>
            <g transform="matrix(1,0,0,1,277,67)">
                <g id="ObjectIcons_MusicTransition_nor">
                    <g id="Icons">
                        <g transform="matrix(1,0,0,1,-40,-25)">
                            <g id="Base-Block1" serif:id="Base Block">
                                <path d="M55,27.1C55,25.941 54.059,25 52.9,25L42.1,25C40.941,25 40,25.941 40,27.1L40,37.9C40,39.059 40.941,40 42.1,40L52.9,40C54.059,40 55,39.059 55,37.9L55,27.1Z" style="fill-opacity:0;"/>
                            </g>
                        </g>
                        <g transform="matrix(1.02347,0,0,2.45942,-225.351,-177.078)">
                            <path d="M228,72.707C228,72.317 227.238,72 226.3,72L221.161,72L221.161,74.44L226.3,74.44C227.238,74.44 228,74.123 228,73.732L228,72.707Z" style="fill:rgb(34,34,34);"/>
                        </g>
                        <g transform="matrix(1.60831,-5.62113e-15,0,2.45942,-351.695,-170.078)">
                            <path d="M228,72L222.242,72C221.645,72 221.161,72.317 221.161,72.707L221.161,73.732C221.161,74.123 221.645,74.44 222.242,74.44L228,74.44L228,72Z" style="fill:rgb(34,34,34);"/>
                        </g>
                        <g transform="matrix(-10,0,0,4,25,-20)">
                            <rect x="1" y="7" width="1" height="1" style="fill:rgb(189,189,189);"/>
                        </g>
                        <g transform="matrix(-6,0,0,4,13,-27)">
                            <rect x="1" y="7" width="1" height="1" style="fill:rgb(189,189,189);"/>
                        </g>
                    </g>
                </g>
            </g>
            <g transform="matrix(1.16667,0,0,1,-507.333,-57)">
                <path d="M686,134.75C686,133.784 685.328,133 684.5,133L681.5,133C680.672,133 680,133.784 680,134.75L680,138.25C680,139.216 680.672,140 681.5,140L684.5,140C685.328,140 686,139.216 686,138.25L686,134.75Z" style="fill:rgb(34,34,34);"/>
            </g>
            <g id="Cross" transform="matrix(1,0,0,1,0,1)">
                <path d="M290,78L292,78L292,79L290,79L290,81L289,81L289,79L287,79L287,78L289,78L289,76L290,76L290,78Z" style="fill:rgb(226,226,226);"/>
            </g>
            <g transform="matrix(0.877261,0,0,1.22971,84.9846,-16.5392)">
                <rect x="221.161" y="72" width="6.839" height="2.44" style="fill:rgb(34,34,34);"/>
            </g>
            <g transform="matrix(1.12893,0,3.46945e-18,1.60964,284,79.173)">
                <path d="M0.857,-6.5C0.332,-6.689 0.071,-6.471 0,-5.961L0,-1.088C0.057,-0.453 0.344,-0.222 0.95,-0.554L5.023,-2.93C5.534,-3.385 5.439,-3.762 4.984,-4.092L0.857,-6.5Z" style="fill:rgb(34,34,34);fill-rule:nonzero;"/>
            </g>
            <g transform="matrix(-5,0,0,1,290,66)">
                <rect x="1" y="7" width="1" height="1" style="fill:white;"/>
            </g>
            <g transform="matrix(-0.8,0,0,0.777778,285,77)">
                <path d="M0,-9L0,0L-5,-4.5L0,-9Z" style="fill:white;fill-rule:nonzero;"/>
            </g>
        </g>
    </g>
</svg>
