<?xml version="1.0" encoding="UTF-8" standalone="no"?>
<!DOCTYPE svg PUBLIC "-//W3C//DTD SVG 1.1//EN" "http://www.w3.org/Graphics/SVG/1.1/DTD/svg11.dtd">
<svg width="100%" height="100%" viewBox="0 0 20 20" version="1.1" xmlns="http://www.w3.org/2000/svg" xmlns:xlink="http://www.w3.org/1999/xlink" xml:space="preserve" xmlns:serif="http://www.serif.com/" style="fill-rule:evenodd;clip-rule:evenodd;stroke-linejoin:round;stroke-miterlimit:2;">
    <g transform="matrix(1,0,0,1,-275,-44)">
        <g transform="matrix(1,0,0,1,277,47.0003)">
            <g id="General_SmallAddFolder_Pressed">
                <g id="Icons">
                    <g id="Base-Block" serif:id="Base Block" transform="matrix(1,0,0,1,-2.84217e-14,-0.0003)">
                        <g transform="matrix(1,0,0,1,-40,-25)">
                            <path d="M55,27.1C55,25.941 54.059,25 52.9,25L42.1,25C40.941,25 40,25.941 40,27.1L40,37.9C40,39.059 40.941,40 42.1,40L52.9,40C54.059,40 55,39.059 55,37.9L55,27.1Z" style="fill-opacity:0;"/>
                        </g>
                        <g id="Transparent-BG" serif:id="Transparent BG" transform="matrix(1,0,0,1,-2,-3)">
                            <rect x="0" y="0" width="20" height="20" style="fill:white;fill-opacity:0;"/>
                        </g>
                    </g>
                    <g transform="matrix(0.916667,0,0,0.89997,-53.9167,-40.2989)">
                        <path d="M66.455,49.222L73,49.222L73,57L61,57L61,47L66.455,47L66.455,49.222Z" style="fill:white;"/>
                        <path d="M67.545,48.111L73,48.111C73.602,48.111 74.091,48.609 74.091,49.222L74.091,57C74.091,57.614 73.602,58.111 73,58.111L61,58.111C60.398,58.111 59.909,57.614 59.909,57L59.909,47C59.909,46.387 60.398,45.889 61,45.889L66.455,45.889C67.057,45.889 67.545,46.387 67.545,47L67.545,48.111ZM66.455,49.222L73,49.222L73,57L61,57L61,47L66.455,47L66.455,49.222Z" style="fill:rgb(34,34,34);"/>
                    </g>
                    <g id="Plus-Badge" serif:id="Plus Badge" transform="matrix(2.16176,0,0,1.96875,-8.67647,-108.063)">
                        <g transform="matrix(0.539683,0,0,0.507937,-358.807,-8.60317)">
                            <path d="M686,134.75C686,133.784 685.328,133 684.5,133L681.5,133C680.672,133 680,133.784 680,134.75L680,138.25C680,139.216 680.672,140 681.5,140L684.5,140C685.328,140 686,139.216 686,138.25L686,134.75Z" style="fill:rgb(34,34,34);"/>
                        </g>
                        <g transform="matrix(0.462585,0,0,0.507937,-1.53741,28.4762)">
                            <path d="M25,63L27,63L27,64L25,64L25,66L24,66L24,64L22,64L22,63L24,63L24,61L25,61L25,63Z" style="fill:white;"/>
                        </g>
                    </g>
                </g>
            </g>
        </g>
    </g>
</svg>
