<?xml version="1.0" encoding="UTF-8" standalone="no"?>
<!DOCTYPE svg PUBLIC "-//W3C//DTD SVG 1.1//EN" "http://www.w3.org/Graphics/SVG/1.1/DTD/svg11.dtd">
<svg width="100%" height="100%" viewBox="0 0 20 20" version="1.1" xmlns="http://www.w3.org/2000/svg" xmlns:xlink="http://www.w3.org/1999/xlink" xml:space="preserve" xmlns:serif="http://www.serif.com/" style="fill-rule:evenodd;clip-rule:evenodd;stroke-linejoin:round;stroke-miterlimit:2;">
    <g transform="matrix(1,0,0,1,-30,-54)">
        <g id="General_EyeWithTriangle_Pressed" transform="matrix(1,0,0,1,-18,50)">
            <g id="Transparent-BG" serif:id="Transparent BG" transform="matrix(1,0,0,1,48,4)">
                <rect x="0" y="0" width="20" height="20" style="fill:white;fill-opacity:0;"/>
            </g>
            <g id="Eye" transform="matrix(0.625,0,0,0.625,50,7)">
                <rect x="0" y="0" width="24" height="24" style="fill:none;"/>
                <g transform="matrix(1.6,0,0,1.6,-435.2,-11.2)">
                    <path d="M279.5,10C276.545,10 274.022,11.866 273,14.5C274.022,17.134 276.545,19 279.5,19C282.455,19 284.978,17.134 286,14.5C284.978,11.866 282.455,10 279.5,10ZM279.488,11.514C281.141,11.514 282.482,12.852 282.482,14.5C282.482,16.148 281.141,17.486 279.488,17.486C277.836,17.486 276.495,16.148 276.495,14.5C276.495,12.852 277.836,11.514 279.488,11.514Z" style="fill:white;fill-rule:nonzero;"/>
                    <path d="M279.658,9.002L279.815,9.006L279.972,9.014L280.127,9.025L280.282,9.038L280.437,9.055L280.59,9.075L280.742,9.098L280.894,9.123L281.045,9.152L281.194,9.183L281.343,9.217L281.49,9.254L281.637,9.294L281.782,9.336L281.926,9.381L282.069,9.429L282.211,9.479L282.351,9.532L282.491,9.588L282.628,9.646L282.765,9.707L282.9,9.77L283.034,9.836L283.166,9.904L283.297,9.974L283.427,10.047L283.555,10.122L283.681,10.199L283.806,10.279L283.929,10.361L284.051,10.445L284.171,10.531L284.289,10.62L284.406,10.711L284.521,10.803L284.634,10.898L284.746,10.995L284.855,11.094L284.963,11.195L285.069,11.297L285.173,11.402L285.275,11.509L285.375,11.617L285.474,11.728L285.57,11.84L285.664,11.954L285.756,12.07L285.846,12.187L285.935,12.306L286.02,12.427L286.104,12.55L286.186,12.674L286.265,12.799L286.342,12.927L286.417,13.056L286.49,13.186L286.56,13.318L286.628,13.451L286.694,13.586L286.757,13.722L286.818,13.859L286.876,13.998L286.929,14.13L286.952,14.194L286.971,14.261L286.985,14.328L286.995,14.397L286.999,14.465L286.999,14.534L286.995,14.603L286.985,14.672L286.971,14.739L286.952,14.806L286.929,14.87L286.876,15.002L286.818,15.141L286.757,15.278L286.694,15.414L286.628,15.549L286.56,15.682L286.49,15.814L286.417,15.944L286.342,16.073L286.265,16.201L286.186,16.326L286.104,16.45L286.02,16.573L285.935,16.694L285.846,16.813L285.756,16.93L285.664,17.046L285.57,17.16L285.474,17.272L285.375,17.383L285.275,17.491L285.173,17.598L285.069,17.703L284.963,17.805L284.855,17.906L284.746,18.005L284.634,18.102L284.521,18.197L284.406,18.289L284.289,18.38L284.171,18.469L284.051,18.555L283.929,18.639L283.806,18.721L283.681,18.801L283.555,18.878L283.427,18.953L283.297,19.026L283.166,19.096L283.034,19.164L282.9,19.23L282.765,19.293L282.628,19.354L282.491,19.412L282.351,19.468L282.211,19.521L282.069,19.571L281.926,19.619L281.782,19.664L281.637,19.706L281.49,19.746L281.343,19.783L281.194,19.817L281.045,19.848L280.894,19.877L280.742,19.902L280.59,19.925L280.437,19.945L280.282,19.962L280.127,19.975L279.972,19.986L279.815,19.994L279.658,19.998L279.5,20L279.342,19.998L279.185,19.994L279.028,19.986L278.873,19.975L278.718,19.962L278.563,19.945L278.41,19.925L278.258,19.902L278.106,19.877L277.955,19.848L277.806,19.817L277.657,19.783L277.51,19.746L277.363,19.706L277.218,19.664L277.074,19.619L276.931,19.571L276.789,19.521L276.649,19.468L276.509,19.412L276.372,19.354L276.235,19.293L276.1,19.23L275.966,19.164L275.834,19.096L275.703,19.026L275.573,18.953L275.445,18.878L275.319,18.801L275.194,18.721L275.071,18.639L274.949,18.555L274.829,18.469L274.711,18.38L274.594,18.289L274.479,18.197L274.366,18.102L274.254,18.005L274.145,17.906L274.037,17.805L273.931,17.703L273.827,17.598L273.725,17.491L273.625,17.383L273.526,17.272L273.43,17.16L273.336,17.046L273.244,16.93L273.154,16.813L273.065,16.694L272.98,16.573L272.896,16.45L272.814,16.326L272.735,16.201L272.658,16.073L272.583,15.944L272.51,15.814L272.44,15.682L272.372,15.549L272.306,15.414L272.243,15.278L272.182,15.141L272.124,15.002L272.071,14.87L272.048,14.806L272.029,14.739L272.015,14.672L272.005,14.603L272.001,14.534L272.001,14.465L272.005,14.397L272.015,14.328L272.029,14.261L272.048,14.194L272.071,14.13L272.124,13.998L272.182,13.859L272.243,13.722L272.306,13.586L272.372,13.451L272.44,13.318L272.51,13.186L272.583,13.056L272.658,12.927L272.735,12.799L272.814,12.674L272.896,12.55L272.98,12.427L273.065,12.306L273.154,12.187L273.244,12.07L273.336,11.954L273.43,11.84L273.526,11.728L273.625,11.617L273.725,11.509L273.827,11.402L273.931,11.297L274.037,11.195L274.145,11.094L274.254,10.995L274.366,10.898L274.479,10.803L274.594,10.711L274.711,10.62L274.829,10.531L274.949,10.445L275.071,10.361L275.194,10.279L275.319,10.199L275.445,10.122L275.573,10.047L275.703,9.974L275.834,9.904L275.966,9.836L276.1,9.77L276.235,9.707L276.372,9.646L276.509,9.588L276.649,9.532L276.789,9.479L276.931,9.429L277.074,9.381L277.218,9.336L277.363,9.294L277.51,9.254L277.657,9.217L277.806,9.183L277.955,9.152L278.106,9.123L278.258,9.098L278.41,9.075L278.563,9.055L278.718,9.038L278.873,9.025L279.028,9.014L279.185,9.006L279.342,9.002L279.5,9L279.658,9.002ZM279.362,10.001L279.224,10.005L279.087,10.012L278.951,10.022L278.816,10.034L278.681,10.048L278.547,10.066L278.414,10.085L278.282,10.108L278.151,10.132L278.02,10.16L277.891,10.19L277.762,10.222L277.634,10.256L277.507,10.293L277.382,10.333L277.257,10.374L277.133,10.418L277.011,10.465L276.889,10.513L276.769,10.564L276.649,10.617L276.531,10.672L276.415,10.729L276.299,10.789L276.184,10.85L276.071,10.914L275.959,10.98L275.849,11.047L275.74,11.117L275.632,11.189L275.525,11.262L275.42,11.338L275.317,11.415L275.215,11.495L275.114,11.576L275.015,11.659L274.917,11.744L274.821,11.83L274.727,11.919L274.634,12.009L274.543,12.101L274.453,12.194L274.365,12.289L274.279,12.386L274.195,12.484L274.112,12.584L274.031,12.686L273.952,12.789L273.875,12.893L273.8,12.999L273.726,13.107L273.655,13.215L273.585,13.326L273.517,13.437L273.452,13.55L273.388,13.665L273.326,13.78L273.267,13.897L273.209,14.015L273.154,14.135L273.1,14.255L273.049,14.377L273,14.5L273.049,14.623L273.1,14.745L273.154,14.865L273.209,14.985L273.267,15.103L273.326,15.22L273.388,15.335L273.452,15.45L273.517,15.563L273.585,15.674L273.655,15.785L273.726,15.893L273.8,16.001L273.875,16.107L273.952,16.211L274.031,16.314L274.112,16.416L274.195,16.516L274.279,16.614L274.365,16.711L274.453,16.806L274.543,16.899L274.634,16.991L274.727,17.081L274.821,17.17L274.917,17.256L275.015,17.341L275.114,17.424L275.215,17.505L275.317,17.585L275.42,17.662L275.525,17.738L275.632,17.811L275.74,17.883L275.849,17.953L275.959,18.02L276.071,18.086L276.184,18.15L276.299,18.211L276.415,18.271L276.531,18.328L276.649,18.383L276.769,18.436L276.889,18.487L277.011,18.535L277.133,18.582L277.257,18.626L277.382,18.667L277.507,18.707L277.634,18.744L277.762,18.778L277.891,18.81L278.02,18.84L278.151,18.868L278.282,18.892L278.414,18.915L278.547,18.934L278.681,18.952L278.816,18.966L278.951,18.978L279.087,18.988L279.224,18.995L279.362,18.999L279.5,19L279.638,18.999L279.776,18.995L279.913,18.988L280.049,18.978L280.184,18.966L280.319,18.952L280.453,18.934L280.586,18.915L280.718,18.892L280.849,18.868L280.98,18.84L281.109,18.81L281.238,18.778L281.366,18.744L281.493,18.707L281.618,18.667L281.743,18.626L281.867,18.582L281.989,18.535L282.111,18.487L282.231,18.436L282.351,18.383L282.469,18.328L282.585,18.271L282.701,18.211L282.816,18.15L282.929,18.086L283.041,18.02L283.151,17.953L283.26,17.883L283.368,17.811L283.475,17.738L283.58,17.662L283.683,17.585L283.785,17.505L283.886,17.424L283.985,17.341L284.083,17.256L284.179,17.17L284.273,17.081L284.366,16.991L284.457,16.899L284.547,16.806L284.635,16.711L284.721,16.614L284.805,16.516L284.888,16.416L284.969,16.314L285.048,16.211L285.125,16.107L285.2,16.001L285.274,15.893L285.345,15.785L285.415,15.674L285.483,15.563L285.548,15.45L285.612,15.335L285.674,15.22L285.733,15.103L285.791,14.985L285.846,14.865L285.9,14.745L285.951,14.623L286,14.5L285.951,14.377L285.9,14.255L285.846,14.135L285.791,14.015L285.733,13.897L285.674,13.78L285.612,13.665L285.548,13.55L285.483,13.437L285.415,13.326L285.345,13.215L285.274,13.107L285.2,12.999L285.125,12.893L285.048,12.789L284.969,12.686L284.888,12.584L284.805,12.484L284.721,12.386L284.635,12.289L284.547,12.194L284.457,12.101L284.366,12.009L284.273,11.919L284.179,11.83L284.083,11.744L283.985,11.659L283.886,11.576L283.785,11.495L283.683,11.415L283.58,11.338L283.475,11.262L283.368,11.189L283.26,11.117L283.151,11.047L283.041,10.98L282.929,10.914L282.816,10.85L282.701,10.789L282.585,10.729L282.469,10.672L282.351,10.617L282.231,10.564L282.111,10.513L281.989,10.465L281.867,10.418L281.743,10.374L281.618,10.333L281.493,10.293L281.366,10.256L281.238,10.222L281.109,10.19L280.98,10.16L280.849,10.132L280.718,10.108L280.586,10.085L280.453,10.066L280.319,10.048L280.184,10.034L280.049,10.022L279.913,10.012L279.776,10.005L279.638,10.001L279.5,10L279.362,10.001ZM279.566,11.515L279.642,11.517L279.719,11.522L279.794,11.529L279.869,11.538L279.944,11.548L280.018,11.56L280.091,11.574L280.164,11.59L280.236,11.608L280.308,11.627L280.378,11.648L280.448,11.671L280.517,11.695L280.586,11.721L280.653,11.748L280.72,11.778L280.786,11.808L280.851,11.841L280.915,11.874L280.978,11.909L281.04,11.946L281.101,11.984L281.162,12.024L281.221,12.065L281.279,12.107L281.336,12.151L281.392,12.196L281.447,12.242L281.501,12.29L281.553,12.339L281.605,12.389L281.655,12.44L281.704,12.492L281.751,12.546L281.798,12.601L281.843,12.657L281.887,12.714L281.929,12.772L281.97,12.831L282.01,12.891L282.048,12.952L282.085,13.014L282.12,13.077L282.154,13.141L282.186,13.206L282.217,13.271L282.246,13.338L282.274,13.405L282.3,13.474L282.324,13.543L282.347,13.612L282.368,13.683L282.387,13.754L282.405,13.826L282.421,13.898L282.435,13.972L282.447,14.045L282.458,14.12L282.466,14.195L282.473,14.27L282.478,14.346L282.481,14.423L282.482,14.5L282.481,14.577L282.478,14.654L282.473,14.73L282.466,14.805L282.458,14.88L282.447,14.955L282.435,15.028L282.421,15.102L282.405,15.174L282.387,15.246L282.368,15.317L282.347,15.388L282.324,15.457L282.3,15.526L282.274,15.595L282.246,15.662L282.217,15.729L282.186,15.794L282.154,15.859L282.12,15.923L282.085,15.986L282.048,16.048L282.01,16.109L281.97,16.169L281.929,16.228L281.887,16.286L281.843,16.343L281.798,16.399L281.751,16.454L281.704,16.508L281.655,16.56L281.605,16.611L281.553,16.661L281.501,16.71L281.447,16.758L281.392,16.804L281.336,16.849L281.279,16.893L281.221,16.935L281.162,16.976L281.101,17.016L281.04,17.054L280.978,17.091L280.915,17.126L280.851,17.159L280.786,17.192L280.72,17.222L280.653,17.252L280.586,17.279L280.517,17.305L280.448,17.329L280.378,17.352L280.308,17.373L280.236,17.392L280.164,17.41L280.091,17.426L280.018,17.44L279.944,17.452L279.869,17.462L279.794,17.471L279.719,17.478L279.642,17.483L279.566,17.485L279.488,17.486L279.411,17.485L279.335,17.483L279.258,17.478L279.183,17.471L279.107,17.462L279.033,17.452L278.959,17.44L278.886,17.426L278.813,17.41L278.741,17.392L278.669,17.373L278.599,17.352L278.529,17.329L278.46,17.305L278.391,17.279L278.324,17.252L278.257,17.222L278.191,17.192L278.126,17.159L278.062,17.126L277.999,17.091L277.937,17.054L277.876,17.016L277.815,16.976L277.756,16.935L277.698,16.893L277.641,16.849L277.585,16.804L277.53,16.758L277.476,16.71L277.424,16.661L277.372,16.611L277.322,16.56L277.273,16.508L277.225,16.454L277.179,16.399L277.134,16.343L277.09,16.286L277.048,16.228L277.007,16.169L276.967,16.109L276.929,16.048L276.892,15.986L276.857,15.923L276.823,15.859L276.791,15.794L276.76,15.729L276.731,15.662L276.703,15.595L276.677,15.526L276.653,15.457L276.63,15.388L276.609,15.317L276.589,15.246L276.572,15.174L276.556,15.102L276.542,15.028L276.53,14.955L276.519,14.88L276.511,14.805L276.504,14.73L276.499,14.654L276.496,14.577L276.495,14.5L276.496,14.423L276.499,14.346L276.504,14.27L276.511,14.195L276.519,14.12L276.53,14.045L276.542,13.972L276.556,13.898L276.572,13.826L276.589,13.754L276.609,13.683L276.63,13.612L276.653,13.543L276.677,13.474L276.703,13.405L276.731,13.338L276.76,13.271L276.791,13.206L276.823,13.141L276.857,13.077L276.892,13.014L276.929,12.952L276.967,12.891L277.007,12.831L277.048,12.772L277.09,12.714L277.134,12.657L277.179,12.601L277.225,12.546L277.273,12.492L277.322,12.44L277.372,12.389L277.424,12.339L277.476,12.29L277.53,12.242L277.585,12.196L277.641,12.151L277.698,12.107L277.756,12.065L277.815,12.024L277.876,11.984L277.937,11.946L277.999,11.909L278.062,11.874L278.126,11.841L278.191,11.808L278.257,11.778L278.324,11.748L278.391,11.721L278.46,11.695L278.529,11.671L278.599,11.648L278.669,11.627L278.741,11.608L278.813,11.59L278.886,11.574L278.959,11.56L279.033,11.548L279.107,11.538L279.183,11.529L279.258,11.522L279.335,11.517L279.411,11.515L279.488,11.514L279.566,11.515ZM279.437,12.514L279.385,12.516L279.334,12.52L279.284,12.524L279.233,12.53L279.184,12.537L279.135,12.545L279.086,12.554L279.037,12.565L278.99,12.576L278.942,12.589L278.895,12.603L278.849,12.618L278.803,12.634L278.758,12.651L278.713,12.67L278.669,12.689L278.625,12.71L278.582,12.731L278.539,12.753L278.497,12.777L278.455,12.801L278.415,12.827L278.374,12.853L278.335,12.88L278.296,12.909L278.258,12.938L278.221,12.968L278.184,12.999L278.148,13.031L278.113,13.063L278.079,13.097L278.045,13.131L278.012,13.166L277.981,13.202L277.95,13.238L277.919,13.276L277.89,13.314L277.862,13.352L277.835,13.392L277.808,13.432L277.783,13.472L277.758,13.514L277.735,13.555L277.712,13.598L277.691,13.641L277.671,13.684L277.651,13.729L277.633,13.773L277.616,13.818L277.6,13.864L277.585,13.91L277.571,13.957L277.558,14.004L277.546,14.052L277.536,14.1L277.526,14.148L277.518,14.197L277.511,14.246L277.506,14.296L277.501,14.346L277.498,14.397L277.496,14.448L277.495,14.5L277.496,14.552L277.498,14.603L277.501,14.654L277.506,14.704L277.511,14.754L277.518,14.803L277.526,14.852L277.536,14.9L277.546,14.948L277.558,14.996L277.571,15.043L277.585,15.09L277.6,15.136L277.616,15.182L277.633,15.227L277.651,15.271L277.671,15.316L277.691,15.359L277.712,15.402L277.735,15.445L277.758,15.486L277.783,15.528L277.808,15.568L277.835,15.608L277.862,15.648L277.89,15.686L277.919,15.724L277.95,15.762L277.981,15.798L278.012,15.834L278.045,15.869L278.079,15.903L278.113,15.937L278.148,15.969L278.184,16.001L278.221,16.032L278.258,16.062L278.296,16.091L278.335,16.12L278.374,16.147L278.415,16.173L278.455,16.199L278.497,16.223L278.539,16.247L278.582,16.269L278.625,16.29L278.669,16.311L278.713,16.33L278.758,16.349L278.803,16.366L278.849,16.382L278.895,16.397L278.942,16.411L278.99,16.424L279.037,16.435L279.086,16.446L279.135,16.455L279.184,16.463L279.233,16.47L279.284,16.476L279.334,16.48L279.385,16.484L279.437,16.486L279.488,16.486L279.54,16.486L279.592,16.484L279.643,16.48L279.693,16.476L279.744,16.47L279.793,16.463L279.842,16.455L279.891,16.446L279.939,16.435L279.987,16.424L280.035,16.411L280.082,16.397L280.128,16.382L280.174,16.366L280.219,16.349L280.264,16.33L280.308,16.311L280.352,16.29L280.395,16.269L280.438,16.247L280.48,16.223L280.522,16.199L280.562,16.173L280.602,16.147L280.642,16.12L280.681,16.091L280.719,16.062L280.756,16.032L280.793,16.001L280.829,15.969L280.864,15.937L280.898,15.903L280.932,15.869L280.965,15.834L280.996,15.798L281.027,15.762L281.057,15.724L281.087,15.686L281.115,15.648L281.142,15.608L281.169,15.568L281.194,15.528L281.219,15.486L281.242,15.445L281.265,15.402L281.286,15.359L281.306,15.316L281.326,15.271L281.344,15.227L281.361,15.182L281.377,15.136L281.392,15.09L281.406,15.043L281.419,14.996L281.431,14.948L281.441,14.9L281.451,14.852L281.459,14.803L281.466,14.754L281.471,14.704L281.476,14.654L281.479,14.603L281.481,14.552L281.482,14.5L281.481,14.448L281.479,14.397L281.476,14.346L281.471,14.296L281.466,14.246L281.459,14.197L281.451,14.148L281.441,14.1L281.431,14.052L281.419,14.004L281.406,13.957L281.392,13.91L281.377,13.864L281.361,13.818L281.344,13.773L281.326,13.729L281.306,13.684L281.286,13.641L281.265,13.598L281.242,13.555L281.219,13.514L281.194,13.472L281.169,13.432L281.142,13.392L281.115,13.352L281.087,13.314L281.057,13.276L281.027,13.238L280.996,13.202L280.965,13.166L280.932,13.131L280.898,13.097L280.864,13.063L280.829,13.031L280.793,12.999L280.756,12.968L280.719,12.938L280.681,12.909L280.642,12.88L280.602,12.853L280.562,12.827L280.522,12.801L280.48,12.777L280.438,12.753L280.395,12.731L280.352,12.709L280.308,12.689L280.264,12.67L280.219,12.651L280.174,12.634L280.128,12.618L280.082,12.603L280.035,12.589L279.987,12.576L279.939,12.565L279.891,12.554L279.842,12.545L279.793,12.537L279.744,12.53L279.693,12.524L279.643,12.52L279.592,12.516L279.54,12.514L279.488,12.514L279.437,12.514Z" style="fill:rgb(34,34,34);"/>
                </g>
                <g transform="matrix(1.94588,0,0,1.94588,-329.501,-14.2693)">
                    <path d="M175.56,11.178L175.619,11.181L175.678,11.184L175.736,11.19L175.795,11.196L175.853,11.204L175.91,11.214L175.967,11.225L176.024,11.237L176.08,11.251L176.135,11.266L176.19,11.282L176.245,11.3L176.298,11.319L176.352,11.339L176.404,11.361L176.456,11.383L176.507,11.407L176.558,11.432L176.607,11.459L176.656,11.486L176.705,11.515L176.752,11.544L176.799,11.575L176.845,11.607L176.89,11.64L176.934,11.674L176.977,11.709L177.02,11.744L177.061,11.781L177.102,11.819L177.142,11.858L177.181,11.898L177.219,11.939L177.256,11.98L177.291,12.023L177.326,12.066L177.36,12.11L177.393,12.155L177.425,12.201L177.456,12.248L177.485,12.295L177.514,12.344L177.541,12.393L177.568,12.442L177.593,12.493L177.617,12.544L177.639,12.596L177.661,12.648L177.681,12.702L177.7,12.755L177.718,12.81L177.734,12.865L177.749,12.92L177.763,12.976L177.775,13.033L177.786,13.09L177.796,13.147L177.804,13.205L177.81,13.264L177.816,13.322L177.819,13.381L177.822,13.44L177.822,13.5L177.822,13.56L177.819,13.619L177.816,13.678L177.81,13.736L177.804,13.795L177.796,13.853L177.786,13.91L177.775,13.967L177.763,14.024L177.749,14.08L177.734,14.135L177.718,14.19L177.7,14.245L177.681,14.298L177.661,14.352L177.639,14.404L177.617,14.456L177.593,14.507L177.568,14.558L177.541,14.607L177.514,14.656L177.485,14.705L177.456,14.752L177.425,14.799L177.393,14.845L177.36,14.89L177.326,14.934L177.291,14.977L177.256,15.02L177.219,15.061L177.181,15.102L177.142,15.142L177.102,15.181L177.061,15.219L177.02,15.256L176.977,15.291L176.934,15.326L176.89,15.36L176.845,15.393L176.799,15.425L176.752,15.456L176.705,15.485L176.656,15.514L176.607,15.541L176.558,15.568L176.507,15.593L176.456,15.617L176.404,15.639L176.352,15.661L176.298,15.681L176.245,15.7L176.19,15.718L176.135,15.734L176.08,15.749L176.024,15.763L175.967,15.775L175.91,15.786L175.853,15.796L175.795,15.804L175.736,15.81L175.678,15.816L175.619,15.819L175.56,15.822L175.5,15.822L175.44,15.822L175.381,15.819L175.322,15.816L175.264,15.81L175.205,15.804L175.147,15.796L175.09,15.786L175.033,15.775L174.976,15.763L174.92,15.749L174.865,15.734L174.81,15.718L174.755,15.7L174.702,15.681L174.648,15.661L174.596,15.639L174.544,15.617L174.493,15.593L174.442,15.568L174.393,15.541L174.344,15.514L174.295,15.485L174.248,15.456L174.201,15.425L174.155,15.393L174.11,15.36L174.066,15.326L174.023,15.291L173.98,15.256L173.939,15.219L173.898,15.181L173.858,15.142L173.819,15.102L173.781,15.061L173.744,15.02L173.709,14.977L173.674,14.934L173.64,14.89L173.607,14.845L173.575,14.799L173.544,14.752L173.515,14.705L173.486,14.656L173.459,14.607L173.432,14.558L173.407,14.507L173.383,14.456L173.361,14.404L173.339,14.352L173.319,14.298L173.3,14.245L173.282,14.19L173.266,14.135L173.251,14.08L173.237,14.024L173.225,13.967L173.214,13.91L173.204,13.853L173.196,13.795L173.19,13.736L173.184,13.678L173.181,13.619L173.178,13.56L173.178,13.5L173.178,13.44L173.181,13.381L173.184,13.322L173.19,13.264L173.196,13.205L173.204,13.147L173.214,13.09L173.225,13.033L173.237,12.976L173.251,12.92L173.266,12.865L173.282,12.81L173.3,12.755L173.319,12.702L173.339,12.648L173.361,12.596L173.383,12.544L173.407,12.493L173.432,12.442L173.459,12.393L173.486,12.344L173.515,12.295L173.544,12.248L173.575,12.201L173.607,12.155L173.64,12.11L173.674,12.066L173.709,12.023L173.744,11.98L173.781,11.939L173.819,11.898L173.858,11.858L173.898,11.819L173.939,11.781L173.98,11.744L174.023,11.709L174.066,11.674L174.11,11.64L174.155,11.607L174.201,11.575L174.248,11.544L174.295,11.515L174.344,11.486L174.393,11.459L174.442,11.432L174.493,11.407L174.544,11.383L174.596,11.361L174.648,11.339L174.702,11.319L174.755,11.3L174.81,11.282L174.865,11.266L174.92,11.251L174.976,11.237L175.033,11.225L175.09,11.214L175.147,11.204L175.205,11.196L175.264,11.19L175.322,11.184L175.381,11.181L175.441,11.178L175.5,11.178L175.56,11.178ZM175.461,12L175.423,12.002L175.385,12.004L175.347,12.008L175.309,12.012L175.272,12.017L175.235,12.023L175.198,12.03L175.161,12.038L175.125,12.047L175.09,12.057L175.054,12.067L175.019,12.079L174.984,12.091L174.95,12.104L174.916,12.118L174.883,12.133L174.85,12.148L174.817,12.164L174.785,12.181L174.754,12.199L174.722,12.217L174.692,12.236L174.662,12.256L174.632,12.277L174.603,12.298L174.574,12.32L174.546,12.343L174.519,12.366L174.492,12.39L174.465,12.414L174.44,12.44L174.414,12.465L174.39,12.492L174.366,12.519L174.343,12.546L174.32,12.574L174.298,12.603L174.277,12.632L174.256,12.662L174.236,12.692L174.217,12.722L174.199,12.754L174.181,12.785L174.164,12.817L174.148,12.85L174.133,12.883L174.118,12.916L174.104,12.95L174.091,12.984L174.079,13.019L174.067,13.054L174.057,13.09L174.047,13.125L174.038,13.161L174.03,13.198L174.023,13.235L174.017,13.272L174.012,13.309L174.008,13.347L174.004,13.385L174.002,13.423L174,13.461L174,13.5L174,13.539L174.002,13.577L174.004,13.615L174.008,13.653L174.012,13.691L174.017,13.728L174.023,13.765L174.03,13.802L174.038,13.839L174.047,13.875L174.057,13.91L174.067,13.946L174.079,13.981L174.091,14.016L174.104,14.05L174.118,14.084L174.133,14.117L174.148,14.15L174.164,14.183L174.181,14.215L174.199,14.246L174.217,14.278L174.236,14.308L174.256,14.338L174.277,14.368L174.298,14.397L174.32,14.426L174.343,14.454L174.366,14.481L174.39,14.508L174.414,14.535L174.44,14.56L174.465,14.586L174.492,14.61L174.519,14.634L174.546,14.657L174.574,14.68L174.603,14.702L174.632,14.723L174.662,14.744L174.692,14.764L174.722,14.783L174.754,14.801L174.785,14.819L174.817,14.836L174.85,14.852L174.883,14.867L174.916,14.882L174.95,14.896L174.984,14.909L175.019,14.921L175.054,14.933L175.09,14.943L175.125,14.953L175.161,14.962L175.198,14.97L175.235,14.977L175.272,14.983L175.309,14.988L175.347,14.992L175.385,14.996L175.423,14.998L175.461,15L175.5,15L175.539,15L175.577,14.998L175.615,14.996L175.653,14.992L175.691,14.988L175.728,14.983L175.765,14.977L175.802,14.97L175.839,14.962L175.875,14.953L175.91,14.943L175.946,14.933L175.981,14.921L176.016,14.909L176.05,14.896L176.084,14.882L176.117,14.867L176.15,14.852L176.183,14.836L176.215,14.819L176.246,14.801L176.278,14.783L176.308,14.764L176.338,14.744L176.368,14.723L176.397,14.702L176.426,14.68L176.454,14.657L176.481,14.634L176.508,14.61L176.535,14.586L176.56,14.56L176.586,14.535L176.61,14.508L176.634,14.481L176.657,14.454L176.68,14.426L176.702,14.397L176.723,14.368L176.744,14.338L176.764,14.308L176.783,14.278L176.801,14.246L176.819,14.215L176.836,14.183L176.852,14.15L176.867,14.117L176.882,14.084L176.896,14.05L176.909,14.016L176.921,13.981L176.933,13.946L176.943,13.91L176.953,13.875L176.962,13.839L176.97,13.802L176.977,13.765L176.983,13.728L176.988,13.691L176.992,13.653L176.996,13.615L176.998,13.577L177,13.539L177,13.5L177,13.461L176.998,13.423L176.996,13.385L176.992,13.347L176.988,13.309L176.983,13.272L176.977,13.235L176.97,13.198L176.962,13.161L176.953,13.125L176.943,13.09L176.933,13.054L176.921,13.019L176.909,12.984L176.896,12.95L176.882,12.916L176.867,12.883L176.852,12.85L176.836,12.817L176.819,12.785L176.801,12.754L176.783,12.722L176.764,12.692L176.744,12.662L176.723,12.632L176.702,12.603L176.68,12.574L176.657,12.546L176.634,12.519L176.61,12.492L176.586,12.465L176.56,12.44L176.535,12.414L176.508,12.39L176.481,12.366L176.454,12.343L176.426,12.32L176.397,12.298L176.368,12.277L176.338,12.256L176.308,12.236L176.278,12.217L176.246,12.199L176.215,12.181L176.183,12.164L176.15,12.148L176.117,12.133L176.084,12.118L176.05,12.104L176.016,12.091L175.981,12.079L175.946,12.067L175.91,12.057L175.875,12.047L175.839,12.038L175.802,12.03L175.765,12.023L175.728,12.017L175.691,12.012L175.653,12.008L175.615,12.004L175.577,12.002L175.539,12L175.5,12L175.461,12Z" style="fill:rgb(34,34,34);"/>
                    <circle cx="175.5" cy="13.5" r="1.5" style="fill:white;"/>
                </g>
                <g transform="matrix(2.76801,1.12995e-16,-1.12995e-16,-1.84534,-488.882,57.9522)">
                    <path d="M186.021,21.866L186.043,21.865L186.064,21.862L186.085,21.858L186.106,21.852L186.127,21.846L186.148,21.838L186.168,21.83L186.188,21.82L186.209,21.809L186.228,21.797L186.248,21.783L186.267,21.769L186.286,21.754L186.304,21.738L186.322,21.72L186.339,21.702L186.356,21.683L186.373,21.662L186.389,21.641L186.404,21.619L186.419,21.597L186.434,21.573L186.448,21.549L186.461,21.523L186.473,21.498L186.485,21.471L186.497,21.444L186.507,21.416L186.517,21.388L186.526,21.359L186.535,21.33L186.542,21.3L186.549,21.269L186.556,21.239L186.561,21.208L186.566,21.177L186.57,21.145L186.573,21.114L186.575,21.082L186.577,21.05L186.578,21.018L186.578,20.986L186.577,20.954L186.576,20.922L186.573,20.89L186.57,20.859L186.566,20.827L186.562,20.796L186.556,20.765L186.55,20.734L186.543,20.704L186.536,20.674L186.527,20.645L186.518,20.616L186.508,20.587L186.498,20.56L186.487,20.532L186.475,20.506L186.462,20.48L185.462,18.48L185.449,18.454L185.435,18.43L185.421,18.406L185.406,18.383L185.391,18.361L185.374,18.34L185.358,18.319L185.341,18.3L185.323,18.281L185.305,18.264L185.287,18.247L185.268,18.232L185.249,18.217L185.229,18.204L185.21,18.192L185.189,18.181L185.169,18.171L185.148,18.162L185.128,18.154L185.107,18.148L185.085,18.142L185.064,18.138L185.043,18.135L185.021,18.134L185,18.133L184.979,18.134L184.957,18.135L184.936,18.138L184.915,18.142L184.893,18.148L184.872,18.154L184.852,18.162L184.831,18.171L184.811,18.181L184.79,18.192L184.771,18.204L184.751,18.217L184.732,18.232L184.713,18.247L184.695,18.264L184.677,18.281L184.659,18.3L184.642,18.319L184.626,18.34L184.609,18.361L184.594,18.383L184.579,18.406L184.565,18.43L184.551,18.454L184.538,18.48L183.538,20.48L183.525,20.506L183.513,20.532L183.502,20.56L183.492,20.587L183.482,20.616L183.473,20.645L183.464,20.674L183.457,20.704L183.45,20.734L183.444,20.765L183.438,20.796L183.434,20.827L183.43,20.859L183.427,20.89L183.424,20.922L183.423,20.954L183.422,20.986L183.422,21.018L183.423,21.05L183.425,21.082L183.427,21.114L183.43,21.145L183.434,21.177L183.439,21.208L183.444,21.239L183.451,21.269L183.458,21.3L183.465,21.33L183.474,21.359L183.483,21.388L183.493,21.416L183.503,21.444L183.515,21.471L183.527,21.498L183.539,21.523L183.552,21.549L183.566,21.573L183.581,21.597L183.596,21.619L183.611,21.641L183.627,21.662L183.644,21.683L183.661,21.702L183.678,21.72L183.696,21.738L183.714,21.754L183.733,21.769L183.752,21.783L183.772,21.797L183.791,21.809L183.812,21.82L183.832,21.83L183.852,21.838L183.873,21.846L183.894,21.852L183.915,21.858L183.936,21.862L183.957,21.865L183.979,21.866L184,21.867L186,21.867L186.021,21.866ZM184,21L185,19L186,21L184,21Z" style="fill:rgb(34,34,34);"/>
                    <path d="M185,19L186,21L184,21L185,19Z" style="fill:white;"/>
                </g>
            </g>
        </g>
    </g>
</svg>
