<?xml version="1.0" encoding="UTF-8" standalone="no"?>
<!DOCTYPE svg PUBLIC "-//W3C//DTD SVG 1.1//EN" "http://www.w3.org/Graphics/SVG/1.1/DTD/svg11.dtd">
<svg width="100%" height="100%" viewBox="0 0 12 13" version="1.1" xmlns="http://www.w3.org/2000/svg" xmlns:xlink="http://www.w3.org/1999/xlink" xml:space="preserve" xmlns:serif="http://www.serif.com/" style="fill-rule:evenodd;clip-rule:evenodd;stroke-linejoin:round;stroke-miterlimit:1.41421;">
    <g transform="matrix(1,0,0,1,-50,-74)">
        <g transform="matrix(0.176471,0,0,2.06767,1.58824,14.4737)">
            <g transform="matrix(-5.66667,0,0,0.483636,9890.67,-566.567)">
                <g id="ExpandableNode_ExpandPartial">
                    <g id="Arrow-Open-More" serif:id="Arrow Open More">
                        <g transform="matrix(0.923077,0,0,1.18182,126.846,-223.818)">
                            <rect x="1688" y="1231" width="13" height="11" style="fill:none;"/>
                        </g>
                        <g transform="matrix(1.36545,0,0,1.72857,-1764.38,-424.43)">
                            <path d="M2527.61,958.417C2527.16,958.118 2526.16,958.261 2526.19,958.851L2526.19,963.834C2526.19,964.281 2526.58,964.58 2527.13,964.636L2533.28,964.636C2534.57,964.631 2534.49,963.966 2534.09,963.619L2527.61,958.417Z" style="fill:rgb(43,43,43);"/>
                        </g>
                        <g transform="matrix(1.33262e-16,1.375,-1.78873,1.59175e-16,3905.87,-1092.75)">
                            <path d="M1698,1236L1697.16,1236.65L1691.45,1241.03L1698,1241.03L1698,1236Z" style="fill:rgb(145,131,88);"/>
                            <path d="M1698,1241.03L1698,1236L1697.16,1236.65L1691.45,1241.03L1698,1241.03ZM1697.27,1237.35L1697.27,1240.47L1693.21,1240.47L1697.27,1237.35Z" style="fill:rgb(242,222,112);"/>
                        </g>
                    </g>
                </g>
            </g>
        </g>
    </g>
</svg>
