<?xml version="1.0" encoding="UTF-8" standalone="no"?><!DOCTYPE svg PUBLIC "-//W3C//DTD SVG 1.1//EN" "http://www.w3.org/Graphics/SVG/1.1/DTD/svg11.dtd"><svg width="100%" height="100%" viewBox="0 0 7 21" version="1.1" xmlns="http://www.w3.org/2000/svg" xmlns:xlink="http://www.w3.org/1999/xlink" xml:space="preserve" xmlns:serif="http://www.serif.com/" style="fill-rule:evenodd;clip-rule:evenodd;stroke-linejoin:round;stroke-miterlimit:1.41421;"><g id="State_nor_21px"><path d="M7,2.24c0,-1.236 -1.004,-2.24 -2.24,-2.24l-2.52,0c-1.236,0 -2.24,1.004 -2.24,2.24l0,16.52c0,1.236 1.004,2.24 2.24,2.24l2.52,0c1.236,0 2.24,-1.004 2.24,-2.24l0,-16.52Z" style="fill:#464646;"/><path d="M6,2.55c0,-0.855 -0.695,-1.55 -1.55,-1.55l-1.85,0c-0.883,0 -1.6,0.717 -1.6,1.6l0,7.4l5,0l0,-7.45Z" style="fill:#d88c45;"/><path d="M6,10l-5,0l0,8c0,1.104 0.896,2 2,2l1,0c1.104,0 2,-0.896 2,-2l0,-8Z" style="fill:#0da6fc;"/><rect x="2" y="4" width="3.001" height="1" style="fill:#fff;fill-opacity:0.1;"/><rect x="2" y="10" width="3.001" height="1" style="fill:#fff;fill-opacity:0.1;"/><rect x="2" y="16" width="3.001" height="1" style="fill:#fff;fill-opacity:0.1;"/><g><rect x="2" y="9" width="3" height="1"/></g><g><rect x="2" y="3" width="3" height="1"/></g><g><rect x="2" y="15" width="3" height="1"/></g></g></svg>