<?xml version="1.0" encoding="UTF-8" standalone="no"?>
<!DOCTYPE svg PUBLIC "-//W3C//DTD SVG 1.1//EN" "http://www.w3.org/Graphics/SVG/1.1/DTD/svg11.dtd">
<svg width="100%" height="100%" viewBox="0 0 20 20" version="1.1" xmlns="http://www.w3.org/2000/svg" xmlns:xlink="http://www.w3.org/1999/xlink" xml:space="preserve" xmlns:serif="http://www.serif.com/" style="fill-rule:evenodd;clip-rule:evenodd;stroke-linejoin:round;stroke-miterlimit:2;">
    <g transform="matrix(1,0,0,1,-275,-44)">
        <g transform="matrix(1,0,0,1,227,40)">
            <g id="General_SmallAddWithDots_Pressed">
                <g id="Plus">
                    <g id="General_AddWithTriangle_Normal">
                        <g id="Transparent-BG" serif:id="Transparent BG" transform="matrix(1,0,0,1,48,4)">
                            <rect x="0" y="0" width="20" height="20" style="fill:white;fill-opacity:0;"/>
                        </g>
                        <g transform="matrix(1,0,0,1,-72,-234)">
                            <path d="M124,247L128,247L128,243L130,243L130,247L134,247L134,249L130,249L130,253L128,253L128,249L124,249L124,247Z" style="fill:white;"/>
                            <path d="M127,246L127,243C127,242.448 127.448,242 128,242L130,242C130.552,242 131,242.448 131,243L131,246L134,246C134.552,246 135,246.448 135,247L135,249C135,249.552 134.552,250 134,250L131,250L131,253C131,253.552 130.552,254 130,254L128,254C127.448,254 127,253.552 127,253L127,250L124,250C123.448,250 123,249.552 123,249L123,247C123,246.448 123.448,246 124,246L127,246ZM124,247L128,247L128,243L130,243L130,247L134,247L134,249L130,249L130,253L128,253L128,249L124,249L124,247Z" style="fill:rgb(34,34,34);"/>
                        </g>
                        <g transform="matrix(1,0,0,1,-1649,-130)">
                            <path d="M1711,150C1711,149.448 1710.55,149 1710,149L1709,149C1708.45,149 1708,149.448 1708,150L1708,151C1708,151.552 1708.45,152 1709,152L1710,152C1710.55,152 1711,151.552 1711,151L1711,150ZM1710,150L1709,150L1709,151L1710,151L1710,150Z" style="fill:rgb(34,34,34);"/>
                            <rect x="1709" y="150" width="1" height="1" style="fill:white;"/>
                        </g>
                        <g transform="matrix(1,0,0,1,-1647,-130)">
                            <path d="M1711,150C1711,149.448 1710.55,149 1710,149L1709,149C1708.45,149 1708,149.448 1708,150L1708,151C1708,151.552 1708.45,152 1709,152L1710,152C1710.55,152 1711,151.552 1711,151L1711,150ZM1710,150L1709,150L1709,151L1710,151L1710,150Z" style="fill:rgb(34,34,34);"/>
                            <rect x="1709" y="150" width="1" height="1" style="fill:white;"/>
                        </g>
                        <g transform="matrix(1,0,0,1,-1645,-130)">
                            <path d="M1711,150C1711,149.448 1710.55,149 1710,149L1709,149C1708.45,149 1708,149.448 1708,150L1708,151C1708,151.552 1708.45,152 1709,152L1710,152C1710.55,152 1711,151.552 1711,151L1711,150ZM1710,150L1709,150L1709,151L1710,151L1710,150Z" style="fill:rgb(34,34,34);"/>
                            <rect x="1709" y="150" width="1" height="1" style="fill:white;"/>
                        </g>
                    </g>
                </g>
            </g>
        </g>
    </g>
</svg>
