<?xml version="1.0" encoding="UTF-8" standalone="no"?>
<!DOCTYPE svg PUBLIC "-//W3C//DTD SVG 1.1//EN" "http://www.w3.org/Graphics/SVG/1.1/DTD/svg11.dtd">
<svg width="100%" height="100%" viewBox="0 0 19 19" version="1.1" xmlns="http://www.w3.org/2000/svg" xmlns:xlink="http://www.w3.org/1999/xlink" xml:space="preserve" xmlns:serif="http://www.serif.com/" style="fill-rule:evenodd;clip-rule:evenodd;stroke-linejoin:round;stroke-miterlimit:2;">
    <g transform="matrix(1,0,0,1,-36,-30)">
        <g transform="matrix(1.63235,0,0,1.96875,3.26471,3.9375)">
            <g id="Visibility_Eye_Off" transform="matrix(0.612613,0,0,0.507937,-9.35135,10.6984)">
                <g opacity="0.25">
                    <g id="Transparent-BG" serif:id="Transparent BG" transform="matrix(0.95,0,0,0.95,48,5)">
                        <rect x="0" y="0" width="20" height="20" style="fill:white;fill-opacity:0;"/>
                    </g>
                    <g id="Eye" transform="matrix(0.625,0,0,0.625,50,7)">
                        <rect x="0" y="0" width="24" height="24" style="fill:none;fill-rule:nonzero;"/>
                    </g>
                    <g transform="matrix(1,0,0,1,12,-27)">
                        <g id="Unlink-Checked" serif:id="Unlink Checked">
                            <path d="M41.766,38.1L39.042,35.376L40.292,34.127L52.916,46.75L51.666,48L48.816,45.15C47.83,45.692 46.7,46 45.5,46C42.545,46 40.022,44.134 39,41.5C39.547,40.091 40.523,38.901 41.766,38.1ZM43.219,39.553C42.768,40.076 42.495,40.757 42.495,41.5C42.495,43.148 43.836,44.486 45.488,44.486C46.231,44.486 46.911,44.216 47.434,43.768L46.612,42.946C46.304,43.183 45.918,43.324 45.5,43.324C44.493,43.324 43.676,42.507 43.676,41.5C43.676,41.082 43.817,40.696 44.054,40.388L43.219,39.553ZM45.281,37.003C45.354,37.001 45.427,37 45.5,37C48.455,37 50.978,38.866 52,41.5C51.799,42.017 51.541,42.505 51.232,42.954L45.281,37.003Z" style="fill:rgb(37,37,37);"/>
                            <path d="M40.251,37.999L38.335,36.083C37.945,35.693 37.945,35.06 38.335,34.669L39.585,33.42C39.975,33.029 40.608,33.029 40.999,33.42L44.318,36.738C44.327,36.704 44.338,36.669 44.351,36.635C44.498,36.265 44.851,36.017 45.25,36.004C45.333,36.001 45.416,36 45.5,36C48.877,36 51.764,38.128 52.932,41.138C53.023,41.371 53.023,41.629 52.932,41.862C52.703,42.452 52.408,43.008 52.057,43.52C51.922,43.716 51.724,43.856 51.498,43.918L53.623,46.043C54.013,46.434 54.013,47.067 53.623,47.457L52.373,48.707C51.983,49.098 51.349,49.098 50.959,48.707L48.612,46.361C47.656,46.772 46.604,47 45.5,47C42.123,47 39.236,44.872 38.068,41.862C37.977,41.629 37.977,41.371 38.068,41.138C38.541,39.92 39.295,38.845 40.251,37.999ZM41.766,38.1L39.042,35.376L40.292,34.127L52.916,46.75L51.666,48L48.816,45.15C47.83,45.692 46.7,46 45.5,46C42.545,46 40.022,44.134 39,41.5C39.547,40.091 40.523,38.901 41.766,38.1ZM43.219,39.553C42.768,40.076 42.495,40.757 42.495,41.5C42.495,43.148 43.836,44.486 45.488,44.486C46.231,44.486 46.911,44.216 47.434,43.768L46.612,42.946C46.304,43.183 45.918,43.324 45.5,43.324C44.493,43.324 43.676,42.507 43.676,41.5C43.676,41.082 43.817,40.696 44.054,40.388L43.219,39.553ZM45.281,37.003C45.354,37.001 45.427,37 45.5,37C48.455,37 50.978,38.866 52,41.5C51.799,42.017 51.541,42.505 51.232,42.954L45.281,37.003Z" style="fill:rgb(205,205,205);"/>
                        </g>
                    </g>
                </g>
            </g>
        </g>
    </g>
</svg>
