<?xml version="1.0" encoding="UTF-8" standalone="no"?>
<!DOCTYPE svg PUBLIC "-//W3C//DTD SVG 1.1//EN" "http://www.w3.org/Graphics/SVG/1.1/DTD/svg11.dtd">
<svg width="100%" height="100%" viewBox="0 0 19 19" version="1.1" xmlns="http://www.w3.org/2000/svg" xmlns:xlink="http://www.w3.org/1999/xlink" xml:space="preserve" xmlns:serif="http://www.serif.com/" style="fill-rule:evenodd;clip-rule:evenodd;stroke-linejoin:round;stroke-miterlimit:2;">
    <g transform="matrix(1,0,0,1,-81,-4)">
        <g id="Filter_GameObjects_Pressed" transform="matrix(1,0,0,1,82,4)">
            <g>
                <g id="Transparent-BG" serif:id="Transparent BG" transform="matrix(0.95,0,0,0.95,-1,-1.13687e-13)">
                    <rect x="0" y="0" width="20" height="20" style="fill:white;fill-opacity:0;"/>
                </g>
                <g transform="matrix(0.692308,0,0,0.692308,-568.923,180.077)">
                    <clipPath id="_clip1">
                        <path d="M846.333,-232.667L846.333,-254.333C846.333,-254.333 838.851,-253.501 838.795,-253.431L833.333,-246.604L833.333,-237C833.333,-236.431 832.999,-235.914 832.479,-235.682C831.959,-235.449 831.535,-235.48 831.031,-235.862C830.483,-236.239 829.612,-237.715 829.021,-238.498L827.556,-232.667C827.249,-232.941 846.333,-232.667 846.333,-232.667Z"/>
                    </clipPath>
                    <g clip-path="url(#_clip1)">
                        <g transform="matrix(1.04762,0,0,1.09441,830.333,-250.287)">
                            <path d="M6.158,15.838C6.716,16.169 7.275,16.193 7.836,15.873L14.799,12.781C15.133,12.57 15.267,12.272 15.273,11.918L15.273,3.171C15.239,2.623 14.953,2.302 14.467,2.162L7.541,0.183C7.108,0.032 6.709,0.05 6.332,0.182L-0.308,2.109C-0.916,2.33 -1.257,2.689 -1.273,3.215L-1.273,11.699C-1.264,12.317 -1.046,12.67 -0.652,12.8L6.158,15.838Z" style="fill:none;"/>
                        </g>
                        <g transform="matrix(1.00729,0,0,0.977643,830.616,-248.776)">
                            <path d="M7.033,15L14.17,11.542L14.169,2.436L6.929,0.112L-0.17,2.436L-0.17,11.542L7.033,15ZM7,7.006L1.263,4.085L1.264,10.087L6.985,12.997L7,7.006ZM11.917,3.446L6.941,1.74L3.108,3.107L7.341,5.131L11.917,3.446Z" style="fill:white;"/>
                        </g>
                    </g>
                </g>
                <g transform="matrix(2,0,0,1.48571,-1638,-243.629)">
                    <path d="M821.5,170.038L821.5,172.875L822.5,174.75L822.5,170.038L824.5,166.673L824.5,166L819.5,166L819.5,166.673L821.5,170.038Z" style="fill:white;"/>
                </g>
            </g>
        </g>
    </g>
</svg>
