<?xml version="1.0" encoding="UTF-8" standalone="no"?>
<!DOCTYPE svg PUBLIC "-//W3C//DTD SVG 1.1//EN" "http://www.w3.org/Graphics/SVG/1.1/DTD/svg11.dtd">
<svg width="100%" height="100%" viewBox="0 0 7 16" version="1.1" xmlns="http://www.w3.org/2000/svg" xmlns:xlink="http://www.w3.org/1999/xlink" xml:space="preserve" xmlns:serif="http://www.serif.com/" style="fill-rule:evenodd;clip-rule:evenodd;stroke-linejoin:round;stroke-miterlimit:1.41421;">
    <g transform="matrix(1,0,0,1,-24,-83)">
        <g id="Modulator_on_dis_16px" transform="matrix(1,0,0,1,0,26)">
            <g transform="matrix(1.4,0,0,0.761905,7.2,53.1905)">
                <path d="M17,7.94C17,6.317 16.283,5 15.4,5L13.6,5C12.717,5 12,6.317 12,7.94L12,23.06C12,24.683 12.717,26 13.6,26L15.4,26C16.283,26 17,24.683 17,23.06L17,7.94Z" style="fill:rgb(129,129,129);"/>
            </g>
            <g transform="matrix(1,0,0,0.333333,13,56.3333)">
                <path d="M17,8C17,6.344 16.552,5 16,5L13,5C12.448,5 12,6.344 12,8L12,26L17,26L17,8Z" style="fill:rgb(160,160,160);"/>
            </g>
            <g transform="matrix(1,0,0,0.333333,13,63.3333)">
                <path d="M17,5L12,5L12,23C12,24.656 12.448,26 13,26L16,26C16.552,26 17,24.656 17,23L17,5Z" style="fill:rgb(160,160,160);"/>
            </g>
            <g transform="matrix(1,0,0,1,21,-29)">
                <g transform="matrix(1,0,0,1.15612,0,-14.7677)">
                    <path d="M9,95.81L9,93.215L8,93.215L8,89.755L7,89.755L6,89.755L5,90.62L4.224,93.188L4,93.215L4,95.81L5,95.81L5,99.27L7,99.27L8,98.405L9,95.81Z" style="fill:white;fill-opacity:0.101961;"/>
                </g>
                <path d="M10,94L8.006,94L7,95L7,90L6,90L5,94L3,94L3,95L5,95L6,94L6,99L7,99L8,95L10,95L10,94Z" style="fill:rgb(100,100,100);"/>
            </g>
        </g>
    </g>
</svg>
