<?xml version="1.0" encoding="UTF-8" standalone="no"?><!DOCTYPE svg PUBLIC "-//W3C//DTD SVG 1.1//EN" "http://www.w3.org/Graphics/SVG/1.1/DTD/svg11.dtd"><svg width="100%" height="100%" viewBox="0 0 15 15" version="1.1" xmlns="http://www.w3.org/2000/svg" xmlns:xlink="http://www.w3.org/1999/xlink" xml:space="preserve" xmlns:serif="http://www.serif.com/" style="fill-rule:evenodd;clip-rule:evenodd;stroke-linejoin:round;stroke-miterlimit:2;"><g id="ObjectIcons_AudioDevice_nor"><g id="Icons"><g id="Base-Block" serif:id="Base Block"><path d="M15,2.1c-0,-1.159 -0.941,-2.1 -2.1,-2.1l-10.8,0c-1.159,0 -2.1,0.941 -2.1,2.1l-0,10.8c-0,1.159 0.941,2.1 2.1,2.1l10.8,0c1.159,0 2.1,-0.941 2.1,-2.1l-0,-10.8Z" style="fill-opacity:0;"/></g><rect x="1" y="5" width="13" height="6" style="fill:#c8c8c8;"/><path d="M15,5c0,-0.552 -0.448,-1 -1,-1l-13,0c-0.552,0 -1,0.448 -1,1l0,6c0,0.552 0.448,1 1,1l13,0c0.552,0 1,-0.448 1,-1l0,-6Zm-1,0l-13,0l0,6l13,0l0,-6Z" style="fill:#222;"/><path d="M13,8c0,-1.104 -0.896,-2 -2,-2c-1.104,0 -2,0.896 -2,2c0,1.104 0.896,2 2,2c1.104,0 2,-0.896 2,-2Z" style="fill:#222;"/><path d="M4,9c-0,-0.552 -0.448,-1 -1,-1c-0.552,0 -1,0.448 -1,1c-0,0.552 0.448,1 1,1c0.552,0 1,-0.448 1,-1Z" style="fill:#222;"/><path d="M7,9c-0,-0.552 -0.448,-1 -1,-1c-0.552,0 -1,0.448 -1,1c-0,0.552 0.448,1 1,1c0.552,0 1,-0.448 1,-1Z" style="fill:#222;"/></g></g></svg>