<?xml version="1.0" encoding="UTF-8" standalone="no"?><!DOCTYPE svg PUBLIC "-//W3C//DTD SVG 1.1//EN" "http://www.w3.org/Graphics/SVG/1.1/DTD/svg11.dtd"><svg width="100%" height="100%" viewBox="0 0 15 15" version="1.1" xmlns="http://www.w3.org/2000/svg" xmlns:xlink="http://www.w3.org/1999/xlink" xml:space="preserve" xmlns:serif="http://www.serif.com/" style="fill-rule:evenodd;clip-rule:evenodd;stroke-linejoin:round;stroke-miterlimit:2;"><g id="ObjectIcons_AudioObjectAuxBus_dis" opacity="0.3"><path id="Base-Block" serif:id="Base Block" d="M15,2.1c0,-1.159 -0.941,-2.1 -2.1,-2.1l-10.8,-0c-1.159,-0 -2.1,0.941 -2.1,2.1l0,10.8c0,1.159 0.941,2.1 2.1,2.1l10.8,-0c1.159,-0 2.1,-0.941 2.1,-2.1l0,-10.8Z" style="fill-opacity:0;"/><g id="Disc"><circle cx="7.5" cy="7.5" r="7.5" style="fill:#222;"/><circle cx="7.5" cy="7.5" r="6.5" style="fill:#c8c8c8;"/></g><g id="Aux-Bus" serif:id="Aux Bus"><path d="M10,5l-6,0l0,3.482l2.631,2.518l3.369,0l0,-6Z" style="fill:#222;"/><rect x="5" y="3" width="1" height="2" style="fill:#222;"/><rect x="7" y="3" width="1" height="2" style="fill:#222;"/><rect x="10" y="9" width="2" height="1" style="fill:#222;"/><rect x="10" y="7" width="2" height="1" style="fill:#222;"/></g></g></svg>