<?xml version="1.0" encoding="UTF-8" standalone="no"?><!DOCTYPE svg PUBLIC "-//W3C//DTD SVG 1.1//EN" "http://www.w3.org/Graphics/SVG/1.1/DTD/svg11.dtd"><svg width="100%" height="100%" viewBox="0 0 15 15" version="1.1" xmlns="http://www.w3.org/2000/svg" xmlns:xlink="http://www.w3.org/1999/xlink" xml:space="preserve" xmlns:serif="http://www.serif.com/" style="fill-rule:evenodd;clip-rule:evenodd;stroke-linejoin:round;stroke-miterlimit:2;"><g id="ObjectIcons_AuxBusMix_nor"><path id="Base-Block" serif:id="Base Block" d="M15,2.1c0,-1.159 -0.941,-2.1 -2.1,-2.1l-10.8,0c-1.159,0 -2.1,0.941 -2.1,2.1l0,10.8c0,1.159 0.941,2.1 2.1,2.1l10.8,0c1.159,0 2.1,-0.941 2.1,-2.1l0,-10.8Z" style="fill-opacity:0;"/><g id="AuxBus"><path d="M13,3.5c0,-0.828 -0.672,-1.5 -1.5,-1.5l-10,0c-0.828,0 -1.5,0.672 -1.5,1.5c0,0 0,7.914 0,7.914l3.586,3.586l7.914,0c0.828,0 1.5,-0.672 1.5,-1.5l0,-10Z" style="fill:#212121;"/><path d="M11,10.5c0,0.828 0.672,1.5 1.5,1.5l1,0c0.828,0 1.5,-0.672 1.5,-1.5c0,-0.828 -0.672,-1.5 -1.5,-1.5l-1,0c-0.828,0 -1.5,0.672 -1.5,1.5Z" style="fill:#212121;"/><path d="M11,8.5c0,0.828 0.672,1.5 1.5,1.5l1,0c0.828,0 1.5,-0.672 1.5,-1.5c0,-0.828 -0.672,-1.5 -1.5,-1.5l-1,0c-0.828,0 -1.5,0.672 -1.5,1.5Z" style="fill:#212121;"/><path d="M11,6.5c0,0.828 0.672,1.5 1.5,1.5l1,0c0.828,0 1.5,-0.672 1.5,-1.5c0,-0.828 -0.672,-1.5 -1.5,-1.5l-1,0c-0.828,0 -1.5,0.672 -1.5,1.5Z" style="fill:#212121;"/><rect x="13" y="10" width="1" height="1" style="fill:#c8c8c8;"/><rect x="13" y="8" width="1" height="1" style="fill:#c8c8c8;"/><rect x="13" y="6" width="1" height="1" style="fill:#c8c8c8;"/><path d="M8.5,4c0.828,0 1.5,-0.672 1.5,-1.5l0,-1c0,-0.828 -0.672,-1.5 -1.5,-1.5c-0.828,0 -1.5,0.672 -1.5,1.5l0,1c0,0.828 0.672,1.5 1.5,1.5Z" style="fill:#212121;"/><path d="M6.5,4c0.828,0 1.5,-0.672 1.5,-1.5l0,-1c0,-0.828 -0.672,-1.5 -1.5,-1.5c-0.828,0 -1.5,0.672 -1.5,1.5l0,1c0,0.828 0.672,1.5 1.5,1.5Z" style="fill:#212121;"/><path d="M4.5,4c0.828,0 1.5,-0.672 1.5,-1.5l0,-1c0,-0.828 -0.672,-1.5 -1.5,-1.5c-0.828,0 -1.5,0.672 -1.5,1.5l0,1c0,0.828 0.672,1.5 1.5,1.5Z" style="fill:#212121;"/><path d="M9,2l0,-1l-1,0l0,1l1,0Z" style="fill:#c8c8c8;"/><path d="M7,2l0,-1l-1,0l0,1l1,0Z" style="fill:#c8c8c8;"/><path d="M5,2l0,-1l-1,0l0,1l1,0Z" style="fill:#c8c8c8;"/><path d="M12,3.5c0,-0.276 -0.224,-0.5 -0.5,-0.5l-10,0c-0.276,0 -0.5,0.224 -0.5,0.5l0,7.5l3,3l7.5,0c0.276,0 0.5,-0.224 0.5,-0.5l0,-10Z" style="fill:#c8c8c8;"/><rect x="8" y="2" width="1" height="1" style="fill:#919191;"/><rect x="6" y="2" width="1" height="1" style="fill:#919191;"/><rect x="4" y="2" width="1" height="1" style="fill:#919191;"/><rect x="12" y="6" width="1" height="1" style="fill:#919191;"/><rect x="12" y="8" width="1" height="1" style="fill:#919191;"/><rect x="12" y="10" width="1" height="1" style="fill:#919191;"/></g><path id="Wave" d="M2,10.112l0,-2.647l2.514,-3.465l4.061,4.747l2.425,-2.798l0,2.594l-2.526,4.574l-3.96,-4.957l-2.514,1.952Z" style="fill:#212121;"/></g></svg>