<?xml version="1.0" encoding="UTF-8" standalone="no"?><!DOCTYPE svg PUBLIC "-//W3C//DTD SVG 1.1//EN" "http://www.w3.org/Graphics/SVG/1.1/DTD/svg11.dtd"><svg width="100%" height="100%" viewBox="0 0 15 15" version="1.1" xmlns="http://www.w3.org/2000/svg" xmlns:xlink="http://www.w3.org/1999/xlink" xml:space="preserve" xmlns:serif="http://www.serif.com/" style="fill-rule:evenodd;clip-rule:evenodd;stroke-miterlimit:1;"><g id="ObjectIcons_BusObject_dis" opacity="0.3"><g id="Base-Block" serif:id="Base Block"><path d="M15,2.1c0,-1.159 -0.941,-2.1 -2.1,-2.1l-10.8,0c-1.159,0 -2.1,0.941 -2.1,2.1l0,10.8c0,1.159 0.941,2.1 2.1,2.1l10.8,0c1.159,0 2.1,-0.941 2.1,-2.1l0,-10.8Z" style="fill-opacity:0;"/></g><g id="Bus"><path d="M15,2c0,-0.552 -0.448,-1 -1,-1l-11,0c-0.552,0 -1,0.448 -1,1l0,11c0,0.552 0.448,1 1,1l11,0c0.552,0 1,-0.448 1,-1l0,-11Z" style="fill:#212121;"/><path d="M14,2.5c0,-0.276 -0.224,-0.5 -0.5,-0.5l-10,0c-0.276,0 -0.5,0.224 -0.5,0.5l0,10c0,0.276 0.224,0.5 0.5,0.5l10,0c0.276,0 0.5,-0.224 0.5,-0.5l0,-10Z" style="fill:#c8c8c8;"/><path d="M3,5.5c0,-0.828 -0.672,-1.5 -1.5,-1.5c-0.828,0 -1.5,0.672 -1.5,1.5c0,0.828 0.672,1.5 1.5,1.5c0.828,0 1.5,-0.672 1.5,-1.5Z" style="fill:#212121;"/><path d="M3,7.5c0,-0.828 -0.672,-1.5 -1.5,-1.5c-0.828,0 -1.5,0.672 -1.5,1.5c0,0.828 0.672,1.5 1.5,1.5c0.828,0 1.5,-0.672 1.5,-1.5Z" style="fill:#212121;"/><path d="M3,9.5c0,-0.828 -0.672,-1.5 -1.5,-1.5c-0.828,0 -1.5,0.672 -1.5,1.5c0,0.828 0.672,1.5 1.5,1.5c0.828,0 1.5,-0.672 1.5,-1.5Z" style="fill:#212121;"/><rect x="1" y="5" width="1" height="1" style="fill:#c8c8c8;"/><rect x="1" y="7" width="1" height="1" style="fill:#c8c8c8;"/><rect x="1" y="9" width="1" height="1" style="fill:#c8c8c8;"/><path d="M3,10l-1,0l0,-1l1,0l0,1Zm0,-2l-1,0l0,-1l1,0l0,1Zm0,-2l-1,0l0,-1l1,0l0,1Z" style="fill:#919191;"/></g><g id="Object-Icon" serif:id="Object Icon"><rect x="4" y="3" width="9" height="9" style="fill:#fff;fill-opacity:0;"/><path d="M10.507,4.463c2.679,1.898 2.892,3.922 0,6.106" style="fill:none;stroke:#212121;stroke-width:1px;"/><path d="M6.597,4.463c-2.679,1.898 -2.892,3.922 0,6.106" style="fill:none;stroke:#212121;stroke-width:1px;"/><circle cx="8.5" cy="7.5" r="1.5" style="fill:#212121;"/></g></g></svg>