<?xml version="1.0" encoding="UTF-8" standalone="no"?>
<!DOCTYPE svg PUBLIC "-//W3C//DTD SVG 1.1//EN" "http://www.w3.org/Graphics/SVG/1.1/DTD/svg11.dtd">
<svg width="100%" height="100%" viewBox="0 0 15 15" version="1.1" xmlns="http://www.w3.org/2000/svg" xmlns:xlink="http://www.w3.org/1999/xlink" xml:space="preserve" xmlns:serif="http://www.serif.com/" style="fill-rule:evenodd;clip-rule:evenodd;stroke-linejoin:round;stroke-miterlimit:1.41421;">
    <g transform="matrix(1,0,0,1,-2,-2)">
        <g transform="matrix(1,0,0,1,-662,-574)">
            <g id="UsedBy_on_nor" transform="matrix(1,0,0,-1,1072,2047)">
                <g id="BG-Transparent" serif:id="BG Transparent" transform="matrix(1.5,0,0,1.66667,-1849.5,1401)">
                    <rect x="961" y="33" width="10" height="9" style="fill:none;"/>
                </g>
                <g transform="matrix(1.05614,0.597087,0.361139,-0.638792,-1746.98,1208.2)">
                    <rect x="1069" y="596" width="5" height="4" style="fill:rgb(51,51,51);"/>
                </g>
                <g transform="matrix(0.946556,-0.535133,0.371013,0.656257,-1635.72,1641.9)">
                    <rect x="1069" y="596" width="5" height="4" style="fill:rgb(51,51,51);"/>
                </g>
                <g transform="matrix(1,0,0,1.25,-1467,721)">
                    <path d="M1074,598C1074,596.896 1072.88,596 1071.5,596C1070.12,596 1069,596.896 1069,598C1069,599.104 1070.12,600 1071.5,600C1072.88,600 1074,599.104 1074,598Z" style="fill:rgb(51,51,51);"/>
                </g>
                <g transform="matrix(1.4,0,0,1.75,-1904.6,417)">
                    <path d="M1074,598C1074,596.896 1072.88,596 1071.5,596C1070.12,596 1069,596.896 1069,598C1069,599.104 1070.12,600 1071.5,600C1072.88,600 1074,599.104 1074,598Z" style="fill:rgb(51,51,51);"/>
                </g>
                <g transform="matrix(1,0,0,1.25,-1467,711)">
                    <path d="M1074,598C1074,596.896 1072.88,596 1071.5,596C1070.12,596 1069,596.896 1069,598C1069,599.104 1070.12,600 1071.5,600C1072.88,600 1074,599.104 1074,598Z" style="fill:rgb(51,51,51);"/>
                </g>
                <g transform="matrix(0.649214,0.367032,0.123036,-0.217629,-1168.59,1202.84)">
                    <rect x="1069" y="596" width="5" height="4" style="fill:rgb(230,157,56);"/>
                    <rect x="1069" y="596" width="5" height="4" style="fill:rgb(230,157,56);"/>
                </g>
                <g transform="matrix(0.676049,-0.382202,0.123036,0.217629,-1197.27,1740.14)">
                    <rect x="1069" y="596" width="5" height="4" style="fill:rgb(230,157,56);"/>
                    <rect x="1069" y="596" width="5" height="4" style="fill:rgb(230,157,56);"/>
                </g>
                <g transform="matrix(0.6,0,0,0.75,-1038.4,1020)">
                    <path d="M1074,598C1074,596.896 1072.88,596 1071.5,596C1070.12,596 1069,596.896 1069,598C1069,599.104 1070.12,600 1071.5,600C1072.88,600 1074,599.104 1074,598Z" style="fill:rgb(230,157,56);"/>
                    <path d="M1071.56,599.999L1071.63,599.997L1071.69,599.994L1071.76,599.99L1071.82,599.984L1071.88,599.977L1071.94,599.969L1072,599.959L1072.06,599.949L1072.12,599.937L1072.18,599.924L1072.24,599.91L1072.3,599.895L1072.36,599.879L1072.42,599.861L1072.47,599.843L1072.53,599.823L1072.58,599.803L1072.64,599.781L1072.69,599.758L1072.74,599.735L1072.8,599.71L1072.85,599.685L1072.9,599.658L1072.95,599.631L1073,599.602L1073.04,599.573L1073.09,599.543L1073.14,599.512L1073.18,599.48L1073.22,599.447L1073.27,599.414L1073.31,599.38L1073.35,599.344L1073.39,599.309L1073.43,599.272L1073.47,599.234L1073.5,599.196L1073.54,599.157L1073.57,599.118L1073.61,599.078L1073.64,599.037L1073.67,598.995L1073.7,598.953L1073.73,598.91L1073.75,598.867L1073.78,598.823L1073.8,598.778L1073.83,598.733L1073.85,598.687L1073.87,598.641L1073.89,598.594L1073.9,598.547L1073.92,598.5L1073.94,598.451L1073.95,598.403L1073.96,598.354L1073.97,598.304L1073.98,598.255L1073.99,598.204L1073.99,598.154L1074,598.103L1074,598.052L1074,598L1074,597.948L1074,597.897L1073.99,597.846L1073.99,597.796L1073.98,597.745L1073.97,597.696L1073.96,597.646L1073.95,597.597L1073.94,597.549L1073.92,597.5L1073.9,597.453L1073.89,597.406L1073.87,597.359L1073.85,597.313L1073.83,597.267L1073.8,597.222L1073.78,597.177L1073.75,597.133L1073.73,597.09L1073.7,597.047L1073.67,597.005L1073.64,596.963L1073.61,596.922L1073.57,596.882L1073.54,596.843L1073.5,596.804L1073.47,596.766L1073.43,596.728L1073.39,596.691L1073.35,596.656L1073.31,596.62L1073.27,596.586L1073.22,596.553L1073.18,596.52L1073.14,596.488L1073.09,596.457L1073.04,596.427L1073,596.398L1072.95,596.369L1072.9,596.342L1072.85,596.315L1072.8,596.29L1072.74,596.265L1072.69,596.242L1072.64,596.219L1072.58,596.197L1072.53,596.177L1072.47,596.157L1072.42,596.139L1072.36,596.121L1072.3,596.105L1072.24,596.09L1072.18,596.076L1072.12,596.063L1072.06,596.051L1072,596.041L1071.94,596.031L1071.88,596.023L1071.82,596.016L1071.76,596.01L1071.69,596.006L1071.63,596.003L1071.56,596.001L1071.5,596L1071.44,596.001L1071.37,596.003L1071.31,596.006L1071.25,596.01L1071.18,596.016L1071.12,596.023L1071.06,596.031L1071,596.041L1070.94,596.051L1070.88,596.063L1070.82,596.076L1070.76,596.09L1070.7,596.105L1070.64,596.121L1070.58,596.139L1070.53,596.157L1070.47,596.177L1070.42,596.197L1070.36,596.219L1070.31,596.242L1070.26,596.265L1070.2,596.29L1070.15,596.315L1070.1,596.342L1070.05,596.369L1070.01,596.398L1069.96,596.427L1069.91,596.457L1069.86,596.488L1069.82,596.52L1069.78,596.553L1069.73,596.586L1069.69,596.62L1069.65,596.656L1069.61,596.691L1069.57,596.728L1069.53,596.766L1069.5,596.804L1069.46,596.843L1069.43,596.882L1069.39,596.922L1069.36,596.963L1069.33,597.005L1069.3,597.047L1069.27,597.09L1069.25,597.133L1069.22,597.177L1069.2,597.222L1069.17,597.267L1069.15,597.313L1069.13,597.359L1069.11,597.406L1069.1,597.453L1069.08,597.5L1069.06,597.549L1069.05,597.597L1069.04,597.646L1069.03,597.696L1069.02,597.745L1069.01,597.796L1069.01,597.846L1069,597.897L1069,597.948L1069,598L1069,598.052L1069,598.103L1069.01,598.154L1069.01,598.204L1069.02,598.255L1069.03,598.304L1069.04,598.354L1069.05,598.403L1069.06,598.451L1069.08,598.5L1069.1,598.547L1069.11,598.594L1069.13,598.641L1069.15,598.687L1069.17,598.733L1069.2,598.778L1069.22,598.823L1069.25,598.867L1069.27,598.91L1069.3,598.953L1069.33,598.995L1069.36,599.037L1069.39,599.078L1069.43,599.118L1069.46,599.157L1069.5,599.196L1069.53,599.234L1069.57,599.272L1069.61,599.309L1069.65,599.344L1069.69,599.38L1069.73,599.414L1069.78,599.447L1069.82,599.48L1069.86,599.512L1069.91,599.543L1069.96,599.573L1070.01,599.602L1070.05,599.631L1070.1,599.658L1070.15,599.685L1070.2,599.71L1070.26,599.735L1070.31,599.758L1070.36,599.781L1070.42,599.803L1070.47,599.823L1070.53,599.843L1070.58,599.861L1070.64,599.879L1070.7,599.895L1070.76,599.91L1070.82,599.924L1070.88,599.937L1070.94,599.949L1071,599.959L1071.06,599.969L1071.12,599.977L1071.18,599.984L1071.25,599.99L1071.31,599.994L1071.37,599.997L1071.44,599.999L1071.5,600L1071.56,599.999ZM1071.48,598.666L1071.46,598.666L1071.43,598.665L1071.41,598.663L1071.39,598.661L1071.37,598.659L1071.35,598.656L1071.33,598.653L1071.31,598.65L1071.29,598.646L1071.27,598.641L1071.25,598.637L1071.23,598.632L1071.21,598.627L1071.19,598.621L1071.18,598.615L1071.16,598.608L1071.14,598.602L1071.12,598.594L1071.11,598.587L1071.09,598.579L1071.07,598.571L1071.05,598.562L1071.04,598.553L1071.02,598.544L1071,598.535L1070.99,598.525L1070.97,598.515L1070.96,598.504L1070.94,598.493L1070.93,598.482L1070.91,598.471L1070.9,598.459L1070.88,598.448L1070.87,598.435L1070.86,598.423L1070.84,598.41L1070.83,598.398L1070.82,598.385L1070.81,598.371L1070.8,598.358L1070.79,598.344L1070.78,598.33L1070.77,598.316L1070.76,598.302L1070.75,598.288L1070.74,598.273L1070.73,598.258L1070.72,598.244L1070.72,598.229L1070.71,598.213L1070.7,598.198L1070.7,598.183L1070.69,598.167L1070.69,598.151L1070.68,598.135L1070.68,598.119L1070.68,598.103L1070.67,598.086L1070.67,598.07L1070.67,598.053L1070.67,598.035L1070.67,598.018L1070.67,598L1070.67,597.982L1070.67,597.965L1070.67,597.947L1070.67,597.93L1070.67,597.914L1070.68,597.897L1070.68,597.881L1070.68,597.865L1070.69,597.849L1070.69,597.833L1070.7,597.817L1070.7,597.802L1070.71,597.787L1070.72,597.771L1070.72,597.756L1070.73,597.742L1070.74,597.727L1070.75,597.712L1070.76,597.698L1070.77,597.684L1070.78,597.67L1070.79,597.656L1070.8,597.642L1070.81,597.629L1070.82,597.615L1070.83,597.602L1070.84,597.59L1070.86,597.577L1070.87,597.565L1070.88,597.552L1070.9,597.541L1070.91,597.529L1070.93,597.518L1070.94,597.507L1070.96,597.496L1070.97,597.485L1070.99,597.475L1071,597.465L1071.02,597.456L1071.04,597.447L1071.05,597.438L1071.07,597.429L1071.09,597.421L1071.11,597.413L1071.12,597.406L1071.14,597.398L1071.16,597.392L1071.18,597.385L1071.2,597.379L1071.21,597.373L1071.23,597.368L1071.25,597.363L1071.27,597.359L1071.29,597.354L1071.31,597.35L1071.33,597.347L1071.35,597.344L1071.37,597.341L1071.39,597.339L1071.41,597.337L1071.43,597.335L1071.46,597.334L1071.48,597.334L1071.5,597.333L1071.52,597.334L1071.54,597.334L1071.57,597.335L1071.59,597.337L1071.61,597.339L1071.63,597.341L1071.65,597.344L1071.67,597.347L1071.69,597.35L1071.71,597.354L1071.73,597.359L1071.75,597.363L1071.77,597.368L1071.79,597.373L1071.8,597.379L1071.82,597.385L1071.84,597.392L1071.86,597.398L1071.88,597.406L1071.89,597.413L1071.91,597.421L1071.93,597.429L1071.95,597.438L1071.96,597.447L1071.98,597.456L1072,597.465L1072.01,597.475L1072.03,597.485L1072.04,597.496L1072.06,597.507L1072.07,597.518L1072.09,597.529L1072.1,597.541L1072.12,597.552L1072.13,597.565L1072.14,597.577L1072.16,597.59L1072.17,597.602L1072.18,597.615L1072.19,597.629L1072.2,597.642L1072.21,597.656L1072.22,597.67L1072.23,597.684L1072.24,597.698L1072.25,597.712L1072.26,597.727L1072.27,597.742L1072.28,597.756L1072.28,597.771L1072.29,597.787L1072.3,597.802L1072.3,597.817L1072.31,597.833L1072.31,597.849L1072.32,597.865L1072.32,597.881L1072.32,597.897L1072.33,597.914L1072.33,597.931L1072.33,597.947L1072.33,597.965L1072.33,597.982L1072.33,598L1072.33,598.018L1072.33,598.035L1072.33,598.053L1072.33,598.069L1072.33,598.086L1072.32,598.103L1072.32,598.119L1072.32,598.135L1072.31,598.151L1072.31,598.167L1072.3,598.183L1072.3,598.198L1072.29,598.213L1072.28,598.229L1072.28,598.244L1072.27,598.258L1072.26,598.273L1072.25,598.288L1072.24,598.302L1072.23,598.316L1072.22,598.33L1072.21,598.344L1072.2,598.358L1072.19,598.371L1072.18,598.385L1072.17,598.398L1072.16,598.41L1072.14,598.423L1072.13,598.435L1072.12,598.448L1072.1,598.459L1072.09,598.471L1072.07,598.482L1072.06,598.493L1072.04,598.504L1072.03,598.515L1072.01,598.525L1072,598.535L1071.98,598.544L1071.96,598.553L1071.95,598.562L1071.93,598.571L1071.91,598.579L1071.89,598.587L1071.88,598.594L1071.86,598.602L1071.84,598.608L1071.82,598.615L1071.8,598.621L1071.79,598.627L1071.77,598.632L1071.75,598.637L1071.73,598.641L1071.71,598.646L1071.69,598.65L1071.67,598.653L1071.65,598.656L1071.63,598.659L1071.61,598.661L1071.59,598.663L1071.57,598.665L1071.54,598.666L1071.52,598.666L1071.5,598.667L1071.48,598.666Z" style="fill:rgb(230,157,56);"/>
                </g>
                <g transform="matrix(1,0,0,1.25,-1476,716)">
                    <path d="M1074,598C1074,596.896 1072.88,596 1071.5,596C1070.12,596 1069,596.896 1069,598C1069,599.104 1070.12,600 1071.5,600C1072.88,600 1074,599.104 1074,598Z" style="fill:rgb(230,157,56);"/>
                    <path d="M1071.56,599.999L1071.63,599.997L1071.69,599.994L1071.76,599.99L1071.82,599.984L1071.88,599.977L1071.94,599.969L1072,599.959L1072.06,599.949L1072.12,599.937L1072.18,599.924L1072.24,599.91L1072.3,599.895L1072.36,599.879L1072.42,599.861L1072.47,599.843L1072.53,599.823L1072.58,599.803L1072.64,599.781L1072.69,599.758L1072.74,599.735L1072.8,599.71L1072.85,599.685L1072.9,599.658L1072.95,599.631L1073,599.602L1073.04,599.573L1073.09,599.543L1073.14,599.512L1073.18,599.48L1073.22,599.447L1073.27,599.414L1073.31,599.38L1073.35,599.344L1073.39,599.309L1073.43,599.272L1073.47,599.234L1073.5,599.196L1073.54,599.157L1073.57,599.118L1073.61,599.078L1073.64,599.037L1073.67,598.995L1073.7,598.953L1073.73,598.91L1073.75,598.867L1073.78,598.823L1073.8,598.778L1073.83,598.733L1073.85,598.687L1073.87,598.641L1073.89,598.594L1073.9,598.547L1073.92,598.5L1073.94,598.451L1073.95,598.403L1073.96,598.354L1073.97,598.304L1073.98,598.255L1073.99,598.204L1073.99,598.154L1074,598.103L1074,598.052L1074,598L1074,597.948L1074,597.897L1073.99,597.846L1073.99,597.796L1073.98,597.745L1073.97,597.696L1073.96,597.646L1073.95,597.597L1073.94,597.549L1073.92,597.5L1073.9,597.453L1073.89,597.406L1073.87,597.359L1073.85,597.313L1073.83,597.267L1073.8,597.222L1073.78,597.177L1073.75,597.133L1073.73,597.09L1073.7,597.047L1073.67,597.005L1073.64,596.963L1073.61,596.922L1073.57,596.882L1073.54,596.843L1073.5,596.804L1073.47,596.766L1073.43,596.728L1073.39,596.691L1073.35,596.656L1073.31,596.62L1073.27,596.586L1073.22,596.553L1073.18,596.52L1073.14,596.488L1073.09,596.457L1073.04,596.427L1073,596.398L1072.95,596.369L1072.9,596.342L1072.85,596.315L1072.8,596.29L1072.74,596.265L1072.69,596.242L1072.64,596.219L1072.58,596.197L1072.53,596.177L1072.47,596.157L1072.42,596.139L1072.36,596.121L1072.3,596.105L1072.24,596.09L1072.18,596.076L1072.12,596.063L1072.06,596.051L1072,596.041L1071.94,596.031L1071.88,596.023L1071.82,596.016L1071.76,596.01L1071.69,596.006L1071.63,596.003L1071.56,596.001L1071.5,596L1071.44,596.001L1071.37,596.003L1071.31,596.006L1071.25,596.01L1071.18,596.016L1071.12,596.023L1071.06,596.031L1071,596.041L1070.94,596.051L1070.88,596.063L1070.82,596.076L1070.76,596.09L1070.7,596.105L1070.64,596.121L1070.58,596.139L1070.53,596.157L1070.47,596.177L1070.42,596.197L1070.36,596.219L1070.31,596.242L1070.26,596.265L1070.2,596.29L1070.15,596.315L1070.1,596.342L1070.05,596.369L1070.01,596.398L1069.96,596.427L1069.91,596.457L1069.86,596.488L1069.82,596.52L1069.78,596.553L1069.73,596.586L1069.69,596.62L1069.65,596.656L1069.61,596.691L1069.57,596.728L1069.53,596.766L1069.5,596.804L1069.46,596.843L1069.43,596.882L1069.39,596.922L1069.36,596.963L1069.33,597.005L1069.3,597.047L1069.27,597.09L1069.25,597.133L1069.22,597.177L1069.2,597.222L1069.17,597.267L1069.15,597.313L1069.13,597.359L1069.11,597.406L1069.1,597.453L1069.08,597.5L1069.06,597.549L1069.05,597.597L1069.04,597.646L1069.03,597.696L1069.02,597.745L1069.01,597.796L1069.01,597.846L1069,597.897L1069,597.948L1069,598L1069,598.052L1069,598.103L1069.01,598.154L1069.01,598.204L1069.02,598.255L1069.03,598.304L1069.04,598.354L1069.05,598.403L1069.06,598.451L1069.08,598.5L1069.1,598.547L1069.11,598.594L1069.13,598.641L1069.15,598.687L1069.17,598.733L1069.2,598.778L1069.22,598.823L1069.25,598.867L1069.27,598.91L1069.3,598.953L1069.33,598.995L1069.36,599.037L1069.39,599.078L1069.43,599.118L1069.46,599.157L1069.5,599.196L1069.53,599.234L1069.57,599.272L1069.61,599.309L1069.65,599.344L1069.69,599.38L1069.73,599.414L1069.78,599.447L1069.82,599.48L1069.86,599.512L1069.91,599.543L1069.96,599.573L1070.01,599.602L1070.05,599.631L1070.1,599.658L1070.15,599.685L1070.2,599.71L1070.26,599.735L1070.31,599.758L1070.36,599.781L1070.42,599.803L1070.47,599.823L1070.53,599.843L1070.58,599.861L1070.64,599.879L1070.7,599.895L1070.76,599.91L1070.82,599.924L1070.88,599.937L1070.94,599.949L1071,599.959L1071.06,599.969L1071.12,599.977L1071.18,599.984L1071.25,599.99L1071.31,599.994L1071.37,599.997L1071.44,599.999L1071.5,600L1071.56,599.999ZM1071.46,599.2L1071.42,599.198L1071.38,599.196L1071.35,599.194L1071.31,599.19L1071.27,599.186L1071.23,599.181L1071.2,599.176L1071.16,599.169L1071.13,599.162L1071.09,599.155L1071.05,599.146L1071.02,599.137L1070.99,599.127L1070.95,599.117L1070.92,599.106L1070.88,599.094L1070.85,599.082L1070.82,599.069L1070.79,599.056L1070.76,599.041L1070.72,599.027L1070.69,599.011L1070.66,598.995L1070.63,598.979L1070.6,598.962L1070.58,598.944L1070.55,598.926L1070.52,598.907L1070.49,598.888L1070.47,598.868L1070.44,598.848L1070.41,598.828L1070.39,598.806L1070.37,598.785L1070.34,598.763L1070.32,598.74L1070.3,598.717L1070.28,598.694L1070.26,598.67L1070.24,598.646L1070.22,598.621L1070.2,598.596L1070.18,598.571L1070.16,598.545L1070.15,598.519L1070.13,598.493L1070.12,598.466L1070.1,598.439L1070.09,598.412L1070.08,598.385L1070.07,598.357L1070.06,598.329L1070.05,598.3L1070.04,598.271L1070.03,598.242L1070.02,598.213L1070.02,598.183L1070.01,598.154L1070.01,598.123L1070,598.093L1070,598.062L1070,598.031L1070,598L1070,597.969L1070,597.938L1070,597.907L1070.01,597.877L1070.01,597.846L1070.02,597.817L1070.02,597.787L1070.03,597.758L1070.04,597.729L1070.05,597.7L1070.06,597.671L1070.07,597.643L1070.08,597.615L1070.09,597.588L1070.1,597.561L1070.12,597.534L1070.13,597.507L1070.15,597.481L1070.16,597.455L1070.18,597.429L1070.2,597.404L1070.22,597.379L1070.24,597.354L1070.26,597.33L1070.28,597.306L1070.3,597.283L1070.32,597.26L1070.34,597.237L1070.37,597.215L1070.39,597.194L1070.41,597.172L1070.44,597.152L1070.47,597.132L1070.49,597.112L1070.52,597.093L1070.55,597.074L1070.58,597.056L1070.6,597.038L1070.63,597.021L1070.66,597.005L1070.69,596.989L1070.72,596.973L1070.76,596.959L1070.79,596.944L1070.82,596.931L1070.85,596.918L1070.88,596.906L1070.92,596.894L1070.95,596.883L1070.99,596.873L1071.02,596.863L1071.05,596.854L1071.09,596.845L1071.13,596.838L1071.16,596.831L1071.2,596.824L1071.23,596.819L1071.27,596.814L1071.31,596.81L1071.35,596.806L1071.38,596.804L1071.42,596.802L1071.46,596.8L1071.5,596.8L1071.54,596.8L1071.58,596.802L1071.62,596.804L1071.65,596.806L1071.69,596.81L1071.73,596.814L1071.77,596.819L1071.8,596.824L1071.84,596.831L1071.88,596.838L1071.91,596.845L1071.95,596.854L1071.98,596.863L1072.02,596.873L1072.05,596.883L1072.08,596.894L1072.12,596.906L1072.15,596.918L1072.18,596.931L1072.21,596.944L1072.25,596.959L1072.28,596.973L1072.31,596.989L1072.34,597.005L1072.37,597.021L1072.4,597.038L1072.42,597.056L1072.45,597.074L1072.48,597.093L1072.51,597.112L1072.53,597.132L1072.56,597.152L1072.59,597.172L1072.61,597.194L1072.63,597.215L1072.66,597.237L1072.68,597.26L1072.7,597.283L1072.72,597.306L1072.74,597.33L1072.76,597.354L1072.78,597.379L1072.8,597.404L1072.82,597.429L1072.84,597.455L1072.85,597.481L1072.87,597.507L1072.88,597.534L1072.9,597.561L1072.91,597.588L1072.92,597.615L1072.93,597.643L1072.94,597.671L1072.95,597.7L1072.96,597.729L1072.97,597.758L1072.98,597.787L1072.98,597.817L1072.99,597.846L1072.99,597.877L1073,597.907L1073,597.938L1073,597.969L1073,598L1073,598.031L1073,598.062L1073,598.093L1072.99,598.123L1072.99,598.154L1072.98,598.183L1072.98,598.213L1072.97,598.242L1072.96,598.271L1072.95,598.3L1072.94,598.329L1072.93,598.357L1072.92,598.385L1072.91,598.412L1072.9,598.439L1072.88,598.466L1072.87,598.493L1072.85,598.519L1072.84,598.545L1072.82,598.571L1072.8,598.596L1072.78,598.621L1072.76,598.646L1072.74,598.67L1072.72,598.694L1072.7,598.717L1072.68,598.74L1072.66,598.763L1072.63,598.785L1072.61,598.806L1072.59,598.828L1072.56,598.848L1072.53,598.868L1072.51,598.888L1072.48,598.907L1072.45,598.926L1072.42,598.944L1072.4,598.962L1072.37,598.979L1072.34,598.995L1072.31,599.011L1072.28,599.027L1072.25,599.041L1072.21,599.056L1072.18,599.069L1072.15,599.082L1072.12,599.094L1072.08,599.106L1072.05,599.117L1072.02,599.127L1071.98,599.137L1071.95,599.146L1071.91,599.155L1071.88,599.162L1071.84,599.169L1071.8,599.176L1071.77,599.181L1071.73,599.186L1071.69,599.19L1071.65,599.194L1071.62,599.196L1071.58,599.198L1071.54,599.2L1071.5,599.2L1071.46,599.2Z" style="fill:rgb(230,157,56);"/>
                </g>
                <g transform="matrix(0.6,0,0,0.75,-1038.4,1010)">
                    <path d="M1074,598C1074,596.896 1072.88,596 1071.5,596C1070.12,596 1069,596.896 1069,598C1069,599.104 1070.12,600 1071.5,600C1072.88,600 1074,599.104 1074,598Z" style="fill:rgb(230,157,56);"/>
                    <path d="M1071.56,599.999L1071.63,599.997L1071.69,599.994L1071.76,599.99L1071.82,599.984L1071.88,599.977L1071.94,599.969L1072,599.959L1072.06,599.949L1072.12,599.937L1072.18,599.924L1072.24,599.91L1072.3,599.895L1072.36,599.879L1072.42,599.861L1072.47,599.843L1072.53,599.823L1072.58,599.803L1072.64,599.781L1072.69,599.758L1072.74,599.735L1072.8,599.71L1072.85,599.685L1072.9,599.658L1072.95,599.631L1073,599.602L1073.04,599.573L1073.09,599.543L1073.14,599.512L1073.18,599.48L1073.22,599.447L1073.27,599.414L1073.31,599.38L1073.35,599.344L1073.39,599.309L1073.43,599.272L1073.47,599.234L1073.5,599.196L1073.54,599.157L1073.57,599.118L1073.61,599.078L1073.64,599.037L1073.67,598.995L1073.7,598.953L1073.73,598.91L1073.75,598.867L1073.78,598.823L1073.8,598.778L1073.83,598.733L1073.85,598.687L1073.87,598.641L1073.89,598.594L1073.9,598.547L1073.92,598.5L1073.94,598.451L1073.95,598.403L1073.96,598.354L1073.97,598.304L1073.98,598.255L1073.99,598.204L1073.99,598.154L1074,598.103L1074,598.052L1074,598L1074,597.948L1074,597.897L1073.99,597.846L1073.99,597.796L1073.98,597.745L1073.97,597.696L1073.96,597.646L1073.95,597.597L1073.94,597.549L1073.92,597.5L1073.9,597.453L1073.89,597.406L1073.87,597.359L1073.85,597.313L1073.83,597.267L1073.8,597.222L1073.78,597.177L1073.75,597.133L1073.73,597.09L1073.7,597.047L1073.67,597.005L1073.64,596.963L1073.61,596.922L1073.57,596.882L1073.54,596.843L1073.5,596.804L1073.47,596.766L1073.43,596.728L1073.39,596.691L1073.35,596.656L1073.31,596.62L1073.27,596.586L1073.22,596.553L1073.18,596.52L1073.14,596.488L1073.09,596.457L1073.04,596.427L1073,596.398L1072.95,596.369L1072.9,596.342L1072.85,596.315L1072.8,596.29L1072.74,596.265L1072.69,596.242L1072.64,596.219L1072.58,596.197L1072.53,596.177L1072.47,596.157L1072.42,596.139L1072.36,596.121L1072.3,596.105L1072.24,596.09L1072.18,596.076L1072.12,596.063L1072.06,596.051L1072,596.041L1071.94,596.031L1071.88,596.023L1071.82,596.016L1071.76,596.01L1071.69,596.006L1071.63,596.003L1071.56,596.001L1071.5,596L1071.44,596.001L1071.37,596.003L1071.31,596.006L1071.25,596.01L1071.18,596.016L1071.12,596.023L1071.06,596.031L1071,596.041L1070.94,596.051L1070.88,596.063L1070.82,596.076L1070.76,596.09L1070.7,596.105L1070.64,596.121L1070.58,596.139L1070.53,596.157L1070.47,596.177L1070.42,596.197L1070.36,596.219L1070.31,596.242L1070.26,596.265L1070.2,596.29L1070.15,596.315L1070.1,596.342L1070.05,596.369L1070.01,596.398L1069.96,596.427L1069.91,596.457L1069.86,596.488L1069.82,596.52L1069.78,596.553L1069.73,596.586L1069.69,596.62L1069.65,596.656L1069.61,596.691L1069.57,596.728L1069.53,596.766L1069.5,596.804L1069.46,596.843L1069.43,596.882L1069.39,596.922L1069.36,596.963L1069.33,597.005L1069.3,597.047L1069.27,597.09L1069.25,597.133L1069.22,597.177L1069.2,597.222L1069.17,597.267L1069.15,597.313L1069.13,597.359L1069.11,597.406L1069.1,597.453L1069.08,597.5L1069.06,597.549L1069.05,597.597L1069.04,597.646L1069.03,597.696L1069.02,597.745L1069.01,597.796L1069.01,597.846L1069,597.897L1069,597.948L1069,598L1069,598.052L1069,598.103L1069.01,598.154L1069.01,598.204L1069.02,598.255L1069.03,598.304L1069.04,598.354L1069.05,598.403L1069.06,598.451L1069.08,598.5L1069.1,598.547L1069.11,598.594L1069.13,598.641L1069.15,598.687L1069.17,598.733L1069.2,598.778L1069.22,598.823L1069.25,598.867L1069.27,598.91L1069.3,598.953L1069.33,598.995L1069.36,599.037L1069.39,599.078L1069.43,599.118L1069.46,599.157L1069.5,599.196L1069.53,599.234L1069.57,599.272L1069.61,599.309L1069.65,599.344L1069.69,599.38L1069.73,599.414L1069.78,599.447L1069.82,599.48L1069.86,599.512L1069.91,599.543L1069.96,599.573L1070.01,599.602L1070.05,599.631L1070.1,599.658L1070.15,599.685L1070.2,599.71L1070.26,599.735L1070.31,599.758L1070.36,599.781L1070.42,599.803L1070.47,599.823L1070.53,599.843L1070.58,599.861L1070.64,599.879L1070.7,599.895L1070.76,599.91L1070.82,599.924L1070.88,599.937L1070.94,599.949L1071,599.959L1071.06,599.969L1071.12,599.977L1071.18,599.984L1071.25,599.99L1071.31,599.994L1071.37,599.997L1071.44,599.999L1071.5,600L1071.56,599.999ZM1071.48,598.666L1071.46,598.666L1071.43,598.665L1071.41,598.663L1071.39,598.661L1071.37,598.659L1071.35,598.656L1071.33,598.653L1071.31,598.65L1071.29,598.646L1071.27,598.641L1071.25,598.637L1071.23,598.632L1071.21,598.627L1071.2,598.621L1071.18,598.615L1071.16,598.608L1071.14,598.602L1071.12,598.594L1071.11,598.587L1071.09,598.579L1071.07,598.571L1071.05,598.562L1071.04,598.553L1071.02,598.544L1071,598.535L1070.99,598.525L1070.97,598.515L1070.96,598.504L1070.94,598.493L1070.93,598.482L1070.91,598.471L1070.9,598.459L1070.88,598.448L1070.87,598.435L1070.86,598.423L1070.84,598.41L1070.83,598.398L1070.82,598.385L1070.81,598.371L1070.8,598.358L1070.79,598.344L1070.78,598.33L1070.77,598.316L1070.76,598.302L1070.75,598.288L1070.74,598.273L1070.73,598.258L1070.72,598.244L1070.72,598.229L1070.71,598.213L1070.7,598.198L1070.7,598.183L1070.69,598.167L1070.69,598.151L1070.68,598.135L1070.68,598.119L1070.68,598.103L1070.67,598.086L1070.67,598.07L1070.67,598.053L1070.67,598.035L1070.67,598.018L1070.67,598L1070.67,597.982L1070.67,597.965L1070.67,597.947L1070.67,597.93L1070.67,597.914L1070.68,597.897L1070.68,597.881L1070.68,597.865L1070.69,597.849L1070.69,597.833L1070.7,597.817L1070.7,597.802L1070.71,597.787L1070.72,597.771L1070.72,597.756L1070.73,597.742L1070.74,597.727L1070.75,597.712L1070.76,597.698L1070.77,597.684L1070.78,597.67L1070.79,597.656L1070.8,597.642L1070.81,597.629L1070.82,597.615L1070.83,597.602L1070.84,597.59L1070.86,597.577L1070.87,597.565L1070.88,597.552L1070.9,597.541L1070.91,597.529L1070.93,597.518L1070.94,597.507L1070.96,597.496L1070.97,597.485L1070.99,597.475L1071,597.465L1071.02,597.456L1071.04,597.447L1071.05,597.438L1071.07,597.429L1071.09,597.421L1071.11,597.413L1071.12,597.406L1071.14,597.398L1071.16,597.392L1071.18,597.385L1071.19,597.379L1071.21,597.373L1071.23,597.368L1071.25,597.363L1071.27,597.359L1071.29,597.354L1071.31,597.35L1071.33,597.347L1071.35,597.344L1071.37,597.341L1071.39,597.339L1071.41,597.337L1071.43,597.335L1071.46,597.334L1071.48,597.334L1071.5,597.333L1071.52,597.334L1071.54,597.334L1071.57,597.335L1071.59,597.337L1071.61,597.339L1071.63,597.341L1071.65,597.344L1071.67,597.347L1071.69,597.35L1071.71,597.354L1071.73,597.359L1071.75,597.363L1071.77,597.368L1071.79,597.373L1071.8,597.379L1071.82,597.385L1071.84,597.392L1071.86,597.398L1071.88,597.406L1071.89,597.413L1071.91,597.421L1071.93,597.429L1071.95,597.438L1071.96,597.447L1071.98,597.456L1072,597.465L1072.01,597.475L1072.03,597.485L1072.04,597.496L1072.06,597.507L1072.07,597.518L1072.09,597.529L1072.1,597.541L1072.12,597.552L1072.13,597.565L1072.14,597.577L1072.16,597.59L1072.17,597.602L1072.18,597.615L1072.19,597.629L1072.2,597.642L1072.21,597.656L1072.22,597.67L1072.23,597.684L1072.24,597.698L1072.25,597.712L1072.26,597.727L1072.27,597.742L1072.28,597.756L1072.28,597.771L1072.29,597.787L1072.3,597.802L1072.3,597.817L1072.31,597.833L1072.31,597.849L1072.32,597.865L1072.32,597.881L1072.32,597.897L1072.33,597.914L1072.33,597.931L1072.33,597.947L1072.33,597.965L1072.33,597.982L1072.33,598L1072.33,598.018L1072.33,598.035L1072.33,598.053L1072.33,598.069L1072.33,598.086L1072.32,598.103L1072.32,598.119L1072.32,598.135L1072.31,598.151L1072.31,598.167L1072.3,598.183L1072.3,598.198L1072.29,598.213L1072.28,598.229L1072.28,598.244L1072.27,598.258L1072.26,598.273L1072.25,598.288L1072.24,598.302L1072.23,598.316L1072.22,598.33L1072.21,598.344L1072.2,598.358L1072.19,598.371L1072.18,598.385L1072.17,598.398L1072.16,598.41L1072.14,598.423L1072.13,598.435L1072.12,598.448L1072.1,598.459L1072.09,598.471L1072.07,598.482L1072.06,598.493L1072.04,598.504L1072.03,598.515L1072.01,598.525L1072,598.535L1071.98,598.544L1071.96,598.553L1071.95,598.562L1071.93,598.571L1071.91,598.579L1071.89,598.587L1071.88,598.594L1071.86,598.602L1071.84,598.608L1071.82,598.615L1071.8,598.621L1071.79,598.627L1071.77,598.632L1071.75,598.637L1071.73,598.641L1071.71,598.646L1071.69,598.65L1071.67,598.653L1071.65,598.656L1071.63,598.659L1071.61,598.661L1071.59,598.663L1071.57,598.665L1071.54,598.666L1071.52,598.666L1071.5,598.667L1071.48,598.666Z" style="fill:rgb(230,157,56);"/>
                </g>
            </g>
        </g>
    </g>
</svg>
