<?xml version="1.0" encoding="UTF-8" standalone="no"?><!DOCTYPE svg PUBLIC "-//W3C//DTD SVG 1.1//EN" "http://www.w3.org/Graphics/SVG/1.1/DTD/svg11.dtd"><svg width="100%" height="100%" viewBox="0 0 16 16" version="1.1" xmlns="http://www.w3.org/2000/svg" xmlns:xlink="http://www.w3.org/1999/xlink" xml:space="preserve" xmlns:serif="http://www.serif.com/" style="fill-rule:evenodd;clip-rule:evenodd;stroke-miterlimit:1;"><g id="ObjectIcons_AudioObjectUnknown_3DView"><clipPath id="_clip1"><rect x="-0" y="-0" width="16" height="16"/></clipPath><g clip-path="url(#_clip1)"><path id="Base-Block" serif:id="Base Block" d="M16,2.24c-0,-1.236 -1.004,-2.24 -2.24,-2.24l-11.52,-0c-1.236,-0 -2.24,1.004 -2.24,2.24l-0,11.52c-0,1.236 1.004,2.24 2.24,2.24l11.52,-0c1.236,-0 2.24,-1.004 2.24,-2.24l-0,-11.52Z" style="fill-opacity:0;"/><circle cx="8" cy="8" r="7" style="fill:#fff;"/><path d="M8,0c-4.415,0 -8,3.585 -8,8c-0,4.415 3.585,8 8,8c4.415,0 8,-3.585 8,-8c-0,-4.415 -3.585,-8 -8,-8Zm-0,1c3.863,0 7,3.137 7,7c-0,3.863 -3.137,7 -7,7c-3.863,0 -7,-3.137 -7,-7c-0,-3.863 3.137,-7 7,-7Z"/><g id="Speaker"></g><path d="M10,4.764c3.42,1.236 3.42,5.236 0,6.512" style="fill:none;stroke:#000;stroke-width:1px;"/><path d="M5.957,4.764c-3.42,1.236 -3.42,5.236 0,6.512" style="fill:none;stroke:#000;stroke-width:1px;"/><circle cx="8.003" cy="8.003" r="1.532"/></g></g></svg>