<?xml version="1.0" encoding="UTF-8" standalone="no"?><!DOCTYPE svg PUBLIC "-//W3C//DTD SVG 1.1//EN" "http://www.w3.org/Graphics/SVG/1.1/DTD/svg11.dtd"><svg width="100%" height="100%" viewBox="0 0 15 15" version="1.1" xmlns="http://www.w3.org/2000/svg" xmlns:xlink="http://www.w3.org/1999/xlink" xml:space="preserve" xmlns:serif="http://www.serif.com/" style="fill-rule:evenodd;clip-rule:evenodd;stroke-miterlimit:1;"><g id="ObjectIcons_AudioObjectUnknown_dis" opacity="0.3"><path id="Base-Block" serif:id="Base Block" d="M15,2.1c0,-1.159 -0.941,-2.1 -2.1,-2.1l-10.8,-0c-1.159,-0 -2.1,0.941 -2.1,2.1l0,10.8c0,1.159 0.941,2.1 2.1,2.1l10.8,-0c1.159,-0 2.1,-0.941 2.1,-2.1l0,-10.8Z" style="fill:#4b4b4b;"/><g id="Disc"><circle cx="7.5" cy="7.5" r="7.5"/><circle cx="7.5" cy="7.5" r="6.5" style="fill:#fff;"/><circle cx="7.5" cy="7.5" r="6.5" style="fill:#fff;"/></g><g id="Speaker"></g><path d="M9.51,4.466c2.679,1.898 2.892,3.922 0,6.106" style="fill:none;stroke:#000;stroke-width:1px;"/><path d="M5.6,4.466c-2.679,1.898 -2.892,3.922 0,6.106" style="fill:none;stroke:#000;stroke-width:1px;"/><circle cx="7.503" cy="7.503" r="1.5"/></g></svg>