<?xml version="1.0" encoding="UTF-8" standalone="no"?><!DOCTYPE svg PUBLIC "-//W3C//DTD SVG 1.1//EN" "http://www.w3.org/Graphics/SVG/1.1/DTD/svg11.dtd"><svg width="100%" height="100%" viewBox="0 0 15 15" version="1.1" xmlns="http://www.w3.org/2000/svg" xmlns:xlink="http://www.w3.org/1999/xlink" xml:space="preserve" xmlns:serif="http://www.serif.com/" style="fill-rule:evenodd;clip-rule:evenodd;stroke-linejoin:round;stroke-miterlimit:2;"><g id="ObjectIcons_RayTransmissionLoss_nor"><g id="Icons"><g id="Base-Block" serif:id="Base Block"><path d="M15,2.1c-0,-1.159 -0.941,-2.1 -2.1,-2.1l-10.8,0c-1.159,0 -2.1,0.941 -2.1,2.1l-0,10.8c-0,1.159 0.941,2.1 2.1,2.1l10.8,0c1.159,0 2.1,-0.941 2.1,-2.1l-0,-10.8Z" style="fill:#4b4b4b;"/></g><path d="M6,7c-0,-0.552 -0.448,-1 -1,-1l-4,0c-0.552,0 -1,0.448 -1,1l-0,1c0,0.552 0.448,1 1,1l4,0c0.552,0 1,-0.448 1,-1l-0,-1Zm-1,0l-4,0l-0,1l4,0l-0,-1Z"/><rect x="1" y="7" width="4" height="1" style="fill:#fff;"/><path d="M11,7c0,-0.552 -0.448,-1 -1,-1l-2,0c-0.552,0 -1,0.448 -1,1l-0,1c-0,0.552 0.448,1 1,1l2,0c0.552,0 1,-0.448 1,-1l-0,-1Zm-1,0l-2,0l-0,1l2,0l-0,-1Z"/><rect x="8" y="7" width="2" height="1" style="fill:#919191;"/><path d="M8,1c0,-0.552 -0.448,-1 -1,-1l-1,0c-0.552,0 -1,0.448 -1,1l-0,13c0,0.552 0.448,1 1,1l1,0c0.552,0 1,-0.448 1,-1l-0,-13Zm-1,0l-1,0l-0,13l1,0l-0,-13Z"/><rect x="6" y="1" width="1" height="13" style="fill:#fff;"/><circle cx="12.5" cy="7.5" r="2.5"/><circle cx="12.5" cy="7.5" r="1.5" style="fill:#fff;"/></g></g></svg>