<?xml version="1.0" encoding="UTF-8" standalone="no"?><!DOCTYPE svg PUBLIC "-//W3C//DTD SVG 1.1//EN" "http://www.w3.org/Graphics/SVG/1.1/DTD/svg11.dtd"><svg width="100%" height="100%" viewBox="0 0 15 15" version="1.1" xmlns="http://www.w3.org/2000/svg" xmlns:xlink="http://www.w3.org/1999/xlink" xml:space="preserve" xmlns:serif="http://www.serif.com/" style="fill-rule:evenodd;clip-rule:evenodd;stroke-linejoin:round;stroke-miterlimit:2;"><g id="ObjectIcons_StageFx_nor"><g id="Icons"><g id="Base-Block" serif:id="Base Block"><path d="M15,2.1c-0,-1.159 -0.941,-2.1 -2.1,-2.1l-10.8,0c-1.159,0 -2.1,0.941 -2.1,2.1l-0,10.8c-0,1.159 0.941,2.1 2.1,2.1l10.8,0c1.159,0 2.1,-0.941 2.1,-2.1l-0,-10.8Z" style="fill-opacity:0;"/></g><path d="M9.492,10.564l1.745,-2.294l1.475,1.521l-2.192,1.801l2.137,1.745l-0.643,0.663l-1.296,0l-1.128,-1.514l-1.135,1.514l-1.376,0l-0.698,-0.72l2.276,-1.79l-2.233,-1.744l1.376,-1.419l1.692,2.237Z" style="fill:#fff;fill-rule:nonzero;"/><path d="M9.494,8.909l0.948,-1.244c0.176,-0.232 0.445,-0.376 0.736,-0.393c0.291,-0.017 0.575,0.093 0.777,0.302l1.475,1.521c0.194,0.201 0.296,0.474 0.28,0.753c-0.016,0.279 -0.147,0.538 -0.363,0.716l-1.249,1.025l1.191,0.973c0.217,0.177 0.35,0.437 0.366,0.716c0.017,0.28 -0.085,0.554 -0.28,0.755l-0.643,0.663c-0.188,0.194 -0.447,0.304 -0.718,0.304l-1.296,0c-0.316,-0 -0.613,-0.149 -0.802,-0.403l-0.328,-0.441l-0.332,0.444c-0.189,0.252 -0.486,0.4 -0.801,0.4l-1.376,0c-0.271,-0 -0.53,-0.11 -0.718,-0.304l-0.698,-0.72c-0.197,-0.203 -0.299,-0.481 -0.28,-0.763c0.019,-0.283 0.157,-0.544 0.38,-0.719l1.273,-1.001l-1.227,-0.959c-0.224,-0.175 -0.363,-0.436 -0.382,-0.719c-0.02,-0.283 0.082,-0.561 0.279,-0.765l1.376,-1.419c0.204,-0.21 0.488,-0.32 0.78,-0.302c0.291,0.017 0.56,0.162 0.736,0.395l0.896,1.185Zm-0.002,1.655l1.745,-2.294l1.475,1.521l-2.192,1.801l2.137,1.745l-0.643,0.663l-1.296,0l-1.128,-1.514l-1.135,1.514l-1.376,0l-0.698,-0.72l2.276,-1.79l-2.233,-1.744l1.376,-1.419l1.692,2.237Z"/><path d="M2,7l6,0l-0,2l-4,0l-0,1l2,0l-0,1.501l-2,-0l-0,2.499l-2,0l-0,-7Z" style="fill:#fff;fill-rule:nonzero;"/><path d="M5,12.501l-0,1.499c0,0.552 -0.448,1 -1,1l-2,0c-0.552,-0 -1,-0.448 -1,-1l-0,-7c-0,-0.552 0.448,-1 1,-1l6,0c0.552,0 1,0.448 1,1l-0,2c-0,0.552 -0.448,1 -1,1l-1,0l-0,1.501c0,0.552 -0.448,1 -1,1l-1,-0Zm-3,-5.501l6,0l-0,2l-4,0l-0,1l2,0l-0,1.501l-2,-0l-0,2.499l-2,0l-0,-7Z"/><path d="M6,4l-0,2l3,-0l-0,-2l-3,-0Z" style="fill:#c8c8c8;"/><path d="M6,3c-0.552,0 -1,0.448 -1,1l-0,2c-0,0.552 0.448,1 1,1l3,-0c0.552,-0 1,-0.448 1,-1l-0,-2c0,-0.552 -0.448,-1 -1,-1l-3,-0Zm-0,1l-0,2l3,-0l-0,-2l-3,-0Z"/><path d="M7.5,1l5.5,4l-11,-0l5.5,-4Z" style="fill:#fff;"/><path d="M8.088,0.191c-0.35,-0.255 -0.826,-0.255 -1.176,0l-5.5,4c-0.35,0.255 -0.497,0.706 -0.363,1.118c0.134,0.412 0.518,0.691 0.951,0.691l11,-0c0.433,0 0.817,-0.279 0.951,-0.691c0.134,-0.412 -0.013,-0.863 -0.363,-1.118l-5.5,-4Zm-0.588,0.809l5.5,4l-11,-0l5.5,-4Z"/><path d="M6,4l-0,2l3,0l-0,-2l-3,-0Z" style="fill:#fff;"/></g></g></svg>