<?xml version="1.0" encoding="UTF-8" standalone="no"?><!DOCTYPE svg PUBLIC "-//W3C//DTD SVG 1.1//EN" "http://www.w3.org/Graphics/SVG/1.1/DTD/svg11.dtd"><svg width="100%" height="100%" viewBox="0 0 15 15" version="1.1" xmlns="http://www.w3.org/2000/svg" xmlns:xlink="http://www.w3.org/1999/xlink" xml:space="preserve" xmlns:serif="http://www.serif.com/" style="fill-rule:evenodd;clip-rule:evenodd;stroke-linejoin:round;stroke-miterlimit:2;"><g id="ObjectBased_StageInput_nor"><g id="Icons"><g id="Base-Block" serif:id="Base Block"><path d="M2.1,0c-1.159,0 -2.1,0.941 -2.1,2.1l-0,10.8c-0,1.159 0.941,2.1 2.1,2.1l10.8,0c1.159,0 2.1,-0.941 2.1,-2.1l-0,-10.8c-0,-1.159 -0.941,-2.1 -2.1,-2.1l-10.8,0Z" style="fill-opacity:0;"/></g><g id="Arrow"><path d="M6,14l-0,-6l3,-0l-0,6l-3,-0Z" style="fill:#bdbdbd;"/><path d="M5,14c-0,0.552 0.448,1 1,1l3,-0c0.552,-0 1,-0.448 1,-1l-0,-6c0,-0.552 -0.448,-1 -1,-1l-3,-0c-0.552,0 -1,0.448 -1,1l-0,6Zm1,-0l-0,-6l3,-0l-0,6l-3,-0Z"/><path d="M2,10l11,-0l-5.5,-4l-5.5,4Z" style="fill:#fff;fill-rule:nonzero;"/><path d="M1.412,9.191c-0.35,0.255 -0.497,0.706 -0.363,1.118c0.134,0.412 0.518,0.691 0.951,0.691l11,-0c0.433,-0 0.817,-0.279 0.951,-0.691c0.134,-0.412 -0.013,-0.863 -0.363,-1.118l-5.5,-4c-0.35,-0.255 -0.826,-0.255 -1.176,0l-5.5,4Zm0.588,0.809l11,-0l-5.5,-4l-5.5,4Z"/><path d="M6,14l-0,-4l3,-0l-0,4l-3,-0Z" style="fill:#fff;"/></g><path d="M1,4l-0,-3l13,-0l-0,3l-13,-0Z" style="fill:#fff;"/><path d="M-0,4c-0,0.552 0.448,1 1,1l13,-0c0.552,-0 1,-0.448 1,-1l-0,-3c0,-0.552 -0.448,-1 -1,-1l-13,-0c-0.552,-0 -1,0.448 -1,1l-0,3Zm1,-0l-0,-3l13,-0l-0,3l-13,-0Z"/></g></g></svg>