<?xml version="1.0" encoding="UTF-8" standalone="no"?>
<!DOCTYPE svg PUBLIC "-//W3C//DTD SVG 1.1//EN" "http://www.w3.org/Graphics/SVG/1.1/DTD/svg11.dtd">
<svg width="100%" height="100%" viewBox="0 0 19 19" version="1.1" xmlns="http://www.w3.org/2000/svg" xmlns:xlink="http://www.w3.org/1999/xlink" xml:space="preserve" xmlns:serif="http://www.serif.com/" style="fill-rule:evenodd;clip-rule:evenodd;stroke-linejoin:round;stroke-miterlimit:2;">
    <g transform="matrix(1,0,0,1,-29,-4)">
        <g id="Filter_Unlink_Disabled" transform="matrix(2.28048,0,0,3.27478,-298.674,-964.872)">
            <g opacity="0.3">
                <g transform="matrix(0.490092,0,0,0.341289,-26.8659,-49.1847)">
                    <rect x="348" y="1011" width="17" height="17" style="fill-opacity:0;"/>
                </g>
                <g id="Unlink-Checked" serif:id="Unlink Checked" transform="matrix(1,0,0,1,-14.4706,-35.7275)">
                    <g transform="matrix(0.438504,0,0,0.305364,116.937,254.023)">
                        <path d="M99.75,260L102.18,260L103,260.82L103,262L99.75,262C98.467,262 97.875,262.659 97.875,264.041C97.875,265.423 98.467,266 99.75,266L103,266L103,268L99.75,268C97.68,268 96,266.272 96,264.041C96,261.81 97.68,260 99.75,260ZM108.072,265.892L109.444,267.264C108.827,267.729 108.069,268 107.25,268L104,268L104,266L107.25,266C107.565,266 107.839,265.965 108.072,265.892ZM107.25,260C109.32,260 111,261.81 111,264.041C111,264.835 110.787,265.566 110.419,266.177L109.046,264.804C109.099,264.584 109.125,264.33 109.125,264.041C109.125,262.659 108.533,262 107.25,262L106.242,262L104.242,260L107.25,260ZM105.18,263L106,263.82L106,265L101,265L101,263L105.18,263ZM104,262L104,261.82L104.18,262L104,262Z" style="fill:none;fill-rule:nonzero;"/>
                    </g>
                    <g transform="matrix(0.395396,0.275344,-0.309639,0.215626,287.94,50.4266)">
                        <rect x="350" y="860" width="14" height="1.77" style="fill:none;"/>
                    </g>
                </g>
                <g id="Link-Icon" serif:id="Link Icon" transform="matrix(0.328878,0,0,0.246792,143.905,296.21)">
                    <path d="M17.165,4.765L17.33,4.771L17.494,4.781L17.656,4.796L17.818,4.814L17.978,4.837L18.137,4.863L18.295,4.893L18.451,4.927L18.606,4.965L18.759,5.007L18.91,5.052L19.06,5.1L19.208,5.153L19.354,5.208L19.499,5.267L19.641,5.33L19.782,5.395L19.92,5.464L20.056,5.536L20.191,5.611L20.323,5.689L20.452,5.77L20.58,5.854L20.705,5.941L20.828,6.03L20.948,6.123L21.066,6.218L21.181,6.315L21.294,6.415L21.405,6.518L21.512,6.623L21.617,6.731L21.72,6.841L21.819,6.953L21.916,7.068L22.01,7.184L22.102,7.303L22.19,7.425L22.275,7.548L22.358,7.673L22.437,7.8L22.514,7.929L22.587,8.06L22.657,8.193L22.724,8.328L22.788,8.464L22.848,8.602L22.905,8.742L22.959,8.883L23.009,9.026L23.056,9.17L23.1,9.316L23.139,9.463L23.176,9.612L23.208,9.762L23.237,9.913L23.263,10.065L23.284,10.218L23.302,10.373L23.316,10.528L23.325,10.685L23.331,10.842L23.333,11L23.331,11.158L23.325,11.315L23.315,11.471L23.302,11.627L23.284,11.781L23.262,11.934L23.237,12.085L23.208,12.236L23.175,12.385L23.139,12.533L23.099,12.679L23.055,12.824L23.008,12.968L22.957,13.11L22.903,13.25L22.845,13.388L22.784,13.525L22.72,13.66L22.653,13.794L22.582,13.925L22.508,14.054L22.431,14.182L22.351,14.308L22.268,14.431L22.182,14.552L22.093,14.671L22.001,14.788L21.906,14.903L21.809,15.016L21.708,15.126L21.605,15.234L21.499,15.339L21.391,15.442L21.28,15.542L21.167,15.64L21.051,15.735L20.932,15.827L20.811,15.917L20.688,16.004L20.563,16.088L20.435,16.169L20.305,16.248L20.173,16.323L20.039,16.396L19.902,16.465L19.764,16.531L19.624,16.595L19.482,16.654L19.338,16.711L19.192,16.764L19.044,16.814L18.895,16.861L18.744,16.904L18.592,16.944L18.438,16.98L18.283,17.012L18.127,17.041L17.969,17.066L17.81,17.087L17.65,17.105L17.489,17.118L17.327,17.128L17.164,17.134L17.009,17.136L6.991,17.136L6.836,17.134L6.673,17.128L6.511,17.118L6.35,17.105L6.19,17.087L6.031,17.066L5.873,17.041L5.717,17.012L5.562,16.98L5.408,16.944L5.256,16.904L5.105,16.861L4.956,16.814L4.808,16.764L4.662,16.711L4.518,16.654L4.376,16.595L4.236,16.531L4.098,16.465L3.961,16.396L3.827,16.323L3.695,16.248L3.565,16.17L3.437,16.088L3.312,16.004L3.189,15.917L3.068,15.827L2.949,15.735L2.833,15.64L2.72,15.542L2.609,15.442L2.501,15.339L2.395,15.234L2.292,15.126L2.191,15.016L2.094,14.903L1.999,14.788L1.907,14.671L1.818,14.552L1.732,14.431L1.649,14.307L1.569,14.182L1.492,14.054L1.418,13.925L1.347,13.794L1.28,13.66L1.216,13.525L1.155,13.388L1.097,13.25L1.043,13.11L0.992,12.968L0.945,12.824L0.901,12.679L0.861,12.533L0.825,12.385L0.792,12.236L0.763,12.085L0.738,11.934L0.716,11.781L0.698,11.627L0.685,11.471L0.675,11.315L0.669,11.158L0.667,11L0.669,10.842L0.675,10.685L0.684,10.528L0.698,10.373L0.716,10.218L0.737,10.065L0.763,9.913L0.792,9.762L0.824,9.612L0.861,9.463L0.9,9.316L0.944,9.17L0.991,9.026L1.041,8.883L1.095,8.742L1.152,8.602L1.212,8.464L1.276,8.328L1.343,8.193L1.413,8.06L1.486,7.929L1.563,7.8L1.642,7.673L1.725,7.548L1.81,7.424L1.898,7.303L1.99,7.184L2.084,7.068L2.181,6.953L2.28,6.841L2.383,6.731L2.488,6.623L2.595,6.518L2.706,6.415L2.819,6.315L2.934,6.218L3.052,6.123L3.172,6.03L3.295,5.941L3.42,5.854L3.548,5.77L3.677,5.689L3.809,5.611L3.944,5.536L4.08,5.464L4.218,5.395L4.359,5.33L4.501,5.267L4.646,5.208L4.792,5.153L4.94,5.1L5.09,5.052L5.241,5.007L5.394,4.965L5.549,4.927L5.705,4.893L5.863,4.863L6.022,4.837L6.182,4.814L6.344,4.796L6.506,4.781L6.67,4.771L6.835,4.765L6.991,4.763L17.009,4.763L17.165,4.765ZM7,6L6.871,6.002L6.743,6.007L6.615,6.015L6.489,6.026L6.363,6.04L6.239,6.058L6.115,6.078L5.993,6.102L5.871,6.128L5.751,6.158L5.632,6.19L5.514,6.225L5.397,6.263L5.281,6.304L5.167,6.347L5.054,6.393L4.943,6.442L4.833,6.493L4.724,6.547L4.617,6.604L4.512,6.663L4.408,6.724L4.306,6.788L4.205,6.854L4.106,6.923L4.009,6.994L3.914,7.067L3.82,7.142L3.728,7.22L3.639,7.299L3.551,7.381L3.465,7.465L3.381,7.551L3.299,7.639L3.22,7.728L3.142,7.82L3.067,7.914L2.994,8.009L2.923,8.106L2.854,8.205L2.788,8.306L2.724,8.408L2.663,8.512L2.604,8.617L2.547,8.724L2.493,8.833L2.442,8.943L2.393,9.054L2.347,9.167L2.304,9.281L2.263,9.397L2.225,9.514L2.19,9.632L2.158,9.751L2.128,9.871L2.102,9.993L2.078,10.115L2.058,10.239L2.04,10.363L2.026,10.489L2.015,10.615L2.007,10.743L2.002,10.871L2,11L2.002,11.129L2.007,11.257L2.015,11.384L2.026,11.51L2.04,11.635L2.058,11.759L2.078,11.881L2.102,12.003L2.128,12.123L2.158,12.242L2.19,12.36L2.225,12.477L2.263,12.592L2.304,12.706L2.347,12.819L2.393,12.93L2.442,13.039L2.493,13.148L2.547,13.254L2.604,13.359L2.663,13.463L2.724,13.564L2.788,13.664L2.854,13.763L2.923,13.86L2.994,13.954L3.067,14.047L3.142,14.139L3.22,14.228L3.299,14.315L3.381,14.401L3.465,14.484L3.551,14.566L3.639,14.645L3.728,14.722L3.82,14.798L3.914,14.871L4.009,14.941L4.106,15.01L4.205,15.076L4.306,15.14L4.408,15.202L4.512,15.261L4.617,15.318L4.724,15.373L4.833,15.425L4.943,15.474L5.054,15.521L5.167,15.566L5.281,15.608L5.397,15.647L5.514,15.683L5.632,15.717L5.751,15.748L5.871,15.776L5.993,15.801L6.115,15.824L6.239,15.843L6.363,15.86L6.489,15.874L6.615,15.885L6.743,15.892L6.871,15.897L7,15.899L11.333,15.899L11.333,13.424L7,13.424L6.921,13.423L6.842,13.422L6.766,13.419L6.69,13.416L6.616,13.411L6.543,13.405L6.472,13.398L6.402,13.39L6.333,13.381L6.265,13.371L6.199,13.359L6.134,13.347L6.071,13.333L6.009,13.319L5.948,13.303L5.888,13.286L5.83,13.268L5.773,13.248L5.717,13.228L5.662,13.206L5.609,13.183L5.557,13.159L5.507,13.134L5.458,13.108L5.409,13.08L5.363,13.052L5.317,13.022L5.273,12.99L5.23,12.958L5.188,12.924L5.148,12.889L5.109,12.853L5.071,12.816L5.034,12.777L4.999,12.737L4.965,12.696L4.932,12.654L4.9,12.61L4.869,12.565L4.84,12.518L4.812,12.471L4.785,12.422L4.76,12.372L4.735,12.32L4.712,12.267L4.69,12.213L4.67,12.157L4.65,12.1L4.632,12.042L4.615,11.982L4.599,11.921L4.584,11.859L4.571,11.795L4.558,11.73L4.547,11.663L4.537,11.595L4.529,11.526L4.521,11.455L4.515,11.383L4.509,11.309L4.505,11.234L4.502,11.157L4.501,11.079L4.5,11L4.501,10.92L4.502,10.842L4.505,10.765L4.509,10.69L4.515,10.616L4.521,10.543L4.529,10.471L4.537,10.401L4.547,10.331L4.558,10.264L4.571,10.197L4.584,10.132L4.599,10.068L4.615,10.005L4.632,9.944L4.65,9.884L4.67,9.825L4.69,9.768L4.712,9.712L4.735,9.657L4.76,9.603L4.785,9.55L4.812,9.499L4.84,9.45L4.869,9.401L4.9,9.354L4.932,9.308L4.965,9.263L4.999,9.219L5.034,9.177L5.071,9.136L5.109,9.096L5.148,9.058L5.188,9.02L5.23,8.984L5.273,8.949L5.317,8.916L5.363,8.884L5.409,8.853L5.458,8.823L5.507,8.794L5.557,8.767L5.609,8.741L5.662,8.716L5.717,8.692L5.773,8.67L5.83,8.649L5.888,8.629L5.948,8.61L6.009,8.593L6.071,8.576L6.134,8.561L6.199,8.547L6.265,8.535L6.333,8.523L6.402,8.513L6.472,8.504L6.543,8.496L6.616,8.49L6.69,8.484L6.766,8.48L6.842,8.477L6.921,8.475L7,8.475L11.333,8.475L11.333,6L7,6ZM12.667,8.475L17,8.475L17.079,8.475L17.158,8.477L17.234,8.48L17.31,8.484L17.384,8.49L17.457,8.496L17.528,8.504L17.598,8.513L17.667,8.523L17.735,8.535L17.801,8.547L17.866,8.561L17.929,8.576L17.991,8.593L18.052,8.61L18.112,8.629L18.17,8.649L18.227,8.67L18.283,8.692L18.338,8.716L18.391,8.741L18.443,8.767L18.493,8.794L18.542,8.823L18.591,8.853L18.637,8.884L18.683,8.916L18.727,8.949L18.77,8.984L18.812,9.02L18.852,9.058L18.891,9.096L18.929,9.136L18.966,9.177L19.001,9.219L19.035,9.263L19.068,9.308L19.1,9.354L19.131,9.401L19.16,9.45L19.188,9.499L19.215,9.55L19.24,9.603L19.265,9.657L19.288,9.712L19.31,9.768L19.33,9.825L19.35,9.884L19.368,9.944L19.385,10.005L19.401,10.068L19.416,10.132L19.429,10.197L19.442,10.264L19.453,10.331L19.463,10.401L19.471,10.471L19.479,10.543L19.485,10.616L19.491,10.69L19.495,10.765L19.498,10.842L19.499,10.92L19.5,11L19.499,11.079L19.498,11.157L19.495,11.234L19.491,11.309L19.485,11.383L19.479,11.455L19.471,11.526L19.463,11.595L19.453,11.663L19.442,11.73L19.429,11.795L19.416,11.859L19.401,11.921L19.385,11.982L19.368,12.042L19.35,12.1L19.33,12.157L19.31,12.213L19.288,12.267L19.265,12.32L19.24,12.372L19.215,12.422L19.188,12.471L19.16,12.518L19.131,12.565L19.1,12.61L19.068,12.654L19.035,12.696L19.001,12.737L18.966,12.777L18.929,12.816L18.891,12.853L18.852,12.889L18.812,12.924L18.77,12.958L18.727,12.99L18.683,13.022L18.637,13.052L18.591,13.08L18.542,13.108L18.493,13.134L18.443,13.159L18.391,13.183L18.338,13.206L18.283,13.228L18.227,13.248L18.17,13.268L18.112,13.286L18.052,13.303L17.991,13.319L17.929,13.333L17.866,13.347L17.801,13.359L17.735,13.371L17.667,13.381L17.598,13.39L17.528,13.398L17.457,13.405L17.384,13.411L17.31,13.416L17.234,13.419L17.158,13.422L17.079,13.423L17,13.424L12.667,13.424L12.667,15.899L17,15.899L17.129,15.897L17.257,15.892L17.385,15.885L17.511,15.874L17.637,15.86L17.761,15.843L17.885,15.824L18.007,15.801L18.129,15.776L18.249,15.748L18.368,15.717L18.486,15.683L18.603,15.647L18.719,15.608L18.833,15.566L18.946,15.521L19.057,15.474L19.167,15.425L19.276,15.373L19.383,15.318L19.488,15.261L19.592,15.202L19.694,15.14L19.795,15.076L19.894,15.01L19.991,14.941L20.086,14.871L20.18,14.798L20.272,14.722L20.361,14.645L20.449,14.566L20.535,14.484L20.619,14.401L20.701,14.315L20.78,14.228L20.858,14.139L20.933,14.047L21.006,13.954L21.077,13.86L21.146,13.763L21.212,13.664L21.276,13.564L21.337,13.463L21.396,13.359L21.453,13.254L21.507,13.148L21.558,13.039L21.607,12.93L21.653,12.819L21.696,12.706L21.737,12.592L21.775,12.477L21.81,12.36L21.842,12.242L21.872,12.123L21.898,12.003L21.922,11.881L21.942,11.759L21.96,11.635L21.974,11.51L21.985,11.384L21.993,11.257L21.998,11.129L22,11L21.998,10.871L21.993,10.743L21.985,10.615L21.974,10.489L21.96,10.363L21.942,10.239L21.922,10.115L21.898,9.993L21.872,9.871L21.842,9.751L21.81,9.632L21.775,9.514L21.737,9.397L21.696,9.281L21.653,9.167L21.607,9.054L21.558,8.943L21.507,8.833L21.453,8.724L21.396,8.617L21.337,8.512L21.276,8.408L21.212,8.306L21.146,8.205L21.077,8.106L21.006,8.009L20.933,7.914L20.858,7.82L20.78,7.728L20.701,7.639L20.619,7.551L20.535,7.465L20.449,7.381L20.361,7.299L20.272,7.22L20.18,7.142L20.086,7.067L19.991,6.994L19.894,6.923L19.795,6.854L19.694,6.788L19.592,6.724L19.488,6.663L19.383,6.604L19.276,6.547L19.167,6.493L19.057,6.442L18.946,6.393L18.833,6.347L18.719,6.304L18.603,6.263L18.486,6.225L18.368,6.19L18.249,6.158L18.129,6.128L18.007,6.102L17.885,6.078L17.761,6.058L17.637,6.04L17.511,6.026L17.385,6.015L17.257,6.007L17.129,6.002L17,6L12.667,6L12.667,8.475ZM7.005,9.712L6.942,9.712L6.887,9.714L6.833,9.716L6.782,9.719L6.733,9.722L6.686,9.727L6.641,9.731L6.598,9.737L6.558,9.743L6.519,9.749L6.483,9.756L6.449,9.764L6.417,9.771L6.387,9.779L6.359,9.787L6.332,9.795L6.308,9.804L6.285,9.812L6.265,9.821L6.245,9.829L6.227,9.837L6.211,9.846L6.195,9.854L6.181,9.862L6.168,9.87L6.156,9.878L6.144,9.887L6.133,9.895L6.123,9.903L6.113,9.912L6.103,9.921L6.093,9.931L6.083,9.941L6.074,9.952L6.064,9.963L6.054,9.976L6.044,9.989L6.034,10.004L6.024,10.02L6.014,10.037L6.003,10.056L5.992,10.076L5.982,10.098L5.971,10.122L5.96,10.147L5.95,10.174L5.939,10.203L5.929,10.234L5.919,10.267L5.909,10.302L5.9,10.339L5.891,10.378L5.883,10.419L5.875,10.462L5.867,10.507L5.86,10.553L5.854,10.602L5.849,10.653L5.844,10.706L5.84,10.761L5.837,10.818L5.835,10.877L5.834,10.937L5.833,11L5.834,11.062L5.835,11.123L5.837,11.181L5.84,11.237L5.844,11.291L5.849,11.343L5.854,11.393L5.86,11.44L5.867,11.485L5.874,11.528L5.882,11.569L5.89,11.607L5.898,11.644L5.907,11.678L5.916,11.71L5.926,11.74L5.935,11.768L5.945,11.793L5.955,11.817L5.964,11.839L5.974,11.859L5.983,11.878L5.992,11.894L6.001,11.909L6.01,11.923L6.018,11.935L6.026,11.947L6.034,11.957L6.042,11.966L6.049,11.975L6.057,11.983L6.065,11.99L6.072,11.997L6.08,12.004L6.089,12.011L6.097,12.018L6.107,12.024L6.117,12.031L6.129,12.038L6.141,12.045L6.155,12.053L6.17,12.06L6.186,12.068L6.205,12.076L6.224,12.084L6.246,12.091L6.27,12.1L6.295,12.107L6.323,12.115L6.353,12.123L6.385,12.131L6.419,12.138L6.455,12.145L6.494,12.152L6.535,12.158L6.578,12.163L6.623,12.169L6.67,12.173L6.72,12.177L6.771,12.18L6.825,12.183L6.882,12.185L6.94,12.186L7.005,12.187L7.333,12.187L7.333,9.712L7.005,9.712ZM16.667,9.712L16.667,12.187L16.995,12.187L17.06,12.186L17.118,12.185L17.175,12.183L17.229,12.18L17.28,12.177L17.33,12.173L17.377,12.169L17.422,12.163L17.465,12.158L17.506,12.152L17.545,12.145L17.581,12.138L17.615,12.131L17.647,12.123L17.677,12.115L17.705,12.107L17.73,12.099L17.754,12.091L17.776,12.084L17.795,12.076L17.814,12.068L17.83,12.06L17.845,12.053L17.859,12.045L17.871,12.038L17.883,12.031L17.893,12.024L17.903,12.018L17.911,12.011L17.92,12.004L17.928,11.997L17.935,11.99L17.943,11.983L17.951,11.975L17.958,11.966L17.966,11.957L17.974,11.947L17.982,11.935L17.99,11.923L17.999,11.909L18.008,11.894L18.017,11.878L18.026,11.859L18.036,11.839L18.045,11.817L18.055,11.793L18.065,11.768L18.074,11.74L18.084,11.71L18.093,11.678L18.102,11.644L18.11,11.607L18.118,11.569L18.126,11.528L18.133,11.485L18.14,11.44L18.146,11.393L18.151,11.343L18.156,11.291L18.16,11.237L18.163,11.181L18.165,11.123L18.166,11.062L18.167,11L18.166,10.937L18.165,10.877L18.163,10.818L18.16,10.761L18.156,10.706L18.151,10.653L18.146,10.602L18.14,10.553L18.133,10.507L18.125,10.462L18.117,10.419L18.109,10.378L18.1,10.339L18.091,10.302L18.081,10.267L18.071,10.234L18.061,10.203L18.05,10.174L18.04,10.147L18.029,10.122L18.018,10.098L18.008,10.076L17.997,10.056L17.986,10.037L17.976,10.02L17.966,10.004L17.956,9.99L17.946,9.976L17.936,9.963L17.926,9.952L17.917,9.941L17.907,9.931L17.897,9.921L17.887,9.912L17.877,9.904L17.867,9.895L17.856,9.887L17.844,9.878L17.832,9.87L17.819,9.862L17.805,9.854L17.789,9.846L17.773,9.837L17.755,9.829L17.735,9.821L17.715,9.812L17.692,9.804L17.668,9.795L17.641,9.787L17.613,9.779L17.583,9.771L17.551,9.764L17.517,9.756L17.481,9.749L17.442,9.743L17.402,9.737L17.359,9.731L17.314,9.727L17.267,9.722L17.218,9.719L17.167,9.716L17.113,9.714L17.058,9.712L16.995,9.712L16.667,9.712ZM8.667,12.187L15.333,12.187L15.333,9.712L8.667,9.712L8.667,12.187Z" style="fill:rgb(58,58,58);"/>
                    <path d="M4.5,11C4.5,9.29 5.29,8.475 7,8.475L11.333,8.475L11.333,6L7,6C4.24,6 2,8.24 2,11C2,13.76 4.24,15.899 7,15.899L11.333,15.899L11.333,13.424L7,13.424C5.29,13.424 4.5,12.71 4.5,11ZM8.667,12.187L15.333,12.187L15.333,9.712L8.667,9.712L8.667,12.187ZM17,6L12.667,6L12.667,8.475L17,8.475C18.71,8.475 19.5,9.29 19.5,11C19.5,12.71 18.71,13.424 17,13.424L12.667,13.424L12.667,15.899L17,15.899C19.76,15.899 22,13.76 22,11C22,8.24 19.76,6 17,6Z" style="fill:rgb(189,189,189);fill-rule:nonzero;"/>
                </g>
            </g>
        </g>
    </g>
</svg>
