<?xml version="1.0" encoding="UTF-8" standalone="no"?>
<!DOCTYPE svg PUBLIC "-//W3C//DTD SVG 1.1//EN" "http://www.w3.org/Graphics/SVG/1.1/DTD/svg11.dtd">
<svg width="100%" height="100%" viewBox="0 0 11 11" version="1.1" xmlns="http://www.w3.org/2000/svg" xmlns:xlink="http://www.w3.org/1999/xlink" xml:space="preserve" xmlns:serif="http://www.serif.com/" style="fill-rule:evenodd;clip-rule:evenodd;stroke-linejoin:round;stroke-miterlimit:2;">
    <g transform="matrix(1,0,0,1,-50,-37)">
        <g transform="matrix(0.855984,0,0,2.59398,7.70385,18.1579)">
            <g id="GraphNode_ExpandPartial" transform="matrix(1.16825,0,0,0.385507,-2907.42,-353.186)">
                <g transform="matrix(1.57143,0,0,1.57143,-1447.86,-568.857)">
                    <rect x="2532" y="957" width="7" height="7"/>
                </g>
                <g transform="matrix(1.28571,0,0,1.28571,-723.429,-294.429)">
                    <rect x="2532" y="957" width="7" height="7" style="fill:rgb(242,222,112);"/>
                </g>
                <g transform="matrix(1,0,0,2.33333,1,-1314.67)">
                    <rect x="2535" y="965" width="1" height="3"/>
                </g>
                <g transform="matrix(6.12323e-17,1,-2.33333,1.42875e-16,4791.67,-1595)">
                    <rect x="2535" y="965" width="1" height="3"/>
                </g>
            </g>
        </g>
    </g>
</svg>
