<?xml version="1.0" encoding="UTF-8" standalone="no"?><!DOCTYPE svg PUBLIC "-//W3C//DTD SVG 1.1//EN" "http://www.w3.org/Graphics/SVG/1.1/DTD/svg11.dtd"><svg width="100%" height="100%" viewBox="0 0 15 15" version="1.1" xmlns="http://www.w3.org/2000/svg" xmlns:xlink="http://www.w3.org/1999/xlink" xml:space="preserve" xmlns:serif="http://www.serif.com/" style="fill-rule:evenodd;clip-rule:evenodd;stroke-linejoin:round;stroke-miterlimit:2;"><g id="SchematicView_GameParameter_off"><g id="Icons"><g id="Base-Block" serif:id="Base Block"><path d="M15,2.1c-0,-1.159 -0.941,-2.1 -2.1,-2.1l-10.8,0c-1.159,0 -2.1,0.941 -2.1,2.1l-0,10.8c-0,1.159 0.941,2.1 2.1,2.1l10.8,0c1.159,0 2.1,-0.941 2.1,-2.1l-0,-10.8Z" style="fill-opacity:0;"/></g><path d="M6,6.797c-0.75,-0.49 -1.246,-1.338 -1.246,-2.3c0,-1.517 1.232,-2.748 2.748,-2.748c0.965,0 1.814,0.498 2.304,1.251l4.444,0c0.414,0 0.75,0.336 0.75,0.75l0,1.5c0,0.414 -0.336,0.75 -0.75,0.75l-4.448,0c-0.209,0.319 -0.482,0.592 -0.802,0.8l0,2.405c0.753,0.49 1.25,1.339 1.25,2.303c0,1.517 -1.231,2.748 -2.748,2.748c-0.966,0 -1.817,-0.5 -2.306,-1.256l-4.446,0c-0.414,0 -0.75,-0.336 -0.75,-0.75l0,-1.5c0,-0.414 0.336,-0.75 0.75,-0.75l4.456,0c0.207,-0.315 0.478,-0.586 0.794,-0.792l0,-2.411Zm3.177,-1.797c-0.168,0.564 -0.613,1.009 -1.177,1.177l-0,3.646c0.723,0.215 1.25,0.885 1.25,1.677c-0,0.966 -0.784,1.75 -1.75,1.75c-0.792,0 -1.462,-0.527 -1.677,-1.25l-4.823,0l0,-1l4.823,0c0.168,-0.564 0.613,-1.009 1.177,-1.177l-0,-3.646c-0.723,-0.215 -1.25,-0.885 -1.25,-1.677c-0,-0.966 0.784,-1.75 1.75,-1.75c0.792,0 1.462,0.527 1.677,1.25l4.823,0l0,1l-4.823,0Z" style="fill-opacity:0;"/><path d="M7,6.177c-0.723,-0.215 -1.25,-0.885 -1.25,-1.677c-0,-0.966 0.784,-1.75 1.75,-1.75c0.792,0 1.462,0.527 1.677,1.25c0.087,0.363 0.084,0.695 0,1c-0.168,0.564 -0.613,1.009 -1.177,1.177l-0,3.646c0.723,0.215 1.25,0.885 1.25,1.677c-0,0.966 -0.784,1.75 -1.75,1.75c-0.792,0 -1.462,-0.527 -1.677,-1.25c-0.096,-0.307 -0.102,-0.639 -0,-1c0.168,-0.564 0.613,-1.009 1.177,-1.177l-0,-3.646Z" style="fill:#646464;"/><path d="M8,6.157l-0,0.832l-1,0l-0,-0.832c0.321,0.09 0.655,0.087 1,-0Z" style="fill:#767676;"/><path d="M7,9.832l0,-0.832l1,0l-0,0.832c-0.321,-0.09 -0.655,-0.087 -1,0Z" style="fill:#767676;"/><path d="M9.168,4l0.832,0l0,1l-0.832,0c0.09,-0.321 0.087,-0.655 -0,-1Z" style="fill:#767676;"/><rect x="10" y="4" width="4" height="1" style="fill:#646464;"/><path d="M5,11l0.812,0c-0.084,0.311 -0.094,0.642 -0,1l-0.812,0l0,-1Z" style="fill:#767676;"/><rect x="1" y="11" width="4" height="1" style="fill:#646464;"/></g></g></svg>