<?xml version="1.0" encoding="UTF-8" standalone="no"?><!DOCTYPE svg PUBLIC "-//W3C//DTD SVG 1.1//EN" "http://www.w3.org/Graphics/SVG/1.1/DTD/svg11.dtd"><svg width="100%" height="100%" viewBox="0 0 15 15" version="1.1" xmlns="http://www.w3.org/2000/svg" xmlns:xlink="http://www.w3.org/1999/xlink" xml:space="preserve" xmlns:serif="http://www.serif.com/" style="fill-rule:evenodd;clip-rule:evenodd;stroke-linejoin:round;stroke-miterlimit:2;"><g id="SchematicView_StateGroup_on"><g id="Icons"><g id="Base-Block" serif:id="Base Block"><path d="M15,2.1c-0,-1.159 -0.941,-2.1 -2.1,-2.1l-10.8,0c-1.159,0 -2.1,0.941 -2.1,2.1l-0,10.8c-0,1.159 0.941,2.1 2.1,2.1l10.8,0c1.159,0 2.1,-0.941 2.1,-2.1l-0,-10.8Z" style="fill-opacity:0;"/></g><path d="M7.5,1c3.587,0 6.5,2.913 6.5,6.5c0,3.587 -2.913,6.5 -6.5,6.5c-3.587,0 -6.5,-2.913 -6.5,-6.5c0,-3.587 2.913,-6.5 6.5,-6.5Zm5.5,6.5c0,3.038 -2.463,5.5 -5.5,5.5c-3.037,0 -5.5,-2.462 -5.5,-5.5c-0,-3.038 2.463,-5.5 5.5,-5.5c3.037,0 5.5,2.462 5.5,5.5Zm-6,3.5c2.709,0 4.175,-1.291 4.175,-3.5c0,-2.209 -1.466,-3.5 -4.175,-3.5l-0,7Z" style="fill:#2e2e2e;"/><path d="M7,11c2.709,0 4.175,-1.291 4.175,-3.5c0,-2.209 -1.466,-3.5 -4.175,-3.5l-0,7Zm6,-3.5c0,3.038 -2.463,5.5 -5.5,5.5c-3.037,0 -5.5,-2.462 -5.5,-5.5c-0,-3.038 2.463,-5.5 5.5,-5.5c3.037,0 5.5,2.462 5.5,5.5" style="fill:#53c0e7;"/></g></g></svg>