<?xml version="1.0" encoding="UTF-8" standalone="no"?><!DOCTYPE svg PUBLIC "-//W3C//DTD SVG 1.1//EN" "http://www.w3.org/Graphics/SVG/1.1/DTD/svg11.dtd"><svg width="100%" height="100%" viewBox="0 0 15 15" version="1.1" xmlns="http://www.w3.org/2000/svg" xmlns:xlink="http://www.w3.org/1999/xlink" xml:space="preserve" xmlns:serif="http://www.serif.com/" style="fill-rule:evenodd;clip-rule:evenodd;stroke-linejoin:round;stroke-miterlimit:2;"><g id="SchematicView_OverrideEffect_off"><g id="Icons"><g id="Base-Block" serif:id="Base Block"><path d="M15,2.1c-0,-1.159 -0.941,-2.1 -2.1,-2.1l-10.8,0c-1.159,0 -2.1,0.941 -2.1,2.1l-0,10.8c-0,1.159 0.941,2.1 2.1,2.1l10.8,0c1.159,0 2.1,-0.941 2.1,-2.1l-0,-10.8Z" style="fill-opacity:0;"/></g><path d="M2.4,2l6.2,0c0.773,0 1.4,0.627 1.4,1.4l-0,1.2c-0,0.701 -0.516,1.282 -1.189,1.382l0.715,0.716l0.872,-0.873c0.547,-0.546 1.434,-0.546 1.98,0l0.849,0.849c0.546,0.546 0.546,1.433 -0,1.98l-0.872,0.872l0.872,0.872c0.546,0.547 0.546,1.434 -0,1.98l-0.849,0.849c-0.546,0.546 -1.433,0.546 -1.98,-0l-0.872,-0.872l-0.872,0.872c-0.547,0.546 -1.434,0.546 -1.98,-0l-0.849,-0.849c-0.546,-0.546 -0.546,-1.433 0,-1.98l0.873,-0.872l-0.546,-0.546c-0.066,0.013 -0.133,0.02 -0.202,0.02l-0.9,0l-0.05,-0.003l-0,2.603c-0,0.773 -0.627,1.4 -1.4,1.4l-1.2,0c-0.773,0 -1.4,-0.627 -1.4,-1.4l-0,-8.2c-0,-0.773 0.627,-1.4 1.4,-1.4Zm7.044,6.53l1.797,-2.289l1.518,1.518l-2.256,1.797l2.2,1.741l-1.417,1.417l-1.741,-2.266l-1.786,2.311l-1.518,-1.518l2.344,-1.786l-2.299,-1.741l1.417,-1.417l1.741,2.233Zm-7.444,-5.53l7,0l-0,2l-5,0l-0,1l2.582,0l-1.92,2l-0.662,0l-0,4l-2,0l-0,-9Z" style="fill-opacity:0;"/><path d="M9.444,8.53l1.797,-2.289l1.518,1.518l-2.256,1.797l2.2,1.741l-1.417,1.417l-1.741,-2.266l-1.786,2.311l-1.518,-1.518l2.344,-1.786l-2.299,-1.741l1.417,-1.417l1.741,2.233Zm-7.444,-5.53l7,0l-0,2l-5,0l-0,1l2.582,0l-1.92,2l-0.662,0l-0,4l-2,0l-0,-9Z" style="fill:#646464;"/></g></g></svg>