<?xml version="1.0" encoding="UTF-8" standalone="no"?>
<!DOCTYPE svg PUBLIC "-//W3C//DTD SVG 1.1//EN" "http://www.w3.org/Graphics/SVG/1.1/DTD/svg11.dtd">
<svg width="100%" height="100%" viewBox="0 0 5 16" version="1.1" xmlns="http://www.w3.org/2000/svg" xmlns:xlink="http://www.w3.org/1999/xlink" xml:space="preserve" xmlns:serif="http://www.serif.com/" style="fill-rule:evenodd;clip-rule:evenodd;stroke-linejoin:round;stroke-miterlimit:1.41421;">
    <g transform="matrix(1,0,0,1,-24,-5)">
        <g id="Unlink_nor_dis_16px">
            <g transform="matrix(1,0,0,0.761905,12,1.19048)">
                <path d="M17,7.363C17,6.059 16.193,5 15.2,5L13.8,5C12.807,5 12,6.059 12,7.363L12,23.637C12,24.941 12.807,26 13.8,26L15.2,26C16.193,26 17,24.941 17,23.637L17,7.363Z" style="fill:rgb(161,161,161);"/>
            </g>
            <g transform="matrix(0.6,0,0,0.285714,17.8,4.57143)">
                <path d="M17,9.2C17,6.882 16.104,5 15,5L14,5C12.896,5 12,6.882 12,9.2L12,26L17,26L17,9.2Z" style="fill:rgb(186,186,186);"/>
            </g>
            <g transform="matrix(0.6,0,0,0.333333,17.8,11.3333)">
                <path d="M17,5L12,5L12,22.4C12,24.387 12.896,26 14,26L15,26C16.104,26 17,24.387 17,22.4L17,5Z" style="fill:rgb(186,186,186);"/>
            </g>
        </g>
    </g>
</svg>
