<?xml version="1.0" encoding="UTF-8" standalone="no"?>
<!DOCTYPE svg PUBLIC "-//W3C//DTD SVG 1.1//EN" "http://www.w3.org/Graphics/SVG/1.1/DTD/svg11.dtd">
<svg width="100%" height="100%" viewBox="0 0 15 15" version="1.1" xmlns="http://www.w3.org/2000/svg" xmlns:xlink="http://www.w3.org/1999/xlink" xml:space="preserve" xmlns:serif="http://www.serif.com/" style="fill-rule:evenodd;clip-rule:evenodd;stroke-linejoin:round;stroke-miterlimit:1.41421;">
    <g transform="matrix(1,0,0,1,-22,-5)">
        <g id="VoiceInspector_Logical_Disabled" transform="matrix(1,0,0,1,-616,-97)">
            <g opacity="0.3">
                <g transform="matrix(1,0,0,1,163,-639)">
                    <g id="Object-Icon-Base" serif:id="Object Icon Base">
                        <rect x="475" y="741" width="15" height="15" style="fill:rgb(43,43,43);fill-opacity:0;"/>
                    </g>
                </g>
                <path d="M643,102C643.554,102.002 644,102.449 644,103L644,104L645,104C645.554,104.002 646,104.449 646,105L646,107C646,107.552 645.552,108 645,108L644,108L644,109C644,109.552 643.552,110 643,110L641,110C640.448,110 640,109.552 640,109L640,108L639,108C638.448,108 638,107.552 638,107L638,105C638,104.449 638.446,104.002 639,104L640,104L640,103C640,102.449 640.446,102.002 641,102L643,102Z" style="fill:rgb(34,34,34);"/>
                <path d="M639,105L641,105L641,103L643,103L643,105L645,105L645,107L643,107L643,109L641,109L641,107L639,107L639,105Z" style="fill:rgb(200,200,200);"/>
                <g transform="matrix(1.33333,0,0,4,-580.333,-796)">
                    <path d="M925,227.25C925,227.112 924.664,227 924.25,227L919.75,227C919.336,227 919,227.112 919,227.25L919,227.75C919,227.888 919.336,228 919.75,228L924.25,228C924.664,228 925,227.888 925,227.75L925,227.25Z" style="fill:rgb(34,34,34);"/>
                </g>
                <g transform="matrix(1,0,0,2,-273,-341)">
                    <rect x="919" y="227" width="6" height="1" style="fill:rgb(200,200,200);"/>
                </g>
                <g transform="matrix(1.96653,-1.96653,2.73895,2.73895,-1790.35,1299.85)">
                    <path d="M925,227.25C925,227.112 924.844,227 924.652,227L919.348,227C919.156,227 919,227.112 919,227.25L919,227.75C919,227.888 919.156,228 919.348,228L924.652,228C924.844,228 925,227.888 925,227.75L925,227.25Z" style="fill:rgb(34,34,34);"/>
                </g>
                <g transform="matrix(1.72559,-1.72559,1.35355,1.35355,-1253.08,1392.92)">
                    <rect x="919" y="227" width="6" height="1" style="fill:rgb(200,200,200);"/>
                </g>
            </g>
        </g>
    </g>
</svg>
