<?xml version="1.0" encoding="UTF-8" standalone="no"?>
<!DOCTYPE svg PUBLIC "-//W3C//DTD SVG 1.1//EN" "http://www.w3.org/Graphics/SVG/1.1/DTD/svg11.dtd">
<svg width="100%" height="100%" viewBox="0 0 20 20" version="1.1" xmlns="http://www.w3.org/2000/svg" xmlns:xlink="http://www.w3.org/1999/xlink" xml:space="preserve" xmlns:serif="http://www.serif.com/" style="fill-rule:evenodd;clip-rule:evenodd;stroke-linejoin:round;stroke-miterlimit:2;">
    <g transform="matrix(1,0,0,1,-222,-4)">
        <g id="General_Refresh_Disabled" transform="matrix(1,0,0,1,174,2.70006e-13)">
            <g opacity="0.3">
                <g id="Transparent-BG" serif:id="Transparent BG" transform="matrix(1,0,0,1,48,4)">
                    <rect x="0" y="0" width="20" height="20" style="fill:white;fill-opacity:0;"/>
                </g>
                <g transform="matrix(0.937461,0,0,0.9375,47.2508,3.25)">
                    <path d="M6.72,6.355C5.233,7.55 3.826,9.888 3.826,12.358C3.826,16.567 7.236,19.967 11.446,19.967C15.655,19.967 19.065,16.567 19.065,12.358C19.065,9.641 17.847,7.322 15.715,5.978L14.497,8.209C15.755,9.086 16.506,10.491 16.506,12.176C16.506,14.926 14.271,17.161 11.52,17.161C8.77,17.161 6.535,14.926 6.535,12.176C6.535,10.797 7.108,9.568 8.014,8.67C8.502,8.225 8.935,7.922 9.333,7.708L9.333,11.467L11.466,11.467L11.466,4L6.872,4.005L3.999,4L3.999,6.133L6.944,6.133L6.72,6.355Z" style="fill:rgb(189,189,189);"/>
                    <path d="M11.545,2.936L11.624,2.945L11.703,2.96L11.78,2.98L11.855,3.007L11.928,3.039L11.999,3.076L12.067,3.118L12.131,3.166L12.191,3.218L12.248,3.274L12.3,3.335L12.347,3.399L12.39,3.466L12.427,3.537L12.459,3.61L12.486,3.685L12.506,3.762L12.521,3.841L12.53,3.92L12.533,4L12.533,11.467L12.53,11.546L12.521,11.626L12.506,11.704L12.486,11.781L12.459,11.856L12.427,11.929L12.39,12L12.348,12.068L12.3,12.132L12.248,12.192L12.192,12.249L12.131,12.301L12.067,12.348L12,12.39L11.929,12.428L11.856,12.46L11.781,12.486L11.704,12.507L11.625,12.521L11.546,12.53L11.466,12.533L9.333,12.533L9.253,12.53L9.174,12.521L9.096,12.507L9.018,12.486L8.943,12.46L8.87,12.428L8.8,12.39L8.732,12.348L8.668,12.301L8.607,12.249L8.551,12.192L8.499,12.132L8.452,12.068L8.409,12L8.372,11.929L8.34,11.856L8.314,11.781L8.293,11.704L8.278,11.626L8.269,11.546L8.266,11.467L8.266,10.028L8.227,10.086L8.176,10.166L8.128,10.246L8.081,10.328L8.036,10.411L7.993,10.495L7.953,10.581L7.914,10.667L7.877,10.754L7.843,10.842L7.811,10.932L7.781,11.022L7.753,11.113L7.727,11.205L7.704,11.298L7.683,11.392L7.664,11.49L7.656,11.535L7.648,11.583L7.641,11.631L7.634,11.68L7.628,11.728L7.623,11.777L7.618,11.826L7.614,11.876L7.61,11.925L7.607,11.975L7.605,12.025L7.603,12.075L7.602,12.126L7.602,12.176L7.602,12.227L7.603,12.278L7.605,12.328L7.607,12.379L7.61,12.429L7.613,12.478L7.617,12.528L7.622,12.574L7.634,12.676L7.647,12.773L7.663,12.87L7.682,12.966L7.702,13.061L7.725,13.155L7.751,13.248L7.778,13.34L7.808,13.432L7.84,13.522L7.874,13.611L7.91,13.699L7.948,13.787L7.988,13.873L8.03,13.958L8.075,14.042L8.121,14.124L8.169,14.206L8.219,14.286L8.271,14.365L8.325,14.442L8.381,14.519L8.438,14.593L8.497,14.667L8.558,14.739L8.621,14.809L8.685,14.878L8.751,14.946L8.818,15.012L8.887,15.076L8.958,15.138L9.03,15.199L9.103,15.259L9.178,15.316L9.254,15.372L9.332,15.425L9.411,15.477L9.491,15.527L9.572,15.576L9.655,15.622L9.739,15.666L9.824,15.708L9.91,15.749L9.997,15.787L10.085,15.823L10.175,15.857L10.265,15.889L10.356,15.918L10.449,15.946L10.542,15.971L10.636,15.994L10.731,16.015L10.827,16.033L10.923,16.049L11.021,16.063L11.123,16.075L11.169,16.079L11.218,16.083L11.268,16.087L11.318,16.089L11.369,16.092L11.419,16.093L11.47,16.094L11.52,16.095L11.571,16.094L11.622,16.093L11.672,16.092L11.723,16.089L11.773,16.087L11.823,16.083L11.872,16.079L11.918,16.075L12.02,16.063L12.118,16.049L12.214,16.033L12.31,16.015L12.405,15.994L12.499,15.971L12.592,15.946L12.685,15.918L12.776,15.889L12.866,15.857L12.955,15.823L13.044,15.787L13.131,15.749L13.217,15.708L13.302,15.666L13.386,15.622L13.468,15.576L13.55,15.527L13.63,15.477L13.709,15.425L13.787,15.372L13.863,15.316L13.938,15.259L14.011,15.199L14.083,15.138L14.154,15.076L14.223,15.012L14.29,14.946L14.356,14.878L14.42,14.809L14.483,14.739L14.544,14.667L14.603,14.593L14.66,14.519L14.716,14.442L14.77,14.365L14.822,14.286L14.872,14.206L14.92,14.124L14.966,14.042L15.011,13.958L15.053,13.873L15.093,13.787L15.131,13.699L15.167,13.611L15.201,13.522L15.233,13.432L15.263,13.34L15.29,13.248L15.316,13.155L15.339,13.061L15.359,12.966L15.378,12.87L15.394,12.773L15.407,12.676L15.419,12.574L15.423,12.528L15.428,12.478L15.431,12.429L15.434,12.379L15.436,12.328L15.438,12.278L15.439,12.227L15.439,12.177L15.439,12.113L15.437,12.049L15.435,11.986L15.432,11.924L15.428,11.862L15.423,11.801L15.418,11.74L15.411,11.679L15.404,11.619L15.396,11.56L15.387,11.501L15.377,11.442L15.367,11.384L15.355,11.327L15.343,11.27L15.33,11.214L15.317,11.158L15.302,11.102L15.287,11.047L15.271,10.993L15.255,10.939L15.237,10.885L15.219,10.832L15.2,10.78L15.181,10.728L15.161,10.676L15.14,10.625L15.118,10.575L15.096,10.524L15.072,10.475L15.049,10.426L15.024,10.377L14.999,10.329L14.973,10.282L14.947,10.234L14.919,10.188L14.891,10.142L14.863,10.096L14.834,10.051L14.804,10.006L14.773,9.962L14.742,9.918L14.71,9.875L14.677,9.832L14.644,9.79L14.61,9.748L14.575,9.707L14.54,9.666L14.504,9.626L14.468,9.586L14.43,9.547L14.393,9.508L14.354,9.47L14.315,9.432L14.275,9.395L14.234,9.359L14.193,9.322L14.152,9.287L14.109,9.252L14.066,9.217L14.022,9.183L13.978,9.15L13.933,9.117L13.88,9.08L13.816,9.03L13.755,8.976L13.699,8.917L13.647,8.854L13.6,8.787L13.558,8.716L13.522,8.643L13.492,8.567L13.468,8.49L13.449,8.41L13.437,8.329L13.431,8.248L13.431,8.166L13.438,8.085L13.45,8.004L13.469,7.925L13.494,7.847L13.524,7.771L13.561,7.698L14.779,5.467L14.819,5.399L14.865,5.334L14.915,5.272L14.97,5.214L15.029,5.161L15.092,5.112L15.158,5.068L15.228,5.029L15.3,4.995L15.374,4.967L15.451,4.945L15.529,4.928L15.607,4.917L15.687,4.912L15.766,4.913L15.846,4.92L15.924,4.932L16.002,4.951L16.077,4.975L16.151,5.005L16.223,5.04L16.291,5.081L16.398,5.149L16.51,5.224L16.621,5.3L16.73,5.378L16.838,5.458L16.945,5.539L17.05,5.622L17.153,5.707L17.255,5.793L17.355,5.88L17.453,5.969L17.55,6.06L17.646,6.152L17.739,6.245L17.831,6.34L17.922,6.437L18.01,6.535L18.097,6.634L18.183,6.734L18.266,6.836L18.348,6.939L18.429,7.044L18.507,7.15L18.584,7.257L18.659,7.365L18.732,7.475L18.803,7.586L18.873,7.698L18.941,7.811L19.007,7.925L19.071,8.04L19.134,8.157L19.194,8.275L19.253,8.393L19.31,8.513L19.365,8.634L19.418,8.756L19.47,8.879L19.519,9.002L19.567,9.127L19.612,9.253L19.656,9.379L19.698,9.507L19.738,9.635L19.776,9.764L19.812,9.894L19.847,10.025L19.879,10.157L19.909,10.289L19.938,10.423L19.964,10.556L19.989,10.691L20.012,10.827L20.033,10.963L20.051,11.099L20.068,11.237L20.083,11.375L20.096,11.514L20.107,11.653L20.116,11.793L20.123,11.933L20.128,12.074L20.131,12.216L20.132,12.357L20.131,12.47L20.129,12.581L20.125,12.693L20.12,12.804L20.114,12.915L20.106,13.025L20.097,13.135L20.087,13.245L20.075,13.354L20.062,13.463L20.047,13.571L20.032,13.679L20.015,13.787L19.996,13.894L19.976,14.001L19.955,14.107L19.933,14.213L19.909,14.318L19.884,14.423L19.858,14.527L19.831,14.631L19.802,14.735L19.772,14.838L19.741,14.94L19.709,15.042L19.675,15.143L19.64,15.244L19.604,15.344L19.567,15.443L19.529,15.542L19.489,15.641L19.449,15.738L19.407,15.835L19.364,15.932L19.32,16.028L19.275,16.123L19.228,16.218L19.181,16.311L19.132,16.405L19.083,16.497L19.032,16.589L18.98,16.68L18.927,16.771L18.874,16.861L18.819,16.95L18.763,17.038L18.706,17.126L18.648,17.213L18.589,17.299L18.529,17.384L18.468,17.469L18.405,17.553L18.343,17.636L18.279,17.718L18.214,17.8L18.148,17.88L18.081,17.96L18.013,18.039L17.944,18.117L17.875,18.195L17.804,18.271L17.733,18.347L17.661,18.422L17.587,18.496L17.513,18.569L17.438,18.641L17.363,18.712L17.286,18.783L17.208,18.852L17.13,18.921L17.051,18.988L16.971,19.055L16.89,19.121L16.809,19.185L16.726,19.249L16.643,19.312L16.559,19.374L16.474,19.435L16.389,19.495L16.302,19.554L16.216,19.612L16.128,19.668L16.039,19.724L15.95,19.779L15.86,19.833L15.77,19.886L15.678,19.937L15.586,19.988L15.494,20.037L15.4,20.086L15.306,20.133L15.212,20.179L15.116,20.224L15.02,20.268L14.924,20.311L14.827,20.353L14.729,20.393L14.63,20.433L14.531,20.471L14.432,20.508L14.332,20.544L14.231,20.579L14.13,20.612L14.028,20.644L13.925,20.675L13.823,20.705L13.719,20.734L13.615,20.761L13.511,20.787L13.406,20.812L13.301,20.836L13.195,20.858L13.088,20.879L12.982,20.898L12.874,20.917L12.767,20.934L12.659,20.95L12.55,20.964L12.441,20.977L12.332,20.989L12.223,20.999L12.113,21.008L12.002,21.016L11.892,21.022L11.781,21.027L11.669,21.031L11.557,21.033L11.445,21.034L11.334,21.033L11.222,21.031L11.111,21.027L10.999,21.022L10.889,21.016L10.778,21.008L10.668,20.999L10.559,20.989L10.45,20.977L10.341,20.964L10.232,20.95L10.124,20.934L10.017,20.917L9.909,20.898L9.803,20.879L9.696,20.858L9.59,20.836L9.485,20.812L9.38,20.787L9.276,20.761L9.172,20.734L9.068,20.705L8.966,20.675L8.863,20.644L8.761,20.612L8.66,20.579L8.559,20.544L8.459,20.508L8.36,20.471L8.261,20.433L8.162,20.393L8.064,20.353L7.967,20.311L7.871,20.268L7.775,20.224L7.679,20.179L7.585,20.133L7.491,20.086L7.397,20.037L7.305,19.988L7.213,19.937L7.121,19.886L7.031,19.833L6.941,19.779L6.852,19.724L6.763,19.669L6.675,19.612L6.588,19.554L6.502,19.495L6.417,19.435L6.332,19.374L6.248,19.312L6.165,19.249L6.083,19.186L6.001,19.121L5.92,19.055L5.84,18.988L5.761,18.921L5.682,18.852L5.605,18.783L5.528,18.712L5.453,18.641L5.378,18.569L5.304,18.496L5.23,18.422L5.158,18.347L5.087,18.271L5.016,18.195L4.947,18.117L4.878,18.039L4.81,17.96L4.743,17.88L4.677,17.8L4.612,17.718L4.548,17.636L4.486,17.553L4.424,17.469L4.362,17.384L4.302,17.299L4.243,17.213L4.185,17.126L4.128,17.038L4.072,16.95L4.017,16.861L3.964,16.771L3.911,16.68L3.859,16.589L3.808,16.497L3.759,16.405L3.71,16.312L3.663,16.218L3.616,16.123L3.571,16.028L3.527,15.932L3.484,15.835L3.442,15.738L3.402,15.64L3.362,15.542L3.324,15.443L3.287,15.344L3.251,15.244L3.216,15.143L3.182,15.042L3.15,14.94L3.119,14.838L3.089,14.735L3.06,14.631L3.033,14.527L3.007,14.423L2.982,14.318L2.958,14.213L2.936,14.107L2.915,14.001L2.895,13.894L2.877,13.787L2.859,13.679L2.844,13.571L2.829,13.463L2.816,13.354L2.804,13.245L2.794,13.135L2.785,13.025L2.777,12.915L2.771,12.804L2.766,12.693L2.762,12.581L2.76,12.47L2.759,12.356L2.761,12.223L2.764,12.089L2.77,11.956L2.778,11.822L2.788,11.69L2.801,11.558L2.816,11.426L2.833,11.295L2.851,11.165L2.872,11.035L2.895,10.907L2.92,10.778L2.947,10.651L2.975,10.524L3.006,10.398L3.038,10.273L3.072,10.148L3.108,10.025L3.145,9.902L3.184,9.78L3.225,9.659L3.267,9.539L3.311,9.419L3.356,9.301L3.402,9.184L3.45,9.067L3.5,8.952L3.551,8.837L3.603,8.724L3.656,8.611L3.711,8.5L3.767,8.39L3.824,8.28L3.883,8.172L3.942,8.065L4.003,7.959L4.065,7.855L4.127,7.751L4.191,7.649L4.256,7.548L4.322,7.447L4.389,7.349L4.456,7.251L4.493,7.2L3.999,7.2L3.92,7.197L3.84,7.188L3.762,7.173L3.685,7.153L3.61,7.126L3.536,7.094L3.466,7.057L3.398,7.015L3.334,6.967L3.274,6.915L3.217,6.859L3.165,6.798L3.118,6.734L3.076,6.667L3.038,6.596L3.006,6.523L2.98,6.448L2.959,6.371L2.945,6.292L2.936,6.213L2.933,6.133L2.933,4L2.936,3.92L2.945,3.841L2.959,3.762L2.98,3.685L3.007,3.61L3.038,3.537L3.076,3.466L3.118,3.399L3.166,3.334L3.218,3.274L3.275,3.217L3.335,3.165L3.399,3.118L3.467,3.076L3.538,3.038L3.611,3.007L3.686,2.98L3.764,2.96L3.842,2.945L3.921,2.936L4.001,2.933L6.872,2.939L11.465,2.933L11.545,2.936ZM6.872,4.005L3.999,4L3.999,6.133L6.944,6.133L6.72,6.355L6.65,6.412L6.58,6.471L6.511,6.531L6.442,6.592L6.373,6.656L6.305,6.721L6.236,6.787L6.168,6.855L6.101,6.924L6.034,6.995L5.967,7.067L5.901,7.141L5.835,7.216L5.769,7.293L5.705,7.371L5.64,7.45L5.577,7.53L5.514,7.612L5.451,7.695L5.39,7.779L5.329,7.865L5.269,7.952L5.209,8.039L5.151,8.128L5.093,8.218L5.036,8.31L4.98,8.402L4.925,8.495L4.871,8.589L4.818,8.685L4.766,8.781L4.715,8.878L4.666,8.977L4.617,9.076L4.569,9.176L4.523,9.277L4.478,9.378L4.434,9.481L4.391,9.584L4.35,9.688L4.31,9.793L4.271,9.899L4.234,10.005L4.198,10.112L4.163,10.22L4.13,10.328L4.099,10.437L4.069,10.546L4.041,10.656L4.014,10.767L3.989,10.878L3.966,10.989L3.944,11.101L3.924,11.214L3.906,11.327L3.889,11.44L3.875,11.553L3.862,11.667L3.851,11.782L3.842,11.896L3.835,12.011L3.83,12.127L3.827,12.242L3.826,12.358L3.827,12.456L3.829,12.554L3.832,12.652L3.836,12.75L3.842,12.847L3.848,12.944L3.856,13.041L3.865,13.137L3.876,13.233L3.887,13.328L3.9,13.423L3.914,13.518L3.929,13.613L3.945,13.706L3.962,13.8L3.981,13.893L4,13.986L4.021,14.078L4.043,14.17L4.066,14.262L4.09,14.353L4.115,14.443L4.141,14.533L4.169,14.623L4.197,14.712L4.226,14.801L4.257,14.889L4.288,14.977L4.321,15.064L4.354,15.151L4.389,15.237L4.425,15.322L4.461,15.408L4.499,15.492L4.538,15.576L4.577,15.66L4.618,15.743L4.659,15.825L4.702,15.907L4.745,15.988L4.79,16.068L4.835,16.148L4.882,16.228L4.929,16.306L4.977,16.385L5.026,16.462L5.076,16.539L5.127,16.615L5.179,16.691L5.231,16.766L5.285,16.84L5.339,16.913L5.395,16.986L5.451,17.058L5.508,17.13L5.565,17.201L5.624,17.271L5.684,17.34L5.744,17.409L5.805,17.477L5.867,17.544L5.929,17.61L5.993,17.676L6.057,17.741L6.122,17.805L6.188,17.868L6.254,17.931L6.322,17.993L6.39,18.054L6.459,18.114L6.528,18.173L6.598,18.232L6.669,18.289L6.741,18.346L6.813,18.402L6.886,18.457L6.96,18.512L7.034,18.565L7.109,18.618L7.185,18.669L7.261,18.72L7.338,18.77L7.416,18.819L7.494,18.867L7.573,18.914L7.652,18.96L7.732,19.006L7.813,19.05L7.894,19.093L7.976,19.136L8.058,19.177L8.141,19.218L8.225,19.257L8.309,19.296L8.394,19.333L8.479,19.37L8.565,19.405L8.651,19.44L8.738,19.474L8.825,19.506L8.913,19.537L9.001,19.568L9.09,19.597L9.179,19.625L9.269,19.653L9.359,19.679L9.45,19.704L9.541,19.728L9.632,19.751L9.724,19.772L9.817,19.793L9.909,19.813L10.003,19.831L10.096,19.848L10.19,19.864L10.285,19.879L10.38,19.893L10.475,19.906L10.57,19.917L10.666,19.928L10.762,19.937L10.859,19.945L10.956,19.952L11.053,19.957L11.151,19.961L11.249,19.964L11.347,19.966L11.446,19.967L11.544,19.966L11.642,19.964L11.74,19.961L11.838,19.957L11.935,19.952L12.032,19.945L12.129,19.937L12.225,19.928L12.321,19.917L12.416,19.906L12.511,19.893L12.606,19.879L12.701,19.864L12.795,19.848L12.888,19.831L12.982,19.813L13.074,19.793L13.167,19.772L13.259,19.751L13.35,19.728L13.441,19.704L13.532,19.679L13.622,19.653L13.712,19.625L13.801,19.597L13.89,19.568L13.978,19.537L14.066,19.506L14.153,19.474L14.24,19.44L14.326,19.405L14.412,19.37L14.497,19.333L14.582,19.296L14.666,19.257L14.75,19.218L14.833,19.177L14.915,19.136L14.997,19.093L15.078,19.05L15.159,19.006L15.239,18.96L15.318,18.914L15.397,18.867L15.475,18.819L15.553,18.77L15.63,18.72L15.706,18.669L15.782,18.618L15.857,18.565L15.931,18.512L16.005,18.457L16.078,18.402L16.15,18.346L16.222,18.289L16.293,18.232L16.363,18.173L16.432,18.114L16.501,18.054L16.569,17.993L16.637,17.931L16.703,17.868L16.769,17.805L16.834,17.741L16.898,17.676L16.962,17.61L17.024,17.544L17.086,17.477L17.147,17.409L17.207,17.34L17.267,17.271L17.326,17.201L17.383,17.13L17.44,17.058L17.496,16.986L17.552,16.913L17.606,16.84L17.66,16.766L17.712,16.691L17.764,16.615L17.815,16.539L17.865,16.462L17.914,16.385L17.962,16.306L18.009,16.228L18.056,16.148L18.101,16.068L18.146,15.988L18.189,15.907L18.232,15.825L18.273,15.743L18.314,15.66L18.353,15.576L18.392,15.492L18.43,15.408L18.466,15.322L18.502,15.237L18.537,15.151L18.57,15.064L18.603,14.977L18.634,14.889L18.665,14.801L18.694,14.712L18.722,14.623L18.75,14.533L18.776,14.443L18.801,14.353L18.825,14.262L18.848,14.17L18.87,14.078L18.891,13.986L18.91,13.893L18.929,13.8L18.946,13.706L18.962,13.613L18.977,13.518L18.991,13.423L19.004,13.328L19.015,13.233L19.026,13.137L19.035,13.041L19.043,12.944L19.049,12.847L19.055,12.75L19.059,12.652L19.062,12.554L19.064,12.456L19.065,12.358L19.064,12.231L19.061,12.104L19.057,11.978L19.051,11.853L19.043,11.728L19.033,11.605L19.022,11.481L19.008,11.359L18.993,11.237L18.977,11.115L18.958,10.995L18.938,10.875L18.917,10.756L18.893,10.638L18.868,10.52L18.841,10.404L18.813,10.288L18.783,10.173L18.751,10.058L18.717,9.945L18.682,9.832L18.645,9.72L18.607,9.61L18.567,9.5L18.525,9.39L18.482,9.282L18.437,9.175L18.391,9.069L18.343,8.963L18.293,8.859L18.242,8.756L18.189,8.653L18.135,8.552L18.079,8.451L18.022,8.352L17.963,8.254L17.902,8.156L17.84,8.06L17.777,7.965L17.712,7.871L17.645,7.778L17.577,7.686L17.507,7.596L17.436,7.506L17.364,7.418L17.29,7.331L17.214,7.245L17.138,7.16L17.059,7.076L16.979,6.994L16.898,6.913L16.816,6.833L16.731,6.755L16.646,6.677L16.559,6.601L16.471,6.527L16.381,6.453L16.29,6.381L16.198,6.311L16.104,6.241L16.009,6.174L15.912,6.107L15.814,6.042L15.715,5.978L14.497,8.209L14.556,8.251L14.613,8.293L14.67,8.336L14.727,8.38L14.782,8.424L14.837,8.47L14.891,8.516L14.944,8.562L14.997,8.61L15.048,8.658L15.099,8.707L15.149,8.757L15.199,8.807L15.247,8.858L15.295,8.91L15.341,8.962L15.387,9.015L15.432,9.069L15.477,9.123L15.52,9.179L15.563,9.234L15.604,9.291L15.645,9.348L15.685,9.406L15.724,9.464L15.763,9.523L15.8,9.583L15.836,9.643L15.872,9.704L15.906,9.765L15.94,9.827L15.973,9.89L16.005,9.953L16.036,10.017L16.066,10.081L16.095,10.146L16.123,10.212L16.15,10.278L16.177,10.345L16.202,10.412L16.226,10.48L16.249,10.548L16.272,10.617L16.293,10.686L16.314,10.756L16.333,10.827L16.351,10.898L16.369,10.969L16.385,11.041L16.4,11.113L16.415,11.186L16.428,11.26L16.44,11.334L16.452,11.408L16.462,11.483L16.471,11.558L16.479,11.634L16.486,11.71L16.492,11.787L16.497,11.864L16.501,11.941L16.504,12.019L16.505,12.098L16.506,12.176L16.505,12.241L16.504,12.305L16.502,12.369L16.499,12.433L16.496,12.496L16.491,12.56L16.486,12.623L16.48,12.686L16.466,12.811L16.448,12.935L16.428,13.058L16.404,13.18L16.378,13.301L16.349,13.421L16.316,13.54L16.281,13.658L16.244,13.774L16.203,13.889L16.16,14.003L16.114,14.115L16.065,14.227L16.014,14.336L15.96,14.444L15.903,14.551L15.845,14.656L15.783,14.76L15.72,14.862L15.654,14.962L15.585,15.061L15.514,15.158L15.442,15.253L15.366,15.346L15.289,15.437L15.21,15.527L15.128,15.614L15.044,15.7L14.959,15.784L14.871,15.865L14.782,15.945L14.69,16.022L14.597,16.097L14.502,16.17L14.405,16.241L14.306,16.309L14.206,16.375L14.104,16.439L14.001,16.5L13.895,16.559L13.789,16.615L13.68,16.669L13.571,16.72L13.46,16.769L13.347,16.815L13.233,16.858L13.118,16.899L13.002,16.937L12.884,16.972L12.765,17.004L12.645,17.033L12.524,17.06L12.402,17.083L12.279,17.104L12.155,17.121L12.03,17.136L11.967,17.142L11.904,17.147L11.84,17.151L11.777,17.155L11.713,17.158L11.649,17.16L11.585,17.161L11.52,17.161L11.456,17.161L11.392,17.16L11.328,17.158L11.264,17.155L11.201,17.151L11.137,17.147L11.074,17.142L11.011,17.136L10.886,17.121L10.762,17.104L10.639,17.083L10.517,17.06L10.396,17.033L10.276,17.004L10.157,16.972L10.039,16.937L9.923,16.899L9.808,16.858L9.694,16.815L9.581,16.769L9.47,16.72L9.36,16.669L9.252,16.615L9.146,16.559L9.04,16.5L8.937,16.439L8.835,16.375L8.734,16.309L8.636,16.241L8.539,16.17L8.444,16.097L8.351,16.022L8.259,15.945L8.17,15.865L8.082,15.784L7.996,15.7L7.913,15.614L7.831,15.527L7.752,15.437L7.675,15.346L7.599,15.253L7.526,15.158L7.456,15.061L7.387,14.962L7.321,14.862L7.258,14.76L7.196,14.656L7.137,14.551L7.081,14.444L7.027,14.336L6.976,14.227L6.927,14.115L6.881,14.003L6.838,13.889L6.797,13.774L6.76,13.658L6.725,13.54L6.692,13.421L6.663,13.301L6.637,13.18L6.613,13.058L6.593,12.935L6.575,12.811L6.561,12.686L6.555,12.623L6.55,12.56L6.545,12.496L6.542,12.433L6.539,12.369L6.537,12.305L6.536,12.241L6.535,12.176L6.536,12.112L6.537,12.048L6.539,11.983L6.542,11.92L6.546,11.856L6.55,11.793L6.555,11.729L6.562,11.667L6.569,11.604L6.576,11.542L6.585,11.479L6.594,11.418L6.604,11.356L6.615,11.295L6.639,11.173L6.666,11.052L6.696,10.933L6.729,10.815L6.764,10.698L6.803,10.582L6.844,10.467L6.888,10.354L6.935,10.243L6.984,10.132L7.036,10.024L7.091,9.916L7.148,9.81L7.208,9.706L7.27,9.603L7.334,9.502L7.401,9.403L7.47,9.305L7.541,9.209L7.615,9.115L7.691,9.022L7.768,8.931L7.848,8.842L7.93,8.755L8.014,8.67L8.105,8.589L8.194,8.51L8.283,8.434L8.37,8.362L8.456,8.293L8.541,8.226L8.624,8.163L8.707,8.102L8.789,8.044L8.869,7.989L8.949,7.936L9.027,7.886L9.105,7.838L9.182,7.793L9.258,7.749L9.333,7.708L9.333,11.467L11.466,11.467L11.466,4L6.872,4.005Z" style="fill:rgb(58,58,58);"/>
                </g>
            </g>
        </g>
    </g>
</svg>
