<?xml version="1.0" encoding="UTF-8" standalone="no"?>
<!DOCTYPE svg PUBLIC "-//W3C//DTD SVG 1.1//EN" "http://www.w3.org/Graphics/SVG/1.1/DTD/svg11.dtd">
<svg width="100%" height="100%" viewBox="0 0 15 15" version="1.1" xmlns="http://www.w3.org/2000/svg" xmlns:xlink="http://www.w3.org/1999/xlink" xml:space="preserve" xmlns:serif="http://www.serif.com/" style="fill-rule:evenodd;clip-rule:evenodd;stroke-linejoin:round;stroke-miterlimit:2;">
    <g transform="matrix(1,0,0,1,-27,-5)">
        <g transform="matrix(1,0,0,1,12,13)">
            <g id="ColorPicker_PaletteWeak" transform="matrix(1,0,0,1,-38,-10)">
                <g transform="matrix(1,0,0,1,-12,-12)">
                    <rect x="65" y="14" width="15" height="15" style="fill:none;"/>
                </g>
                <g transform="matrix(1,0,0,1,-592,-118)">
                    <path d="M652.671,133.998C652.614,133.999 652.557,134 652.5,134C648.913,134 646,131.087 646,127.5C646,123.913 648.913,121 652.5,121C656.087,121 659,123.913 659,127.5L659,127.504C658.999,127.506 658.998,127.508 658.997,127.509C658.556,129.051 658,130.018 656.413,130.045C656,130.052 656,130.018 655,130.018C654.502,130.018 653.203,130.255 652.892,130.948C652.581,131.641 652.87,132.191 653.099,132.406C653.87,133.132 653.429,133.94 652.671,133.998ZM656.504,125.923C657.109,125.923 657.6,126.414 657.6,127.019C657.6,127.624 657.109,128.115 656.504,128.115C655.899,128.115 655.408,127.624 655.408,127.019C655.408,126.414 655.899,125.923 656.504,125.923ZM648.499,125.899C649.104,125.899 649.595,126.391 649.595,126.995C649.595,127.6 649.104,128.091 648.499,128.091C647.894,128.091 647.403,127.6 647.403,126.995C647.403,126.391 647.894,125.899 648.499,125.899ZM650.524,122.921C651.129,122.921 651.62,123.413 651.62,124.017C651.62,124.622 651.129,125.113 650.524,125.113C649.919,125.113 649.428,124.622 649.428,124.017C649.428,123.413 649.919,122.921 650.524,122.921ZM654.497,122.906C655.102,122.906 655.593,123.397 655.593,124.002C655.593,124.607 655.102,125.098 654.497,125.098C653.892,125.098 653.401,124.607 653.401,124.002C653.401,123.397 653.892,122.906 654.497,122.906Z" style="fill-opacity:0.55;"/>
                </g>
            </g>
        </g>
    </g>
</svg>
