<?xml version="1.0" encoding="UTF-8" standalone="no"?>
<!DOCTYPE svg PUBLIC "-//W3C//DTD SVG 1.1//EN" "http://www.w3.org/Graphics/SVG/1.1/DTD/svg11.dtd">
<svg width="100%" height="100%" viewBox="0 0 19 19" version="1.1" xmlns="http://www.w3.org/2000/svg" xmlns:xlink="http://www.w3.org/1999/xlink" xml:space="preserve" xmlns:serif="http://www.serif.com/" style="fill-rule:evenodd;clip-rule:evenodd;stroke-linejoin:round;stroke-miterlimit:2;">
    <g transform="matrix(1,0,0,1,-53,-4)">
        <g id="Filter_MuteSolo_Checked" transform="matrix(1,0,0,1,28,-1)">
            <g id="Base-Icon" serif:id="Base Icon">
                <g id="Transparent-BG" serif:id="Transparent BG" transform="matrix(0.95,0,0,0.95,25,5)">
                    <rect x="0" y="0" width="20" height="20" style="fill:white;fill-opacity:0;"/>
                </g>
                <g transform="matrix(1.15385,0,0,1.15385,-9.76923,-1.07692)">
                    <path d="M34.846,20L31,20L31,7L44,7L44,11.726L34.846,20Z" style="fill:rgb(58,58,58);fill-opacity:0;"/>
                </g>
                <g transform="matrix(0.240479,0,0,0.243006,-126.596,-41.2547)">
                    <path d="M673.015,252.07L680.291,252.07C680.331,255.42 684.449,256.03 686.818,256.186C690.748,256.231 693.657,255.676 693.849,253.381C693.849,252.534 693.601,251.814 693.104,251.22C692.608,250.626 691.741,250.749 690.504,250.31C689.658,250.017 687.729,249.496 684.718,248.747C680.844,247.787 676.832,246.722 675.27,245.322C673.073,243.353 672.022,240.952 671.974,238.12C671.838,230.099 679.2,227.521 686.329,227.38C690.822,227.38 695.228,228.364 697.499,230.334C699.769,232.303 700.962,236.442 701.076,239.729L693.849,239.729C693.446,236.833 690.898,235.472 686.256,235.61C684.157,235.61 680.796,236.389 680.796,238.293C680.796,240.528 684.376,240.612 687.892,241.442C691.408,242.272 694.008,242.657 695.692,243.544C697.415,244.394 698.834,245.822 699.733,247.412C700.685,248.95 701.076,251.094 701.076,253.356C701.076,255.407 700.589,258.191 699.45,259.981C698.311,261.771 696.616,262.713 694.533,263.584C692.449,264.454 689.853,264.416 686.744,264.416C682.22,264.416 678.745,263.37 676.32,261.279C673.576,259.148 673.015,256.854 673.015,252.07Z"/>
                </g>
                <g transform="matrix(1,0,0,1,-4,1)">
                    <path d="M34,20L31,20L31,7L44,7L44,11L42.871,12.016C42.704,12.005 42.536,12 42.368,12C41.908,12.011 41.444,12.061 41,12.16L41,9L38.378,9L37,12L35.665,9L33,9L33,17L35,17L35,12L37.017,15L39,12L39,13.159C38.376,13.757 37.983,14.623 38.001,15.84C38.003,16.02 38.015,16.195 38.038,16.366L34,20Z"/>
                </g>
            </g>
            <g id="Star-Small" serif:id="Star Small" transform="matrix(0.628572,0,0,0.628572,-202.045,-24.82)">
                <g opacity="0">
                    <g transform="matrix(1.02941,0,0,1.02941,-19.3005,-13.2943)">
                        <rect x="382" y="59" width="17" height="17" style="fill:white;fill-opacity:0;"/>
                    </g>
                    <g transform="matrix(1.59091,0,0,1.59091,-3294.7,-324.832)">
                        <path d="M2315,243L2312.96,239.535L2316,238.132L2316,238L2312.46,237.977L2311.59,235L2311.39,235L2310.6,238.003L2306.69,238.003L2309.41,239.535L2307.7,243.303L2311.49,241.132L2315,243Z" style="fill:rgb(58,58,58);"/>
                        <path d="M2311.65,234.002L2311.7,234.007L2311.76,234.015L2311.82,234.027L2311.88,234.042L2311.93,234.061L2311.99,234.082L2312.04,234.107L2312.09,234.135L2312.14,234.166L2312.19,234.199L2312.23,234.236L2312.28,234.275L2312.32,234.316L2312.36,234.36L2312.39,234.406L2312.43,234.454L2312.45,234.504L2312.48,234.555L2312.51,234.608L2312.53,234.663L2312.55,234.718L2313.21,236.982L2316.01,237L2316.07,237.002L2316.13,237.008L2316.19,237.017L2316.24,237.03L2316.3,237.047L2316.36,237.067L2316.41,237.09L2316.47,237.117L2316.52,237.146L2316.57,237.179L2316.62,237.215L2316.67,237.254L2316.71,237.295L2316.75,237.339L2316.79,237.385L2316.82,237.434L2316.86,237.485L2316.89,237.537L2316.91,237.591L2316.94,237.647L2316.95,237.704L2316.97,237.762L2316.98,237.82L2316.99,237.88L2317,237.94L2317,238L2317,238.132L2317,238.192L2316.99,238.252L2316.98,238.311L2316.97,238.369L2316.95,238.427L2316.94,238.484L2316.91,238.539L2316.89,238.593L2316.86,238.645L2316.83,238.696L2316.79,238.744L2316.75,238.79L2316.71,238.834L2316.67,238.876L2316.62,238.914L2316.58,238.95L2316.53,238.983L2316.47,239.013L2316.42,239.04L2314.39,239.98L2315.86,242.493L2315.89,242.546L2315.92,242.601L2315.94,242.657L2315.96,242.714L2315.97,242.772L2315.99,242.831L2315.99,242.891L2316,242.951L2316,243.011L2316,243.071L2315.99,243.131L2315.98,243.191L2315.97,243.25L2315.95,243.307L2315.93,243.364L2315.91,243.42L2315.88,243.474L2315.85,243.526L2315.82,243.576L2315.78,243.624L2315.74,243.67L2315.7,243.714L2315.66,243.755L2315.61,243.793L2315.56,243.828L2315.51,243.86L2315.46,243.889L2315.4,243.915L2315.35,243.938L2315.29,243.957L2315.23,243.973L2315.17,243.985L2315.11,243.994L2315.05,243.999L2314.99,244L2314.93,243.998L2314.87,243.992L2314.81,243.982L2314.75,243.969L2314.7,243.953L2314.64,243.933L2314.58,243.909L2314.53,243.883L2311.51,242.274L2308.19,244.171L2308.14,244.199L2308.08,244.224L2308.03,244.246L2307.97,244.264L2307.91,244.279L2307.85,244.29L2307.8,244.298L2307.74,244.302L2307.68,244.302L2307.62,244.299L2307.55,244.293L2307.5,244.283L2307.44,244.269L2307.38,244.252L2307.32,244.231L2307.27,244.208L2307.22,244.18L2307.16,244.15L2307.11,244.117L2307.07,244.081L2307.02,244.042L2306.98,244L2306.94,243.956L2306.9,243.909L2306.87,243.86L2306.83,243.81L2306.8,243.757L2306.78,243.703L2306.76,243.647L2306.74,243.591L2306.72,243.533L2306.71,243.474L2306.7,243.415L2306.7,243.355L2306.7,243.295L2306.7,243.235L2306.7,243.175L2306.71,243.116L2306.72,243.058L2306.74,243L2306.76,242.944L2306.78,242.888L2308.12,239.956L2306.2,238.874L2306.15,238.844L2306.1,238.81L2306.05,238.773L2306.01,238.734L2305.97,238.691L2305.93,238.647L2305.89,238.6L2305.86,238.551L2305.83,238.5L2305.8,238.447L2305.77,238.393L2305.75,238.338L2305.73,238.281L2305.72,238.223L2305.71,238.164L2305.7,238.105L2305.69,238.045L2305.69,237.986L2305.7,237.926L2305.7,237.867L2305.71,237.808L2305.73,237.75L2305.74,237.692L2305.76,237.636L2305.79,237.581L2305.81,237.528L2305.84,237.476L2305.88,237.426L2305.91,237.379L2305.95,237.333L2305.99,237.29L2306.04,237.249L2306.08,237.212L2306.13,237.176L2306.18,237.144L2306.23,237.115L2306.29,237.089L2306.34,237.067L2306.4,237.048L2306.46,237.032L2306.51,237.019L2306.57,237.01L2306.63,237.005L2306.69,237.003L2309.83,237.003L2310.43,234.744L2310.44,234.686L2310.46,234.63L2310.49,234.576L2310.51,234.522L2310.55,234.471L2310.58,234.421L2310.61,234.374L2310.65,234.328L2310.69,234.286L2310.74,234.245L2310.78,234.207L2310.83,234.172L2310.88,234.14L2310.93,234.112L2310.99,234.086L2311.04,234.063L2311.1,234.044L2311.16,234.028L2311.22,234.016L2311.28,234.007L2311.33,234.002L2311.39,234L2311.59,234L2311.65,234.002ZM2311.39,235L2310.6,238.003L2306.69,238.003L2309.41,239.535L2307.7,243.303L2311.49,241.132L2315,243L2312.96,239.535L2316,238.132L2316,238L2312.46,237.977L2311.59,235L2311.39,235Z" style="fill:rgb(58,58,58);"/>
                    </g>
                    <g transform="matrix(1.07692,0,0,1.07692,-41.0964,-15.0269)">
                        <path d="M393.5,58.97L394.943,63.92L400.57,63.92L395.674,66.182L398.681,71.301L393.5,68.352L388.34,71.301L391.326,66.182L386.409,63.92L392.176,63.92L393.5,58.97Z" style="fill:rgb(255,159,57);"/>
                    </g>
                </g>
            </g>
        </g>
    </g>
</svg>
