<?xml version="1.0" encoding="UTF-8" standalone="no"?><!DOCTYPE svg PUBLIC "-//W3C//DTD SVG 1.1//EN" "http://www.w3.org/Graphics/SVG/1.1/DTD/svg11.dtd"><svg width="100%" height="100%" viewBox="0 0 15 15" version="1.1" xmlns="http://www.w3.org/2000/svg" xmlns:xlink="http://www.w3.org/1999/xlink" xml:space="preserve" xmlns:serif="http://www.serif.com/" style="fill-rule:evenodd;clip-rule:evenodd;stroke-linejoin:round;stroke-miterlimit:2;"><g id="SchematicView_OverrideAdvancedSettings_on"><g id="Icons"><g id="Base-Block" serif:id="Base Block"><path d="M15,2.1c-0,-1.159 -0.941,-2.1 -2.1,-2.1l-10.8,0c-1.159,0 -2.1,0.941 -2.1,2.1l-0,10.8c-0,1.159 0.941,2.1 2.1,2.1l10.8,0c1.159,0 2.1,-0.941 2.1,-2.1l-0,-10.8Z" style="fill-opacity:0;"/></g><g id="Object-Icon-Base" serif:id="Object Icon Base"><path d="M15,2.25c0,-1.242 -1.008,-2.25 -2.25,-2.25l-10.5,0c-1.242,0 -2.25,1.008 -2.25,2.25l0,10.5c0,1.242 1.008,2.25 2.25,2.25l10.5,0c1.242,0 2.25,-1.008 2.25,-2.25l0,-10.5Z" style="fill-opacity:0;"/><path d="M15,2.25c0,-1.242 -1.008,-2.25 -2.25,-2.25l-10.5,0c-1.242,0 -2.25,1.008 -2.25,2.25l0,10.5c0,1.242 1.008,2.25 2.25,2.25l10.5,0c1.242,0 2.25,-1.008 2.25,-2.25l0,-10.5Zm-1,0l0,10.5c0,0.69 -0.56,1.25 -1.25,1.25c-0,0 -10.5,0 -10.5,0c-0.69,0 -1.25,-0.56 -1.25,-1.25l0,-10.5c0,-0.69 0.56,-1.25 1.25,-1.25c0,0 10.5,0 10.5,0c0.69,0 1.25,0.56 1.25,1.25Z" style="fill:#2d2d2d;fill-opacity:0;"/></g><path d="M1.57,7.5c-0.351,-0.331 -0.57,-0.8 -0.57,-1.32l0,-3.36c0,-1.004 0.816,-1.82 1.82,-1.82l3.36,0c0.52,0 0.989,0.219 1.32,0.57c0.331,-0.351 0.8,-0.57 1.32,-0.57l3.36,0c1.004,0 1.82,0.816 1.82,1.82l0,3.36c0,0.52 -0.219,0.989 -0.57,1.32c0.351,0.331 0.57,0.8 0.57,1.32l0,3.36c0,1.004 -0.816,1.82 -1.82,1.82l-3.36,0c-0.52,0 -0.989,-0.219 -1.32,-0.57c-0.331,0.351 -0.8,0.57 -1.32,0.57l-3.36,0c-1.004,0 -1.82,-0.816 -1.82,-1.82l0,-3.36c0,-0.52 0.219,-0.989 0.57,-1.32Zm6.43,0.5l5,0l0,5l-5,0l0,-5Zm-1,0l0,5l-5,0l0,-5l5,0Zm-1,4l0,-3l-3,0l0,3l3,0Zm-4,-10l5,0l0,5l-5,0l0,-5Zm11,0l0,5l-5,0l0,-5l5,0Zm-7,1l-3,0l0,3l3,0l0,-3Zm6,3l0,-3l-3,0l0,3l3,0Z" style="fill:#2e2e2e;"/><path d="M8,8l5,0l0,5l-5,0l0,-5Zm-1,0l0,5l-5,0l0,-5l5,0Zm-1,4l0,-3l-3,0l0,3l3,0Zm-4,-10l5,0l0,5l-5,0l-0,-5Zm11,0l0,5l-5,0l0,-5l5,0Zm-7,1l-3,0l0,3l3,0l0,-3Zm6,3l0,-3l-3,0l0,3l3,0Z" style="fill:#53c0e7;"/></g></g></svg>