<?xml version="1.0" encoding="UTF-8" standalone="no"?><!DOCTYPE svg PUBLIC "-//W3C//DTD SVG 1.1//EN" "http://www.w3.org/Graphics/SVG/1.1/DTD/svg11.dtd"><svg width="100%" height="100%" viewBox="0 0 15 15" version="1.1" xmlns="http://www.w3.org/2000/svg" xmlns:xlink="http://www.w3.org/1999/xlink" xml:space="preserve" xmlns:serif="http://www.serif.com/" style="fill-rule:evenodd;clip-rule:evenodd;stroke-linejoin:round;stroke-miterlimit:1.41421;"><g id="SchematicView_OverridePositioning_off"><g id="Icons"><g id="Base-Block" serif:id="Base Block"><path d="M15,2.1c-0,-1.159 -0.941,-2.1 -2.1,-2.1l-10.8,0c-1.159,0 -2.1,0.941 -2.1,2.1l-0,10.8c-0,1.159 0.941,2.1 2.1,2.1l10.8,0c1.159,0 2.1,-0.941 2.1,-2.1l-0,-10.8Z" style="fill-opacity:0;"/></g><g id="Object-Icon-Base" serif:id="Object Icon Base"><path d="M15,2.25c0,-1.242 -1.008,-2.25 -2.25,-2.25l-10.5,0c-1.242,0 -2.25,1.008 -2.25,2.25l0,10.5c0,1.242 1.008,2.25 2.25,2.25l10.5,0c1.242,0 2.25,-1.008 2.25,-2.25l0,-10.5Z" style="fill-opacity:0;"/><path d="M15,2.25c0,-1.242 -1.008,-2.25 -2.25,-2.25l-10.5,0c-1.242,0 -2.25,1.008 -2.25,2.25l0,10.5c0,1.242 1.008,2.25 2.25,2.25l10.5,0c1.242,0 2.25,-1.008 2.25,-2.25l0,-10.5Zm-1,0l0,10.5c0,0.69 -0.56,1.25 -1.25,1.25c-0,0 -10.5,0 -10.5,0c-0.69,0 -1.25,-0.56 -1.25,-1.25l0,-10.5c0,-0.69 0.56,-1.25 1.25,-1.25c0,0 10.5,0 10.5,0c0.69,0 1.25,0.56 1.25,1.25Z" style="fill:#2d2d2d;fill-opacity:0;"/></g><path d="M6,4l-0,-2.65c-0,-0.745 0.605,-1.35 1.35,-1.35l0.3,0c0.745,0 1.35,0.605 1.35,1.35l-0,2.65l0.18,0c1.004,0 1.82,0.816 1.82,1.82l-0,0.18l2.65,0c0.745,0 1.35,0.605 1.35,1.35l-0,0.3c-0,0.745 -0.605,1.35 -1.35,1.35l-2.65,0l-0,0.18c-0,1.004 -0.816,1.82 -1.82,1.82l-0.18,0l-0,2.65c-0,0.745 -0.605,1.35 -1.35,1.35l-0.3,0c-0.745,0 -1.35,-0.605 -1.35,-1.35l-0,-2.65l-0.18,0c-1.004,0 -1.82,-0.816 -1.82,-1.82l-0,-0.18l-2.65,0c-0.745,0 -1.35,-0.605 -1.35,-1.35l-0,-0.3c-0,-0.745 0.605,-1.35 1.35,-1.35l2.65,0l-0,-0.18c-0,-1.004 0.816,-1.82 1.82,-1.82l0.18,0Zm4,6l-2,0l-0,4l-1,0l-0,-4l-2,0l-0,-2l-4,0l-0,-1l4,0l-0,-2l2,0l-0,-4l1,0l-0,4l2,0l-0,2l4,0l-0,1l-4,0l-0,2Zm-1,-4l-3,0l-0,3l3,0l-0,-3Z" style="fill-opacity:0;"/><path d="M9,6l-3,0l-0,3l3,0l-0,-3Zm1,4l-2,0l-0,4l-1,0l-0,-4l-2,0l-0,-2l-4,0l-0,-1l4,0l-0,-2l2,0l-0,-4l1,0l-0,4l2,0l-0,2l4,0l-0,1l-4,0l-0,2Z" style="fill:#646464;stroke:#fff;stroke-opacity:0;stroke-width:1px;"/></g></g></svg>