<?xml version="1.0" encoding="UTF-8" standalone="no"?><!DOCTYPE svg PUBLIC "-//W3C//DTD SVG 1.1//EN" "http://www.w3.org/Graphics/SVG/1.1/DTD/svg11.dtd"><svg width="100%" height="100%" viewBox="0 0 7 16" version="1.1" xmlns="http://www.w3.org/2000/svg" xmlns:xlink="http://www.w3.org/1999/xlink" xml:space="preserve" xmlns:serif="http://www.serif.com/" style="fill-rule:evenodd;clip-rule:evenodd;stroke-linejoin:round;stroke-miterlimit:1.41421;"><g id="RTPC_nor_16px"><path d="M7,2.24c0,-1.236 -1.004,-2.24 -2.24,-2.24l-2.52,0c-1.236,0 -2.24,1.004 -2.24,2.24l0,11.52c0,1.236 1.004,2.24 2.24,2.24l2.52,0c1.236,0 2.24,-1.004 2.24,-2.24l0,-11.52Z" style="fill:#818181;"/><path d="M6,1.93c0,-0.513 -0.417,-0.93 -0.93,-0.93l-3.11,0c-0.53,0 -0.96,0.43 -0.96,0.96l0,2.04l5,0l0,-2.07Z" style="fill:#bababa;"/><path d="M6,12l-5,0l0,1.8c0,0.662 0.538,1.2 1.2,1.2l2.6,0c0.662,0 1.2,-0.538 1.2,-1.2l0,-1.8Z" style="fill:#bababa;"/><rect x="4" y="5" width="2" height="7" style="fill:#bababa;"/><rect x="1" y="4" width="2" height="7" style="fill:#bababa;"/><path d="M3,4l0,7l-2,0l0,1l3,0l0,-7l2,0l0,-1l-3,0Z" style="fill:#818181;fill-rule:nonzero;"/></g></svg>