<?xml version="1.0" encoding="UTF-8" standalone="no"?>
<!DOCTYPE svg PUBLIC "-//W3C//DTD SVG 1.1//EN" "http://www.w3.org/Graphics/SVG/1.1/DTD/svg11.dtd">
<svg width="100%" height="100%" viewBox="0 0 7 16" version="1.1" xmlns="http://www.w3.org/2000/svg" xmlns:xlink="http://www.w3.org/1999/xlink" xml:space="preserve" xmlns:serif="http://www.serif.com/" style="fill-rule:evenodd;clip-rule:evenodd;stroke-linejoin:round;stroke-miterlimit:1.41421;">
    <g transform="matrix(1,0,0,1,-24,-57)">
        <g id="RTPC_nor_dis_16px">
            <g transform="matrix(1.4,0,0,0.761905,7.2,53.1905)">
                <path d="M17,7.94C17,6.317 16.283,5 15.4,5L13.6,5C12.717,5 12,6.317 12,7.94L12,23.06C12,24.683 12.717,26 13.6,26L15.4,26C16.283,26 17,24.683 17,23.06L17,7.94Z" style="fill:rgb(161,161,161);"/>
            </g>
            <g transform="matrix(1,0,0,0.142857,13,57.2857)">
                <path d="M17,11.51C17,7.917 16.583,5 16.07,5L12.96,5C12.43,5 12,8.011 12,11.72L12,26L17,26L17,11.51Z" style="fill:rgb(186,186,186);"/>
            </g>
            <g transform="matrix(1,0,0,0.142857,13,68.2857)">
                <path d="M17,5L12,5L12,17.6C12,22.236 12.538,26 13.2,26L15.8,26C16.462,26 17,22.236 17,17.6L17,5Z" style="fill:rgb(186,186,186);"/>
            </g>
            <g transform="matrix(0.4,0,0,0.333333,23.2,60.3333)">
                <rect x="12" y="5" width="5" height="21" style="fill:rgb(186,186,186);"/>
            </g>
            <g transform="matrix(0.4,0,0,0.333333,20.2,59.3333)">
                <rect x="12" y="5" width="5" height="21" style="fill:rgb(186,186,186);"/>
            </g>
            <g transform="matrix(1,0,0,1,27,74)">
                <path d="M0,-13L0,-6L-2,-6L-2,-5L1,-5L1,-12L3,-12L3,-13L0,-13Z" style="fill:rgb(161,161,161);fill-rule:nonzero;"/>
            </g>
        </g>
    </g>
</svg>
