<?xml version="1.0" encoding="UTF-8" standalone="no"?><!DOCTYPE svg PUBLIC "-//W3C//DTD SVG 1.1//EN" "http://www.w3.org/Graphics/SVG/1.1/DTD/svg11.dtd"><svg width="100%" height="100%" viewBox="0 0 16 16" version="1.1" xmlns="http://www.w3.org/2000/svg" xmlns:xlink="http://www.w3.org/1999/xlink" xml:space="preserve" xmlns:serif="http://www.serif.com/" style="fill-rule:evenodd;clip-rule:evenodd;stroke-linejoin:round;stroke-miterlimit:2;"><g id="ObjectIcons_RayOcclusion_dis" opacity="0.3"><g id="Icons"><g id="Base-Block" serif:id="Base Block"><path d="M15,2.1c-0,-1.159 -0.941,-2.1 -2.1,-2.1l-10.8,0c-1.159,0 -2.1,0.941 -2.1,2.1l-0,10.8c-0,1.159 0.941,2.1 2.1,2.1l10.8,0c1.159,0 2.1,-0.941 2.1,-2.1l-0,-10.8Z" style="fill-opacity:0;"/></g><rect x="1" y="7" width="4" height="1" style="fill:#d8d8d8;"/><path d="M6,7c-0,-0.552 -0.448,-1 -1,-1l-4,0c-0.552,0 -1,0.448 -1,1l-0,1c0,0.552 0.448,1 1,1l4,0c0.552,0 1,-0.448 1,-1l-0,-1Zm-1,0l-4,0l-0,1l4,0l-0,-1Z" style="fill:#222;"/><rect x="8" y="7" width="2" height="1" style="fill:#919191;"/><path d="M11,7c0,-0.552 -0.448,-1 -1,-1l-2,0c-0.552,0 -1,0.448 -1,1l-0,1c-0,0.552 0.448,1 1,1l2,0c0.552,0 1,-0.448 1,-1l-0,-1Zm-1,0l-2,0l-0,1l2,0l-0,-1Z" style="fill:#222;"/><rect x="6" y="1" width="1" height="13" style="fill:#e2e2e2;"/><path d="M8,1c0,-0.552 -0.448,-1 -1,-1l-1,0c-0.552,0 -1,0.448 -1,1l-0,13c0,0.552 0.448,1 1,1l1,0c0.552,-0 1,-0.448 1,-1l-0,-13Zm-1,0l-1,0l-0,13l1,0l-0,-13Z" style="fill:#222;"/><path d="M11,10c0,-0.552 -0.448,-1 -1,-1l-1,0c-0.552,0 -1,0.448 -1,1l-0,4c0,0.552 0.448,1 1,1l1,0c0.552,-0 1,-0.448 1,-1l-0,-4Zm-1,0l-1,0l-0,4l1,0l-0,-4Z" style="fill:#222;"/><rect x="9" y="10" width="1" height="4" style="fill:#c8c8c8;"/><path d="M12.5,9c-1.293,0 -2.5,1.276 -2.5,3c-0,1.724 1.207,3 2.5,3c1.293,0 2.5,-1.276 2.5,-3c-0,-1.724 -1.207,-3 -2.5,-3Zm-0,1c0.828,0 1.5,0.896 1.5,2c-0,1.104 -0.672,2 -1.5,2c-0.828,0 -1.5,-0.896 -1.5,-2c-0,-1.104 0.672,-2 1.5,-2Z" style="fill:#222;"/><ellipse cx="12.5" cy="12" rx="1.5" ry="2" style="fill:#c8c8c8;"/><ellipse cx="12.5" cy="12" rx="0.5" ry="1" style="fill:#222;"/><path d="M11,10c0,-0.552 -0.448,-1 -1,-1l-1,0c-0.552,0 -1,0.448 -1,1l-0,4c0,0.552 0.448,1 1,1l1,0c0.552,-0 1,-0.448 1,-1l-0,-4Zm-1,0l-1,0l-0,4l1,0l-0,-4Z" style="fill:#222;"/><rect x="9" y="10" width="1" height="4" style="fill:#c8c8c8;"/><path d="M12.5,9c-1.293,0 -2.5,1.276 -2.5,3c-0,1.724 1.207,3 2.5,3c1.293,0 2.5,-1.276 2.5,-3c-0,-1.724 -1.207,-3 -2.5,-3Zm-0,1c0.828,0 1.5,0.896 1.5,2c-0,1.104 -0.672,2 -1.5,2c-0.828,0 -1.5,-0.896 -1.5,-2c-0,-1.104 0.672,-2 1.5,-2Z" style="fill:#222;"/><ellipse cx="12.5" cy="12" rx="1.5" ry="2" style="fill:#c8c8c8;"/><ellipse cx="12.5" cy="12" rx="0.5" ry="1" style="fill:#222;"/><circle cx="12.5" cy="7.5" r="2.5" style="fill:#222;"/><circle cx="12.5" cy="7.5" r="1.5" style="fill:#e2e2e2;"/></g></g></svg>