<?xml version="1.0" encoding="UTF-8" standalone="no"?><!DOCTYPE svg PUBLIC "-//W3C//DTD SVG 1.1//EN" "http://www.w3.org/Graphics/SVG/1.1/DTD/svg11.dtd"><svg width="100%" height="100%" viewBox="0 0 15 15" version="1.1" xmlns="http://www.w3.org/2000/svg" xmlns:xlink="http://www.w3.org/1999/xlink" xml:space="preserve" xmlns:serif="http://www.serif.com/" style="fill-rule:evenodd;clip-rule:evenodd;stroke-linejoin:round;stroke-miterlimit:2;"><g id="ObjectIcons_Metadata_nor"><g id="Icons"><g id="Base-Block" serif:id="Base Block"><path d="M15,2.1c0,-1.159 -0.941,-2.1 -2.1,-2.1l-10.8,0c-1.159,0 -2.1,0.941 -2.1,2.1l0,10.8c0,1.159 0.941,2.1 2.1,2.1l10.8,0c1.159,0 2.1,-0.941 2.1,-2.1l0,-10.8Z" style="fill-opacity:0;"/></g><path d="M14,6l-3,-3l-10,0l0,9l10,0l3,-3l0,-3Z" style="fill:#c8c8c8;"/><path d="M15,6c0,-0.265 -0.105,-0.52 -0.293,-0.707l-3,-3c-0.187,-0.188 -0.442,-0.293 -0.707,-0.293l-10,0c-0.552,0 -1,0.448 -1,1l0,9c0,0.552 0.448,1 1,1l10,0c0.265,0 0.52,-0.105 0.707,-0.293l3,-3c0.188,-0.187 0.293,-0.442 0.293,-0.707l0,-3Zm-1,0l-3,-3l-10,0l0,9l10,0l3,-3l0,-3Z" style="fill:#222;"/><path d="M4.139,7.505l2.032,1.934l-0.696,0.719l-2.785,-2.664l2.791,-2.657l0.685,0.729l-2.027,1.939Z" style="fill:#222;"/><path d="M9.817,7.489l-1.912,-1.859l0.694,-0.72l2.648,2.585l-2.643,2.59l-0.704,-0.71l1.917,-1.886Z" style="fill:#222;"/></g></g></svg>