<?xml version="1.0" encoding="UTF-8" standalone="no"?><!DOCTYPE svg PUBLIC "-//W3C//DTD SVG 1.1//EN" "http://www.w3.org/Graphics/SVG/1.1/DTD/svg11.dtd"><svg width="100%" height="100%" viewBox="0 0 15 15" version="1.1" xmlns="http://www.w3.org/2000/svg" xmlns:xlink="http://www.w3.org/1999/xlink" xml:space="preserve" xmlns:serif="http://www.serif.com/" style="fill-rule:evenodd;clip-rule:evenodd;stroke-linejoin:round;stroke-miterlimit:2;"><g id="ObjectIcons_BusProcessing_nor"><g id="Icons"><g id="Base-Block" serif:id="Base Block"><path d="M15,2.1c0,-1.159 -0.941,-2.1 -2.1,-2.1l-10.8,0c-1.159,0 -2.1,0.941 -2.1,2.1l0,10.8c0,1.159 0.941,2.1 2.1,2.1l10.8,0c1.159,0 2.1,-0.941 2.1,-2.1l0,-10.8Z" style="fill-opacity:0;"/></g><path d="M15,5.75c0,-0.966 -0.784,-1.75 -1.75,-1.75l-11.5,0c-0.966,0 -1.75,0.784 -1.75,1.75l0,3.5c0,0.966 0.784,1.75 1.75,1.75l11.5,0c0.966,0 1.75,-0.784 1.75,-1.75l0,-3.5Z" style="fill:#222;"/><path d="M11,10l-1,0l0,-1l1,0l0,1Zm-6,0l-1,0l0,-1l1,0l0,1Zm6,-2l-1,0l0,-1l1,0l0,1Zm-6,0l-1,0l0,-1l1,0l0,1Zm6,-2l-1,0l0,-1l1,0l0,1Zm-6,0l-1,0l0,-1l1,0l0,1Z" style="fill:#919191;"/><path d="M14,10l-3,0l0,-1l3,0l0,1Zm-10,0l-3,0l0,-1l3,0l0,1Zm10,-2l-3,0l0,-1l3,0l0,1Zm-10,0l-3,0l0,-1l3,0l0,1Zm10,-2l-3,0l0,-1l3,0l0,1Zm-10,0l-3,0l0,-1l3,0l0,1Z" style="fill:#c8c8c8;"/><path d="M11,12c-2.414,2.414 -2.946,1 -7,1l0,-11l7,0l0,10Zm-1,-9l-5,0l0,9l5,0l0,-9Z" style="fill:#222;"/><rect x="5" y="3" width="5" height="9" style="fill:#c8c8c8;"/><path d="M11,10l-1,0l0,-1l1,0l0,1Zm-6,0l-1,0l0,-1l1,0l0,1Zm6,-2l-1,0l0,-1l1,0l0,1Zm-6,0l-1,0l0,-1l1,0l0,1Zm6,-2l-1,0l0,-1l1,0l0,1Zm-6,0l-1,0l0,-1l1,0l0,1Z" style="fill:#919191;"/><g><path d="M15,9.4c0,-1.325 -1.075,-2.4 -2.4,-2.4l-4.2,0c-1.325,0 -2.4,1.075 -2.4,2.4l0,3.2c0,1.325 1.075,2.4 2.4,2.4l4.2,0c1.325,0 2.4,-1.075 2.4,-2.4l0,-3.2Z" style="fill:#222;"/><path d="M14,9.5c0,-0.828 -0.672,-1.5 -1.5,-1.5l-4,0c-0.828,0 -1.5,0.672 -1.5,1.5l0,3c0,0.828 0.672,1.5 1.5,1.5l4,0c0.828,0 1.5,-0.672 1.5,-1.5l0,-3Z" style="fill:#c8c8c8;"/><path d="M13,9.651l0,1.389l-1.542,2.293l-1.962,-2.549l-1.496,1.663l0,-1.012l1.552,-2.829l1.906,2.711l1.542,-1.666Z" style="fill:#222;"/></g></g></g></svg>