<?xml version="1.0" encoding="UTF-8" standalone="no"?><!DOCTYPE svg PUBLIC "-//W3C//DTD SVG 1.1//EN" "http://www.w3.org/Graphics/SVG/1.1/DTD/svg11.dtd"><svg width="100%" height="100%" viewBox="0 0 15 15" version="1.1" xmlns="http://www.w3.org/2000/svg" xmlns:xlink="http://www.w3.org/1999/xlink" xml:space="preserve" xmlns:serif="http://www.serif.com/" style="fill-rule:evenodd;clip-rule:evenodd;stroke-linejoin:round;stroke-miterlimit:2;"><g id="ObjectIcons_AudioObjectFX_dis" opacity="0.3"><path id="Base-Block" serif:id="Base Block" d="M15,2.1c0,-1.159 -0.941,-2.1 -2.1,-2.1l-10.8,-0c-1.159,-0 -2.1,0.941 -2.1,2.1l0,10.8c0,1.159 0.941,2.1 2.1,2.1l10.8,-0c1.159,-0 2.1,-0.941 2.1,-2.1l0,-10.8Z" style="fill-opacity:0;"/><g id="Disc"><circle cx="7.5" cy="7.5" r="7.5" style="fill:#c4c4c4;"/><circle cx="7.5" cy="7.5" r="6.5" style="fill:#393939;"/></g><g id="FX"><path d="M4,4l5,0l0,1l-4,0l0,1l2,0l0,1l-2,0l0,4l-1,0l0,-7Z" style="fill:#c4c4c4;"/><path d="M7.214,6.507l-0.707,0.707l4.285,4.285l0.707,-0.707l-4.285,-4.285Z" style="fill:#c4c4c4;"/><path d="M10.943,6.384l0.707,0.707l-4.487,4.487l-0.707,-0.707l4.487,-4.487Z" style="fill:#c4c4c4;"/></g></g></svg>