<?xml version="1.0" encoding="UTF-8" standalone="no"?>
<!DOCTYPE svg PUBLIC "-//W3C//DTD SVG 1.1//EN" "http://www.w3.org/Graphics/SVG/1.1/DTD/svg11.dtd">
<svg width="100%" height="100%" viewBox="0 0 7 16" version="1.1" xmlns="http://www.w3.org/2000/svg" xmlns:xlink="http://www.w3.org/1999/xlink" xml:space="preserve" xmlns:serif="http://www.serif.com/" style="fill-rule:evenodd;clip-rule:evenodd;stroke-linejoin:round;stroke-miterlimit:1.41421;">
    <g transform="matrix(1,0,0,1,-24,-31)">
        <g id="State_nor_dis_16px">
            <g transform="matrix(1.4,0,0,0.761905,7.2,27.1905)">
                <path d="M17,7.94C17,6.317 16.283,5 15.4,5L13.6,5C12.717,5 12,6.317 12,7.94L12,23.06C12,24.683 12.717,26 13.6,26L15.4,26C16.283,26 17,24.683 17,23.06L17,7.94Z" style="fill:rgb(161,161,161);"/>
            </g>
            <g transform="matrix(1,0,0,0.333333,13,30.3333)">
                <path d="M17,9.65C17,7.084 16.305,5 15.45,5L13.6,5C12.717,5 12,7.151 12,9.8L12,26L17,26L17,9.65Z" style="fill:rgb(186,186,186);"/>
            </g>
            <g transform="matrix(1,0,0,0.333333,13,37.3333)">
                <path d="M17,5L12,5L12,20C12,23.311 12.896,26 14,26L15,26C16.104,26 17,23.311 17,20L17,5Z" style="fill:rgb(186,186,186);"/>
            </g>
            <g transform="matrix(1,0,0,-1,24,50)">
                <rect x="2" y="11" width="3" height="1" style="fill:rgb(161,161,161);"/>
            </g>
            <g transform="matrix(1,0,0,-1,24,46)">
                <rect x="2" y="11" width="3" height="1" style="fill:rgb(161,161,161);"/>
            </g>
            <g transform="matrix(1,0,0,-1,24,47)">
                <rect x="2" y="4" width="3" height="1" style="fill:rgb(161,161,161);"/>
            </g>
        </g>
    </g>
</svg>
