<?xml version="1.0" encoding="UTF-8" standalone="no"?>
<!DOCTYPE svg PUBLIC "-//W3C//DTD SVG 1.1//EN" "http://www.w3.org/Graphics/SVG/1.1/DTD/svg11.dtd">
<svg width="100%" height="100%" viewBox="0 0 19 19" version="1.1" xmlns="http://www.w3.org/2000/svg" xmlns:xlink="http://www.w3.org/1999/xlink" xml:space="preserve" xmlns:serif="http://www.serif.com/" style="fill-rule:evenodd;clip-rule:evenodd;stroke-linejoin:round;stroke-miterlimit:2;">
    <g transform="matrix(1,0,0,1,-66,-30)">
        <g transform="matrix(1.63235,0,0,1.96875,3.26471,3.9375)">
            <g id="Visibility_Head_Off" transform="matrix(2.06002,0,0,4.30045,-1173.21,-1402.82)">
                <g opacity="0.25">
                    <g id="Icons" transform="matrix(1.82094e-17,-0.118112,0.297382,7.2323e-18,581.034,331.592)">
                        <g transform="matrix(1.26667,1.2326e-32,-1.56129e-32,1.26667,-50.1102,-7.66667)">
                            <g id="Base-Block" serif:id="Base Block">
                                <path d="M55,27.1C55,25.941 54.059,25 52.9,25L42.1,25C40.941,25 40,25.941 40,27.1L40,37.9C40,39.059 40.941,40 42.1,40L52.9,40C54.059,40 55,39.059 55,37.9L55,27.1Z" style="fill-opacity:0;"/>
                            </g>
                        </g>
                        <g transform="matrix(4.76252e-17,0.777778,-0.777778,4.76252e-17,18.8898,23.8903)">
                            <path d="M13.55,3C9.8,3 6.75,5.94 6.57,9.64L4.665,12.06C4.174,12.708 4.229,13.286 4.639,13.286L7.218,13.286L7.218,16.429C7.218,17.529 8.118,18.429 9.218,18.429L11.079,18.429L11.079,21L17.499,21L17.499,16.32C19.859,15.2 20.713,12.79 20.713,10C20.713,6.13 17.42,3 13.55,3Z" style="fill:rgb(37,37,37);fill-rule:nonzero;"/>
                            <path d="M5.317,9.152C5.735,4.973 9.254,1.714 13.55,1.714C18.122,1.714 21.998,5.427 21.998,10C21.998,13.023 21.065,15.623 18.785,17.076L18.785,21C18.785,21.71 18.209,22.286 17.499,22.286L11.079,22.286C10.369,22.286 9.793,21.71 9.793,21L9.793,19.714L9.218,19.714C7.411,19.714 5.932,18.236 5.932,16.429L5.932,14.571L4.639,14.571C3.817,14.571 3.274,14.117 3.082,13.353C2.964,12.881 3.031,12.088 3.64,11.283L5.317,9.152ZM13.55,3C9.8,3 6.75,5.94 6.57,9.64L4.665,12.06C4.174,12.708 4.229,13.286 4.639,13.286L7.218,13.286L7.218,16.429C7.218,17.529 8.118,18.429 9.218,18.429L11.079,18.429L11.079,21L17.499,21L17.499,16.32C19.859,15.2 20.713,12.79 20.713,10C20.713,6.13 17.42,3 13.55,3Z" style="fill:rgb(205,205,205);"/>
                        </g>
                    </g>
                </g>
            </g>
        </g>
    </g>
</svg>
