<?xml version="1.0" encoding="UTF-8" standalone="no"?>
<!DOCTYPE svg PUBLIC "-//W3C//DTD SVG 1.1//EN" "http://www.w3.org/Graphics/SVG/1.1/DTD/svg11.dtd">
<svg width="100%" height="100%" viewBox="0 0 19 19" version="1.1" xmlns="http://www.w3.org/2000/svg" xmlns:xlink="http://www.w3.org/1999/xlink" xml:space="preserve" xmlns:serif="http://www.serif.com/" style="fill-rule:evenodd;clip-rule:evenodd;stroke-linejoin:round;stroke-miterlimit:2;">
    <g transform="matrix(1,0,0,1,-36,-4)">
        <g transform="matrix(1.63235,0,0,1.96875,3.26471,3.9375)">
            <g id="Visibility_Eye_Normal" transform="matrix(0.612613,0,0,0.507937,-9.35135,-2.50794)">
                <g id="Transparent-BG" serif:id="Transparent BG" transform="matrix(0.95,0,0,0.95,48,5)">
                    <rect x="0" y="0" width="20" height="20" style="fill:white;fill-opacity:0;"/>
                </g>
                <g id="Eye" transform="matrix(0.625,0,0,0.625,50,7)">
                    <rect id="Outline" x="0" y="0" width="24" height="24" style="fill:none;fill-rule:nonzero;"/>
                    <g id="Fill" transform="matrix(1.6,0,0,1.6,-60.8,-12.8)">
                        <path d="M45.5,11C42.545,11 40.022,12.866 39,15.5C40.022,18.134 42.545,20 45.5,20C48.455,20 50.978,18.134 52,15.5C50.978,12.866 48.455,11 45.5,11ZM45.488,12.514C47.141,12.514 48.482,13.852 48.482,15.5C48.482,17.148 47.141,18.486 45.488,18.486C43.836,18.486 42.495,17.148 42.495,15.5C42.495,13.852 43.836,12.514 45.488,12.514ZM45.5,13.676C46.507,13.676 47.324,14.493 47.324,15.5C47.324,16.507 46.507,17.324 45.5,17.324C44.493,17.324 43.676,16.507 43.676,15.5C43.676,14.493 44.493,13.676 45.5,13.676Z" style="fill:rgb(37,37,37);fill-rule:nonzero;"/>
                        <path d="M45.5,10C42.123,10 39.236,12.128 38.068,15.138C37.977,15.371 37.977,15.629 38.068,15.862C39.236,18.872 42.123,21 45.5,21C48.877,21 51.764,18.872 52.932,15.862C53.023,15.629 53.023,15.371 52.932,15.138C51.764,12.128 48.877,10 45.5,10ZM45.5,11C42.545,11 40.022,12.866 39,15.5C40.022,18.134 42.545,20 45.5,20C48.455,20 50.978,18.134 52,15.5C50.978,12.866 48.455,11 45.5,11ZM45.488,12.514C47.141,12.514 48.482,13.852 48.482,15.5C48.482,17.148 47.141,18.486 45.488,18.486C43.836,18.486 42.495,17.148 42.495,15.5C42.495,13.852 43.836,12.514 45.488,12.514ZM45.5,13.676C46.507,13.676 47.324,14.493 47.324,15.5C47.324,16.507 46.507,17.324 45.5,17.324C44.493,17.324 43.676,16.507 43.676,15.5C43.676,14.493 44.493,13.676 45.5,13.676Z" style="fill:rgb(205,205,205);"/>
                    </g>
                </g>
            </g>
        </g>
    </g>
</svg>
