<?xml version="1.0" encoding="UTF-8" standalone="no"?>
<!DOCTYPE svg PUBLIC "-//W3C//DTD SVG 1.1//EN" "http://www.w3.org/Graphics/SVG/1.1/DTD/svg11.dtd">
<svg width="100%" height="100%" viewBox="0 0 19 19" version="1.1" xmlns="http://www.w3.org/2000/svg" xmlns:xlink="http://www.w3.org/1999/xlink" xml:space="preserve" xmlns:serif="http://www.serif.com/" style="fill-rule:evenodd;clip-rule:evenodd;stroke-linejoin:round;stroke-miterlimit:2;">
    <g transform="matrix(1,0,0,1,-5,-4)">
        <g id="Visibility_ShowGameObjects_Checked" transform="matrix(1,0,0,1,5,4)">
            <g id="Close-Icon" serif:id="Close Icon" transform="matrix(0.75,0,0,0.75,-620.75,188.5)">
                <g id="Transparent-BG" serif:id="Transparent BG" transform="matrix(1.26667,0,0,1.26667,827.667,-251.333)">
                    <rect x="0" y="0" width="20" height="20" style="fill:white;fill-opacity:0;"/>
                </g>
                <g id="Hide-Pins" serif:id="Hide Pins" transform="matrix(9.33366,0,0,1.30671,648.864,-251.504)">
                    <g id="Transparent-BG1" serif:id="Transparent BG" transform="matrix(0.13571,0,0,0.969354,19.1568,0.130669)">
                        <path d="M20,1.8C20,0.807 19.193,0 18.2,0L1.8,0C0.807,0 0,0.807 0,1.8L0,18.2C0,19.193 0.807,20 1.8,20L18.2,20C19.193,20 20,19.193 20,18.2L20,1.8Z" style="fill:rgb(216,140,59);fill-opacity:0;"/>
                    </g>
                    <g transform="matrix(0.177,0,0,1.88246,-365.833,-142.122)">
                        <g id="Transparent-BG2" serif:id="Transparent BG" transform="matrix(0.766721,0,0,0.514939,2175.08,75.5674)">
                            <path d="M20,1.8C20,0.807 19.193,0 18.2,0L1.8,0C0.807,0 0,0.807 0,1.8L0,18.2C0,19.193 0.807,20 1.8,20L18.2,20C19.193,20 20,19.193 20,18.2L20,1.8Z" style="fill:rgb(216,140,59);fill-opacity:0;"/>
                        </g>
                        <g transform="matrix(0.590013,0,0,0.396293,2061.56,73.89)">
                            <path d="M197.454,15.811L195.873,14.207C195.341,13.524 195.336,12.804 195.752,12.053C196.643,11.104 198.071,10.248 199.727,10.864L201.834,9.147C201.436,7.954 201.853,6.65 202.702,5.968C203.26,5.483 204.022,5.492 204.516,5.915L209.931,11.381C210.274,11.972 210.338,12.563 209.902,13.155C209.295,13.766 208.144,14.373 206.747,14.136L205.018,16.446C205.56,18.061 204.734,19.201 203.761,20.168C203.096,20.635 202.425,20.604 201.749,20.16L200.165,18.553L197.197,21.355C196.512,21.811 195.824,21.983 195.137,22.003C194.277,22.056 193.752,21.687 193.769,20.636C193.812,19.847 194.016,19.149 194.479,18.599L197.454,15.811Z" style="fill:none;"/>
                        </g>
                    </g>
                </g>
                <g>
                    <clipPath id="_clip1">
                        <path d="M847.667,-250L829,-250L829,-231.333L836.512,-231.333C835.91,-231.92 835.388,-232.787 835.003,-234.133C836.329,-238.133 839.086,-240.463 843.667,-240.667C846.077,-240.565 846.899,-240.041 847.667,-239.501L847.667,-250Z"/>
                    </clipPath>
                    <g clip-path="url(#_clip1)">
                        <g transform="matrix(1.04762,0,0,1.08172,830.333,-250.082)">
                            <path d="M6.158,15.838C6.716,16.169 7.275,16.193 7.836,15.873L14.799,12.781C15.133,12.57 15.267,12.272 15.273,11.918L15.273,3.171C15.239,2.623 14.953,2.302 14.467,2.162L7.541,0.183C7.108,0.032 6.709,0.05 6.332,0.182L-0.308,2.109C-0.916,2.33 -1.257,2.689 -1.273,3.215L-1.273,11.699C-1.264,12.317 -1.046,12.67 -0.652,12.8L6.158,15.838Z" style="fill:none;"/>
                        </g>
                        <g transform="matrix(1.02282,0,0,0.994121,830.507,-248.763)">
                            <path d="M7.033,15L14.17,11.542L14.169,2.436L6.929,0.112L-0.17,2.436L-0.17,11.542L7.033,15ZM6.363,6.682L1.133,4.085L1.134,10.087L6.348,12.673L6.363,6.682ZM11.917,3.446L6.941,1.74L3.108,3.107L7.341,5.131L11.917,3.446Z"/>
                        </g>
                    </g>
                </g>
                <g transform="matrix(1.33333,0,0,1.33333,-2792.33,-498)">
                    <path d="M2726.96,193.988C2724.47,193.988 2722.35,195.648 2721.49,197.991C2722.35,200.334 2724.47,201.995 2726.96,201.995C2729.45,201.995 2731.57,200.334 2732.43,197.991C2731.57,195.648 2729.45,193.988 2726.96,193.988ZM2727.01,195.33C2728.48,195.33 2729.68,196.534 2729.68,198.017C2729.68,199.501 2728.48,200.705 2727.01,200.705C2725.53,200.705 2724.34,199.501 2724.34,198.017C2724.34,196.534 2725.53,195.33 2727.01,195.33Z" style="fill-rule:nonzero;"/>
                </g>
                <g transform="matrix(1.0328,1.99234e-18,1.93295e-18,1.03561,662.42,-247.957)">
                    <circle cx="175.5" cy="13.5" r="1.5"/>
                </g>
            </g>
            <g id="Star-Small" serif:id="Star Small" transform="matrix(0.628572,0,0,0.628572,-227.045,-29.82)">
                <g opacity="0">
                    <g transform="matrix(1.02941,0,0,1.02941,-19.3005,-13.2943)">
                        <rect x="382" y="59" width="17" height="17" style="fill:white;fill-opacity:0;"/>
                    </g>
                    <g transform="matrix(1.59091,0,0,1.59091,-3294.7,-324.832)">
                        <path d="M2315,243L2312.96,239.535L2316,238.132L2316,238L2312.46,237.977L2311.59,235L2311.39,235L2310.6,238.003L2306.69,238.003L2309.41,239.535L2307.7,243.303L2311.49,241.132L2315,243Z" style="fill:rgb(58,58,58);"/>
                        <path d="M2311.65,234.002L2311.7,234.007L2311.76,234.015L2311.82,234.027L2311.88,234.042L2311.93,234.061L2311.99,234.082L2312.04,234.107L2312.09,234.135L2312.14,234.166L2312.19,234.199L2312.23,234.236L2312.28,234.275L2312.32,234.316L2312.36,234.36L2312.39,234.406L2312.43,234.454L2312.45,234.504L2312.48,234.555L2312.51,234.608L2312.53,234.663L2312.55,234.718L2313.21,236.982L2316.01,237L2316.07,237.002L2316.13,237.008L2316.19,237.017L2316.24,237.03L2316.3,237.047L2316.36,237.067L2316.41,237.09L2316.47,237.117L2316.52,237.146L2316.57,237.179L2316.62,237.215L2316.67,237.254L2316.71,237.295L2316.75,237.339L2316.79,237.385L2316.82,237.434L2316.86,237.485L2316.89,237.537L2316.91,237.591L2316.94,237.647L2316.95,237.704L2316.97,237.762L2316.98,237.82L2316.99,237.88L2317,237.94L2317,238L2317,238.132L2317,238.192L2316.99,238.252L2316.98,238.311L2316.97,238.369L2316.95,238.427L2316.94,238.484L2316.91,238.539L2316.89,238.593L2316.86,238.645L2316.83,238.696L2316.79,238.744L2316.75,238.79L2316.71,238.834L2316.67,238.876L2316.62,238.914L2316.58,238.95L2316.53,238.983L2316.47,239.013L2316.42,239.04L2314.39,239.98L2315.86,242.493L2315.89,242.546L2315.92,242.601L2315.94,242.657L2315.96,242.714L2315.97,242.772L2315.99,242.831L2315.99,242.891L2316,242.951L2316,243.011L2316,243.071L2315.99,243.131L2315.98,243.191L2315.97,243.25L2315.95,243.307L2315.93,243.364L2315.91,243.42L2315.88,243.474L2315.85,243.526L2315.82,243.576L2315.78,243.624L2315.74,243.67L2315.7,243.714L2315.66,243.755L2315.61,243.793L2315.56,243.828L2315.51,243.86L2315.46,243.889L2315.4,243.915L2315.35,243.938L2315.29,243.957L2315.23,243.973L2315.17,243.985L2315.11,243.994L2315.05,243.999L2314.99,244L2314.93,243.998L2314.87,243.992L2314.81,243.982L2314.75,243.969L2314.7,243.953L2314.64,243.933L2314.58,243.909L2314.53,243.883L2311.51,242.274L2308.19,244.171L2308.14,244.199L2308.08,244.224L2308.03,244.246L2307.97,244.264L2307.91,244.279L2307.85,244.29L2307.8,244.298L2307.74,244.302L2307.68,244.302L2307.62,244.299L2307.55,244.293L2307.5,244.283L2307.44,244.269L2307.38,244.252L2307.32,244.231L2307.27,244.208L2307.22,244.18L2307.16,244.15L2307.11,244.117L2307.07,244.081L2307.02,244.042L2306.98,244L2306.94,243.956L2306.9,243.909L2306.87,243.86L2306.83,243.81L2306.8,243.757L2306.78,243.703L2306.76,243.647L2306.74,243.591L2306.72,243.533L2306.71,243.474L2306.7,243.415L2306.7,243.355L2306.7,243.295L2306.7,243.235L2306.7,243.175L2306.71,243.116L2306.72,243.058L2306.74,243L2306.76,242.944L2306.78,242.888L2308.12,239.956L2306.2,238.874L2306.15,238.844L2306.1,238.81L2306.05,238.773L2306.01,238.734L2305.97,238.691L2305.93,238.647L2305.89,238.6L2305.86,238.551L2305.83,238.5L2305.8,238.447L2305.77,238.393L2305.75,238.338L2305.73,238.281L2305.72,238.223L2305.71,238.164L2305.7,238.105L2305.69,238.045L2305.69,237.986L2305.7,237.926L2305.7,237.867L2305.71,237.808L2305.73,237.75L2305.74,237.692L2305.76,237.636L2305.79,237.581L2305.81,237.528L2305.84,237.476L2305.88,237.426L2305.91,237.379L2305.95,237.333L2305.99,237.29L2306.04,237.249L2306.08,237.212L2306.13,237.176L2306.18,237.144L2306.23,237.115L2306.29,237.089L2306.34,237.067L2306.4,237.048L2306.46,237.032L2306.51,237.019L2306.57,237.01L2306.63,237.005L2306.69,237.003L2309.83,237.003L2310.43,234.744L2310.44,234.686L2310.46,234.63L2310.49,234.576L2310.51,234.522L2310.55,234.471L2310.58,234.421L2310.61,234.374L2310.65,234.328L2310.69,234.286L2310.74,234.245L2310.78,234.207L2310.83,234.172L2310.88,234.14L2310.93,234.112L2310.99,234.086L2311.04,234.063L2311.1,234.044L2311.16,234.028L2311.22,234.016L2311.28,234.007L2311.33,234.002L2311.39,234L2311.59,234L2311.65,234.002ZM2311.39,235L2310.6,238.003L2306.69,238.003L2309.41,239.535L2307.7,243.303L2311.49,241.132L2315,243L2312.96,239.535L2316,238.132L2316,238L2312.46,237.977L2311.59,235L2311.39,235Z" style="fill:rgb(58,58,58);"/>
                    </g>
                    <g transform="matrix(1.07692,0,0,1.07692,-41.0964,-15.0269)">
                        <path d="M393.5,58.97L394.943,63.92L400.57,63.92L395.674,66.182L398.681,71.301L393.5,68.352L388.34,71.301L391.326,66.182L386.409,63.92L392.176,63.92L393.5,58.97Z" style="fill:rgb(255,159,57);"/>
                    </g>
                </g>
            </g>
        </g>
    </g>
</svg>
