<?xml version="1.0" encoding="UTF-8" standalone="no"?>
<!DOCTYPE svg PUBLIC "-//W3C//DTD SVG 1.1//EN" "http://www.w3.org/Graphics/SVG/1.1/DTD/svg11.dtd">
<svg width="100%" height="100%" viewBox="0 0 33 16" version="1.1" xmlns="http://www.w3.org/2000/svg" xmlns:xlink="http://www.w3.org/1999/xlink" xml:space="preserve" xmlns:serif="http://www.serif.com/" style="fill-rule:evenodd;clip-rule:evenodd;stroke-linejoin:round;stroke-miterlimit:2;">
    <g transform="matrix(1,0,0,1,-20,-29)">
        <g transform="matrix(0.75,0,0,0.75,-596.75,192.5)">
            <g id="Live_Normal" transform="matrix(1.33333,0,0,1.33333,-2020.33,-1855.33)">
                <g transform="matrix(2.0625,0,0,1,746,552)">
                    <path d="M688,677C688,676.448 687.783,676 687.515,676L672.485,676C672.217,676 672,676.448 672,677L672,691C672,691.552 672.217,692 672.485,692L687.515,692C687.783,692 688,691.552 688,691L688,677Z" style="fill:white;fill-opacity:0;"/>
                </g>
                <g transform="matrix(1,0,0,1,2112,1199)">
                    <path d="M29,42L24,42L24,32L26,32L26,40L29,40L29,42ZM33,42L31,42L31,32L33,32L33,42ZM42,32L39.573,42L37.401,42L35,32L37,32L38.516,40.197L40,32L42,32ZM49,42L44,42L44,32L49,32L49,34L46,34L46,36L49,36L49,38L46,38L46,40L49,40L49,42Z" style="fill:rgb(37,37,37);"/>
                    <path d="M30,42C30,42.552 29.552,43 29,43L24,43C23.448,43 23,42.552 23,42L23,32C23,31.448 23.448,31 24,31L26,31C26.552,31 27,31.448 27,32L27,39L29,39C29.552,39 30,39.448 30,40L30,32C30,31.448 30.448,31 31,31L33,31C33.552,31 34,31.448 34,32L34,42C34,42.552 33.552,43 33,43L31,43C30.448,43 30,42.552 30,42ZM49,35C49.552,35 50,35.448 50,36L50,38C50,38.552 49.552,39 49,39C49.552,39 50,39.448 50,40L50,42C50,42.552 49.552,43 49,43L44,43C43.448,43 43,42.552 43,42L43,32C43,31.448 43.448,31 44,31L49,31C49.552,31 50,31.448 50,32L50,34C50,34.552 49.552,35 49,35ZM38.506,34.641L39.016,31.822C39.102,31.346 39.516,31 40,31L42,31C42.307,31 42.596,31.141 42.786,31.382C42.976,31.623 43.044,31.938 42.972,32.236L40.544,42.236C40.436,42.684 40.034,43 39.573,43L37.401,43C36.938,43 36.536,42.683 36.428,42.233L34.028,32.233C33.956,31.936 34.025,31.621 34.215,31.381C34.404,31.14 34.694,31 35,31L37,31C37.482,31 37.896,31.344 37.983,31.818L38.506,34.641ZM33,42L31,42L31,32L33,32L33,42ZM29,42L24,42L24,32L26,32L26,40L29,40L29,42ZM49,42L44,42L44,32L49,32L49,34L46,34L46,36L49,36L49,38L46,38L46,40L49,40L49,42ZM42,32L39.573,42L37.401,42L35,32L37,32L38.516,40.197L40,32L42,32Z" style="fill:rgb(205,205,205);"/>
                </g>
            </g>
        </g>
    </g>
</svg>
