<?xml version="1.0" encoding="UTF-8" standalone="no"?><!DOCTYPE svg PUBLIC "-//W3C//DTD SVG 1.1//EN" "http://www.w3.org/Graphics/SVG/1.1/DTD/svg11.dtd"><svg width="100%" height="100%" viewBox="0 0 19 19" version="1.1" xmlns="http://www.w3.org/2000/svg" xmlns:xlink="http://www.w3.org/1999/xlink" xml:space="preserve" xmlns:serif="http://www.serif.com/" style="fill-rule:evenodd;clip-rule:evenodd;stroke-linejoin:round;stroke-miterlimit:2;"><g id="ObjectBased_StageInput_Checked"><g id="Icons"><g id="Base-Block" serif:id="Base Block"><path d="M2.66,0c-1.468,0 -2.66,1.192 -2.66,2.66l0,13.68c0,1.468 1.192,2.66 2.66,2.66l13.68,0c1.468,0 2.66,-1.192 2.66,-2.66l0,-13.68c0,-1.468 -1.192,-2.66 -2.66,-2.66l-13.68,0Z" style="fill-opacity:0;"/></g><g id="Arrow"><path d="M8,17l0,-6l3,0l0,6l-3,0Z" style="fill:#252525;"/><path d="M4,13l11,0l-5.5,-4l-5.5,4Z"/><path d="M8,17l0,-4l3,0l0,4l-3,0Z"/></g><path d="M3,7l0,-3l13,0l0,3l-13,0Z"/></g></g></svg>