<?xml version="1.0" encoding="UTF-8" standalone="no"?>
<!DOCTYPE svg PUBLIC "-//W3C//DTD SVG 1.1//EN" "http://www.w3.org/Graphics/SVG/1.1/DTD/svg11.dtd">
<svg width="100%" height="100%" viewBox="0 0 15 15" version="1.1" xmlns="http://www.w3.org/2000/svg" xmlns:xlink="http://www.w3.org/1999/xlink" xml:space="preserve" xmlns:serif="http://www.serif.com/" style="fill-rule:evenodd;clip-rule:evenodd;stroke-linejoin:round;stroke-miterlimit:1.41421;">
    <g transform="matrix(1,0,0,1,-40,-245)">
        <g transform="matrix(1,0,0,1,40,245.067)">
            <g id="SchematicView_OverrideAdvancedSettings_on">
                <g id="Icons">
                    <g transform="matrix(1,0,0,1,-40,-25.0671)">
                        <g id="Base-Block" serif:id="Base Block">
                            <path d="M55,27.1C55,25.941 54.059,25 52.9,25L42.1,25C40.941,25 40,25.941 40,27.1L40,37.9C40,39.059 40.941,40 42.1,40L52.9,40C54.059,40 55,39.059 55,37.9L55,27.1Z" style="fill-opacity:0;"/>
                        </g>
                    </g>
                    <g transform="matrix(1,0,0,1,-475,-741.067)">
                        <g id="Object-Icon-Base" serif:id="Object Icon Base">
                            <path d="M490,743.25C490,742.008 488.992,741 487.75,741L477.25,741C476.008,741 475,742.008 475,743.25L475,753.75C475,754.992 476.008,756 477.25,756L487.75,756C488.992,756 490,754.992 490,753.75L490,743.25Z" style="fill-opacity:0;"/>
                            <path d="M487.808,741.001L487.866,741.003L487.923,741.007L487.98,741.012L488.036,741.018L488.092,741.026L488.148,741.035L488.203,741.046L488.258,741.058L488.312,741.071L488.366,741.085L488.419,741.101L488.471,741.118L488.523,741.137L488.575,741.156L488.625,741.177L488.676,741.199L488.725,741.222L488.774,741.246L488.822,741.272L488.87,741.298L488.916,741.326L488.962,741.355L489.008,741.384L489.052,741.415L489.096,741.447L489.139,741.48L489.181,741.514L489.222,741.549L489.263,741.585L489.302,741.622L489.341,741.659L489.378,741.698L489.415,741.737L489.451,741.778L489.486,741.819L489.52,741.861L489.553,741.904L489.585,741.948L489.616,741.992L489.645,742.038L489.674,742.084L489.702,742.13L489.728,742.178L489.754,742.226L489.778,742.275L489.801,742.324L489.823,742.375L489.844,742.425L489.863,742.477L489.882,742.529L489.899,742.581L489.915,742.634L489.929,742.688L489.942,742.742L489.954,742.797L489.965,742.852L489.974,742.908L489.982,742.964L489.988,743.02L489.993,743.077L489.997,743.134L489.999,743.192L490,743.25L490,753.75L489.999,753.808L489.997,753.866L489.993,753.923L489.988,753.98L489.982,754.036L489.974,754.092L489.965,754.148L489.954,754.203L489.942,754.258L489.929,754.312L489.915,754.366L489.899,754.419L489.882,754.471L489.863,754.523L489.844,754.575L489.823,754.625L489.801,754.676L489.778,754.725L489.754,754.774L489.728,754.822L489.702,754.87L489.674,754.916L489.645,754.962L489.616,755.008L489.585,755.052L489.553,755.096L489.52,755.139L489.486,755.181L489.451,755.222L489.415,755.263L489.378,755.302L489.341,755.341L489.302,755.378L489.263,755.415L489.222,755.451L489.181,755.486L489.139,755.52L489.096,755.553L489.052,755.585L489.008,755.616L488.962,755.645L488.916,755.674L488.87,755.702L488.822,755.728L488.774,755.754L488.725,755.778L488.676,755.801L488.625,755.823L488.575,755.844L488.523,755.863L488.471,755.882L488.419,755.899L488.366,755.915L488.312,755.929L488.258,755.942L488.203,755.954L488.148,755.965L488.092,755.974L488.036,755.982L487.98,755.988L487.923,755.993L487.866,755.997L487.808,755.999L487.75,756L477.25,756L477.192,755.999L477.134,755.997L477.077,755.993L477.02,755.988L476.964,755.982L476.908,755.974L476.852,755.965L476.797,755.954L476.742,755.942L476.688,755.929L476.634,755.915L476.581,755.899L476.529,755.882L476.477,755.863L476.425,755.844L476.375,755.823L476.324,755.801L476.275,755.778L476.226,755.754L476.178,755.728L476.13,755.702L476.084,755.674L476.038,755.645L475.992,755.616L475.948,755.585L475.904,755.553L475.861,755.52L475.819,755.486L475.778,755.451L475.737,755.415L475.698,755.378L475.659,755.341L475.622,755.302L475.585,755.263L475.549,755.222L475.514,755.181L475.48,755.139L475.447,755.096L475.415,755.052L475.384,755.008L475.355,754.962L475.326,754.916L475.298,754.87L475.272,754.822L475.246,754.774L475.222,754.725L475.199,754.676L475.177,754.625L475.156,754.575L475.137,754.523L475.118,754.471L475.101,754.419L475.085,754.366L475.071,754.312L475.058,754.258L475.046,754.203L475.035,754.148L475.026,754.092L475.018,754.036L475.012,753.98L475.007,753.923L475.003,753.866L475.001,753.808L475,753.75L475,743.25L475.001,743.192L475.003,743.134L475.007,743.077L475.012,743.02L475.018,742.964L475.026,742.908L475.035,742.852L475.046,742.797L475.058,742.742L475.071,742.688L475.085,742.634L475.101,742.581L475.118,742.529L475.137,742.477L475.156,742.425L475.177,742.375L475.199,742.324L475.222,742.275L475.246,742.226L475.272,742.178L475.298,742.13L475.326,742.084L475.355,742.038L475.384,741.992L475.415,741.948L475.447,741.904L475.48,741.861L475.514,741.819L475.549,741.778L475.585,741.737L475.622,741.698L475.659,741.659L475.698,741.622L475.737,741.585L475.778,741.549L475.819,741.514L475.861,741.48L475.904,741.447L475.948,741.415L475.992,741.384L476.038,741.355L476.084,741.326L476.13,741.298L476.178,741.272L476.226,741.246L476.275,741.222L476.324,741.199L476.375,741.177L476.425,741.156L476.477,741.137L476.529,741.118L476.581,741.101L476.634,741.085L476.688,741.071L476.742,741.058L476.797,741.046L476.852,741.035L476.908,741.026L476.964,741.018L477.02,741.012L477.077,741.007L477.134,741.003L477.192,741.001L477.25,741L487.75,741L487.808,741.001ZM477.256,742L477.217,742L477.185,742.002L477.153,742.004L477.121,742.007L477.09,742.01L477.059,742.015L477.028,742.02L476.997,742.026L476.967,742.032L476.938,742.039L476.908,742.047L476.878,742.056L476.85,742.065L476.821,742.076L476.792,742.087L476.764,742.098L476.737,742.11L476.709,742.123L476.682,742.136L476.656,742.15L476.629,742.165L476.603,742.181L476.578,742.197L476.552,742.213L476.528,742.23L476.503,742.248L476.479,742.266L476.456,742.285L476.433,742.305L476.41,742.325L476.388,742.345L476.366,742.366L476.345,742.388L476.325,742.41L476.305,742.433L476.285,742.456L476.266,742.479L476.248,742.503L476.23,742.528L476.213,742.552L476.197,742.577L476.18,742.603L476.165,742.629L476.15,742.655L476.136,742.682L476.123,742.709L476.11,742.737L476.098,742.764L476.086,742.792L476.076,742.821L476.066,742.85L476.056,742.878L476.047,742.908L476.039,742.937L476.032,742.967L476.025,742.997L476.02,743.028L476.015,743.059L476.01,743.09L476.007,743.121L476.004,743.153L476.002,743.185L476,743.217L476,743.256L476,753.744L476,753.783L476.002,753.815L476.004,753.847L476.007,753.879L476.01,753.91L476.015,753.941L476.02,753.972L476.025,754.003L476.032,754.033L476.039,754.063L476.047,754.092L476.056,754.122L476.066,754.15L476.076,754.179L476.086,754.208L476.098,754.236L476.11,754.263L476.123,754.291L476.136,754.318L476.15,754.345L476.165,754.371L476.181,754.397L476.196,754.422L476.213,754.448L476.23,754.472L476.248,754.497L476.266,754.521L476.285,754.544L476.305,754.567L476.325,754.59L476.345,754.612L476.366,754.634L476.388,754.655L476.41,754.675L476.433,754.695L476.456,754.715L476.479,754.734L476.503,754.752L476.528,754.77L476.552,754.787L476.578,754.804L476.603,754.819L476.629,754.835L476.655,754.85L476.682,754.864L476.709,754.877L476.737,754.89L476.764,754.902L476.792,754.914L476.821,754.924L476.849,754.934L476.878,754.944L476.908,754.953L476.937,754.961L476.967,754.968L476.998,754.975L477.028,754.98L477.059,754.985L477.09,754.99L477.121,754.993L477.153,754.996L477.185,754.998L477.217,755L477.256,755L487.744,755L487.783,755L487.815,754.998L487.847,754.996L487.879,754.993L487.91,754.99L487.941,754.985L487.972,754.98L488.002,754.975L488.033,754.968L488.063,754.961L488.092,754.953L488.122,754.944L488.151,754.934L488.179,754.924L488.208,754.914L488.236,754.902L488.263,754.89L488.291,754.877L488.318,754.864L488.345,754.85L488.371,754.835L488.397,754.819L488.422,754.804L488.448,754.787L488.472,754.77L488.497,754.752L488.521,754.734L488.544,754.715L488.567,754.695L488.59,754.675L488.612,754.655L488.634,754.634L488.655,754.612L488.675,754.59L488.695,754.567L488.715,754.544L488.734,754.521L488.752,754.497L488.77,754.472L488.787,754.448L488.804,754.422L488.819,754.397L488.835,754.371L488.85,754.345L488.864,754.318L488.877,754.291L488.89,754.263L488.902,754.236L488.914,754.208L488.924,754.179L488.934,754.15L488.944,754.122L488.953,754.092L488.961,754.063L488.968,754.033L488.975,754.003L488.98,753.972L488.985,753.941L488.99,753.91L488.993,753.879L488.996,753.847L488.998,753.815L489,753.783L489,753.744L489,743.256L489,743.217L488.998,743.185L488.996,743.153L488.993,743.121L488.99,743.09L488.985,743.059L488.98,743.028L488.975,742.997L488.968,742.967L488.961,742.937L488.953,742.908L488.944,742.878L488.934,742.85L488.924,742.821L488.914,742.792L488.902,742.764L488.89,742.737L488.877,742.709L488.864,742.682L488.85,742.655L488.835,742.629L488.82,742.603L488.803,742.577L488.787,742.552L488.77,742.528L488.752,742.503L488.734,742.479L488.715,742.456L488.695,742.433L488.675,742.41L488.655,742.388L488.634,742.366L488.612,742.345L488.59,742.325L488.567,742.305L488.544,742.285L488.521,742.266L488.497,742.248L488.472,742.23L488.448,742.213L488.422,742.196L488.397,742.181L488.371,742.165L488.344,742.15L488.318,742.136L488.291,742.123L488.263,742.11L488.236,742.098L488.208,742.087L488.179,742.076L488.15,742.065L488.122,742.056L488.092,742.047L488.062,742.039L488.033,742.032L488.003,742.026L487.972,742.02L487.941,742.015L487.91,742.01L487.879,742.007L487.847,742.004L487.815,742.002L487.783,742L487.744,742L477.256,742Z" style="fill:rgb(45,45,45);fill-opacity:0;"/>
                        </g>
                    </g>
                    <g transform="matrix(1,0,0,1,1.22213e-12,-0.0671476)">
                        <path d="M6.18,14L2.82,14C1.816,14 1,13.184 1,12.18L1,8.82C1,8.301 1.218,7.832 1.57,7.5C1.218,7.168 1,6.699 1,6.18L1,2.82C1,1.817 1.812,1.003 2.82,1L6.18,1C6.701,1.002 7.17,1.22 7.5,1.57C7.83,1.22 8.296,1.002 8.82,1L12.18,1C13.188,1.003 14,1.817 14,2.82L14,6.18C14,6.699 13.782,7.168 13.43,7.5C13.782,7.832 14,8.301 14,8.82L14,12.18C14,13.179 13.193,13.991 12.18,14L8.82,14C8.301,14 7.832,13.782 7.5,13.43C7.172,13.778 6.709,13.995 6.18,14ZM13,13L13,8L8,8L8,13L13,13ZM7,13L7,8L2,8L2,13L7,13ZM6,9L6,12L3,12L3,9L6,9ZM7,7L7,2L2,2L2,7L7,7ZM13,7L13,2L8,2L8,7L13,7ZM6,3L6,6L3,6L3,3L6,3ZM12,3L12,6L9,6L9,3L12,3Z" style="fill:rgb(51,51,51);"/>
                    </g>
                    <g transform="matrix(1,0,0,1,1.22258e-12,-125.067)">
                        <path d="M8,133L13,133L13,138L8,138L8,133ZM7,133L7,138L2,138L2,133L7,133ZM6,137L6,134L3,134L3,137L6,137ZM2,127L7,127L7,132L2,132L2,127ZM13,127L13,132L8,132L8,127L13,127ZM6,128L3,128L3,131L6,131L6,128ZM12,131L12,128L9,128L9,131L12,131Z" style="fill:rgb(230,157,55);"/>
                    </g>
                </g>
            </g>
        </g>
    </g>
</svg>
